<?xml version="1.0" encoding="UTF-8" standalone="no"?>
<!DOCTYPE svg PUBLIC "-//W3C//DTD SVG 1.0//EN" "http://www.w3.org/TR/2001/PR-SVG-20010719/DTD/svg10.dtd">
<svg width="32cm" height="20cm" viewBox="80 59 623 384" xmlns="http://www.w3.org/2000/svg" xmlns:xlink="http://www.w3.org/1999/xlink">
  <g>
    <rect style="fill: #ffffff" x="241" y="60" width="118" height="80"/>
    <rect style="fill: none; fill-opacity:0; stroke-width: 2; stroke: #000000" x="241" y="60" width="118" height="80"/>
  </g>
  <g>
    <rect style="fill: #ffffff" x="242.1" y="200.2" width="118" height="80"/>
    <rect style="fill: none; fill-opacity:0; stroke-width: 2; stroke: #000000" x="242.1" y="200.2" width="118" height="80"/>
  </g>
  <g>
    <rect style="fill: #ffffff" x="422.2" y="60.4" width="118" height="80"/>
    <rect style="fill: none; fill-opacity:0; stroke-width: 2; stroke: #000000" x="422.2" y="60.4" width="118" height="80"/>
  </g>
  <g>
    <rect style="fill: #ffffff" x="423.3" y="198.6" width="118" height="80"/>
    <rect style="fill: none; fill-opacity:0; stroke-width: 2; stroke: #000000" x="423.3" y="198.6" width="118" height="80"/>
  </g>
  <g>
    <rect style="fill: #ffffff" x="81.4" y="379" width="118" height="62.8"/>
    <rect style="fill: none; fill-opacity:0; stroke-width: 2; stroke: #000000" x="81.4" y="379" width="118" height="62.8"/>
  </g>
  <g>
    <rect style="fill: #ffffff" x="242.5" y="381" width="118" height="60"/>
    <rect style="fill: none; fill-opacity:0; stroke-width: 2; stroke: #000000" x="242.5" y="381" width="118" height="60"/>
  </g>
  <g>
    <rect style="fill: #ffffff" x="400.6" y="381" width="118" height="60.2"/>
    <rect style="fill: none; fill-opacity:0; stroke-width: 2; stroke: #000000" x="400.6" y="381" width="118" height="60.2"/>
  </g>
  <g>
    <rect style="fill: #ffffff" x="242.1" y="280.2" width="118" height="60.2"/>
    <rect style="fill: none; fill-opacity:0; stroke-width: 2; stroke: #000000" x="242.1" y="280.2" width="118" height="60.2"/>
  </g>
  <text style="fill: #000000;text-anchor:start;font-size:12.7998;font-family:sanserif;font-style:normal;font-weight:normal" x="454.2" y="101.4">
    <tspan x="454.2" y="101.4">NARB/RCE</tspan>
  </text>
  <text style="fill: #000000;text-anchor:start;font-size:12.7998;font-family:sanserif;font-style:normal;font-weight:normal" x="272" y="104">
    <tspan x="272" y="104">OSPF-TE</tspan>
  </text>
  <text style="fill: #000000;text-anchor:start;font-size:12.7998;font-family:sanserif;font-style:normal;font-weight:normal" x="278.1" y="244.2">
    <tspan x="278.1" y="244.2">RSVP-TE</tspan>
  </text>
  <text style="fill: #000000;text-anchor:start;font-size:12.7998;font-family:sanserif;font-style:normal;font-weight:normal" x="463.3" y="240.6">
    <tspan x="463.3" y="240.6">Dragon</tspan>
  </text>
  <text style="fill: #000000;text-anchor:start;font-size:12.7998;font-family:sanserif;font-style:normal;font-weight:normal" x="266.1" y="306.3">
    <tspan x="266.1" y="306.3">Data Plane </tspan>
    <tspan x="266.1" y="322.3">Controllers</tspan>
  </text>
  <text style="fill: #000000;text-anchor:start;font-size:12.7998;font-family:sanserif;font-style:normal;font-weight:normal" x="103.4" y="412.4">
    <tspan x="103.4" y="412.4">Linux MPLS</tspan>
  </text>
  <text style="fill: #000000;text-anchor:start;font-size:12.7998;font-family:sanserif;font-style:normal;font-weight:normal" x="254.5" y="413">
    <tspan x="254.5" y="413">Linux Eth/Optic</tspan>
  </text>
  <text style="fill: #000000;text-anchor:start;font-size:12.7998;font-family:sanserif;font-style:normal;font-weight:normal" x="426.6" y="407.1">
    <tspan x="426.6" y="407.1">  Ethernet </tspan>
    <tspan x="426.6" y="423.1">Switchcore</tspan>
  </text>
  <line style="fill: none; fill-opacity:0; stroke-width: 2; stroke: #000000" x1="301.1" y1="340.4" x2="301.5" y2="381"/>
  <line style="fill: none; fill-opacity:0; stroke-width: 2; stroke: #000000" x1="301.1" y1="340.4" x2="140.4" y2="379"/>
  <line style="fill: none; fill-opacity:0; stroke-width: 2; stroke: #000000" x1="301.1" y1="340.4" x2="459.6" y2="381"/>
  <line style="fill: none; fill-opacity:0; stroke-width: 2; stroke: #000000" x1="85" y1="241" x2="242.1" y2="240.2"/>
  <line style="fill: none; fill-opacity:0; stroke-width: 2; stroke: #000000" x1="83" y1="101" x2="241" y2="100"/>
  <line style="fill: none; fill-opacity:0; stroke-width: 2; stroke: #000000" x1="540.2" y1="100.4" x2="697.106" y2="99.2063"/>
  <line style="fill: none; fill-opacity:0; stroke-width: 2; stroke: #000000" x1="541.3" y1="238.6" x2="702.206" y2="238.406"/>
  <line style="fill: none; fill-opacity:0; stroke-width: 2; stroke: #000000" x1="518.6" y1="411.1" x2="677.306" y2="410.606"/>
  <g>
    <line style="fill: none; fill-opacity:0; stroke-width: 2; stroke: #000000" x1="365.57" y1="239.631" x2="417.83" y2="239.169"/>
    <polyline style="fill: none; fill-opacity:0; stroke-width: 2; stroke: #000000" points="373.29,234.562 363.334,239.65 373.378,244.562 "/>
    <polyline style="fill: none; fill-opacity:0; stroke-width: 2; stroke: #000000" points="410.11,244.238 420.066,239.15 410.022,234.238 "/>
  </g>
  <g>
    <line style="fill: none; fill-opacity:0; stroke-width: 2; stroke: #000000" x1="300.049" y1="144.472" x2="300.601" y2="194.722"/>
    <polyline style="fill: none; fill-opacity:0; stroke-width: 2; stroke: #000000" points="305.134,152.18 300.025,142.236 295.135,152.29 "/>
    <polyline style="fill: none; fill-opacity:0; stroke-width: 2; stroke: #000000" points="295.516,187.014 300.625,196.958 305.515,186.904 "/>
  </g>
  <g>
    <line style="fill: none; fill-opacity:0; stroke-width: 2; stroke: #000000" x1="424.849" y1="144.142" x2="357.451" y2="196.458"/>
    <polyline style="fill: none; fill-opacity:0; stroke-width: 2; stroke: #000000" points="421.781,152.852 426.615,142.771 415.65,144.953 "/>
    <polyline style="fill: none; fill-opacity:0; stroke-width: 2; stroke: #000000" points="360.519,187.748 355.685,197.829 366.65,195.647 "/>
  </g>
  <g>
    <line style="fill: none; fill-opacity:0; stroke-width: 2; stroke: #000000" x1="364.47" y1="100.142" x2="416.73" y2="100.258"/>
    <polyline style="fill: none; fill-opacity:0; stroke-width: 2; stroke: #000000" points="372.245,95.1595 362.234,100.137 372.223,105.159 "/>
    <polyline style="fill: none; fill-opacity:0; stroke-width: 2; stroke: #000000" points="408.955,105.241 418.966,100.263 408.977,95.2406 "/>
  </g>
  <text style="fill: #000000;text-anchor:start;font-size:12.7998;font-family:sanserif;font-style:normal;font-weight:normal" x="381" y="93">
    <tspan x="381" y="93">IPC</tspan>
  </text>
  <text style="fill: #000000;text-anchor:start;font-size:12.7998;font-family:sanserif;font-style:normal;font-weight:normal" x="267.1" y="176.1">
    <tspan x="267.1" y="176.1">IPC</tspan>
  </text>
  <text style="fill: #000000;text-anchor:start;font-size:12.7998;font-family:sanserif;font-style:normal;font-weight:normal" x="382.2" y="234.3">
    <tspan x="382.2" y="234.3">IPC</tspan>
  </text>
  <text style="fill: #000000;text-anchor:start;font-size:12.7998;font-family:sanserif;font-style:normal;font-weight:normal" x="102" y="96">
    <tspan x="102" y="96">Control Plane</tspan>
  </text>
  <text style="fill: #000000;text-anchor:start;font-size:12.7998;font-family:sanserif;font-style:normal;font-weight:normal" x="103.1" y="236.1">
    <tspan x="103.1" y="236.1">Control Plane</tspan>
  </text>
  <text style="fill: #000000;text-anchor:start;font-size:12.7998;font-family:sanserif;font-style:normal;font-weight:normal" x="570.2" y="95.3">
    <tspan x="570.2" y="95.3">Control Plane</tspan>
  </text>
  <text style="fill: #000000;text-anchor:start;font-size:12.7998;font-family:sanserif;font-style:normal;font-weight:normal" x="569.3" y="232.5">
    <tspan x="569.3" y="232.5">Control Plane</tspan>
  </text>
  <text style="fill: #000000;text-anchor:start;font-size:12.7998;font-family:sanserif;font-style:normal;font-weight:normal" x="560.1" y="407.1">
    <tspan x="560.1" y="407.1">Data Plane </tspan>
    <tspan x="560.1" y="423.1">Controllers</tspan>
  </text>
  <text style="fill: #000000;text-anchor:start;font-size:12.7998;font-family:sanserif;font-style:normal;font-weight:normal" x="118" y="114">
    <tspan x="118" y="114">Routing</tspan>
  </text>
  <text style="fill: #000000;text-anchor:start;font-size:12.7998;font-family:sanserif;font-style:normal;font-weight:normal" x="114" y="254">
    <tspan x="114" y="254">Signaling</tspan>
  </text>
  <text style="fill: #000000;text-anchor:start;font-size:12.7998;font-family:sanserif;font-style:normal;font-weight:normal" x="566" y="115">
    <tspan x="566" y="115">Path Calculation</tspan>
  </text>
  <text style="fill: #000000;text-anchor:start;font-size:12.7998;font-family:sanserif;font-style:normal;font-weight:normal" x="572" y="252">
    <tspan x="572" y="252">LSP Initiation</tspan>
  </text>
  <text style="fill: #000000;text-anchor:start;font-size:12.7998;font-family:sanserif;font-style:normal;font-weight:normal" x="377" y="165">
    <tspan x="377" y="165">IP</tspan>
  </text>
  <text style="fill: #000000;text-anchor:start;font-size:12.7998;font-family:sanserif;font-style:normal;font-weight:normal" x="359" y="19">
    <tspan x="359" y="19"></tspan>
  </text>
  <text style="fill: #000000;text-anchor:start;font-size:12.7998;font-family:sanserif;font-style:normal;font-weight:normal" x="360" y="479">
    <tspan x="360" y="479"></tspan>
  </text>
  <text style="fill: #000000;text-anchor:start;font-size:12.7998;font-family:sanserif;font-style:normal;font-weight:normal" x="341" y="21">
    <tspan x="341" y="21"></tspan>
  </text>
</svg>
