<?xml version="1.0" encoding="UTF-8" standalone="no"?>
<!DOCTYPE svg PUBLIC "-//W3C//DTD SVG 1.0//EN" "http://www.w3.org/TR/2001/PR-SVG-20010719/DTD/svg10.dtd">
<svg width="37cm" height="23cm" viewBox="94 69 735 453" xmlns="http://www.w3.org/2000/svg" xmlns:xlink="http://www.w3.org/1999/xlink">
  <g>
    <g>
      <rect style="fill: #d8e5e5" x="284.052" y="70.7182" width="139.079" height="94.291"/>
      <rect style="fill: none; fill-opacity:0; stroke-width: 2.4; stroke: #ffffff" x="284.052" y="70.7182" width="139.079" height="94.291"/>
    </g>
    <rect style="fill: none; fill-opacity:0; stroke-width: 2.4; stroke: #000000" x="284.052" y="70.7182" width="139.079" height="94.291"/>
  </g>
  <g>
    <g>
      <rect style="fill: #d8e5e5" x="285.348" y="235.963" width="139.079" height="94.291"/>
      <rect style="fill: none; fill-opacity:0; stroke-width: 2.4; stroke: #ffffff" x="285.348" y="235.963" width="139.079" height="94.291"/>
    </g>
    <rect style="fill: none; fill-opacity:0; stroke-width: 2.4; stroke: #000000" x="285.348" y="235.963" width="139.079" height="94.291"/>
  </g>
  <g>
    <g>
      <rect style="fill: #d8e5e5" x="497.621" y="71.1897" width="139.079" height="94.291"/>
      <rect style="fill: none; fill-opacity:0; stroke-width: 2.4; stroke: #ffffff" x="497.621" y="71.1897" width="139.079" height="94.291"/>
    </g>
    <rect style="fill: none; fill-opacity:0; stroke-width: 2.4; stroke: #000000" x="497.621" y="71.1897" width="139.079" height="94.291"/>
  </g>
  <g>
    <g>
      <rect style="fill: #d8e5e5" x="498.917" y="234.077" width="139.079" height="94.291"/>
      <rect style="fill: none; fill-opacity:0; stroke-width: 2.4; stroke: #ffffff" x="498.917" y="234.077" width="139.079" height="94.291"/>
    </g>
    <rect style="fill: none; fill-opacity:0; stroke-width: 2.4; stroke: #000000" x="498.917" y="234.077" width="139.079" height="94.291"/>
  </g>
  <g>
    <g>
      <rect style="fill: #ffffff" x="95.9411" y="446.703" width="139.079" height="74.0184"/>
      <rect style="fill: none; fill-opacity:0; stroke-width: 0.02; stroke: #ffffff" x="95.9411" y="446.703" width="139.079" height="74.0184"/>
    </g>
    <rect style="fill: none; fill-opacity:0; stroke-width: 2.35727; stroke: #000000" x="95.9411" y="446.703" width="139.079" height="74.0184"/>
  </g>
  <g>
    <g>
      <rect style="fill: #ffffff" x="285.82" y="449.061" width="139.079" height="70.7182"/>
      <rect style="fill: none; fill-opacity:0; stroke-width: 0.02; stroke: #ffffff" x="285.82" y="449.061" width="139.079" height="70.7182"/>
    </g>
    <rect style="fill: none; fill-opacity:0; stroke-width: 2.35727; stroke: #000000" x="285.82" y="449.061" width="139.079" height="70.7182"/>
  </g>
  <g>
    <g>
      <rect style="fill: #ffffff" x="472.162" y="449.061" width="139.079" height="70.954"/>
      <rect style="fill: none; fill-opacity:0; stroke-width: 0.02; stroke: #ffffff" x="472.162" y="449.061" width="139.079" height="70.954"/>
    </g>
    <rect style="fill: none; fill-opacity:0; stroke-width: 2.35727; stroke: #000000" x="472.162" y="449.061" width="139.079" height="70.954"/>
  </g>
  <g>
    <g>
      <rect style="fill: #ffffff" x="285.348" y="330.254" width="139.079" height="70.954"/>
      <rect style="fill: none; fill-opacity:0; stroke-width: 0.02; stroke: #ffffff" x="285.348" y="330.254" width="139.079" height="70.954"/>
    </g>
    <rect style="fill: none; fill-opacity:0; stroke-width: 2.35727; stroke: #000000" x="285.348" y="330.254" width="139.079" height="70.954"/>
  </g>
  <text style="fill: #000000;text-anchor:start;font-size:12.0684;font-family:sanserif;font-style:normal;font-weight:normal" x="535.337" y="119.514">
    <tspan x="535.337" y="119.514">NARB/RCE</tspan>
  </text>
  <text style="fill: #000000;text-anchor:start;font-size:12.0684;font-family:sanserif;font-style:normal;font-weight:normal" x="320.589" y="122.578">
    <tspan x="320.589" y="122.578">OSPF-TE</tspan>
  </text>
  <text style="fill: #000000;text-anchor:start;font-size:12.0684;font-family:sanserif;font-style:normal;font-weight:normal" x="327.779" y="287.823">
    <tspan x="327.779" y="287.823">RSVP-TE</tspan>
  </text>
  <text style="fill: #000000;text-anchor:start;font-size:12.0684;font-family:sanserif;font-style:normal;font-weight:normal" x="546.063" y="283.58">
    <tspan x="546.063" y="283.58">Dragon</tspan>
  </text>
  <text style="fill: #000000;text-anchor:start;font-size:12.0684;font-family:sanserif;font-style:normal;font-weight:normal" x="313.635" y="361.017">
    <tspan x="313.635" y="361.017">Data Plane </tspan>
    <tspan x="313.635" y="376.103">Controllers</tspan>
  </text>
  <text style="fill: #000000;text-anchor:start;font-size:12.0684;font-family:sanserif;font-style:normal;font-weight:normal" x="121.871" y="486.07">
    <tspan x="121.871" y="486.07">Linux MPLS</tspan>
  </text>
  <text style="fill: #000000;text-anchor:start;font-size:12.0684;font-family:sanserif;font-style:normal;font-weight:normal" x="299.963" y="486.777">
    <tspan x="299.963" y="486.777">Linux Eth/Optic</tspan>
  </text>
  <text style="fill: #000000;text-anchor:start;font-size:12.0684;font-family:sanserif;font-style:normal;font-weight:normal" x="502.807" y="479.823">
    <tspan x="502.807" y="479.823">  Ethernet </tspan>
    <tspan x="502.807" y="494.91">Switchcore</tspan>
  </text>
  <line style="fill: none; fill-opacity:0; stroke-width: 2.35727; stroke: #000000" x1="354.888" y1="401.208" x2="355.359" y2="449.061"/>
  <line style="fill: none; fill-opacity:0; stroke-width: 2.35727; stroke: #000000" x1="354.888" y1="401.208" x2="165.481" y2="446.703"/>
  <line style="fill: none; fill-opacity:0; stroke-width: 2.35727; stroke: #000000" x1="354.888" y1="401.208" x2="541.702" y2="449.061"/>
  <line style="fill: none; fill-opacity:0; stroke-width: 2.35727; stroke: #000000" x1="100.184" y1="284.052" x2="285.348" y2="283.109"/>
  <line style="fill: none; fill-opacity:0; stroke-width: 2.35727; stroke: #000000" x1="97.8269" y1="119.042" x2="284.052" y2="117.864"/>
  <line style="fill: none; fill-opacity:0; stroke-width: 2.35727; stroke: #000000" x1="636.7" y1="118.335" x2="821.635" y2="116.928"/>
  <line style="fill: none; fill-opacity:0; stroke-width: 2.35727; stroke: #000000" x1="637.996" y1="281.223" x2="827.646" y2="280.994"/>
  <line style="fill: none; fill-opacity:0; stroke-width: 2.35727; stroke: #000000" x1="611.241" y1="484.538" x2="798.298" y2="483.956"/>
  <g>
    <line style="fill: none; fill-opacity:0; stroke-width: 2.35727; stroke: #000000" x1="430.874" y1="282.438" x2="492.47" y2="281.893"/>
    <polyline style="fill: none; fill-opacity:0; stroke-width: 2.35727; stroke: #000000" points="439.973,276.463 428.239,282.46 440.077,288.25 "/>
    <polyline style="fill: none; fill-opacity:0; stroke-width: 2.35727; stroke: #000000" points="483.371,287.868 495.105,281.871 483.267,276.082 "/>
  </g>
  <g>
    <line style="fill: none; fill-opacity:0; stroke-width: 2.35727; stroke: #000000" x1="353.649" y1="170.28" x2="354.3" y2="229.507"/>
    <polyline style="fill: none; fill-opacity:0; stroke-width: 2.35727; stroke: #000000" points="359.642,179.365 353.621,167.645 347.857,179.495 "/>
    <polyline style="fill: none; fill-opacity:0; stroke-width: 2.35727; stroke: #000000" points="348.306,220.422 354.328,232.142 360.091,220.292 "/>
  </g>
  <g>
    <line style="fill: none; fill-opacity:0; stroke-width: 2.35727; stroke: #000000" x1="500.743" y1="169.891" x2="421.305" y2="231.553"/>
    <polyline style="fill: none; fill-opacity:0; stroke-width: 2.35727; stroke: #000000" points="497.127,180.157 502.824,168.275 489.901,170.847 "/>
    <polyline style="fill: none; fill-opacity:0; stroke-width: 2.35727; stroke: #000000" points="424.921,221.287 419.224,233.169 432.147,230.597 "/>
  </g>
  <g>
    <line style="fill: none; fill-opacity:0; stroke-width: 2.35727; stroke: #000000" x1="429.578" y1="118.031" x2="491.173" y2="118.168"/>
    <polyline style="fill: none; fill-opacity:0; stroke-width: 2.35727; stroke: #000000" points="438.742,112.159 426.942,118.025 438.716,123.944 "/>
    <polyline style="fill: none; fill-opacity:0; stroke-width: 2.35727; stroke: #000000" points="482.01,124.041 493.809,118.174 482.036,112.254 "/>
  </g>
  <text style="fill: #000000;text-anchor:start;font-size:12.0684;font-family:sanserif;font-style:normal;font-weight:normal" x="449.061" y="109.613">
    <tspan x="449.061" y="109.613">IPC</tspan>
  </text>
  <text style="fill: #000000;text-anchor:start;font-size:12.0684;font-family:sanserif;font-style:normal;font-weight:normal" x="314.814" y="207.558">
    <tspan x="314.814" y="207.558">IPC</tspan>
  </text>
  <text style="fill: #000000;text-anchor:start;font-size:12.0684;font-family:sanserif;font-style:normal;font-weight:normal" x="450.475" y="276.155">
    <tspan x="450.475" y="276.155">IPC</tspan>
  </text>
  <text style="fill: #000000;text-anchor:start;font-size:12.0684;font-family:sanserif;font-style:normal;font-weight:normal" x="120.221" y="113.149">
    <tspan x="120.221" y="113.149">Control Plane</tspan>
  </text>
  <text style="fill: #000000;text-anchor:start;font-size:12.0684;font-family:sanserif;font-style:normal;font-weight:normal" x="121.517" y="278.276">
    <tspan x="121.517" y="278.276">Control Plane</tspan>
  </text>
  <text style="fill: #000000;text-anchor:start;font-size:12.0684;font-family:sanserif;font-style:normal;font-weight:normal" x="672.059" y="112.324">
    <tspan x="672.059" y="112.324">Control Plane</tspan>
  </text>
  <text style="fill: #000000;text-anchor:start;font-size:12.0684;font-family:sanserif;font-style:normal;font-weight:normal" x="670.998" y="274.033">
    <tspan x="670.998" y="274.033">Control Plane</tspan>
  </text>
  <text style="fill: #000000;text-anchor:start;font-size:12.0684;font-family:sanserif;font-style:normal;font-weight:normal" x="660.155" y="479.823">
    <tspan x="660.155" y="479.823">Data Plane </tspan>
    <tspan x="660.155" y="494.91">Controllers</tspan>
  </text>
  <text style="fill: #000000;text-anchor:start;font-size:12.0684;font-family:sanserif;font-style:normal;font-weight:normal" x="139.079" y="134.365">
    <tspan x="139.079" y="134.365">Routing</tspan>
  </text>
  <text style="fill: #000000;text-anchor:start;font-size:12.0684;font-family:sanserif;font-style:normal;font-weight:normal" x="134.365" y="299.374">
    <tspan x="134.365" y="299.374">Signaling</tspan>
  </text>
  <text style="fill: #000000;text-anchor:start;font-size:12.0684;font-family:sanserif;font-style:normal;font-weight:normal" x="667.109" y="135.543">
    <tspan x="667.109" y="135.543">Path Calculation</tspan>
  </text>
  <text style="fill: #000000;text-anchor:start;font-size:12.0684;font-family:sanserif;font-style:normal;font-weight:normal" x="674.18" y="297.017">
    <tspan x="674.18" y="297.017">LSP Initiation</tspan>
  </text>
  <text style="fill: #000000;text-anchor:start;font-size:12.0684;font-family:sanserif;font-style:normal;font-weight:normal" x="444.346" y="194.475">
    <tspan x="444.346" y="194.475">IP</tspan>
  </text>
  <text style="fill: #000000;text-anchor:start;font-size:12.0684;font-family:sanserif;font-style:normal;font-weight:normal" x="423.131" y="22.3941">
    <tspan x="423.131" y="22.3941"></tspan>
  </text>
  <text style="fill: #000000;text-anchor:start;font-size:12.0684;font-family:sanserif;font-style:normal;font-weight:normal" x="424.309" y="564.567">
    <tspan x="424.309" y="564.567"></tspan>
  </text>
  <text style="fill: #000000;text-anchor:start;font-size:12.0684;font-family:sanserif;font-style:normal;font-weight:normal" x="401.915" y="24.7514">
    <tspan x="401.915" y="24.7514"></tspan>
  </text>
</svg>
