<?xml version="1.0" encoding="UTF-8" standalone="no"?>
<!DOCTYPE svg PUBLIC "-//W3C//DTD SVG 1.0//EN" "http://www.w3.org/TR/2001/PR-SVG-20010719/DTD/svg10.dtd">
<svg width="23cm" height="15cm" viewBox="106 272 451 281" xmlns="http://www.w3.org/2000/svg" xmlns:xlink="http://www.w3.org/1999/xlink">
  <g>
    <path style="fill: #0078aa" d="M 358.121 351.638 L 358.081,351.165 L 357.98,350.681 L 357.809,350.197 L 357.557,349.734 L 357.245,349.25 L 356.862,348.796 L 356.418,348.333 L 355.884,347.889 L 355.309,347.456 L 354.664,347.032 L 353.949,346.599 L 353.183,346.206 L 352.356,345.813 L 351.479,345.44 L 350.532,345.087 L 349.554,344.745 L 348.516,344.422 L 347.428,344.12 L 346.309,343.827 L 345.14,343.565 L 343.94,343.323 L 342.691,343.102 L 341.421,342.88 L 340.131,342.699 L 338.81,342.557 L 337.47,342.426 L 336.099,342.316 L 334.738,342.235 L 333.358,342.174 L 331.947,342.124 L 330.556,342.124 L 330.556,342.124 L 329.165,342.124 L 327.764,342.174 L 326.383,342.235 L 325.012,342.316 L 323.652,342.426 L 322.311,342.557 L 320.981,342.699 L 319.691,342.88 L 318.421,343.102 L 317.181,343.323 L 315.972,343.565 L 314.802,343.827 L 313.684,344.12 L 312.595,344.422 L 311.567,344.745 L 310.579,345.087 L 309.642,345.44 L 308.755,345.813 L 307.929,346.206 L 307.163,346.599 L 306.447,347.032 L 305.802,347.456 L 305.227,347.889 L 304.703,348.333 L 304.26,348.796 L 303.877,349.25 L 303.554,349.734 L 303.312,350.197 L 303.131,350.681 L 303.03,351.165 L 303,351.638 L 303,351.638 L 303.03,352.132 L 303.131,352.616 L 303.312,353.09 L 303.554,353.564 L 303.877,354.037 L 304.26,354.501 L 304.703,354.954 L 305.227,355.408 L 305.802,355.841 L 306.447,356.265 L 307.163,356.678 L 307.929,357.091 L 308.755,357.484 L 309.642,357.847 L 310.579,358.2 L 311.567,358.553 L 312.595,358.875 L 313.684,359.177 L 314.802,359.45 L 315.972,359.732 L 317.181,359.964 L 318.421,360.195 L 319.691,360.397 L 320.981,360.578 L 322.311,360.72 L 323.652,360.871 L 325.012,360.961 L 326.383,361.052 L 327.764,361.123 L 329.165,361.153 L 330.556,361.163 L 330.556,361.163 L 331.947,361.153 L 333.358,361.123 L 334.738,361.052 L 336.099,360.961 L 337.47,360.871 L 338.81,360.72 L 340.131,360.578 L 341.421,360.397 L 342.691,360.195 L 343.94,359.964 L 345.14,359.732 L 346.309,359.45 L 347.428,359.177 L 348.516,358.875 L 349.554,358.553 L 350.532,358.2 L 351.479,357.847 L 352.356,357.484 L 353.183,357.091 L 353.949,356.678 L 354.664,356.265 L 355.309,355.841 L 355.884,355.408 L 356.418,354.954 L 356.862,354.501 L 357.245,354.037 L 357.557,353.564 L 357.809,353.09 L 357.98,352.616 L 358.081,352.132 L 358.121,351.638z"/>
    <path style="fill: none; fill-opacity:0; stroke-width: 0.02; stroke: #aae6ff" d="M 357.809 351.487 L 357.759,351.014 L 357.678,350.54 L 357.486,350.066 L 357.245,349.613 L 356.922,349.129 L 356.549,348.675 L 356.106,348.242 L 355.582,347.798 L 354.997,347.355 L 354.362,346.942 L 353.656,346.539 L 352.89,346.145 L 352.074,345.752 L 351.197,345.39 L 350.26,345.027 L 349.272,344.704 L 348.244,344.382 L 347.166,344.079 L 346.057,343.807 L 344.898,343.525 L 343.688,343.303 L 342.469,343.071 L 341.209,342.88 L 339.929,342.688 L 338.619,342.547 L 337.268,342.426 L 335.928,342.316 L 334.557,342.235 L 333.186,342.174 L 331.785,342.124 L 330.404,342.124 L 330.404,342.124 L 329.014,342.124 L 327.623,342.174 L 326.242,342.235 L 324.881,342.316 L 323.531,342.426 L 322.19,342.547 L 320.88,342.688 L 319.58,342.88 L 318.32,343.071 L 317.11,343.303 L 315.901,343.525 L 314.752,343.807 L 313.643,344.079 L 312.565,344.382 L 311.527,344.704 L 310.549,345.027 L 309.612,345.39 L 308.735,345.752 L 307.908,346.145 L 307.152,346.539 L 306.447,346.942 L 305.802,347.355 L 305.217,347.798 L 304.703,348.242 L 304.26,348.675 L 303.877,349.129 L 303.554,349.613 L 303.312,350.066 L 303.141,350.54 L 303.04,351.014 L 303.03,351.124"/>
    <path style="fill: none; fill-opacity:0; stroke-width: 0.02; stroke: #aae6ff" d="M 303.03 351.84 L 303.04,351.961 L 303.141,352.435 L 303.312,352.898 L 303.554,353.372 L 303.877,353.836 L 304.26,354.289 L 304.703,354.733 L 305.217,355.166 L 305.802,355.599 L 306.447,356.043 L 307.152,356.426 L 307.908,356.839 L 308.735,357.222 L 309.612,357.595 L 310.549,357.938 L 311.527,358.28 L 312.565,358.593 L 313.643,358.885 L 314.752,359.167 L 315.901,359.44 L 317.11,359.671 L 318.32,359.893 L 319.58,360.085 L 320.88,360.266 L 322.19,360.407 L 323.531,360.548 L 324.881,360.649 L 326.242,360.72 L 327.623,360.8 L 329.014,360.84 L 330.404,360.84 L 330.404,360.84 L 331.785,360.84 L 333.186,360.8 L 334.557,360.72 L 335.928,360.649 L 337.268,360.548 L 338.619,360.407 L 339.929,360.266 L 341.209,360.085 L 342.469,359.893 L 343.688,359.671 L 344.898,359.44 L 346.057,359.167 L 347.166,358.885 L 348.244,358.593 L 349.272,358.28 L 350.26,357.938 L 351.197,357.595 L 352.074,357.222 L 352.89,356.839 L 353.656,356.426 L 354.362,356.043 L 354.997,355.599 L 355.582,355.166 L 356.106,354.733 L 356.549,354.289 L 356.922,353.836 L 357.245,353.372 L 357.486,352.898 L 357.678,352.435 L 357.759,351.961 L 357.809,351.487"/>
    <path style="fill: #0078aa" d="M 303 311.696 L 303,351.82 L 357.809,351.82 L 357.809,311.696 L 303,311.696z"/>
    <path style="fill: #00b4ff" d="M 358.121 311.514 L 358.081,311.041 L 357.98,310.557 L 357.809,310.073 L 357.557,309.61 L 357.245,309.126 L 356.862,308.672 L 356.418,308.219 L 355.884,307.765 L 355.309,307.332 L 354.664,306.908 L 353.949,306.475 L 353.183,306.082 L 352.356,305.689 L 351.479,305.326 L 350.532,304.953 L 349.554,304.621 L 348.516,304.298 L 347.428,303.996 L 346.309,303.703 L 345.14,303.441 L 343.94,303.189 L 342.691,302.978 L 341.421,302.756 L 340.131,302.595 L 338.81,302.433 L 337.47,302.302 L 336.099,302.191 L 334.738,302.121 L 333.358,302.05 L 331.947,302 L 330.556,302 L 330.556,302 L 329.165,302 L 327.764,302.05 L 326.383,302.121 L 325.012,302.191 L 323.652,302.302 L 322.311,302.433 L 320.981,302.595 L 319.691,302.756 L 318.421,302.978 L 317.181,303.189 L 315.972,303.441 L 314.802,303.703 L 313.684,303.996 L 312.595,304.298 L 311.567,304.621 L 310.579,304.953 L 309.642,305.326 L 308.755,305.689 L 307.929,306.082 L 307.163,306.475 L 306.447,306.908 L 305.802,307.332 L 305.227,307.765 L 304.703,308.219 L 304.26,308.672 L 303.877,309.126 L 303.554,309.61 L 303.312,310.073 L 303.131,310.557 L 303.03,311.041 L 303,311.514 L 303,311.514 L 303.03,312.008 L 303.131,312.492 L 303.312,312.956 L 303.554,313.44 L 303.877,313.903 L 304.26,314.377 L 304.703,314.84 L 305.227,315.284 L 305.802,315.717 L 306.447,316.141 L 307.163,316.554 L 307.929,316.967 L 308.755,317.36 L 309.642,317.733 L 310.579,318.076 L 311.567,318.429 L 312.595,318.751 L 313.684,319.053 L 314.802,319.336 L 315.972,319.608 L 317.181,319.84 L 318.421,320.071 L 319.691,320.273 L 320.981,320.454 L 322.311,320.616 L 323.652,320.747 L 325.012,320.837 L 326.383,320.938 L 327.764,320.999 L 329.165,321.029 L 330.556,321.049 L 330.556,321.049 L 331.947,321.029 L 333.358,320.999 L 334.738,320.938 L 336.099,320.837 L 337.47,320.747 L 338.81,320.616 L 340.131,320.454 L 341.421,320.273 L 342.691,320.071 L 343.94,319.84 L 345.14,319.608 L 346.309,319.336 L 347.428,319.053 L 348.516,318.751 L 349.554,318.429 L 350.532,318.076 L 351.479,317.733 L 352.356,317.36 L 353.183,316.967 L 353.949,316.554 L 354.664,316.141 L 355.309,315.717 L 355.884,315.284 L 356.418,314.84 L 356.862,314.377 L 357.245,313.903 L 357.557,313.44 L 357.809,312.956 L 357.98,312.492 L 358.081,312.008 L 358.121,311.514z"/>
    <path style="fill: none; fill-opacity:0; stroke-width: 0.02; stroke: #aae6ff" d="M 357.809 311.363 L 357.759,310.879 L 357.678,310.416 L 357.486,309.942 L 357.245,309.489 L 356.922,309.005 L 356.549,308.551 L 356.106,308.108 L 355.582,307.664 L 354.997,307.241 L 354.362,306.818 L 353.656,306.404 L 352.89,306.021 L 352.074,305.628 L 351.197,305.266 L 350.26,304.893 L 349.272,304.58 L 348.244,304.258 L 347.166,303.955 L 346.057,303.683 L 344.898,303.411 L 343.688,303.179 L 342.469,302.947 L 341.209,302.756 L 339.929,302.574 L 338.619,302.433 L 337.268,302.302 L 335.928,302.181 L 334.557,302.121 L 333.186,302.05 L 331.785,302 L 330.404,302"/>
    <path style="fill: none; fill-opacity:0; stroke-width: 0.02; stroke: #aae6ff" d="M 330.404 302 L 329.014,302 L 327.623,302.05 L 326.242,302.121 L 324.881,302.181 L 323.531,302.302 L 322.19,302.433 L 320.88,302.574 L 319.58,302.756 L 318.32,302.947 L 317.11,303.179 L 315.901,303.411 L 314.752,303.683 L 313.643,303.955 L 312.565,304.258 L 311.527,304.58 L 310.549,304.893 L 309.612,305.266 L 308.735,305.628 L 307.908,306.021 L 307.152,306.404 L 306.447,306.818 L 305.802,307.241 L 305.217,307.664 L 304.703,308.108 L 304.26,308.551 L 303.877,309.005 L 303.554,309.489 L 303.312,309.942 L 303.141,310.416 L 303.04,310.879 L 303.03,311"/>
    <path style="fill: none; fill-opacity:0; stroke-width: 0.02; stroke: #aae6ff" d="M 303.03 311.726 L 303.04,311.837 L 303.141,312.311 L 303.312,312.764 L 303.554,313.248 L 303.877,313.712 L 304.26,314.165 L 304.703,314.609 L 305.217,315.042 L 305.802,315.475 L 306.447,315.919 L 307.152,316.302 L 307.908,316.715 L 308.735,317.098 L 309.612,317.471 L 310.549,317.814 L 311.527,318.156 L 312.565,318.469 L 313.643,318.761 L 314.752,319.043 L 315.901,319.316 L 317.11,319.557 L 318.32,319.759 L 319.58,319.961 L 320.88,320.142 L 322.19,320.303 L 323.531,320.424 L 324.881,320.525 L 326.242,320.616 L 327.623,320.676 L 329.014,320.706 L 330.404,320.716 L 330.404,320.716 L 331.785,320.706 L 333.186,320.676 L 334.557,320.616 L 335.928,320.525 L 337.268,320.424 L 338.619,320.303 L 339.929,320.142 L 341.209,319.961 L 342.469,319.759 L 343.688,319.557 L 344.898,319.316 L 346.057,319.043 L 347.166,318.761 L 348.244,318.469 L 349.272,318.156 L 350.26,317.814 L 351.197,317.471 L 352.074,317.098 L 352.89,316.715 L 353.656,316.302 L 354.362,315.919 L 354.997,315.475 L 355.582,315.042 L 356.106,314.609 L 356.549,314.165 L 356.922,313.712 L 357.245,313.248 L 357.486,312.764 L 357.678,312.311 L 357.759,311.837 L 357.809,311.363"/>
    <path style="fill: #000000" d="M 331.07 309.358 L 335.081,310.688 L 344.767,306.667 L 349.111,308.017 L 346.762,304.681 L 335.424,304.681 L 340.09,305.679 L 331.07,309.358z"/>
    <path style="fill: #000000" d="M 329.387 313.026 L 325.385,311.696 L 316.032,315.717 L 311.365,314.357 L 313.704,318.056 L 325.385,318.056 L 320.386,316.715 L 329.387,313.026z"/>
    <path style="fill: #000000" d="M 312.363 305.679 L 316.355,304.328 L 326.05,308.017 L 330.404,307.019 L 328.066,310.355 L 316.697,310.355 L 321.364,309.358 L 312.363,305.679z"/>
    <path style="fill: #000000" d="M 348.436 317.048 L 344.424,318.378 L 335.081,314.357 L 330.404,315.717 L 332.733,312.361 L 344.424,312.361 L 339.425,313.379 L 348.436,317.048z"/>
    <path style="fill: #ffffff" d="M 331.402 309.68 L 335.424,311.011 L 345.089,307.019 L 349.443,308.36 L 347.105,305.014 L 335.756,305.014 L 340.423,306.001 L 331.402,309.68z"/>
    <path style="fill: #ffffff" d="M 329.729 313.379 L 325.708,312.028 L 316.355,316.04 L 311.688,314.699 L 314.026,318.378 L 325.708,318.378 L 320.709,317.048 L 329.729,313.379z"/>
    <path style="fill: #ffffff" d="M 312.696 306.001 L 316.697,304.681 L 326.383,308.36 L 330.727,307.352 L 328.399,310.688 L 317.02,310.688 L 321.706,309.68 L 312.696,306.001z"/>
    <path style="fill: #ffffff" d="M 348.768 317.37 L 344.767,318.721 L 335.424,314.699 L 330.727,316.04 L 333.065,312.704 L 344.767,312.704 L 339.778,313.712 L 348.768,317.37z"/>
    <path style="fill: none; fill-opacity:0; stroke-width: 0.02; stroke: #aae6ff" d="M 303 311.363 L 303,351.477"/>
    <path style="fill: none; fill-opacity:0; stroke-width: 0.02; stroke: #aae6ff" d="M 357.809 311.363 L 357.809,351.477"/>
    <path style="fill: #000000" d="M 315.367 322.057 L 315.367,326.411 L 325.043,326.411 L 330.062,335.442 L 335.424,326.411 L 345.089,326.411 L 345.089,322.057 L 351.117,327.399 L 345.089,332.751 L 345.089,329.082 L 338.085,329.082 L 332.4,339.11 L 338.085,349.472 L 345.089,349.472 L 345.089,345.793 L 351.117,350.822 L 345.089,356.164 L 345.089,352.152 L 335.424,352.152 L 330.062,342.799 L 325.043,352.485 L 315.367,352.485 L 315.367,356.164 L 309.35,350.822 L 315.367,345.793 L 315.367,349.472 L 322.039,349.472 L 328.066,339.11 L 322.039,329.082 L 315.367,329.082 L 315.367,332.428 L 309.35,327.399 L 315.367,322.057z"/>
    <path style="fill: #ffffff" d="M 315.699 322.4 L 315.699,326.754 L 325.385,326.754 L 330.404,335.764 L 335.756,326.754 L 345.422,326.754 L 345.422,322.4 L 351.449,327.741 L 345.422,333.103 L 345.422,329.415 L 338.427,329.415 L 332.733,339.453 L 338.427,349.804 L 345.422,349.804 L 345.422,346.125 L 351.449,351.135 L 345.422,356.496 L 345.422,352.485 L 335.756,352.485 L 330.404,343.122 L 325.385,352.828 L 315.699,352.828 L 315.699,356.496 L 309.682,351.135 L 315.699,346.125 L 315.699,349.804 L 322.392,349.804 L 328.399,339.453 L 322.392,329.415 L 315.699,329.415 L 315.699,332.751 L 309.682,327.741 L 315.699,322.4z"/>
  </g>
  <g>
    <path style="fill: #0078aa" d="M 359.531 510.348 L 359.491,509.875 L 359.39,509.391 L 359.219,508.907 L 358.967,508.444 L 358.655,507.96 L 358.272,507.506 L 357.828,507.043 L 357.294,506.599 L 356.719,506.166 L 356.074,505.742 L 355.359,505.309 L 354.593,504.916 L 353.766,504.523 L 352.889,504.15 L 351.942,503.797 L 350.964,503.455 L 349.926,503.132 L 348.838,502.83 L 347.719,502.537 L 346.55,502.275 L 345.35,502.033 L 344.101,501.812 L 342.831,501.59 L 341.541,501.409 L 340.22,501.267 L 338.88,501.136 L 337.509,501.026 L 336.148,500.945 L 334.768,500.884 L 333.357,500.834 L 331.966,500.834 L 331.966,500.834 L 330.575,500.834 L 329.174,500.884 L 327.793,500.945 L 326.422,501.026 L 325.062,501.136 L 323.721,501.267 L 322.391,501.409 L 321.101,501.59 L 319.831,501.812 L 318.591,502.033 L 317.382,502.275 L 316.212,502.537 L 315.094,502.83 L 314.005,503.132 L 312.977,503.455 L 311.989,503.797 L 311.052,504.15 L 310.165,504.523 L 309.339,504.916 L 308.573,505.309 L 307.857,505.742 L 307.212,506.166 L 306.637,506.599 L 306.113,507.043 L 305.67,507.506 L 305.287,507.96 L 304.964,508.444 L 304.722,508.907 L 304.541,509.391 L 304.44,509.875 L 304.41,510.348 L 304.41,510.348 L 304.44,510.842 L 304.541,511.326 L 304.722,511.8 L 304.964,512.274 L 305.287,512.747 L 305.67,513.211 L 306.113,513.664 L 306.637,514.118 L 307.212,514.551 L 307.857,514.975 L 308.573,515.388 L 309.339,515.801 L 310.165,516.194 L 311.052,516.557 L 311.989,516.91 L 312.977,517.263 L 314.005,517.585 L 315.094,517.887 L 316.212,518.16 L 317.382,518.442 L 318.591,518.674 L 319.831,518.905 L 321.101,519.107 L 322.391,519.288 L 323.721,519.43 L 325.062,519.581 L 326.422,519.671 L 327.793,519.762 L 329.174,519.833 L 330.575,519.863 L 331.966,519.873 L 331.966,519.873 L 333.357,519.863 L 334.768,519.833 L 336.148,519.762 L 337.509,519.671 L 338.88,519.581 L 340.22,519.43 L 341.541,519.288 L 342.831,519.107 L 344.101,518.905 L 345.35,518.674 L 346.55,518.442 L 347.719,518.16 L 348.838,517.887 L 349.926,517.585 L 350.964,517.263 L 351.942,516.91 L 352.889,516.557 L 353.766,516.194 L 354.593,515.801 L 355.359,515.388 L 356.074,514.975 L 356.719,514.551 L 357.294,514.118 L 357.828,513.664 L 358.272,513.211 L 358.655,512.747 L 358.967,512.274 L 359.219,511.8 L 359.39,511.326 L 359.491,510.842 L 359.531,510.348z"/>
    <path style="fill: none; fill-opacity:0; stroke-width: 0.02; stroke: #aae6ff" d="M 359.219 510.197 L 359.169,509.724 L 359.088,509.25 L 358.896,508.776 L 358.655,508.323 L 358.332,507.839 L 357.959,507.385 L 357.516,506.952 L 356.992,506.508 L 356.407,506.065 L 355.772,505.652 L 355.066,505.249 L 354.3,504.855 L 353.484,504.462 L 352.607,504.1 L 351.67,503.737 L 350.682,503.414 L 349.654,503.092 L 348.576,502.789 L 347.467,502.517 L 346.308,502.235 L 345.098,502.013 L 343.879,501.781 L 342.619,501.59 L 341.339,501.398 L 340.029,501.257 L 338.678,501.136 L 337.338,501.026 L 335.967,500.945 L 334.596,500.884 L 333.195,500.834 L 331.814,500.834 L 331.814,500.834 L 330.424,500.834 L 329.033,500.884 L 327.652,500.945 L 326.291,501.026 L 324.941,501.136 L 323.6,501.257 L 322.29,501.398 L 320.99,501.59 L 319.73,501.781 L 318.52,502.013 L 317.311,502.235 L 316.162,502.517 L 315.053,502.789 L 313.975,503.092 L 312.937,503.414 L 311.959,503.737 L 311.022,504.1 L 310.145,504.462 L 309.318,504.855 L 308.562,505.249 L 307.857,505.652 L 307.212,506.065 L 306.627,506.508 L 306.113,506.952 L 305.67,507.385 L 305.287,507.839 L 304.964,508.323 L 304.722,508.776 L 304.551,509.25 L 304.45,509.724 L 304.44,509.834"/>
    <path style="fill: none; fill-opacity:0; stroke-width: 0.02; stroke: #aae6ff" d="M 304.44 510.55 L 304.45,510.671 L 304.551,511.145 L 304.722,511.608 L 304.964,512.082 L 305.287,512.546 L 305.67,512.999 L 306.113,513.443 L 306.627,513.876 L 307.212,514.309 L 307.857,514.753 L 308.562,515.136 L 309.318,515.549 L 310.145,515.932 L 311.022,516.305 L 311.959,516.648 L 312.937,516.99 L 313.975,517.303 L 315.053,517.595 L 316.162,517.877 L 317.311,518.15 L 318.52,518.381 L 319.73,518.603 L 320.99,518.795 L 322.29,518.976 L 323.6,519.117 L 324.941,519.258 L 326.291,519.359 L 327.652,519.43 L 329.033,519.51 L 330.424,519.55 L 331.814,519.55 L 331.814,519.55 L 333.195,519.55 L 334.596,519.51 L 335.967,519.43 L 337.338,519.359 L 338.678,519.258 L 340.029,519.117 L 341.339,518.976 L 342.619,518.795 L 343.879,518.603 L 345.098,518.381 L 346.308,518.15 L 347.467,517.877 L 348.576,517.595 L 349.654,517.303 L 350.682,516.99 L 351.67,516.648 L 352.607,516.305 L 353.484,515.932 L 354.3,515.549 L 355.066,515.136 L 355.772,514.753 L 356.407,514.309 L 356.992,513.876 L 357.516,513.443 L 357.959,512.999 L 358.332,512.546 L 358.655,512.082 L 358.896,511.608 L 359.088,511.145 L 359.169,510.671 L 359.219,510.197"/>
    <path style="fill: #0078aa" d="M 304.41 470.406 L 304.41,510.53 L 359.219,510.53 L 359.219,470.406 L 304.41,470.406z"/>
    <path style="fill: #00b4ff" d="M 359.531 470.224 L 359.491,469.751 L 359.39,469.267 L 359.219,468.783 L 358.967,468.32 L 358.655,467.836 L 358.272,467.382 L 357.828,466.929 L 357.294,466.475 L 356.719,466.042 L 356.074,465.618 L 355.359,465.185 L 354.593,464.792 L 353.766,464.399 L 352.889,464.036 L 351.942,463.663 L 350.964,463.331 L 349.926,463.008 L 348.838,462.706 L 347.719,462.413 L 346.55,462.151 L 345.35,461.899 L 344.101,461.688 L 342.831,461.466 L 341.541,461.305 L 340.22,461.143 L 338.88,461.012 L 337.509,460.901 L 336.148,460.831 L 334.768,460.76 L 333.357,460.71 L 331.966,460.71 L 331.966,460.71 L 330.575,460.71 L 329.174,460.76 L 327.793,460.831 L 326.422,460.901 L 325.062,461.012 L 323.721,461.143 L 322.391,461.305 L 321.101,461.466 L 319.831,461.688 L 318.591,461.899 L 317.382,462.151 L 316.212,462.413 L 315.094,462.706 L 314.005,463.008 L 312.977,463.331 L 311.989,463.663 L 311.052,464.036 L 310.165,464.399 L 309.339,464.792 L 308.573,465.185 L 307.857,465.618 L 307.212,466.042 L 306.637,466.475 L 306.113,466.929 L 305.67,467.382 L 305.287,467.836 L 304.964,468.32 L 304.722,468.783 L 304.541,469.267 L 304.44,469.751 L 304.41,470.224 L 304.41,470.224 L 304.44,470.718 L 304.541,471.202 L 304.722,471.666 L 304.964,472.15 L 305.287,472.613 L 305.67,473.087 L 306.113,473.55 L 306.637,473.994 L 307.212,474.427 L 307.857,474.851 L 308.573,475.264 L 309.339,475.677 L 310.165,476.07 L 311.052,476.443 L 311.989,476.786 L 312.977,477.139 L 314.005,477.461 L 315.094,477.763 L 316.212,478.046 L 317.382,478.318 L 318.591,478.55 L 319.831,478.781 L 321.101,478.983 L 322.391,479.164 L 323.721,479.326 L 325.062,479.457 L 326.422,479.547 L 327.793,479.648 L 329.174,479.709 L 330.575,479.739 L 331.966,479.759 L 331.966,479.759 L 333.357,479.739 L 334.768,479.709 L 336.148,479.648 L 337.509,479.547 L 338.88,479.457 L 340.22,479.326 L 341.541,479.164 L 342.831,478.983 L 344.101,478.781 L 345.35,478.55 L 346.55,478.318 L 347.719,478.046 L 348.838,477.763 L 349.926,477.461 L 350.964,477.139 L 351.942,476.786 L 352.889,476.443 L 353.766,476.07 L 354.593,475.677 L 355.359,475.264 L 356.074,474.851 L 356.719,474.427 L 357.294,473.994 L 357.828,473.55 L 358.272,473.087 L 358.655,472.613 L 358.967,472.15 L 359.219,471.666 L 359.39,471.202 L 359.491,470.718 L 359.531,470.224z"/>
    <path style="fill: none; fill-opacity:0; stroke-width: 0.02; stroke: #aae6ff" d="M 359.219 470.073 L 359.169,469.589 L 359.088,469.126 L 358.896,468.652 L 358.655,468.199 L 358.332,467.715 L 357.959,467.261 L 357.516,466.818 L 356.992,466.374 L 356.407,465.951 L 355.772,465.528 L 355.066,465.114 L 354.3,464.731 L 353.484,464.338 L 352.607,463.976 L 351.67,463.603 L 350.682,463.29 L 349.654,462.968 L 348.576,462.665 L 347.467,462.393 L 346.308,462.121 L 345.098,461.889 L 343.879,461.657 L 342.619,461.466 L 341.339,461.284 L 340.029,461.143 L 338.678,461.012 L 337.338,460.891 L 335.967,460.831 L 334.596,460.76 L 333.195,460.71 L 331.814,460.71"/>
    <path style="fill: none; fill-opacity:0; stroke-width: 0.02; stroke: #aae6ff" d="M 331.814 460.71 L 330.424,460.71 L 329.033,460.76 L 327.652,460.831 L 326.291,460.891 L 324.941,461.012 L 323.6,461.143 L 322.29,461.284 L 320.99,461.466 L 319.73,461.657 L 318.52,461.889 L 317.311,462.121 L 316.162,462.393 L 315.053,462.665 L 313.975,462.968 L 312.937,463.29 L 311.959,463.603 L 311.022,463.976 L 310.145,464.338 L 309.318,464.731 L 308.562,465.114 L 307.857,465.528 L 307.212,465.951 L 306.627,466.374 L 306.113,466.818 L 305.67,467.261 L 305.287,467.715 L 304.964,468.199 L 304.722,468.652 L 304.551,469.126 L 304.45,469.589 L 304.44,469.71"/>
    <path style="fill: none; fill-opacity:0; stroke-width: 0.02; stroke: #aae6ff" d="M 304.44 470.436 L 304.45,470.547 L 304.551,471.021 L 304.722,471.474 L 304.964,471.958 L 305.287,472.422 L 305.67,472.875 L 306.113,473.319 L 306.627,473.752 L 307.212,474.185 L 307.857,474.629 L 308.562,475.012 L 309.318,475.425 L 310.145,475.808 L 311.022,476.181 L 311.959,476.524 L 312.937,476.866 L 313.975,477.179 L 315.053,477.471 L 316.162,477.753 L 317.311,478.026 L 318.52,478.267 L 319.73,478.469 L 320.99,478.671 L 322.29,478.852 L 323.6,479.013 L 324.941,479.134 L 326.291,479.235 L 327.652,479.326 L 329.033,479.386 L 330.424,479.416 L 331.814,479.426 L 331.814,479.426 L 333.195,479.416 L 334.596,479.386 L 335.967,479.326 L 337.338,479.235 L 338.678,479.134 L 340.029,479.013 L 341.339,478.852 L 342.619,478.671 L 343.879,478.469 L 345.098,478.267 L 346.308,478.026 L 347.467,477.753 L 348.576,477.471 L 349.654,477.179 L 350.682,476.866 L 351.67,476.524 L 352.607,476.181 L 353.484,475.808 L 354.3,475.425 L 355.066,475.012 L 355.772,474.629 L 356.407,474.185 L 356.992,473.752 L 357.516,473.319 L 357.959,472.875 L 358.332,472.422 L 358.655,471.958 L 358.896,471.474 L 359.088,471.021 L 359.169,470.547 L 359.219,470.073"/>
    <path style="fill: #000000" d="M 332.48 468.068 L 336.491,469.398 L 346.177,465.377 L 350.521,466.727 L 348.172,463.391 L 336.834,463.391 L 341.5,464.389 L 332.48,468.068z"/>
    <path style="fill: #000000" d="M 330.797 471.736 L 326.795,470.406 L 317.442,474.427 L 312.775,473.067 L 315.114,476.766 L 326.795,476.766 L 321.796,475.425 L 330.797,471.736z"/>
    <path style="fill: #000000" d="M 313.773 464.389 L 317.765,463.038 L 327.46,466.727 L 331.814,465.729 L 329.476,469.065 L 318.107,469.065 L 322.774,468.068 L 313.773,464.389z"/>
    <path style="fill: #000000" d="M 349.846 475.758 L 345.834,477.088 L 336.491,473.067 L 331.814,474.427 L 334.143,471.071 L 345.834,471.071 L 340.835,472.089 L 349.846,475.758z"/>
    <path style="fill: #ffffff" d="M 332.812 468.39 L 336.834,469.721 L 346.499,465.729 L 350.853,467.07 L 348.515,463.724 L 337.166,463.724 L 341.833,464.711 L 332.812,468.39z"/>
    <path style="fill: #ffffff" d="M 331.139 472.089 L 327.118,470.738 L 317.765,474.75 L 313.098,473.409 L 315.436,477.088 L 327.118,477.088 L 322.119,475.758 L 331.139,472.089z"/>
    <path style="fill: #ffffff" d="M 314.106 464.711 L 318.107,463.391 L 327.793,467.07 L 332.137,466.062 L 329.809,469.398 L 318.43,469.398 L 323.116,468.39 L 314.106,464.711z"/>
    <path style="fill: #ffffff" d="M 350.178 476.08 L 346.177,477.431 L 336.834,473.409 L 332.137,474.75 L 334.475,471.414 L 346.177,471.414 L 341.188,472.422 L 350.178,476.08z"/>
    <path style="fill: none; fill-opacity:0; stroke-width: 0.02; stroke: #aae6ff" d="M 304.41 470.073 L 304.41,510.187"/>
    <path style="fill: none; fill-opacity:0; stroke-width: 0.02; stroke: #aae6ff" d="M 359.219 470.073 L 359.219,510.187"/>
    <path style="fill: #000000" d="M 316.777 480.767 L 316.777,485.121 L 326.453,485.121 L 331.472,494.152 L 336.834,485.121 L 346.499,485.121 L 346.499,480.767 L 352.527,486.109 L 346.499,491.461 L 346.499,487.792 L 339.495,487.792 L 333.81,497.82 L 339.495,508.182 L 346.499,508.182 L 346.499,504.503 L 352.527,509.532 L 346.499,514.874 L 346.499,510.862 L 336.834,510.862 L 331.472,501.509 L 326.453,511.195 L 316.777,511.195 L 316.777,514.874 L 310.76,509.532 L 316.777,504.503 L 316.777,508.182 L 323.449,508.182 L 329.476,497.82 L 323.449,487.792 L 316.777,487.792 L 316.777,491.138 L 310.76,486.109 L 316.777,480.767z"/>
    <path style="fill: #ffffff" d="M 317.109 481.11 L 317.109,485.464 L 326.795,485.464 L 331.814,494.474 L 337.166,485.464 L 346.832,485.464 L 346.832,481.11 L 352.859,486.451 L 346.832,491.813 L 346.832,488.125 L 339.837,488.125 L 334.143,498.163 L 339.837,508.514 L 346.832,508.514 L 346.832,504.835 L 352.859,509.845 L 346.832,515.206 L 346.832,511.195 L 337.166,511.195 L 331.814,501.832 L 326.795,511.538 L 317.109,511.538 L 317.109,515.206 L 311.092,509.845 L 317.109,504.835 L 317.109,508.514 L 323.802,508.514 L 329.809,498.163 L 323.802,488.125 L 317.109,488.125 L 317.109,491.461 L 311.092,486.451 L 317.109,481.11z"/>
  </g>
  <g>
    <path style="fill: #0078aa" d="M 479.931 433.048 L 479.891,432.575 L 479.79,432.091 L 479.619,431.607 L 479.367,431.144 L 479.055,430.66 L 478.672,430.206 L 478.228,429.743 L 477.694,429.299 L 477.119,428.866 L 476.474,428.442 L 475.759,428.009 L 474.993,427.616 L 474.166,427.223 L 473.289,426.85 L 472.342,426.497 L 471.364,426.155 L 470.326,425.832 L 469.238,425.53 L 468.119,425.237 L 466.95,424.975 L 465.75,424.733 L 464.501,424.512 L 463.231,424.29 L 461.941,424.109 L 460.62,423.967 L 459.28,423.836 L 457.909,423.726 L 456.548,423.645 L 455.168,423.584 L 453.757,423.534 L 452.366,423.534 L 452.366,423.534 L 450.975,423.534 L 449.574,423.584 L 448.193,423.645 L 446.822,423.726 L 445.462,423.836 L 444.121,423.967 L 442.791,424.109 L 441.501,424.29 L 440.231,424.512 L 438.991,424.733 L 437.782,424.975 L 436.612,425.237 L 435.494,425.53 L 434.405,425.832 L 433.377,426.155 L 432.389,426.497 L 431.452,426.85 L 430.565,427.223 L 429.739,427.616 L 428.973,428.009 L 428.257,428.442 L 427.612,428.866 L 427.037,429.299 L 426.513,429.743 L 426.07,430.206 L 425.687,430.66 L 425.364,431.144 L 425.122,431.607 L 424.941,432.091 L 424.84,432.575 L 424.81,433.048 L 424.81,433.048 L 424.84,433.542 L 424.941,434.026 L 425.122,434.5 L 425.364,434.974 L 425.687,435.447 L 426.07,435.911 L 426.513,436.364 L 427.037,436.818 L 427.612,437.251 L 428.257,437.675 L 428.973,438.088 L 429.739,438.501 L 430.565,438.894 L 431.452,439.257 L 432.389,439.61 L 433.377,439.963 L 434.405,440.285 L 435.494,440.587 L 436.612,440.86 L 437.782,441.142 L 438.991,441.374 L 440.231,441.605 L 441.501,441.807 L 442.791,441.988 L 444.121,442.13 L 445.462,442.281 L 446.822,442.371 L 448.193,442.462 L 449.574,442.533 L 450.975,442.563 L 452.366,442.573 L 452.366,442.573 L 453.757,442.563 L 455.168,442.533 L 456.548,442.462 L 457.909,442.371 L 459.28,442.281 L 460.62,442.13 L 461.941,441.988 L 463.231,441.807 L 464.501,441.605 L 465.75,441.374 L 466.95,441.142 L 468.119,440.86 L 469.238,440.587 L 470.326,440.285 L 471.364,439.963 L 472.342,439.61 L 473.289,439.257 L 474.166,438.894 L 474.993,438.501 L 475.759,438.088 L 476.474,437.675 L 477.119,437.251 L 477.694,436.818 L 478.228,436.364 L 478.672,435.911 L 479.055,435.447 L 479.367,434.974 L 479.619,434.5 L 479.79,434.026 L 479.891,433.542 L 479.931,433.048z"/>
    <path style="fill: none; fill-opacity:0; stroke-width: 0.02; stroke: #aae6ff" d="M 479.619 432.897 L 479.569,432.424 L 479.488,431.95 L 479.296,431.476 L 479.055,431.023 L 478.732,430.539 L 478.359,430.085 L 477.916,429.652 L 477.392,429.208 L 476.807,428.765 L 476.172,428.352 L 475.466,427.949 L 474.7,427.555 L 473.884,427.162 L 473.007,426.8 L 472.07,426.437 L 471.082,426.114 L 470.054,425.792 L 468.976,425.489 L 467.867,425.217 L 466.708,424.935 L 465.498,424.713 L 464.279,424.481 L 463.019,424.29 L 461.739,424.098 L 460.429,423.957 L 459.078,423.836 L 457.738,423.726 L 456.367,423.645 L 454.996,423.584 L 453.595,423.534 L 452.214,423.534 L 452.214,423.534 L 450.824,423.534 L 449.433,423.584 L 448.052,423.645 L 446.691,423.726 L 445.341,423.836 L 444,423.957 L 442.69,424.098 L 441.39,424.29 L 440.13,424.481 L 438.92,424.713 L 437.711,424.935 L 436.562,425.217 L 435.453,425.489 L 434.375,425.792 L 433.337,426.114 L 432.359,426.437 L 431.422,426.8 L 430.545,427.162 L 429.718,427.555 L 428.962,427.949 L 428.257,428.352 L 427.612,428.765 L 427.027,429.208 L 426.513,429.652 L 426.07,430.085 L 425.687,430.539 L 425.364,431.023 L 425.122,431.476 L 424.951,431.95 L 424.85,432.424 L 424.84,432.534"/>
    <path style="fill: none; fill-opacity:0; stroke-width: 0.02; stroke: #aae6ff" d="M 424.84 433.25 L 424.85,433.371 L 424.951,433.845 L 425.122,434.308 L 425.364,434.782 L 425.687,435.246 L 426.07,435.699 L 426.513,436.143 L 427.027,436.576 L 427.612,437.009 L 428.257,437.453 L 428.962,437.836 L 429.718,438.249 L 430.545,438.632 L 431.422,439.005 L 432.359,439.348 L 433.337,439.69 L 434.375,440.003 L 435.453,440.295 L 436.562,440.577 L 437.711,440.85 L 438.92,441.081 L 440.13,441.303 L 441.39,441.495 L 442.69,441.676 L 444,441.817 L 445.341,441.958 L 446.691,442.059 L 448.052,442.13 L 449.433,442.21 L 450.824,442.25 L 452.214,442.25 L 452.214,442.25 L 453.595,442.25 L 454.996,442.21 L 456.367,442.13 L 457.738,442.059 L 459.078,441.958 L 460.429,441.817 L 461.739,441.676 L 463.019,441.495 L 464.279,441.303 L 465.498,441.081 L 466.708,440.85 L 467.867,440.577 L 468.976,440.295 L 470.054,440.003 L 471.082,439.69 L 472.07,439.348 L 473.007,439.005 L 473.884,438.632 L 474.7,438.249 L 475.466,437.836 L 476.172,437.453 L 476.807,437.009 L 477.392,436.576 L 477.916,436.143 L 478.359,435.699 L 478.732,435.246 L 479.055,434.782 L 479.296,434.308 L 479.488,433.845 L 479.569,433.371 L 479.619,432.897"/>
    <path style="fill: #0078aa" d="M 424.81 393.106 L 424.81,433.23 L 479.619,433.23 L 479.619,393.106 L 424.81,393.106z"/>
    <path style="fill: #00b4ff" d="M 479.931 392.924 L 479.891,392.451 L 479.79,391.967 L 479.619,391.483 L 479.367,391.02 L 479.055,390.536 L 478.672,390.082 L 478.228,389.629 L 477.694,389.175 L 477.119,388.742 L 476.474,388.318 L 475.759,387.885 L 474.993,387.492 L 474.166,387.099 L 473.289,386.736 L 472.342,386.363 L 471.364,386.031 L 470.326,385.708 L 469.238,385.406 L 468.119,385.113 L 466.95,384.851 L 465.75,384.599 L 464.501,384.388 L 463.231,384.166 L 461.941,384.005 L 460.62,383.843 L 459.28,383.712 L 457.909,383.601 L 456.548,383.531 L 455.168,383.46 L 453.757,383.41 L 452.366,383.41 L 452.366,383.41 L 450.975,383.41 L 449.574,383.46 L 448.193,383.531 L 446.822,383.601 L 445.462,383.712 L 444.121,383.843 L 442.791,384.005 L 441.501,384.166 L 440.231,384.388 L 438.991,384.599 L 437.782,384.851 L 436.612,385.113 L 435.494,385.406 L 434.405,385.708 L 433.377,386.031 L 432.389,386.363 L 431.452,386.736 L 430.565,387.099 L 429.739,387.492 L 428.973,387.885 L 428.257,388.318 L 427.612,388.742 L 427.037,389.175 L 426.513,389.629 L 426.07,390.082 L 425.687,390.536 L 425.364,391.02 L 425.122,391.483 L 424.941,391.967 L 424.84,392.451 L 424.81,392.924 L 424.81,392.924 L 424.84,393.418 L 424.941,393.902 L 425.122,394.366 L 425.364,394.85 L 425.687,395.313 L 426.07,395.787 L 426.513,396.25 L 427.037,396.694 L 427.612,397.127 L 428.257,397.551 L 428.973,397.964 L 429.739,398.377 L 430.565,398.77 L 431.452,399.143 L 432.389,399.486 L 433.377,399.839 L 434.405,400.161 L 435.494,400.463 L 436.612,400.746 L 437.782,401.018 L 438.991,401.25 L 440.231,401.481 L 441.501,401.683 L 442.791,401.864 L 444.121,402.026 L 445.462,402.157 L 446.822,402.247 L 448.193,402.348 L 449.574,402.409 L 450.975,402.439 L 452.366,402.459 L 452.366,402.459 L 453.757,402.439 L 455.168,402.409 L 456.548,402.348 L 457.909,402.247 L 459.28,402.157 L 460.62,402.026 L 461.941,401.864 L 463.231,401.683 L 464.501,401.481 L 465.75,401.25 L 466.95,401.018 L 468.119,400.746 L 469.238,400.463 L 470.326,400.161 L 471.364,399.839 L 472.342,399.486 L 473.289,399.143 L 474.166,398.77 L 474.993,398.377 L 475.759,397.964 L 476.474,397.551 L 477.119,397.127 L 477.694,396.694 L 478.228,396.25 L 478.672,395.787 L 479.055,395.313 L 479.367,394.85 L 479.619,394.366 L 479.79,393.902 L 479.891,393.418 L 479.931,392.924z"/>
    <path style="fill: none; fill-opacity:0; stroke-width: 0.02; stroke: #aae6ff" d="M 479.619 392.773 L 479.569,392.289 L 479.488,391.826 L 479.296,391.352 L 479.055,390.899 L 478.732,390.415 L 478.359,389.961 L 477.916,389.518 L 477.392,389.074 L 476.807,388.651 L 476.172,388.228 L 475.466,387.814 L 474.7,387.431 L 473.884,387.038 L 473.007,386.676 L 472.07,386.303 L 471.082,385.99 L 470.054,385.668 L 468.976,385.365 L 467.867,385.093 L 466.708,384.821 L 465.498,384.589 L 464.279,384.357 L 463.019,384.166 L 461.739,383.984 L 460.429,383.843 L 459.078,383.712 L 457.738,383.591 L 456.367,383.531 L 454.996,383.46 L 453.595,383.41 L 452.214,383.41"/>
    <path style="fill: none; fill-opacity:0; stroke-width: 0.02; stroke: #aae6ff" d="M 452.214 383.41 L 450.824,383.41 L 449.433,383.46 L 448.052,383.531 L 446.691,383.591 L 445.341,383.712 L 444,383.843 L 442.69,383.984 L 441.39,384.166 L 440.13,384.357 L 438.92,384.589 L 437.711,384.821 L 436.562,385.093 L 435.453,385.365 L 434.375,385.668 L 433.337,385.99 L 432.359,386.303 L 431.422,386.676 L 430.545,387.038 L 429.718,387.431 L 428.962,387.814 L 428.257,388.228 L 427.612,388.651 L 427.027,389.074 L 426.513,389.518 L 426.07,389.961 L 425.687,390.415 L 425.364,390.899 L 425.122,391.352 L 424.951,391.826 L 424.85,392.289 L 424.84,392.41"/>
    <path style="fill: none; fill-opacity:0; stroke-width: 0.02; stroke: #aae6ff" d="M 424.84 393.136 L 424.85,393.247 L 424.951,393.721 L 425.122,394.174 L 425.364,394.658 L 425.687,395.122 L 426.07,395.575 L 426.513,396.019 L 427.027,396.452 L 427.612,396.885 L 428.257,397.329 L 428.962,397.712 L 429.718,398.125 L 430.545,398.508 L 431.422,398.881 L 432.359,399.224 L 433.337,399.566 L 434.375,399.879 L 435.453,400.171 L 436.562,400.453 L 437.711,400.726 L 438.92,400.967 L 440.13,401.169 L 441.39,401.371 L 442.69,401.552 L 444,401.713 L 445.341,401.834 L 446.691,401.935 L 448.052,402.026 L 449.433,402.086 L 450.824,402.116 L 452.214,402.126 L 452.214,402.126 L 453.595,402.116 L 454.996,402.086 L 456.367,402.026 L 457.738,401.935 L 459.078,401.834 L 460.429,401.713 L 461.739,401.552 L 463.019,401.371 L 464.279,401.169 L 465.498,400.967 L 466.708,400.726 L 467.867,400.453 L 468.976,400.171 L 470.054,399.879 L 471.082,399.566 L 472.07,399.224 L 473.007,398.881 L 473.884,398.508 L 474.7,398.125 L 475.466,397.712 L 476.172,397.329 L 476.807,396.885 L 477.392,396.452 L 477.916,396.019 L 478.359,395.575 L 478.732,395.122 L 479.055,394.658 L 479.296,394.174 L 479.488,393.721 L 479.569,393.247 L 479.619,392.773"/>
    <path style="fill: #000000" d="M 452.88 390.768 L 456.891,392.098 L 466.577,388.077 L 470.921,389.427 L 468.572,386.091 L 457.234,386.091 L 461.9,387.089 L 452.88,390.768z"/>
    <path style="fill: #000000" d="M 451.197 394.436 L 447.195,393.106 L 437.842,397.127 L 433.175,395.767 L 435.514,399.466 L 447.195,399.466 L 442.196,398.125 L 451.197,394.436z"/>
    <path style="fill: #000000" d="M 434.173 387.089 L 438.165,385.738 L 447.86,389.427 L 452.214,388.429 L 449.876,391.765 L 438.507,391.765 L 443.174,390.768 L 434.173,387.089z"/>
    <path style="fill: #000000" d="M 470.246 398.458 L 466.234,399.788 L 456.891,395.767 L 452.214,397.127 L 454.543,393.771 L 466.234,393.771 L 461.235,394.789 L 470.246,398.458z"/>
    <path style="fill: #ffffff" d="M 453.212 391.09 L 457.234,392.421 L 466.899,388.429 L 471.253,389.77 L 468.915,386.424 L 457.566,386.424 L 462.233,387.411 L 453.212,391.09z"/>
    <path style="fill: #ffffff" d="M 451.539 394.789 L 447.518,393.438 L 438.165,397.45 L 433.498,396.109 L 435.836,399.788 L 447.518,399.788 L 442.519,398.458 L 451.539,394.789z"/>
    <path style="fill: #ffffff" d="M 434.506 387.411 L 438.507,386.091 L 448.193,389.77 L 452.537,388.762 L 450.209,392.098 L 438.83,392.098 L 443.516,391.09 L 434.506,387.411z"/>
    <path style="fill: #ffffff" d="M 470.578 398.78 L 466.577,400.131 L 457.234,396.109 L 452.537,397.45 L 454.875,394.114 L 466.577,394.114 L 461.588,395.122 L 470.578,398.78z"/>
    <path style="fill: none; fill-opacity:0; stroke-width: 0.02; stroke: #aae6ff" d="M 424.81 392.773 L 424.81,432.887"/>
    <path style="fill: none; fill-opacity:0; stroke-width: 0.02; stroke: #aae6ff" d="M 479.619 392.773 L 479.619,432.887"/>
    <path style="fill: #000000" d="M 437.177 403.467 L 437.177,407.821 L 446.853,407.821 L 451.872,416.852 L 457.234,407.821 L 466.899,407.821 L 466.899,403.467 L 472.927,408.809 L 466.899,414.161 L 466.899,410.492 L 459.895,410.492 L 454.21,420.52 L 459.895,430.882 L 466.899,430.882 L 466.899,427.203 L 472.927,432.232 L 466.899,437.574 L 466.899,433.562 L 457.234,433.562 L 451.872,424.209 L 446.853,433.895 L 437.177,433.895 L 437.177,437.574 L 431.16,432.232 L 437.177,427.203 L 437.177,430.882 L 443.849,430.882 L 449.876,420.52 L 443.849,410.492 L 437.177,410.492 L 437.177,413.838 L 431.16,408.809 L 437.177,403.467z"/>
    <path style="fill: #ffffff" d="M 437.509 403.81 L 437.509,408.164 L 447.195,408.164 L 452.214,417.174 L 457.566,408.164 L 467.232,408.164 L 467.232,403.81 L 473.259,409.151 L 467.232,414.513 L 467.232,410.825 L 460.237,410.825 L 454.543,420.863 L 460.237,431.214 L 467.232,431.214 L 467.232,427.535 L 473.259,432.545 L 467.232,437.906 L 467.232,433.895 L 457.566,433.895 L 452.214,424.532 L 447.195,434.238 L 437.509,434.238 L 437.509,437.906 L 431.492,432.545 L 437.509,427.535 L 437.509,431.214 L 444.202,431.214 L 450.209,420.863 L 444.202,410.825 L 437.509,410.825 L 437.509,414.161 L 431.492,409.151 L 437.509,403.81z"/>
  </g>
  <g>
    <path style="fill: #0078aa" d="M 236.331 432.748 L 236.291,432.275 L 236.19,431.791 L 236.019,431.307 L 235.767,430.844 L 235.455,430.36 L 235.072,429.906 L 234.628,429.443 L 234.094,428.999 L 233.519,428.566 L 232.874,428.142 L 232.159,427.709 L 231.393,427.316 L 230.566,426.923 L 229.689,426.55 L 228.742,426.197 L 227.764,425.855 L 226.726,425.532 L 225.638,425.23 L 224.519,424.937 L 223.35,424.675 L 222.15,424.433 L 220.901,424.212 L 219.631,423.99 L 218.341,423.809 L 217.02,423.667 L 215.68,423.536 L 214.309,423.426 L 212.948,423.345 L 211.568,423.284 L 210.157,423.234 L 208.766,423.234 L 208.766,423.234 L 207.375,423.234 L 205.974,423.284 L 204.593,423.345 L 203.222,423.426 L 201.862,423.536 L 200.521,423.667 L 199.191,423.809 L 197.901,423.99 L 196.631,424.212 L 195.391,424.433 L 194.182,424.675 L 193.012,424.937 L 191.894,425.23 L 190.805,425.532 L 189.777,425.855 L 188.789,426.197 L 187.852,426.55 L 186.965,426.923 L 186.139,427.316 L 185.373,427.709 L 184.657,428.142 L 184.012,428.566 L 183.437,428.999 L 182.913,429.443 L 182.47,429.906 L 182.087,430.36 L 181.764,430.844 L 181.522,431.307 L 181.341,431.791 L 181.24,432.275 L 181.21,432.748 L 181.21,432.748 L 181.24,433.242 L 181.341,433.726 L 181.522,434.2 L 181.764,434.674 L 182.087,435.147 L 182.47,435.611 L 182.913,436.064 L 183.437,436.518 L 184.012,436.951 L 184.657,437.375 L 185.373,437.788 L 186.139,438.201 L 186.965,438.594 L 187.852,438.957 L 188.789,439.31 L 189.777,439.663 L 190.805,439.985 L 191.894,440.287 L 193.012,440.56 L 194.182,440.842 L 195.391,441.074 L 196.631,441.305 L 197.901,441.507 L 199.191,441.688 L 200.521,441.83 L 201.862,441.981 L 203.222,442.071 L 204.593,442.162 L 205.974,442.233 L 207.375,442.263 L 208.766,442.273 L 208.766,442.273 L 210.157,442.263 L 211.568,442.233 L 212.948,442.162 L 214.309,442.071 L 215.68,441.981 L 217.02,441.83 L 218.341,441.688 L 219.631,441.507 L 220.901,441.305 L 222.15,441.074 L 223.35,440.842 L 224.519,440.56 L 225.638,440.287 L 226.726,439.985 L 227.764,439.663 L 228.742,439.31 L 229.689,438.957 L 230.566,438.594 L 231.393,438.201 L 232.159,437.788 L 232.874,437.375 L 233.519,436.951 L 234.094,436.518 L 234.628,436.064 L 235.072,435.611 L 235.455,435.147 L 235.767,434.674 L 236.019,434.2 L 236.19,433.726 L 236.291,433.242 L 236.331,432.748z"/>
    <path style="fill: none; fill-opacity:0; stroke-width: 0.02; stroke: #aae6ff" d="M 236.019 432.597 L 235.969,432.124 L 235.888,431.65 L 235.696,431.176 L 235.455,430.723 L 235.132,430.239 L 234.759,429.785 L 234.316,429.352 L 233.792,428.908 L 233.207,428.465 L 232.572,428.052 L 231.866,427.649 L 231.1,427.255 L 230.284,426.862 L 229.407,426.5 L 228.47,426.137 L 227.482,425.814 L 226.454,425.492 L 225.376,425.189 L 224.267,424.917 L 223.108,424.635 L 221.898,424.413 L 220.679,424.181 L 219.419,423.99 L 218.139,423.798 L 216.829,423.657 L 215.478,423.536 L 214.138,423.426 L 212.767,423.345 L 211.396,423.284 L 209.995,423.234 L 208.614,423.234 L 208.614,423.234 L 207.224,423.234 L 205.833,423.284 L 204.452,423.345 L 203.091,423.426 L 201.741,423.536 L 200.4,423.657 L 199.09,423.798 L 197.79,423.99 L 196.53,424.181 L 195.32,424.413 L 194.111,424.635 L 192.962,424.917 L 191.853,425.189 L 190.775,425.492 L 189.737,425.814 L 188.759,426.137 L 187.822,426.5 L 186.945,426.862 L 186.118,427.255 L 185.362,427.649 L 184.657,428.052 L 184.012,428.465 L 183.427,428.908 L 182.913,429.352 L 182.47,429.785 L 182.087,430.239 L 181.764,430.723 L 181.522,431.176 L 181.351,431.65 L 181.25,432.124 L 181.24,432.234"/>
    <path style="fill: none; fill-opacity:0; stroke-width: 0.02; stroke: #aae6ff" d="M 181.24 432.95 L 181.25,433.071 L 181.351,433.545 L 181.522,434.008 L 181.764,434.482 L 182.087,434.946 L 182.47,435.399 L 182.913,435.843 L 183.427,436.276 L 184.012,436.709 L 184.657,437.153 L 185.362,437.536 L 186.118,437.949 L 186.945,438.332 L 187.822,438.705 L 188.759,439.048 L 189.737,439.39 L 190.775,439.703 L 191.853,439.995 L 192.962,440.277 L 194.111,440.55 L 195.32,440.781 L 196.53,441.003 L 197.79,441.195 L 199.09,441.376 L 200.4,441.517 L 201.741,441.658 L 203.091,441.759 L 204.452,441.83 L 205.833,441.91 L 207.224,441.95 L 208.614,441.95 L 208.614,441.95 L 209.995,441.95 L 211.396,441.91 L 212.767,441.83 L 214.138,441.759 L 215.478,441.658 L 216.829,441.517 L 218.139,441.376 L 219.419,441.195 L 220.679,441.003 L 221.898,440.781 L 223.108,440.55 L 224.267,440.277 L 225.376,439.995 L 226.454,439.703 L 227.482,439.39 L 228.47,439.048 L 229.407,438.705 L 230.284,438.332 L 231.1,437.949 L 231.866,437.536 L 232.572,437.153 L 233.207,436.709 L 233.792,436.276 L 234.316,435.843 L 234.759,435.399 L 235.132,434.946 L 235.455,434.482 L 235.696,434.008 L 235.888,433.545 L 235.969,433.071 L 236.019,432.597"/>
    <path style="fill: #0078aa" d="M 181.21 392.806 L 181.21,432.93 L 236.019,432.93 L 236.019,392.806 L 181.21,392.806z"/>
    <path style="fill: #00b4ff" d="M 236.331 392.624 L 236.291,392.151 L 236.19,391.667 L 236.019,391.183 L 235.767,390.72 L 235.455,390.236 L 235.072,389.782 L 234.628,389.329 L 234.094,388.875 L 233.519,388.442 L 232.874,388.018 L 232.159,387.585 L 231.393,387.192 L 230.566,386.799 L 229.689,386.436 L 228.742,386.063 L 227.764,385.731 L 226.726,385.408 L 225.638,385.106 L 224.519,384.813 L 223.35,384.551 L 222.15,384.299 L 220.901,384.088 L 219.631,383.866 L 218.341,383.705 L 217.02,383.543 L 215.68,383.412 L 214.309,383.301 L 212.948,383.231 L 211.568,383.16 L 210.157,383.11 L 208.766,383.11 L 208.766,383.11 L 207.375,383.11 L 205.974,383.16 L 204.593,383.231 L 203.222,383.301 L 201.862,383.412 L 200.521,383.543 L 199.191,383.705 L 197.901,383.866 L 196.631,384.088 L 195.391,384.299 L 194.182,384.551 L 193.012,384.813 L 191.894,385.106 L 190.805,385.408 L 189.777,385.731 L 188.789,386.063 L 187.852,386.436 L 186.965,386.799 L 186.139,387.192 L 185.373,387.585 L 184.657,388.018 L 184.012,388.442 L 183.437,388.875 L 182.913,389.329 L 182.47,389.782 L 182.087,390.236 L 181.764,390.72 L 181.522,391.183 L 181.341,391.667 L 181.24,392.151 L 181.21,392.624 L 181.21,392.624 L 181.24,393.118 L 181.341,393.602 L 181.522,394.066 L 181.764,394.55 L 182.087,395.013 L 182.47,395.487 L 182.913,395.95 L 183.437,396.394 L 184.012,396.827 L 184.657,397.251 L 185.373,397.664 L 186.139,398.077 L 186.965,398.47 L 187.852,398.843 L 188.789,399.186 L 189.777,399.539 L 190.805,399.861 L 191.894,400.163 L 193.012,400.446 L 194.182,400.718 L 195.391,400.95 L 196.631,401.181 L 197.901,401.383 L 199.191,401.564 L 200.521,401.726 L 201.862,401.857 L 203.222,401.947 L 204.593,402.048 L 205.974,402.109 L 207.375,402.139 L 208.766,402.159 L 208.766,402.159 L 210.157,402.139 L 211.568,402.109 L 212.948,402.048 L 214.309,401.947 L 215.68,401.857 L 217.02,401.726 L 218.341,401.564 L 219.631,401.383 L 220.901,401.181 L 222.15,400.95 L 223.35,400.718 L 224.519,400.446 L 225.638,400.163 L 226.726,399.861 L 227.764,399.539 L 228.742,399.186 L 229.689,398.843 L 230.566,398.47 L 231.393,398.077 L 232.159,397.664 L 232.874,397.251 L 233.519,396.827 L 234.094,396.394 L 234.628,395.95 L 235.072,395.487 L 235.455,395.013 L 235.767,394.55 L 236.019,394.066 L 236.19,393.602 L 236.291,393.118 L 236.331,392.624z"/>
    <path style="fill: none; fill-opacity:0; stroke-width: 0.02; stroke: #aae6ff" d="M 236.019 392.473 L 235.969,391.989 L 235.888,391.526 L 235.696,391.052 L 235.455,390.599 L 235.132,390.115 L 234.759,389.661 L 234.316,389.218 L 233.792,388.774 L 233.207,388.351 L 232.572,387.928 L 231.866,387.514 L 231.1,387.131 L 230.284,386.738 L 229.407,386.376 L 228.47,386.003 L 227.482,385.69 L 226.454,385.368 L 225.376,385.065 L 224.267,384.793 L 223.108,384.521 L 221.898,384.289 L 220.679,384.057 L 219.419,383.866 L 218.139,383.684 L 216.829,383.543 L 215.478,383.412 L 214.138,383.291 L 212.767,383.231 L 211.396,383.16 L 209.995,383.11 L 208.614,383.11"/>
    <path style="fill: none; fill-opacity:0; stroke-width: 0.02; stroke: #aae6ff" d="M 208.614 383.11 L 207.224,383.11 L 205.833,383.16 L 204.452,383.231 L 203.091,383.291 L 201.741,383.412 L 200.4,383.543 L 199.09,383.684 L 197.79,383.866 L 196.53,384.057 L 195.32,384.289 L 194.111,384.521 L 192.962,384.793 L 191.853,385.065 L 190.775,385.368 L 189.737,385.69 L 188.759,386.003 L 187.822,386.376 L 186.945,386.738 L 186.118,387.131 L 185.362,387.514 L 184.657,387.928 L 184.012,388.351 L 183.427,388.774 L 182.913,389.218 L 182.47,389.661 L 182.087,390.115 L 181.764,390.599 L 181.522,391.052 L 181.351,391.526 L 181.25,391.989 L 181.24,392.11"/>
    <path style="fill: none; fill-opacity:0; stroke-width: 0.02; stroke: #aae6ff" d="M 181.24 392.836 L 181.25,392.947 L 181.351,393.421 L 181.522,393.874 L 181.764,394.358 L 182.087,394.822 L 182.47,395.275 L 182.913,395.719 L 183.427,396.152 L 184.012,396.585 L 184.657,397.029 L 185.362,397.412 L 186.118,397.825 L 186.945,398.208 L 187.822,398.581 L 188.759,398.924 L 189.737,399.266 L 190.775,399.579 L 191.853,399.871 L 192.962,400.153 L 194.111,400.426 L 195.32,400.667 L 196.53,400.869 L 197.79,401.071 L 199.09,401.252 L 200.4,401.413 L 201.741,401.534 L 203.091,401.635 L 204.452,401.726 L 205.833,401.786 L 207.224,401.816 L 208.614,401.826 L 208.614,401.826 L 209.995,401.816 L 211.396,401.786 L 212.767,401.726 L 214.138,401.635 L 215.478,401.534 L 216.829,401.413 L 218.139,401.252 L 219.419,401.071 L 220.679,400.869 L 221.898,400.667 L 223.108,400.426 L 224.267,400.153 L 225.376,399.871 L 226.454,399.579 L 227.482,399.266 L 228.47,398.924 L 229.407,398.581 L 230.284,398.208 L 231.1,397.825 L 231.866,397.412 L 232.572,397.029 L 233.207,396.585 L 233.792,396.152 L 234.316,395.719 L 234.759,395.275 L 235.132,394.822 L 235.455,394.358 L 235.696,393.874 L 235.888,393.421 L 235.969,392.947 L 236.019,392.473"/>
    <path style="fill: #000000" d="M 209.28 390.468 L 213.291,391.798 L 222.977,387.777 L 227.321,389.127 L 224.972,385.791 L 213.634,385.791 L 218.3,386.789 L 209.28,390.468z"/>
    <path style="fill: #000000" d="M 207.597 394.136 L 203.595,392.806 L 194.242,396.827 L 189.575,395.467 L 191.914,399.166 L 203.595,399.166 L 198.596,397.825 L 207.597,394.136z"/>
    <path style="fill: #000000" d="M 190.573 386.789 L 194.565,385.438 L 204.26,389.127 L 208.614,388.129 L 206.276,391.465 L 194.907,391.465 L 199.574,390.468 L 190.573,386.789z"/>
    <path style="fill: #000000" d="M 226.646 398.158 L 222.634,399.488 L 213.291,395.467 L 208.614,396.827 L 210.943,393.471 L 222.634,393.471 L 217.635,394.489 L 226.646,398.158z"/>
    <path style="fill: #ffffff" d="M 209.612 390.79 L 213.634,392.121 L 223.299,388.129 L 227.653,389.47 L 225.315,386.124 L 213.966,386.124 L 218.633,387.111 L 209.612,390.79z"/>
    <path style="fill: #ffffff" d="M 207.939 394.489 L 203.918,393.138 L 194.565,397.15 L 189.898,395.809 L 192.236,399.488 L 203.918,399.488 L 198.919,398.158 L 207.939,394.489z"/>
    <path style="fill: #ffffff" d="M 190.906 387.111 L 194.907,385.791 L 204.593,389.47 L 208.937,388.462 L 206.609,391.798 L 195.23,391.798 L 199.916,390.79 L 190.906,387.111z"/>
    <path style="fill: #ffffff" d="M 226.978 398.48 L 222.977,399.831 L 213.634,395.809 L 208.937,397.15 L 211.275,393.814 L 222.977,393.814 L 217.988,394.822 L 226.978,398.48z"/>
    <path style="fill: none; fill-opacity:0; stroke-width: 0.02; stroke: #aae6ff" d="M 181.21 392.473 L 181.21,432.587"/>
    <path style="fill: none; fill-opacity:0; stroke-width: 0.02; stroke: #aae6ff" d="M 236.019 392.473 L 236.019,432.587"/>
    <path style="fill: #000000" d="M 193.577 403.167 L 193.577,407.521 L 203.253,407.521 L 208.272,416.552 L 213.634,407.521 L 223.299,407.521 L 223.299,403.167 L 229.327,408.509 L 223.299,413.861 L 223.299,410.192 L 216.295,410.192 L 210.61,420.22 L 216.295,430.582 L 223.299,430.582 L 223.299,426.903 L 229.327,431.932 L 223.299,437.274 L 223.299,433.262 L 213.634,433.262 L 208.272,423.909 L 203.253,433.595 L 193.577,433.595 L 193.577,437.274 L 187.56,431.932 L 193.577,426.903 L 193.577,430.582 L 200.249,430.582 L 206.276,420.22 L 200.249,410.192 L 193.577,410.192 L 193.577,413.538 L 187.56,408.509 L 193.577,403.167z"/>
    <path style="fill: #ffffff" d="M 193.909 403.51 L 193.909,407.864 L 203.595,407.864 L 208.614,416.874 L 213.966,407.864 L 223.632,407.864 L 223.632,403.51 L 229.659,408.851 L 223.632,414.213 L 223.632,410.525 L 216.637,410.525 L 210.943,420.563 L 216.637,430.914 L 223.632,430.914 L 223.632,427.235 L 229.659,432.245 L 223.632,437.606 L 223.632,433.595 L 213.966,433.595 L 208.614,424.232 L 203.595,433.938 L 193.909,433.938 L 193.909,437.606 L 187.892,432.245 L 193.909,427.235 L 193.909,430.914 L 200.602,430.914 L 206.609,420.563 L 200.602,410.525 L 193.909,410.525 L 193.909,413.861 L 187.892,408.851 L 193.909,403.51z"/>
  </g>
  <line style="fill: none; fill-opacity:0; stroke-width: 2; stroke: #000000" x1="236.032" y1="395.703" x2="303" y2="354.037"/>
  <line style="fill: none; fill-opacity:0; stroke-width: 2; stroke: #000000" x1="358.121" y1="354.037" x2="424.81" y2="390.415"/>
  <line style="fill: none; fill-opacity:0; stroke-width: 2; stroke: #000000" x1="424.81" y1="435.447" x2="359.531" y2="467.836"/>
  <line style="fill: none; fill-opacity:0; stroke-width: 2; stroke: #000000" x1="236.331" y1="435.147" x2="304" y2="472"/>
  <line style="fill: none; fill-opacity:0; stroke-width: 2; stroke: #000000" x1="330.865" y1="361.174" x2="331.915" y2="460.71"/>
  <line style="fill: none; fill-opacity:0; stroke-width: 2; stroke: #000000" x1="424.812" y1="412.935" x2="236.016" y2="412.702"/>
  <line style="fill: none; fill-opacity:0; stroke-width: 2; stroke-dasharray: 4; stroke: #000000" x1="303" y1="331.521" x2="213" y2="382"/>
  <line style="fill: none; fill-opacity:0; stroke-width: 2; stroke-dasharray: 4; stroke: #000000" x1="361" y1="334" x2="450" y2="381"/>
  <line style="fill: none; fill-opacity:0; stroke-width: 2; stroke-dasharray: 4; stroke: #000000" x1="449" y1="446" x2="359.531" y2="490.292"/>
  <line style="fill: none; fill-opacity:0; stroke-width: 2; stroke-dasharray: 4; stroke: #000000" x1="208.766" y1="442.273" x2="304.41" y2="490.231"/>
  <text style="fill: #000000;text-anchor:start;font-size:12.8;font-family:sanserif;font-style:normal;font-weight:normal" x="340.002" y="287">
    <tspan x="340.002" y="287"></tspan>
  </text>
  <text style="fill: #000000;text-anchor:start;font-size:12.7998;font-family:sanserif;font-style:normal;font-weight:normal" x="106" y="416">
    <tspan x="106" y="416">Router A</tspan>
  </text>
  <text style="fill: #000000;text-anchor:start;font-size:12.7998;font-family:sanserif;font-style:normal;font-weight:normal" x="302.6" y="284.1">
    <tspan x="302.6" y="284.1">Router B</tspan>
  </text>
  <text style="fill: #000000;text-anchor:start;font-size:12.7998;font-family:sanserif;font-style:normal;font-weight:normal" x="501.2" y="414.3">
    <tspan x="501.2" y="414.3">Router C</tspan>
  </text>
  <text style="fill: #000000;text-anchor:start;font-size:12.7998;font-family:sanserif;font-style:normal;font-weight:normal" x="304.8" y="548.5">
    <tspan x="304.8" y="548.5">Router D</tspan>
  </text>
</svg>
