<?xml version="1.0" encoding="UTF-8" standalone="no"?>
<!DOCTYPE svg PUBLIC "-//W3C//DTD SVG 1.0//EN" "http://www.w3.org/TR/2001/PR-SVG-20010719/DTD/svg10.dtd">
<svg width="29cm" height="16cm" viewBox="30 155 563 315" xmlns="http://www.w3.org/2000/svg" xmlns:xlink="http://www.w3.org/1999/xlink">
  <g>
    <path style="fill: #0078aa" d="M 241.872 204.248 L 241.815,203.649 L 241.691,203.05 L 241.482,202.461 L 241.188,201.881 L 240.788,201.291 L 240.322,200.721 L 239.761,200.16 L 239.134,199.608 L 238.411,199.066 L 237.613,198.543 L 236.747,198.039 L 235.806,197.526 L 234.789,197.041 L 233.705,196.585 L 232.545,196.147 L 231.328,195.729 L 230.063,195.32 L 228.732,194.949 L 227.353,194.598 L 225.918,194.265 L 224.435,193.961 L 222.904,193.704 L 221.344,193.438 L 219.766,193.228 L 218.14,193.029 L 216.486,192.877 L 214.812,192.734 L 213.12,192.639 L 211.428,192.544 L 209.716,192.515 L 208.005,192.487 L 208.005,192.487 L 206.284,192.515 L 204.572,192.544 L 202.88,192.639 L 201.188,192.734 L 199.514,192.877 L 197.86,193.029 L 196.234,193.228 L 194.646,193.438 L 193.087,193.704 L 191.565,193.961 L 190.082,194.265 L 188.647,194.598 L 187.268,194.949 L 185.937,195.32 L 184.663,195.729 L 183.455,196.147 L 182.295,196.585 L 181.211,197.041 L 180.194,197.526 L 179.253,198.039 L 178.387,198.543 L 177.589,199.066 L 176.866,199.608 L 176.239,200.16 L 175.678,200.721 L 175.212,201.291 L 174.812,201.881 L 174.508,202.461 L 174.29,203.05 L 174.175,203.649 L 174.128,204.248 L 174.128,204.248 L 174.175,204.838 L 174.29,205.437 L 174.508,206.026 L 174.812,206.606 L 175.212,207.196 L 175.678,207.766 L 176.239,208.327 L 176.866,208.879 L 177.589,209.42 L 178.387,209.943 L 179.253,210.466 L 180.194,210.961 L 181.211,211.446 L 182.295,211.902 L 183.455,212.358 L 184.663,212.777 L 185.937,213.167 L 187.268,213.547 L 188.647,213.889 L 190.082,214.222 L 191.565,214.526 L 193.087,214.802 L 194.646,215.049 L 196.234,215.277 L 197.86,215.458 L 199.514,215.629 L 201.188,215.753 L 202.88,215.867 L 204.572,215.943 L 206.284,215.99 L 208.005,216 L 208.005,216 L 209.716,215.99 L 211.428,215.943 L 213.12,215.867 L 214.812,215.753 L 216.486,215.629 L 218.14,215.458 L 219.766,215.277 L 221.344,215.049 L 222.904,214.802 L 224.435,214.526 L 225.918,214.222 L 227.353,213.889 L 228.732,213.547 L 230.063,213.167 L 231.328,212.777 L 232.545,212.358 L 233.705,211.902 L 234.789,211.446 L 235.806,210.961 L 236.747,210.466 L 237.613,209.943 L 238.411,209.42 L 239.134,208.879 L 239.761,208.327 L 240.322,207.766 L 240.788,207.196 L 241.188,206.606 L 241.482,206.026 L 241.691,205.437 L 241.815,204.838 L 241.872,204.248z"/>
    <path style="fill: none; fill-opacity:0; stroke-width: 0.02; stroke: #aae6ff" d="M 241.473 204.058 L 241.425,203.459 L 241.311,202.889 L 241.092,202.299 L 240.798,201.729 L 240.408,201.158 L 239.913,200.597 L 239.4,200.055 L 238.754,199.504 L 238.04,198.971 L 237.251,198.439 L 236.377,197.944 L 235.445,197.45 L 234.437,196.975 L 233.362,196.518 L 232.222,196.081 L 231.005,195.681 L 229.73,195.301 L 228.418,194.911 L 227.049,194.588 L 225.623,194.246 L 224.14,193.951 L 222.638,193.685 L 221.097,193.438 L 219.509,193.228 L 217.903,193.029 L 216.248,192.877 L 214.594,192.734 L 212.911,192.639 L 211.218,192.572 L 209.517,192.515 L 207.815,192.515 L 207.815,192.515 L 206.094,192.515 L 204.401,192.572 L 202.699,192.639 L 201.035,192.734 L 199.372,192.877 L 197.727,193.029 L 196.11,193.228 L 194.522,193.438 L 192.973,193.685 L 191.47,193.951 L 189.987,194.246 L 188.561,194.588 L 187.201,194.911 L 185.88,195.301 L 184.606,195.681 L 183.398,196.081 L 182.267,196.518 L 181.192,196.975 L 180.175,197.45 L 179.224,197.944 L 178.378,198.439 L 177.579,198.971 L 176.866,199.504 L 176.239,200.055 L 175.687,200.597 L 175.212,201.158 L 174.831,201.729 L 174.527,202.299 L 174.309,202.889 L 174.185,203.459 L 174.137,204.058 L 174.137,204.058 L 174.185,204.638 L 174.309,205.237 L 174.527,205.798 L 174.831,206.378 L 175.212,206.958 L 175.687,207.509 L 176.239,208.061 L 176.866,208.612 L 177.579,209.135 L 178.378,209.668 L 179.224,210.172 L 180.175,210.647 L 181.192,211.132 L 182.267,211.598 L 183.398,212.016 L 184.606,212.425 L 185.88,212.815 L 187.201,213.195 L 188.561,213.528 L 189.987,213.851 L 191.47,214.155 L 192.973,214.422 L 194.522,214.659 L 196.11,214.888 L 197.727,215.078 L 199.372,215.23 L 201.035,215.363 L 202.699,215.458 L 204.401,215.544 L 206.094,215.591 L 207.815,215.601 L 207.815,215.601 L 209.517,215.591 L 211.218,215.544 L 212.911,215.458 L 214.594,215.363 L 216.248,215.23 L 217.903,215.078 L 219.509,214.888 L 221.097,214.659 L 222.638,214.422 L 224.14,214.155 L 225.623,213.851 L 227.049,213.528 L 228.418,213.195 L 229.73,212.815 L 231.005,212.425 L 232.222,212.016 L 233.362,211.598 L 234.437,211.132 L 235.445,210.647 L 236.377,210.172 L 237.251,209.668 L 238.04,209.135 L 238.754,208.612 L 239.4,208.061 L 239.913,207.509 L 240.408,206.958 L 240.798,206.378 L 241.092,205.798 L 241.311,205.237 L 241.425,204.638 L 241.473,204.058"/>
    <path style="fill: #0078aa" d="M 174.137 187.961 L 174.137,204.467 L 241.473,204.467 L 241.473,187.961 L 174.137,187.961z"/>
    <path style="fill: #00b4ff" d="M 241.872 187.761 L 241.815,187.162 L 241.691,186.554 L 241.482,185.974 L 241.188,185.384 L 240.788,184.795 L 240.322,184.224 L 239.761,183.663 L 239.134,183.121 L 238.411,182.57 L 237.613,182.057 L 236.747,181.534 L 235.806,181.039 L 234.789,180.545 L 233.705,180.098 L 232.545,179.651 L 231.328,179.223 L 230.063,178.824 L 228.732,178.453 L 227.353,178.101 L 225.918,177.778 L 224.435,177.483 L 222.904,177.198 L 221.344,176.951 L 219.766,176.723 L 218.14,176.532 L 216.486,176.371 L 214.812,176.238 L 213.12,176.133 L 211.428,176.057 L 209.716,176.01 L 208.005,176 L 208.005,176 L 206.284,176.01 L 204.572,176.057 L 202.88,176.133 L 201.188,176.238 L 199.514,176.371 L 197.86,176.532 L 196.234,176.723 L 194.646,176.951 L 193.087,177.198 L 191.565,177.483 L 190.082,177.778 L 188.647,178.101 L 187.268,178.453 L 185.937,178.824 L 184.663,179.223 L 183.455,179.651 L 182.295,180.098 L 181.211,180.545 L 180.194,181.039 L 179.253,181.534 L 178.387,182.057 L 177.589,182.57 L 176.866,183.121 L 176.239,183.663 L 175.678,184.224 L 175.212,184.795 L 174.812,185.384 L 174.508,185.974 L 174.29,186.554 L 174.175,187.162 L 174.128,187.761 L 174.128,187.761 L 174.175,188.351 L 174.29,188.95 L 174.508,189.539 L 174.812,190.11 L 175.212,190.699 L 175.678,191.27 L 176.239,191.831 L 176.866,192.392 L 177.589,192.934 L 178.387,193.447 L 179.253,193.961 L 180.194,194.474 L 181.211,194.949 L 182.295,195.406 L 183.455,195.853 L 184.663,196.271 L 185.937,196.68 L 187.268,197.041 L 188.647,197.393 L 190.082,197.726 L 191.565,198.039 L 193.087,198.296 L 194.646,198.553 L 196.234,198.781 L 197.86,198.962 L 199.514,199.123 L 201.188,199.256 L 202.88,199.361 L 204.572,199.447 L 206.284,199.494 L 208.005,199.504 L 208.005,199.504 L 209.716,199.494 L 211.428,199.447 L 213.12,199.361 L 214.812,199.256 L 216.486,199.123 L 218.14,198.962 L 219.766,198.781 L 221.344,198.553 L 222.904,198.296 L 224.435,198.039 L 225.918,197.726 L 227.353,197.393 L 228.732,197.041 L 230.063,196.68 L 231.328,196.271 L 232.545,195.853 L 233.705,195.406 L 234.789,194.949 L 235.806,194.474 L 236.747,193.961 L 237.613,193.447 L 238.411,192.934 L 239.134,192.392 L 239.761,191.831 L 240.322,191.27 L 240.788,190.699 L 241.188,190.11 L 241.482,189.539 L 241.691,188.95 L 241.815,188.351 L 241.872,187.761z"/>
    <path style="fill: none; fill-opacity:0; stroke-width: 0.02; stroke: #aae6ff" d="M 241.473 187.562 L 241.425,186.963 L 241.311,186.392 L 241.092,185.812 L 240.798,185.232 L 240.408,184.671 L 239.913,184.091 L 239.4,183.559 L 238.754,183.007 L 238.04,182.484 L 237.251,181.942 L 236.377,181.458 L 235.445,180.954 L 234.437,180.478 L 233.362,180.041 L 232.222,179.585 L 231.005,179.204 L 229.73,178.795 L 228.418,178.425 L 227.049,178.082 L 225.623,177.749 L 224.14,177.455 L 222.638,177.188 L 221.097,176.951 L 219.509,176.723 L 217.903,176.532 L 216.248,176.38 L 214.594,176.238 L 212.911,176.143 L 211.218,176.067 L 209.517,176.019 L 207.815,176.01 L 207.815,176.01 L 206.094,176.019 L 204.401,176.067 L 202.699,176.143 L 201.035,176.238 L 199.372,176.38 L 197.727,176.532 L 196.11,176.723 L 194.522,176.951 L 192.973,177.188 L 191.47,177.455 L 189.987,177.749 L 188.561,178.082 L 187.201,178.425 L 185.88,178.795 L 184.606,179.204 L 183.398,179.585 L 182.267,180.041 L 181.192,180.478 L 180.175,180.954 L 179.224,181.458 L 178.378,181.942 L 177.579,182.484 L 176.866,183.007 L 176.239,183.559 L 175.687,184.091 L 175.212,184.671 L 174.831,185.232 L 174.527,185.812 L 174.309,186.392 L 174.185,186.963 L 174.137,187.562 L 174.137,187.562 L 174.185,188.151 L 174.309,188.731 L 174.527,189.311 L 174.831,189.882 L 175.212,190.452 L 175.687,191.023 L 176.239,191.565 L 176.866,192.116 L 177.579,192.639 L 178.378,193.171 L 179.224,193.675 L 180.175,194.151 L 181.192,194.636 L 182.267,195.092 L 183.398,195.52 L 184.606,195.929 L 185.88,196.319 L 187.201,196.689 L 188.561,197.032 L 189.987,197.364 L 191.47,197.678 L 192.973,197.925 L 194.522,198.182 L 196.11,198.401 L 197.727,198.581 L 199.372,198.753 L 201.035,198.886 L 202.699,198.971 L 204.401,199.057 L 206.094,199.104 L 207.815,199.114 L 207.815,199.114 L 209.517,199.104 L 211.218,199.057 L 212.911,198.971 L 214.594,198.886 L 216.248,198.753 L 217.903,198.581 L 219.509,198.401 L 221.097,198.182 L 222.638,197.925 L 224.14,197.678 L 225.623,197.364 L 227.049,197.032 L 228.418,196.689 L 229.73,196.319 L 231.005,195.929 L 232.222,195.52 L 233.362,195.092 L 234.437,194.636 L 235.445,194.151 L 236.377,193.675 L 237.251,193.171 L 238.04,192.639 L 238.754,192.116 L 239.4,191.565 L 239.913,191.023 L 240.408,190.452 L 240.798,189.882 L 241.092,189.311 L 241.311,188.731 L 241.425,188.151 L 241.473,187.562"/>
    <path style="fill: #000000" d="M 208.632 185.09 L 213.557,186.744 L 225.471,181.781 L 230.805,183.426 L 227.924,179.318 L 213.976,179.318 L 219.709,180.545 L 208.632,185.09z"/>
    <path style="fill: #000000" d="M 206.569 189.625 L 201.653,187.961 L 190.149,192.934 L 184.406,191.27 L 187.268,195.805 L 201.653,195.805 L 195.483,194.151 L 206.569,189.625z"/>
    <path style="fill: #000000" d="M 185.633 180.545 L 190.548,178.9 L 202.471,183.426 L 207.815,182.199 L 204.943,186.307 L 190.966,186.307 L 196.709,185.09 L 185.633,180.545z"/>
    <path style="fill: #000000" d="M 229.978 194.56 L 225.043,196.214 L 213.557,191.27 L 207.815,192.934 L 210.686,188.788 L 225.043,188.788 L 218.891,190.024 L 229.978,194.56z"/>
    <path style="fill: #ffffff" d="M 209.041 185.498 L 213.976,187.143 L 225.861,182.199 L 231.214,183.854 L 228.333,179.718 L 214.375,179.718 L 220.127,180.944 L 209.041,185.498z"/>
    <path style="fill: #ffffff" d="M 206.987 190.024 L 202.043,188.379 L 190.548,193.324 L 184.805,191.679 L 187.677,196.214 L 202.043,196.214 L 195.892,194.56 L 206.987,190.024z"/>
    <path style="fill: #ffffff" d="M 186.041 180.944 L 190.966,179.318 L 202.88,183.854 L 208.214,182.599 L 205.352,186.744 L 191.375,186.744 L 197.137,185.498 L 186.041,180.944z"/>
    <path style="fill: #ffffff" d="M 230.377 194.987 L 225.471,196.632 L 213.976,191.679 L 208.214,193.324 L 211.085,189.216 L 225.471,189.216 L 219.31,190.443 L 230.377,194.987z"/>
    <path style="fill: none; fill-opacity:0; stroke-width: 0.02; stroke: #aae6ff" d="M 174.137 187.562 L 174.137,204.039"/>
    <path style="fill: none; fill-opacity:0; stroke-width: 0.02; stroke: #aae6ff" d="M 241.473 187.562 L 241.473,204.039"/>
  </g>
  <g>
    <path style="fill: #0078aa" d="M 175.872 457.248 L 175.815,456.649 L 175.691,456.05 L 175.482,455.461 L 175.188,454.881 L 174.788,454.291 L 174.322,453.721 L 173.761,453.16 L 173.134,452.608 L 172.411,452.066 L 171.613,451.543 L 170.747,451.039 L 169.806,450.526 L 168.789,450.041 L 167.705,449.585 L 166.545,449.147 L 165.328,448.729 L 164.063,448.32 L 162.732,447.949 L 161.353,447.598 L 159.918,447.265 L 158.435,446.961 L 156.904,446.704 L 155.344,446.438 L 153.766,446.228 L 152.14,446.029 L 150.486,445.877 L 148.812,445.734 L 147.12,445.639 L 145.428,445.544 L 143.716,445.515 L 142.005,445.487 L 142.005,445.487 L 140.284,445.515 L 138.572,445.544 L 136.88,445.639 L 135.188,445.734 L 133.514,445.877 L 131.86,446.029 L 130.234,446.228 L 128.646,446.438 L 127.087,446.704 L 125.565,446.961 L 124.082,447.265 L 122.647,447.598 L 121.268,447.949 L 119.937,448.32 L 118.663,448.729 L 117.455,449.147 L 116.295,449.585 L 115.211,450.041 L 114.194,450.526 L 113.253,451.039 L 112.387,451.543 L 111.589,452.066 L 110.866,452.608 L 110.239,453.16 L 109.678,453.721 L 109.212,454.291 L 108.812,454.881 L 108.508,455.461 L 108.29,456.05 L 108.175,456.649 L 108.128,457.248 L 108.128,457.248 L 108.175,457.838 L 108.29,458.437 L 108.508,459.026 L 108.812,459.606 L 109.212,460.196 L 109.678,460.766 L 110.239,461.327 L 110.866,461.879 L 111.589,462.42 L 112.387,462.943 L 113.253,463.466 L 114.194,463.961 L 115.211,464.446 L 116.295,464.902 L 117.455,465.358 L 118.663,465.777 L 119.937,466.167 L 121.268,466.547 L 122.647,466.889 L 124.082,467.222 L 125.565,467.526 L 127.087,467.802 L 128.646,468.049 L 130.234,468.277 L 131.86,468.458 L 133.514,468.629 L 135.188,468.753 L 136.88,468.867 L 138.572,468.943 L 140.284,468.99 L 142.005,469 L 142.005,469 L 143.716,468.99 L 145.428,468.943 L 147.12,468.867 L 148.812,468.753 L 150.486,468.629 L 152.14,468.458 L 153.766,468.277 L 155.344,468.049 L 156.904,467.802 L 158.435,467.526 L 159.918,467.222 L 161.353,466.889 L 162.732,466.547 L 164.063,466.167 L 165.328,465.777 L 166.545,465.358 L 167.705,464.902 L 168.789,464.446 L 169.806,463.961 L 170.747,463.466 L 171.613,462.943 L 172.411,462.42 L 173.134,461.879 L 173.761,461.327 L 174.322,460.766 L 174.788,460.196 L 175.188,459.606 L 175.482,459.026 L 175.691,458.437 L 175.815,457.838 L 175.872,457.248z"/>
    <path style="fill: none; fill-opacity:0; stroke-width: 0.02; stroke: #aae6ff" d="M 175.473 457.058 L 175.425,456.459 L 175.311,455.889 L 175.092,455.299 L 174.798,454.729 L 174.408,454.158 L 173.913,453.597 L 173.4,453.055 L 172.754,452.504 L 172.04,451.971 L 171.251,451.439 L 170.377,450.944 L 169.445,450.45 L 168.437,449.975 L 167.362,449.518 L 166.222,449.081 L 165.005,448.681 L 163.73,448.301 L 162.418,447.911 L 161.049,447.588 L 159.623,447.246 L 158.14,446.951 L 156.638,446.685 L 155.097,446.438 L 153.509,446.228 L 151.903,446.029 L 150.248,445.877 L 148.594,445.734 L 146.911,445.639 L 145.218,445.572 L 143.517,445.515 L 141.815,445.515 L 141.815,445.515 L 140.094,445.515 L 138.401,445.572 L 136.699,445.639 L 135.035,445.734 L 133.372,445.877 L 131.727,446.029 L 130.11,446.228 L 128.522,446.438 L 126.973,446.685 L 125.47,446.951 L 123.987,447.246 L 122.561,447.588 L 121.201,447.911 L 119.88,448.301 L 118.606,448.681 L 117.398,449.081 L 116.267,449.518 L 115.192,449.975 L 114.175,450.45 L 113.224,450.944 L 112.378,451.439 L 111.579,451.971 L 110.866,452.504 L 110.239,453.055 L 109.687,453.597 L 109.212,454.158 L 108.831,454.729 L 108.527,455.299 L 108.309,455.889 L 108.185,456.459 L 108.137,457.058 L 108.137,457.058 L 108.185,457.638 L 108.309,458.237 L 108.527,458.798 L 108.831,459.378 L 109.212,459.958 L 109.687,460.509 L 110.239,461.061 L 110.866,461.612 L 111.579,462.135 L 112.378,462.668 L 113.224,463.172 L 114.175,463.647 L 115.192,464.132 L 116.267,464.598 L 117.398,465.016 L 118.606,465.425 L 119.88,465.815 L 121.201,466.195 L 122.561,466.528 L 123.987,466.851 L 125.47,467.155 L 126.973,467.422 L 128.522,467.659 L 130.11,467.888 L 131.727,468.078 L 133.372,468.23 L 135.035,468.363 L 136.699,468.458 L 138.401,468.544 L 140.094,468.591 L 141.815,468.601 L 141.815,468.601 L 143.517,468.591 L 145.218,468.544 L 146.911,468.458 L 148.594,468.363 L 150.248,468.23 L 151.903,468.078 L 153.509,467.888 L 155.097,467.659 L 156.638,467.422 L 158.14,467.155 L 159.623,466.851 L 161.049,466.528 L 162.418,466.195 L 163.73,465.815 L 165.005,465.425 L 166.222,465.016 L 167.362,464.598 L 168.437,464.132 L 169.445,463.647 L 170.377,463.172 L 171.251,462.668 L 172.04,462.135 L 172.754,461.612 L 173.4,461.061 L 173.913,460.509 L 174.408,459.958 L 174.798,459.378 L 175.092,458.798 L 175.311,458.237 L 175.425,457.638 L 175.473,457.058"/>
    <path style="fill: #0078aa" d="M 108.137 440.961 L 108.137,457.467 L 175.473,457.467 L 175.473,440.961 L 108.137,440.961z"/>
    <path style="fill: #00b4ff" d="M 175.872 440.761 L 175.815,440.162 L 175.691,439.554 L 175.482,438.974 L 175.188,438.384 L 174.788,437.795 L 174.322,437.224 L 173.761,436.663 L 173.134,436.121 L 172.411,435.57 L 171.613,435.057 L 170.747,434.534 L 169.806,434.039 L 168.789,433.545 L 167.705,433.098 L 166.545,432.651 L 165.328,432.223 L 164.063,431.824 L 162.732,431.453 L 161.353,431.101 L 159.918,430.778 L 158.435,430.483 L 156.904,430.198 L 155.344,429.951 L 153.766,429.723 L 152.14,429.532 L 150.486,429.371 L 148.812,429.238 L 147.12,429.133 L 145.428,429.057 L 143.716,429.01 L 142.005,429 L 142.005,429 L 140.284,429.01 L 138.572,429.057 L 136.88,429.133 L 135.188,429.238 L 133.514,429.371 L 131.86,429.532 L 130.234,429.723 L 128.646,429.951 L 127.087,430.198 L 125.565,430.483 L 124.082,430.778 L 122.647,431.101 L 121.268,431.453 L 119.937,431.824 L 118.663,432.223 L 117.455,432.651 L 116.295,433.098 L 115.211,433.545 L 114.194,434.039 L 113.253,434.534 L 112.387,435.057 L 111.589,435.57 L 110.866,436.121 L 110.239,436.663 L 109.678,437.224 L 109.212,437.795 L 108.812,438.384 L 108.508,438.974 L 108.29,439.554 L 108.175,440.162 L 108.128,440.761 L 108.128,440.761 L 108.175,441.351 L 108.29,441.95 L 108.508,442.539 L 108.812,443.11 L 109.212,443.699 L 109.678,444.27 L 110.239,444.831 L 110.866,445.392 L 111.589,445.934 L 112.387,446.447 L 113.253,446.961 L 114.194,447.474 L 115.211,447.949 L 116.295,448.406 L 117.455,448.853 L 118.663,449.271 L 119.937,449.68 L 121.268,450.041 L 122.647,450.393 L 124.082,450.726 L 125.565,451.039 L 127.087,451.296 L 128.646,451.553 L 130.234,451.781 L 131.86,451.962 L 133.514,452.123 L 135.188,452.256 L 136.88,452.361 L 138.572,452.447 L 140.284,452.494 L 142.005,452.504 L 142.005,452.504 L 143.716,452.494 L 145.428,452.447 L 147.12,452.361 L 148.812,452.256 L 150.486,452.123 L 152.14,451.962 L 153.766,451.781 L 155.344,451.553 L 156.904,451.296 L 158.435,451.039 L 159.918,450.726 L 161.353,450.393 L 162.732,450.041 L 164.063,449.68 L 165.328,449.271 L 166.545,448.853 L 167.705,448.406 L 168.789,447.949 L 169.806,447.474 L 170.747,446.961 L 171.613,446.447 L 172.411,445.934 L 173.134,445.392 L 173.761,444.831 L 174.322,444.27 L 174.788,443.699 L 175.188,443.11 L 175.482,442.539 L 175.691,441.95 L 175.815,441.351 L 175.872,440.761z"/>
    <path style="fill: none; fill-opacity:0; stroke-width: 0.02; stroke: #aae6ff" d="M 175.473 440.562 L 175.425,439.963 L 175.311,439.392 L 175.092,438.812 L 174.798,438.232 L 174.408,437.671 L 173.913,437.091 L 173.4,436.559 L 172.754,436.007 L 172.04,435.484 L 171.251,434.942 L 170.377,434.458 L 169.445,433.954 L 168.437,433.478 L 167.362,433.041 L 166.222,432.585 L 165.005,432.204 L 163.73,431.795 L 162.418,431.425 L 161.049,431.082 L 159.623,430.749 L 158.14,430.455 L 156.638,430.188 L 155.097,429.951 L 153.509,429.723 L 151.903,429.532 L 150.248,429.38 L 148.594,429.238 L 146.911,429.143 L 145.218,429.067 L 143.517,429.019 L 141.815,429.01 L 141.815,429.01 L 140.094,429.019 L 138.401,429.067 L 136.699,429.143 L 135.035,429.238 L 133.372,429.38 L 131.727,429.532 L 130.11,429.723 L 128.522,429.951 L 126.973,430.188 L 125.47,430.455 L 123.987,430.749 L 122.561,431.082 L 121.201,431.425 L 119.88,431.795 L 118.606,432.204 L 117.398,432.585 L 116.267,433.041 L 115.192,433.478 L 114.175,433.954 L 113.224,434.458 L 112.378,434.942 L 111.579,435.484 L 110.866,436.007 L 110.239,436.559 L 109.687,437.091 L 109.212,437.671 L 108.831,438.232 L 108.527,438.812 L 108.309,439.392 L 108.185,439.963 L 108.137,440.562 L 108.137,440.562 L 108.185,441.151 L 108.309,441.731 L 108.527,442.311 L 108.831,442.882 L 109.212,443.452 L 109.687,444.023 L 110.239,444.565 L 110.866,445.116 L 111.579,445.639 L 112.378,446.171 L 113.224,446.675 L 114.175,447.151 L 115.192,447.636 L 116.267,448.092 L 117.398,448.52 L 118.606,448.929 L 119.88,449.319 L 121.201,449.689 L 122.561,450.032 L 123.987,450.364 L 125.47,450.678 L 126.973,450.925 L 128.522,451.182 L 130.11,451.401 L 131.727,451.581 L 133.372,451.753 L 135.035,451.886 L 136.699,451.971 L 138.401,452.057 L 140.094,452.104 L 141.815,452.114 L 141.815,452.114 L 143.517,452.104 L 145.218,452.057 L 146.911,451.971 L 148.594,451.886 L 150.248,451.753 L 151.903,451.581 L 153.509,451.401 L 155.097,451.182 L 156.638,450.925 L 158.14,450.678 L 159.623,450.364 L 161.049,450.032 L 162.418,449.689 L 163.73,449.319 L 165.005,448.929 L 166.222,448.52 L 167.362,448.092 L 168.437,447.636 L 169.445,447.151 L 170.377,446.675 L 171.251,446.171 L 172.04,445.639 L 172.754,445.116 L 173.4,444.565 L 173.913,444.023 L 174.408,443.452 L 174.798,442.882 L 175.092,442.311 L 175.311,441.731 L 175.425,441.151 L 175.473,440.562"/>
    <path style="fill: #000000" d="M 142.632 438.09 L 147.557,439.744 L 159.471,434.781 L 164.805,436.426 L 161.924,432.318 L 147.976,432.318 L 153.709,433.545 L 142.632,438.09z"/>
    <path style="fill: #000000" d="M 140.569 442.625 L 135.653,440.961 L 124.149,445.934 L 118.406,444.27 L 121.268,448.805 L 135.653,448.805 L 129.483,447.151 L 140.569,442.625z"/>
    <path style="fill: #000000" d="M 119.633 433.545 L 124.548,431.9 L 136.471,436.426 L 141.815,435.199 L 138.943,439.307 L 124.966,439.307 L 130.709,438.09 L 119.633,433.545z"/>
    <path style="fill: #000000" d="M 163.978 447.56 L 159.043,449.214 L 147.557,444.27 L 141.815,445.934 L 144.686,441.788 L 159.043,441.788 L 152.891,443.024 L 163.978,447.56z"/>
    <path style="fill: #ffffff" d="M 143.041 438.498 L 147.976,440.143 L 159.861,435.199 L 165.214,436.854 L 162.333,432.718 L 148.375,432.718 L 154.127,433.944 L 143.041,438.498z"/>
    <path style="fill: #ffffff" d="M 140.987 443.024 L 136.043,441.379 L 124.548,446.324 L 118.805,444.679 L 121.677,449.214 L 136.043,449.214 L 129.892,447.56 L 140.987,443.024z"/>
    <path style="fill: #ffffff" d="M 120.041 433.944 L 124.966,432.318 L 136.88,436.854 L 142.214,435.599 L 139.352,439.744 L 125.375,439.744 L 131.137,438.498 L 120.041,433.944z"/>
    <path style="fill: #ffffff" d="M 164.377 447.987 L 159.471,449.632 L 147.976,444.679 L 142.214,446.324 L 145.085,442.216 L 159.471,442.216 L 153.31,443.443 L 164.377,447.987z"/>
    <path style="fill: none; fill-opacity:0; stroke-width: 0.02; stroke: #aae6ff" d="M 108.137 440.562 L 108.137,457.039"/>
    <path style="fill: none; fill-opacity:0; stroke-width: 0.02; stroke: #aae6ff" d="M 175.473 440.562 L 175.473,457.039"/>
  </g>
  <g>
    <path style="fill: #0078aa" d="M 97.8721 327.248 L 97.8151,326.649 L 97.6915,326.05 L 97.4823,325.461 L 97.1875,324.881 L 96.7882,324.291 L 96.3223,323.721 L 95.7614,323.16 L 95.1338,322.608 L 94.4112,322.066 L 93.6126,321.543 L 92.7473,321.039 L 91.806,320.526 L 90.7887,320.041 L 89.7048,319.585 L 88.5448,319.147 L 87.3278,318.729 L 86.0632,318.32 L 84.7321,317.949 L 83.3535,317.598 L 81.9178,317.265 L 80.4345,316.961 L 78.9037,316.704 L 77.3444,316.438 L 75.7661,316.228 L 74.1402,316.029 L 72.4859,315.877 L 70.8125,315.734 L 69.12,315.639 L 67.4276,315.544 L 65.7162,315.515 L 64.0048,315.487 L 64.0048,315.487 L 62.2838,315.515 L 60.5724,315.544 L 58.88,315.639 L 57.1875,315.734 L 55.5141,315.877 L 53.8598,316.029 L 52.2339,316.228 L 50.6461,316.438 L 49.0868,316.704 L 47.5655,316.961 L 46.0822,317.265 L 44.6465,317.598 L 43.2679,317.949 L 41.9368,318.32 L 40.6627,318.729 L 39.4552,319.147 L 38.2952,319.585 L 37.2113,320.041 L 36.194,320.526 L 35.2527,321.039 L 34.3874,321.543 L 33.5888,322.066 L 32.8662,322.608 L 32.2386,323.16 L 31.6777,323.721 L 31.2118,324.291 L 30.8125,324.881 L 30.5082,325.461 L 30.2895,326.05 L 30.1754,326.649 L 30.1279,327.248 L 30.1279,327.248 L 30.1754,327.838 L 30.2895,328.437 L 30.5082,329.026 L 30.8125,329.606 L 31.2118,330.196 L 31.6777,330.766 L 32.2386,331.327 L 32.8662,331.879 L 33.5888,332.42 L 34.3874,332.943 L 35.2527,333.466 L 36.194,333.961 L 37.2113,334.446 L 38.2952,334.902 L 39.4552,335.358 L 40.6627,335.777 L 41.9368,336.167 L 43.2679,336.547 L 44.6465,336.889 L 46.0822,337.222 L 47.5655,337.526 L 49.0868,337.802 L 50.6461,338.049 L 52.2339,338.277 L 53.8598,338.458 L 55.5141,338.629 L 57.1875,338.753 L 58.88,338.867 L 60.5724,338.943 L 62.2838,338.99 L 64.0048,339 L 64.0048,339 L 65.7162,338.99 L 67.4276,338.943 L 69.12,338.867 L 70.8125,338.753 L 72.4859,338.629 L 74.1402,338.458 L 75.7661,338.277 L 77.3444,338.049 L 78.9037,337.802 L 80.4345,337.526 L 81.9178,337.222 L 83.3535,336.889 L 84.7321,336.547 L 86.0632,336.167 L 87.3278,335.777 L 88.5448,335.358 L 89.7048,334.902 L 90.7887,334.446 L 91.806,333.961 L 92.7473,333.466 L 93.6126,332.943 L 94.4112,332.42 L 95.1338,331.879 L 95.7614,331.327 L 96.3223,330.766 L 96.7882,330.196 L 97.1875,329.606 L 97.4823,329.026 L 97.6915,328.437 L 97.8151,327.838 L 97.8721,327.248z"/>
    <path style="fill: none; fill-opacity:0; stroke-width: 0.02; stroke: #aae6ff" d="M 97.4728 327.058 L 97.4252,326.459 L 97.3111,325.889 L 97.0925,325.299 L 96.7977,324.729 L 96.4079,324.158 L 95.9135,323.597 L 95.4,323.055 L 94.7535,322.504 L 94.0404,321.971 L 93.2512,321.439 L 92.3765,320.944 L 91.4447,320.45 L 90.4369,319.975 L 89.3625,319.518 L 88.2215,319.081 L 87.0045,318.681 L 85.7304,318.301 L 84.4184,317.911 L 83.0492,317.588 L 81.623,317.246 L 80.1398,316.951 L 78.6375,316.685 L 77.0972,316.438 L 75.5094,316.228 L 73.9025,316.029 L 72.2482,315.877 L 70.5938,315.734 L 68.9109,315.639 L 67.2184,315.572 L 65.5165,315.515 L 63.8146,315.515 L 63.8146,315.515 L 62.0937,315.515 L 60.4012,315.572 L 58.6993,315.639 L 57.0354,315.734 L 55.3715,315.877 L 53.7266,316.029 L 52.1103,316.228 L 50.5225,316.438 L 48.9727,316.685 L 47.4704,316.951 L 45.9872,317.246 L 44.561,317.588 L 43.2013,317.911 L 41.8797,318.301 L 40.6057,318.681 L 39.3981,319.081 L 38.2667,319.518 L 37.1923,319.975 L 36.1749,320.45 L 35.2242,320.944 L 34.3779,321.439 L 33.5793,321.971 L 32.8662,322.504 L 32.2386,323.055 L 31.6872,323.597 L 31.2118,324.158 L 30.8315,324.729 L 30.5272,325.299 L 30.3085,325.889 L 30.1849,326.459 L 30.1374,327.058 L 30.1374,327.058 L 30.1849,327.638 L 30.3085,328.237 L 30.5272,328.798 L 30.8315,329.378 L 31.2118,329.958 L 31.6872,330.509 L 32.2386,331.061 L 32.8662,331.612 L 33.5793,332.135 L 34.3779,332.668 L 35.2242,333.172 L 36.1749,333.647 L 37.1923,334.132 L 38.2667,334.598 L 39.3981,335.016 L 40.6057,335.425 L 41.8797,335.815 L 43.2013,336.195 L 44.561,336.528 L 45.9872,336.851 L 47.4704,337.155 L 48.9727,337.422 L 50.5225,337.659 L 52.1103,337.888 L 53.7266,338.078 L 55.3715,338.23 L 57.0354,338.363 L 58.6993,338.458 L 60.4012,338.544 L 62.0937,338.591 L 63.8146,338.601 L 63.8146,338.601 L 65.5165,338.591 L 67.2184,338.544 L 68.9109,338.458 L 70.5938,338.363 L 72.2482,338.23 L 73.9025,338.078 L 75.5094,337.888 L 77.0972,337.659 L 78.6375,337.422 L 80.1398,337.155 L 81.623,336.851 L 83.0492,336.528 L 84.4184,336.195 L 85.7304,335.815 L 87.0045,335.425 L 88.2215,335.016 L 89.3625,334.598 L 90.4369,334.132 L 91.4447,333.647 L 92.3765,333.172 L 93.2512,332.668 L 94.0404,332.135 L 94.7535,331.612 L 95.4,331.061 L 95.9135,330.509 L 96.4079,329.958 L 96.7977,329.378 L 97.0925,328.798 L 97.3111,328.237 L 97.4252,327.638 L 97.4728,327.058"/>
    <path style="fill: #0078aa" d="M 30.1374 310.961 L 30.1374,327.467 L 97.4728,327.467 L 97.4728,310.961 L 30.1374,310.961z"/>
    <path style="fill: #00b4ff" d="M 97.8721 310.761 L 97.8151,310.162 L 97.6915,309.554 L 97.4823,308.974 L 97.1875,308.384 L 96.7882,307.795 L 96.3223,307.224 L 95.7614,306.663 L 95.1338,306.121 L 94.4112,305.57 L 93.6126,305.057 L 92.7473,304.534 L 91.806,304.039 L 90.7887,303.545 L 89.7048,303.098 L 88.5448,302.651 L 87.3278,302.223 L 86.0632,301.824 L 84.7321,301.453 L 83.3535,301.101 L 81.9178,300.778 L 80.4345,300.483 L 78.9037,300.198 L 77.3444,299.951 L 75.7661,299.723 L 74.1402,299.532 L 72.4859,299.371 L 70.8125,299.238 L 69.12,299.133 L 67.4276,299.057 L 65.7162,299.01 L 64.0048,299 L 64.0048,299 L 62.2838,299.01 L 60.5724,299.057 L 58.88,299.133 L 57.1875,299.238 L 55.5141,299.371 L 53.8598,299.532 L 52.2339,299.723 L 50.6461,299.951 L 49.0868,300.198 L 47.5655,300.483 L 46.0822,300.778 L 44.6465,301.101 L 43.2679,301.453 L 41.9368,301.824 L 40.6627,302.223 L 39.4552,302.651 L 38.2952,303.098 L 37.2113,303.545 L 36.194,304.039 L 35.2527,304.534 L 34.3874,305.057 L 33.5888,305.57 L 32.8662,306.121 L 32.2386,306.663 L 31.6777,307.224 L 31.2118,307.795 L 30.8125,308.384 L 30.5082,308.974 L 30.2895,309.554 L 30.1754,310.162 L 30.1279,310.761 L 30.1279,310.761 L 30.1754,311.351 L 30.2895,311.95 L 30.5082,312.539 L 30.8125,313.11 L 31.2118,313.699 L 31.6777,314.27 L 32.2386,314.831 L 32.8662,315.392 L 33.5888,315.934 L 34.3874,316.447 L 35.2527,316.961 L 36.194,317.474 L 37.2113,317.949 L 38.2952,318.406 L 39.4552,318.853 L 40.6627,319.271 L 41.9368,319.68 L 43.2679,320.041 L 44.6465,320.393 L 46.0822,320.726 L 47.5655,321.039 L 49.0868,321.296 L 50.6461,321.553 L 52.2339,321.781 L 53.8598,321.962 L 55.5141,322.123 L 57.1875,322.256 L 58.88,322.361 L 60.5724,322.447 L 62.2838,322.494 L 64.0048,322.504 L 64.0048,322.504 L 65.7162,322.494 L 67.4276,322.447 L 69.12,322.361 L 70.8125,322.256 L 72.4859,322.123 L 74.1402,321.962 L 75.7661,321.781 L 77.3444,321.553 L 78.9037,321.296 L 80.4345,321.039 L 81.9178,320.726 L 83.3535,320.393 L 84.7321,320.041 L 86.0632,319.68 L 87.3278,319.271 L 88.5448,318.853 L 89.7048,318.406 L 90.7887,317.949 L 91.806,317.474 L 92.7473,316.961 L 93.6126,316.447 L 94.4112,315.934 L 95.1338,315.392 L 95.7614,314.831 L 96.3223,314.27 L 96.7882,313.699 L 97.1875,313.11 L 97.4823,312.539 L 97.6915,311.95 L 97.8151,311.351 L 97.8721,310.761z"/>
    <path style="fill: none; fill-opacity:0; stroke-width: 0.02; stroke: #aae6ff" d="M 97.4728 310.562 L 97.4252,309.963 L 97.3111,309.392 L 97.0925,308.812 L 96.7977,308.232 L 96.4079,307.671 L 95.9135,307.091 L 95.4,306.559 L 94.7535,306.007 L 94.0404,305.484 L 93.2512,304.942 L 92.3765,304.458 L 91.4447,303.954 L 90.4369,303.478 L 89.3625,303.041 L 88.2215,302.585 L 87.0045,302.204 L 85.7304,301.795 L 84.4184,301.425 L 83.0492,301.082 L 81.623,300.749 L 80.1398,300.455 L 78.6375,300.188 L 77.0972,299.951 L 75.5094,299.723 L 73.9025,299.532 L 72.2482,299.38 L 70.5938,299.238 L 68.9109,299.143 L 67.2184,299.067 L 65.5165,299.019 L 63.8146,299.01 L 63.8146,299.01 L 62.0937,299.019 L 60.4012,299.067 L 58.6993,299.143 L 57.0354,299.238 L 55.3715,299.38 L 53.7266,299.532 L 52.1103,299.723 L 50.5225,299.951 L 48.9727,300.188 L 47.4704,300.455 L 45.9872,300.749 L 44.561,301.082 L 43.2013,301.425 L 41.8797,301.795 L 40.6057,302.204 L 39.3981,302.585 L 38.2667,303.041 L 37.1923,303.478 L 36.1749,303.954 L 35.2242,304.458 L 34.3779,304.942 L 33.5793,305.484 L 32.8662,306.007 L 32.2386,306.559 L 31.6872,307.091 L 31.2118,307.671 L 30.8315,308.232 L 30.5272,308.812 L 30.3085,309.392 L 30.1849,309.963 L 30.1374,310.562 L 30.1374,310.562 L 30.1849,311.151 L 30.3085,311.731 L 30.5272,312.311 L 30.8315,312.882 L 31.2118,313.452 L 31.6872,314.023 L 32.2386,314.565 L 32.8662,315.116 L 33.5793,315.639 L 34.3779,316.171 L 35.2242,316.675 L 36.1749,317.151 L 37.1923,317.636 L 38.2667,318.092 L 39.3981,318.52 L 40.6057,318.929 L 41.8797,319.319 L 43.2013,319.689 L 44.561,320.032 L 45.9872,320.364 L 47.4704,320.678 L 48.9727,320.925 L 50.5225,321.182 L 52.1103,321.401 L 53.7266,321.581 L 55.3715,321.753 L 57.0354,321.886 L 58.6993,321.971 L 60.4012,322.057 L 62.0937,322.104 L 63.8146,322.114 L 63.8146,322.114 L 65.5165,322.104 L 67.2184,322.057 L 68.9109,321.971 L 70.5938,321.886 L 72.2482,321.753 L 73.9025,321.581 L 75.5094,321.401 L 77.0972,321.182 L 78.6375,320.925 L 80.1398,320.678 L 81.623,320.364 L 83.0492,320.032 L 84.4184,319.689 L 85.7304,319.319 L 87.0045,318.929 L 88.2215,318.52 L 89.3625,318.092 L 90.4369,317.636 L 91.4447,317.151 L 92.3765,316.675 L 93.2512,316.171 L 94.0404,315.639 L 94.7535,315.116 L 95.4,314.565 L 95.9135,314.023 L 96.4079,313.452 L 96.7977,312.882 L 97.0925,312.311 L 97.3111,311.731 L 97.4252,311.151 L 97.4728,310.562"/>
    <path style="fill: #000000" d="M 64.6323 308.09 L 69.5574,309.744 L 81.4709,304.781 L 86.8048,306.426 L 83.9239,302.318 L 69.9758,302.318 L 75.7091,303.545 L 64.6323,308.09z"/>
    <path style="fill: #000000" d="M 62.5691 312.625 L 57.6534,310.961 L 46.1488,315.934 L 40.406,314.27 L 43.2679,318.805 L 57.6534,318.805 L 51.4828,317.151 L 62.5691,312.625z"/>
    <path style="fill: #000000" d="M 41.6325 303.545 L 46.5481,301.9 L 58.4711,306.426 L 63.8146,305.199 L 60.9432,309.307 L 46.9665,309.307 L 52.7093,308.09 L 41.6325,303.545z"/>
    <path style="fill: #000000" d="M 85.9777 317.56 L 81.043,319.214 L 69.5574,314.27 L 63.8146,315.934 L 66.686,311.788 L 81.043,311.788 L 74.8914,313.024 L 85.9777,317.56z"/>
    <path style="fill: #ffffff" d="M 65.0411 308.498 L 69.9758,310.143 L 81.8607,305.199 L 87.2137,306.854 L 84.3328,302.718 L 70.3751,302.718 L 76.1274,303.944 L 65.0411,308.498z"/>
    <path style="fill: #ffffff" d="M 62.9874 313.024 L 58.0433,311.379 L 46.5481,316.324 L 40.8053,314.679 L 43.6767,319.214 L 58.0433,319.214 L 51.8916,317.56 L 62.9874,313.024z"/>
    <path style="fill: #ffffff" d="M 42.0414 303.944 L 46.9665,302.318 L 58.88,306.854 L 64.2139,305.599 L 61.352,309.744 L 47.3753,309.744 L 53.1372,308.498 L 42.0414,303.944z"/>
    <path style="fill: #ffffff" d="M 86.377 317.987 L 81.4709,319.632 L 69.9758,314.679 L 64.2139,316.324 L 67.0853,312.216 L 81.4709,312.216 L 75.3097,313.443 L 86.377,317.987z"/>
    <path style="fill: none; fill-opacity:0; stroke-width: 0.02; stroke: #aae6ff" d="M 30.1374 310.562 L 30.1374,327.039"/>
    <path style="fill: none; fill-opacity:0; stroke-width: 0.02; stroke: #aae6ff" d="M 97.4728 310.562 L 97.4728,327.039"/>
  </g>
  <g>
    <path style="fill: #0078aa" d="M 333.872 328.248 L 333.815,327.649 L 333.691,327.05 L 333.482,326.461 L 333.188,325.881 L 332.788,325.291 L 332.322,324.721 L 331.761,324.16 L 331.134,323.608 L 330.411,323.066 L 329.613,322.543 L 328.747,322.039 L 327.806,321.526 L 326.789,321.041 L 325.705,320.585 L 324.545,320.147 L 323.328,319.729 L 322.063,319.32 L 320.732,318.949 L 319.353,318.598 L 317.918,318.265 L 316.435,317.961 L 314.904,317.704 L 313.344,317.438 L 311.766,317.228 L 310.14,317.029 L 308.486,316.877 L 306.812,316.734 L 305.12,316.639 L 303.428,316.544 L 301.716,316.515 L 300.005,316.487 L 300.005,316.487 L 298.284,316.515 L 296.572,316.544 L 294.88,316.639 L 293.188,316.734 L 291.514,316.877 L 289.86,317.029 L 288.234,317.228 L 286.646,317.438 L 285.087,317.704 L 283.565,317.961 L 282.082,318.265 L 280.647,318.598 L 279.268,318.949 L 277.937,319.32 L 276.663,319.729 L 275.455,320.147 L 274.295,320.585 L 273.211,321.041 L 272.194,321.526 L 271.253,322.039 L 270.387,322.543 L 269.589,323.066 L 268.866,323.608 L 268.239,324.16 L 267.678,324.721 L 267.212,325.291 L 266.812,325.881 L 266.508,326.461 L 266.29,327.05 L 266.175,327.649 L 266.128,328.248 L 266.128,328.248 L 266.175,328.838 L 266.29,329.437 L 266.508,330.026 L 266.812,330.606 L 267.212,331.196 L 267.678,331.766 L 268.239,332.327 L 268.866,332.879 L 269.589,333.42 L 270.387,333.943 L 271.253,334.466 L 272.194,334.961 L 273.211,335.446 L 274.295,335.902 L 275.455,336.358 L 276.663,336.777 L 277.937,337.167 L 279.268,337.547 L 280.647,337.889 L 282.082,338.222 L 283.565,338.526 L 285.087,338.802 L 286.646,339.049 L 288.234,339.277 L 289.86,339.458 L 291.514,339.629 L 293.188,339.753 L 294.88,339.867 L 296.572,339.943 L 298.284,339.99 L 300.005,340 L 300.005,340 L 301.716,339.99 L 303.428,339.943 L 305.12,339.867 L 306.812,339.753 L 308.486,339.629 L 310.14,339.458 L 311.766,339.277 L 313.344,339.049 L 314.904,338.802 L 316.435,338.526 L 317.918,338.222 L 319.353,337.889 L 320.732,337.547 L 322.063,337.167 L 323.328,336.777 L 324.545,336.358 L 325.705,335.902 L 326.789,335.446 L 327.806,334.961 L 328.747,334.466 L 329.613,333.943 L 330.411,333.42 L 331.134,332.879 L 331.761,332.327 L 332.322,331.766 L 332.788,331.196 L 333.188,330.606 L 333.482,330.026 L 333.691,329.437 L 333.815,328.838 L 333.872,328.248z"/>
    <path style="fill: none; fill-opacity:0; stroke-width: 0.02; stroke: #aae6ff" d="M 333.473 328.058 L 333.425,327.459 L 333.311,326.889 L 333.092,326.299 L 332.798,325.729 L 332.408,325.158 L 331.913,324.597 L 331.4,324.055 L 330.754,323.504 L 330.04,322.971 L 329.251,322.439 L 328.377,321.944 L 327.445,321.45 L 326.437,320.975 L 325.362,320.518 L 324.222,320.081 L 323.005,319.681 L 321.73,319.301 L 320.418,318.911 L 319.049,318.588 L 317.623,318.246 L 316.14,317.951 L 314.638,317.685 L 313.097,317.438 L 311.509,317.228 L 309.903,317.029 L 308.248,316.877 L 306.594,316.734 L 304.911,316.639 L 303.218,316.572 L 301.517,316.515 L 299.815,316.515 L 299.815,316.515 L 298.094,316.515 L 296.401,316.572 L 294.699,316.639 L 293.035,316.734 L 291.372,316.877 L 289.727,317.029 L 288.11,317.228 L 286.522,317.438 L 284.973,317.685 L 283.47,317.951 L 281.987,318.246 L 280.561,318.588 L 279.201,318.911 L 277.88,319.301 L 276.606,319.681 L 275.398,320.081 L 274.267,320.518 L 273.192,320.975 L 272.175,321.45 L 271.224,321.944 L 270.378,322.439 L 269.579,322.971 L 268.866,323.504 L 268.239,324.055 L 267.687,324.597 L 267.212,325.158 L 266.831,325.729 L 266.527,326.299 L 266.309,326.889 L 266.185,327.459 L 266.137,328.058 L 266.137,328.058 L 266.185,328.638 L 266.309,329.237 L 266.527,329.798 L 266.831,330.378 L 267.212,330.958 L 267.687,331.509 L 268.239,332.061 L 268.866,332.612 L 269.579,333.135 L 270.378,333.668 L 271.224,334.172 L 272.175,334.647 L 273.192,335.132 L 274.267,335.598 L 275.398,336.016 L 276.606,336.425 L 277.88,336.815 L 279.201,337.195 L 280.561,337.528 L 281.987,337.851 L 283.47,338.155 L 284.973,338.422 L 286.522,338.659 L 288.11,338.888 L 289.727,339.078 L 291.372,339.23 L 293.035,339.363 L 294.699,339.458 L 296.401,339.544 L 298.094,339.591 L 299.815,339.601 L 299.815,339.601 L 301.517,339.591 L 303.218,339.544 L 304.911,339.458 L 306.594,339.363 L 308.248,339.23 L 309.903,339.078 L 311.509,338.888 L 313.097,338.659 L 314.638,338.422 L 316.14,338.155 L 317.623,337.851 L 319.049,337.528 L 320.418,337.195 L 321.73,336.815 L 323.005,336.425 L 324.222,336.016 L 325.362,335.598 L 326.437,335.132 L 327.445,334.647 L 328.377,334.172 L 329.251,333.668 L 330.04,333.135 L 330.754,332.612 L 331.4,332.061 L 331.913,331.509 L 332.408,330.958 L 332.798,330.378 L 333.092,329.798 L 333.311,329.237 L 333.425,328.638 L 333.473,328.058"/>
    <path style="fill: #0078aa" d="M 266.137 311.961 L 266.137,328.467 L 333.473,328.467 L 333.473,311.961 L 266.137,311.961z"/>
    <path style="fill: #00b4ff" d="M 333.872 311.761 L 333.815,311.162 L 333.691,310.554 L 333.482,309.974 L 333.188,309.384 L 332.788,308.795 L 332.322,308.224 L 331.761,307.663 L 331.134,307.121 L 330.411,306.57 L 329.613,306.057 L 328.747,305.534 L 327.806,305.039 L 326.789,304.545 L 325.705,304.098 L 324.545,303.651 L 323.328,303.223 L 322.063,302.824 L 320.732,302.453 L 319.353,302.101 L 317.918,301.778 L 316.435,301.483 L 314.904,301.198 L 313.344,300.951 L 311.766,300.723 L 310.14,300.532 L 308.486,300.371 L 306.812,300.238 L 305.12,300.133 L 303.428,300.057 L 301.716,300.01 L 300.005,300 L 300.005,300 L 298.284,300.01 L 296.572,300.057 L 294.88,300.133 L 293.188,300.238 L 291.514,300.371 L 289.86,300.532 L 288.234,300.723 L 286.646,300.951 L 285.087,301.198 L 283.565,301.483 L 282.082,301.778 L 280.647,302.101 L 279.268,302.453 L 277.937,302.824 L 276.663,303.223 L 275.455,303.651 L 274.295,304.098 L 273.211,304.545 L 272.194,305.039 L 271.253,305.534 L 270.387,306.057 L 269.589,306.57 L 268.866,307.121 L 268.239,307.663 L 267.678,308.224 L 267.212,308.795 L 266.812,309.384 L 266.508,309.974 L 266.29,310.554 L 266.175,311.162 L 266.128,311.761 L 266.128,311.761 L 266.175,312.351 L 266.29,312.95 L 266.508,313.539 L 266.812,314.11 L 267.212,314.699 L 267.678,315.27 L 268.239,315.831 L 268.866,316.392 L 269.589,316.934 L 270.387,317.447 L 271.253,317.961 L 272.194,318.474 L 273.211,318.949 L 274.295,319.406 L 275.455,319.853 L 276.663,320.271 L 277.937,320.68 L 279.268,321.041 L 280.647,321.393 L 282.082,321.726 L 283.565,322.039 L 285.087,322.296 L 286.646,322.553 L 288.234,322.781 L 289.86,322.962 L 291.514,323.123 L 293.188,323.256 L 294.88,323.361 L 296.572,323.447 L 298.284,323.494 L 300.005,323.504 L 300.005,323.504 L 301.716,323.494 L 303.428,323.447 L 305.12,323.361 L 306.812,323.256 L 308.486,323.123 L 310.14,322.962 L 311.766,322.781 L 313.344,322.553 L 314.904,322.296 L 316.435,322.039 L 317.918,321.726 L 319.353,321.393 L 320.732,321.041 L 322.063,320.68 L 323.328,320.271 L 324.545,319.853 L 325.705,319.406 L 326.789,318.949 L 327.806,318.474 L 328.747,317.961 L 329.613,317.447 L 330.411,316.934 L 331.134,316.392 L 331.761,315.831 L 332.322,315.27 L 332.788,314.699 L 333.188,314.11 L 333.482,313.539 L 333.691,312.95 L 333.815,312.351 L 333.872,311.761z"/>
    <path style="fill: none; fill-opacity:0; stroke-width: 0.02; stroke: #aae6ff" d="M 333.473 311.562 L 333.425,310.963 L 333.311,310.392 L 333.092,309.812 L 332.798,309.232 L 332.408,308.671 L 331.913,308.091 L 331.4,307.559 L 330.754,307.007 L 330.04,306.484 L 329.251,305.942 L 328.377,305.458 L 327.445,304.954 L 326.437,304.478 L 325.362,304.041 L 324.222,303.585 L 323.005,303.204 L 321.73,302.795 L 320.418,302.425 L 319.049,302.082 L 317.623,301.749 L 316.14,301.455 L 314.638,301.188 L 313.097,300.951 L 311.509,300.723 L 309.903,300.532 L 308.248,300.38 L 306.594,300.238 L 304.911,300.143 L 303.218,300.067 L 301.517,300.019 L 299.815,300.01 L 299.815,300.01 L 298.094,300.019 L 296.401,300.067 L 294.699,300.143 L 293.035,300.238 L 291.372,300.38 L 289.727,300.532 L 288.11,300.723 L 286.522,300.951 L 284.973,301.188 L 283.47,301.455 L 281.987,301.749 L 280.561,302.082 L 279.201,302.425 L 277.88,302.795 L 276.606,303.204 L 275.398,303.585 L 274.267,304.041 L 273.192,304.478 L 272.175,304.954 L 271.224,305.458 L 270.378,305.942 L 269.579,306.484 L 268.866,307.007 L 268.239,307.559 L 267.687,308.091 L 267.212,308.671 L 266.831,309.232 L 266.527,309.812 L 266.309,310.392 L 266.185,310.963 L 266.137,311.562 L 266.137,311.562 L 266.185,312.151 L 266.309,312.731 L 266.527,313.311 L 266.831,313.882 L 267.212,314.452 L 267.687,315.023 L 268.239,315.565 L 268.866,316.116 L 269.579,316.639 L 270.378,317.171 L 271.224,317.675 L 272.175,318.151 L 273.192,318.636 L 274.267,319.092 L 275.398,319.52 L 276.606,319.929 L 277.88,320.319 L 279.201,320.689 L 280.561,321.032 L 281.987,321.364 L 283.47,321.678 L 284.973,321.925 L 286.522,322.182 L 288.11,322.401 L 289.727,322.581 L 291.372,322.753 L 293.035,322.886 L 294.699,322.971 L 296.401,323.057 L 298.094,323.104 L 299.815,323.114 L 299.815,323.114 L 301.517,323.104 L 303.218,323.057 L 304.911,322.971 L 306.594,322.886 L 308.248,322.753 L 309.903,322.581 L 311.509,322.401 L 313.097,322.182 L 314.638,321.925 L 316.14,321.678 L 317.623,321.364 L 319.049,321.032 L 320.418,320.689 L 321.73,320.319 L 323.005,319.929 L 324.222,319.52 L 325.362,319.092 L 326.437,318.636 L 327.445,318.151 L 328.377,317.675 L 329.251,317.171 L 330.04,316.639 L 330.754,316.116 L 331.4,315.565 L 331.913,315.023 L 332.408,314.452 L 332.798,313.882 L 333.092,313.311 L 333.311,312.731 L 333.425,312.151 L 333.473,311.562"/>
    <path style="fill: #000000" d="M 300.632 309.09 L 305.557,310.744 L 317.471,305.781 L 322.805,307.426 L 319.924,303.318 L 305.976,303.318 L 311.709,304.545 L 300.632,309.09z"/>
    <path style="fill: #000000" d="M 298.569 313.625 L 293.653,311.961 L 282.149,316.934 L 276.406,315.27 L 279.268,319.805 L 293.653,319.805 L 287.483,318.151 L 298.569,313.625z"/>
    <path style="fill: #000000" d="M 277.633 304.545 L 282.548,302.9 L 294.471,307.426 L 299.815,306.199 L 296.943,310.307 L 282.966,310.307 L 288.709,309.09 L 277.633,304.545z"/>
    <path style="fill: #000000" d="M 321.978 318.56 L 317.043,320.214 L 305.557,315.27 L 299.815,316.934 L 302.686,312.788 L 317.043,312.788 L 310.891,314.024 L 321.978,318.56z"/>
    <path style="fill: #ffffff" d="M 301.041 309.498 L 305.976,311.143 L 317.861,306.199 L 323.214,307.854 L 320.333,303.718 L 306.375,303.718 L 312.127,304.944 L 301.041,309.498z"/>
    <path style="fill: #ffffff" d="M 298.987 314.024 L 294.043,312.379 L 282.548,317.324 L 276.805,315.679 L 279.677,320.214 L 294.043,320.214 L 287.892,318.56 L 298.987,314.024z"/>
    <path style="fill: #ffffff" d="M 278.041 304.944 L 282.966,303.318 L 294.88,307.854 L 300.214,306.599 L 297.352,310.744 L 283.375,310.744 L 289.137,309.498 L 278.041,304.944z"/>
    <path style="fill: #ffffff" d="M 322.377 318.987 L 317.471,320.632 L 305.976,315.679 L 300.214,317.324 L 303.085,313.216 L 317.471,313.216 L 311.31,314.443 L 322.377,318.987z"/>
    <path style="fill: none; fill-opacity:0; stroke-width: 0.02; stroke: #aae6ff" d="M 266.137 311.562 L 266.137,328.039"/>
    <path style="fill: none; fill-opacity:0; stroke-width: 0.02; stroke: #aae6ff" d="M 333.473 311.562 L 333.473,328.039"/>
  </g>
  <g>
    <path style="fill: #0078aa" d="M 499.872 205.248 L 499.815,204.649 L 499.691,204.05 L 499.482,203.461 L 499.188,202.881 L 498.788,202.291 L 498.322,201.721 L 497.761,201.16 L 497.134,200.608 L 496.411,200.066 L 495.613,199.543 L 494.747,199.039 L 493.806,198.526 L 492.789,198.041 L 491.705,197.585 L 490.545,197.147 L 489.328,196.729 L 488.063,196.32 L 486.732,195.949 L 485.353,195.598 L 483.918,195.265 L 482.435,194.961 L 480.904,194.704 L 479.344,194.438 L 477.766,194.228 L 476.14,194.029 L 474.486,193.877 L 472.812,193.734 L 471.12,193.639 L 469.428,193.544 L 467.716,193.515 L 466.005,193.487 L 466.005,193.487 L 464.284,193.515 L 462.572,193.544 L 460.88,193.639 L 459.188,193.734 L 457.514,193.877 L 455.86,194.029 L 454.234,194.228 L 452.646,194.438 L 451.087,194.704 L 449.565,194.961 L 448.082,195.265 L 446.647,195.598 L 445.268,195.949 L 443.937,196.32 L 442.663,196.729 L 441.455,197.147 L 440.295,197.585 L 439.211,198.041 L 438.194,198.526 L 437.253,199.039 L 436.387,199.543 L 435.589,200.066 L 434.866,200.608 L 434.239,201.16 L 433.678,201.721 L 433.212,202.291 L 432.812,202.881 L 432.508,203.461 L 432.29,204.05 L 432.175,204.649 L 432.128,205.248 L 432.128,205.248 L 432.175,205.838 L 432.29,206.437 L 432.508,207.026 L 432.812,207.606 L 433.212,208.196 L 433.678,208.766 L 434.239,209.327 L 434.866,209.879 L 435.589,210.42 L 436.387,210.943 L 437.253,211.466 L 438.194,211.961 L 439.211,212.446 L 440.295,212.902 L 441.455,213.358 L 442.663,213.777 L 443.937,214.167 L 445.268,214.547 L 446.647,214.889 L 448.082,215.222 L 449.565,215.526 L 451.087,215.802 L 452.646,216.049 L 454.234,216.277 L 455.86,216.458 L 457.514,216.629 L 459.188,216.753 L 460.88,216.867 L 462.572,216.943 L 464.284,216.99 L 466.005,217 L 466.005,217 L 467.716,216.99 L 469.428,216.943 L 471.12,216.867 L 472.812,216.753 L 474.486,216.629 L 476.14,216.458 L 477.766,216.277 L 479.344,216.049 L 480.904,215.802 L 482.435,215.526 L 483.918,215.222 L 485.353,214.889 L 486.732,214.547 L 488.063,214.167 L 489.328,213.777 L 490.545,213.358 L 491.705,212.902 L 492.789,212.446 L 493.806,211.961 L 494.747,211.466 L 495.613,210.943 L 496.411,210.42 L 497.134,209.879 L 497.761,209.327 L 498.322,208.766 L 498.788,208.196 L 499.188,207.606 L 499.482,207.026 L 499.691,206.437 L 499.815,205.838 L 499.872,205.248z"/>
    <path style="fill: none; fill-opacity:0; stroke-width: 0.02; stroke: #aae6ff" d="M 499.473 205.058 L 499.425,204.459 L 499.311,203.889 L 499.092,203.299 L 498.798,202.729 L 498.408,202.158 L 497.913,201.597 L 497.4,201.055 L 496.754,200.504 L 496.04,199.971 L 495.251,199.439 L 494.377,198.944 L 493.445,198.45 L 492.437,197.975 L 491.362,197.518 L 490.222,197.081 L 489.005,196.681 L 487.73,196.301 L 486.418,195.911 L 485.049,195.588 L 483.623,195.246 L 482.14,194.951 L 480.638,194.685 L 479.097,194.438 L 477.509,194.228 L 475.903,194.029 L 474.248,193.877 L 472.594,193.734 L 470.911,193.639 L 469.218,193.572 L 467.517,193.515 L 465.815,193.515 L 465.815,193.515 L 464.094,193.515 L 462.401,193.572 L 460.699,193.639 L 459.035,193.734 L 457.372,193.877 L 455.727,194.029 L 454.11,194.228 L 452.522,194.438 L 450.973,194.685 L 449.47,194.951 L 447.987,195.246 L 446.561,195.588 L 445.201,195.911 L 443.88,196.301 L 442.606,196.681 L 441.398,197.081 L 440.267,197.518 L 439.192,197.975 L 438.175,198.45 L 437.224,198.944 L 436.378,199.439 L 435.579,199.971 L 434.866,200.504 L 434.239,201.055 L 433.687,201.597 L 433.212,202.158 L 432.831,202.729 L 432.527,203.299 L 432.309,203.889 L 432.185,204.459 L 432.137,205.058 L 432.137,205.058 L 432.185,205.638 L 432.309,206.237 L 432.527,206.798 L 432.831,207.378 L 433.212,207.958 L 433.687,208.509 L 434.239,209.061 L 434.866,209.612 L 435.579,210.135 L 436.378,210.668 L 437.224,211.172 L 438.175,211.647 L 439.192,212.132 L 440.267,212.598 L 441.398,213.016 L 442.606,213.425 L 443.88,213.815 L 445.201,214.195 L 446.561,214.528 L 447.987,214.851 L 449.47,215.155 L 450.973,215.422 L 452.522,215.659 L 454.11,215.888 L 455.727,216.078 L 457.372,216.23 L 459.035,216.363 L 460.699,216.458 L 462.401,216.544 L 464.094,216.591 L 465.815,216.601 L 465.815,216.601 L 467.517,216.591 L 469.218,216.544 L 470.911,216.458 L 472.594,216.363 L 474.248,216.23 L 475.903,216.078 L 477.509,215.888 L 479.097,215.659 L 480.638,215.422 L 482.14,215.155 L 483.623,214.851 L 485.049,214.528 L 486.418,214.195 L 487.73,213.815 L 489.005,213.425 L 490.222,213.016 L 491.362,212.598 L 492.437,212.132 L 493.445,211.647 L 494.377,211.172 L 495.251,210.668 L 496.04,210.135 L 496.754,209.612 L 497.4,209.061 L 497.913,208.509 L 498.408,207.958 L 498.798,207.378 L 499.092,206.798 L 499.311,206.237 L 499.425,205.638 L 499.473,205.058"/>
    <path style="fill: #0078aa" d="M 432.137 188.961 L 432.137,205.467 L 499.473,205.467 L 499.473,188.961 L 432.137,188.961z"/>
    <path style="fill: #00b4ff" d="M 499.872 188.761 L 499.815,188.162 L 499.691,187.554 L 499.482,186.974 L 499.188,186.384 L 498.788,185.795 L 498.322,185.224 L 497.761,184.663 L 497.134,184.121 L 496.411,183.57 L 495.613,183.057 L 494.747,182.534 L 493.806,182.039 L 492.789,181.545 L 491.705,181.098 L 490.545,180.651 L 489.328,180.223 L 488.063,179.824 L 486.732,179.453 L 485.353,179.101 L 483.918,178.778 L 482.435,178.483 L 480.904,178.198 L 479.344,177.951 L 477.766,177.723 L 476.14,177.532 L 474.486,177.371 L 472.812,177.238 L 471.12,177.133 L 469.428,177.057 L 467.716,177.01 L 466.005,177 L 466.005,177 L 464.284,177.01 L 462.572,177.057 L 460.88,177.133 L 459.188,177.238 L 457.514,177.371 L 455.86,177.532 L 454.234,177.723 L 452.646,177.951 L 451.087,178.198 L 449.565,178.483 L 448.082,178.778 L 446.647,179.101 L 445.268,179.453 L 443.937,179.824 L 442.663,180.223 L 441.455,180.651 L 440.295,181.098 L 439.211,181.545 L 438.194,182.039 L 437.253,182.534 L 436.387,183.057 L 435.589,183.57 L 434.866,184.121 L 434.239,184.663 L 433.678,185.224 L 433.212,185.795 L 432.812,186.384 L 432.508,186.974 L 432.29,187.554 L 432.175,188.162 L 432.128,188.761 L 432.128,188.761 L 432.175,189.351 L 432.29,189.95 L 432.508,190.539 L 432.812,191.11 L 433.212,191.699 L 433.678,192.27 L 434.239,192.831 L 434.866,193.392 L 435.589,193.934 L 436.387,194.447 L 437.253,194.961 L 438.194,195.474 L 439.211,195.949 L 440.295,196.406 L 441.455,196.853 L 442.663,197.271 L 443.937,197.68 L 445.268,198.041 L 446.647,198.393 L 448.082,198.726 L 449.565,199.039 L 451.087,199.296 L 452.646,199.553 L 454.234,199.781 L 455.86,199.962 L 457.514,200.123 L 459.188,200.256 L 460.88,200.361 L 462.572,200.447 L 464.284,200.494 L 466.005,200.504 L 466.005,200.504 L 467.716,200.494 L 469.428,200.447 L 471.12,200.361 L 472.812,200.256 L 474.486,200.123 L 476.14,199.962 L 477.766,199.781 L 479.344,199.553 L 480.904,199.296 L 482.435,199.039 L 483.918,198.726 L 485.353,198.393 L 486.732,198.041 L 488.063,197.68 L 489.328,197.271 L 490.545,196.853 L 491.705,196.406 L 492.789,195.949 L 493.806,195.474 L 494.747,194.961 L 495.613,194.447 L 496.411,193.934 L 497.134,193.392 L 497.761,192.831 L 498.322,192.27 L 498.788,191.699 L 499.188,191.11 L 499.482,190.539 L 499.691,189.95 L 499.815,189.351 L 499.872,188.761z"/>
    <path style="fill: none; fill-opacity:0; stroke-width: 0.02; stroke: #aae6ff" d="M 499.473 188.562 L 499.425,187.963 L 499.311,187.392 L 499.092,186.812 L 498.798,186.232 L 498.408,185.671 L 497.913,185.091 L 497.4,184.559 L 496.754,184.007 L 496.04,183.484 L 495.251,182.942 L 494.377,182.458 L 493.445,181.954 L 492.437,181.478 L 491.362,181.041 L 490.222,180.585 L 489.005,180.204 L 487.73,179.795 L 486.418,179.425 L 485.049,179.082 L 483.623,178.749 L 482.14,178.455 L 480.638,178.188 L 479.097,177.951 L 477.509,177.723 L 475.903,177.532 L 474.248,177.38 L 472.594,177.238 L 470.911,177.143 L 469.218,177.067 L 467.517,177.019 L 465.815,177.01 L 465.815,177.01 L 464.094,177.019 L 462.401,177.067 L 460.699,177.143 L 459.035,177.238 L 457.372,177.38 L 455.727,177.532 L 454.11,177.723 L 452.522,177.951 L 450.973,178.188 L 449.47,178.455 L 447.987,178.749 L 446.561,179.082 L 445.201,179.425 L 443.88,179.795 L 442.606,180.204 L 441.398,180.585 L 440.267,181.041 L 439.192,181.478 L 438.175,181.954 L 437.224,182.458 L 436.378,182.942 L 435.579,183.484 L 434.866,184.007 L 434.239,184.559 L 433.687,185.091 L 433.212,185.671 L 432.831,186.232 L 432.527,186.812 L 432.309,187.392 L 432.185,187.963 L 432.137,188.562 L 432.137,188.562 L 432.185,189.151 L 432.309,189.731 L 432.527,190.311 L 432.831,190.882 L 433.212,191.452 L 433.687,192.023 L 434.239,192.565 L 434.866,193.116 L 435.579,193.639 L 436.378,194.171 L 437.224,194.675 L 438.175,195.151 L 439.192,195.636 L 440.267,196.092 L 441.398,196.52 L 442.606,196.929 L 443.88,197.319 L 445.201,197.689 L 446.561,198.032 L 447.987,198.364 L 449.47,198.678 L 450.973,198.925 L 452.522,199.182 L 454.11,199.401 L 455.727,199.581 L 457.372,199.753 L 459.035,199.886 L 460.699,199.971 L 462.401,200.057 L 464.094,200.104 L 465.815,200.114 L 465.815,200.114 L 467.517,200.104 L 469.218,200.057 L 470.911,199.971 L 472.594,199.886 L 474.248,199.753 L 475.903,199.581 L 477.509,199.401 L 479.097,199.182 L 480.638,198.925 L 482.14,198.678 L 483.623,198.364 L 485.049,198.032 L 486.418,197.689 L 487.73,197.319 L 489.005,196.929 L 490.222,196.52 L 491.362,196.092 L 492.437,195.636 L 493.445,195.151 L 494.377,194.675 L 495.251,194.171 L 496.04,193.639 L 496.754,193.116 L 497.4,192.565 L 497.913,192.023 L 498.408,191.452 L 498.798,190.882 L 499.092,190.311 L 499.311,189.731 L 499.425,189.151 L 499.473,188.562"/>
    <path style="fill: #000000" d="M 466.632 186.09 L 471.557,187.744 L 483.471,182.781 L 488.805,184.426 L 485.924,180.318 L 471.976,180.318 L 477.709,181.545 L 466.632,186.09z"/>
    <path style="fill: #000000" d="M 464.569 190.625 L 459.653,188.961 L 448.149,193.934 L 442.406,192.27 L 445.268,196.805 L 459.653,196.805 L 453.483,195.151 L 464.569,190.625z"/>
    <path style="fill: #000000" d="M 443.633 181.545 L 448.548,179.9 L 460.471,184.426 L 465.815,183.199 L 462.943,187.307 L 448.966,187.307 L 454.709,186.09 L 443.633,181.545z"/>
    <path style="fill: #000000" d="M 487.978 195.56 L 483.043,197.214 L 471.557,192.27 L 465.815,193.934 L 468.686,189.788 L 483.043,189.788 L 476.891,191.024 L 487.978,195.56z"/>
    <path style="fill: #ffffff" d="M 467.041 186.498 L 471.976,188.143 L 483.861,183.199 L 489.214,184.854 L 486.333,180.718 L 472.375,180.718 L 478.127,181.944 L 467.041,186.498z"/>
    <path style="fill: #ffffff" d="M 464.987 191.024 L 460.043,189.379 L 448.548,194.324 L 442.805,192.679 L 445.677,197.214 L 460.043,197.214 L 453.892,195.56 L 464.987,191.024z"/>
    <path style="fill: #ffffff" d="M 444.041 181.944 L 448.966,180.318 L 460.88,184.854 L 466.214,183.599 L 463.352,187.744 L 449.375,187.744 L 455.137,186.498 L 444.041,181.944z"/>
    <path style="fill: #ffffff" d="M 488.377 195.987 L 483.471,197.632 L 471.976,192.679 L 466.214,194.324 L 469.085,190.216 L 483.471,190.216 L 477.31,191.443 L 488.377,195.987z"/>
    <path style="fill: none; fill-opacity:0; stroke-width: 0.02; stroke: #aae6ff" d="M 432.137 188.562 L 432.137,205.039"/>
    <path style="fill: none; fill-opacity:0; stroke-width: 0.02; stroke: #aae6ff" d="M 499.473 188.562 L 499.473,205.039"/>
  </g>
  <g>
    <path style="fill: #0078aa" d="M 592.454 328.458 L 592.397,327.859 L 592.274,327.26 L 592.064,326.671 L 591.77,326.091 L 591.37,325.501 L 590.904,324.931 L 590.343,324.37 L 589.716,323.818 L 588.993,323.276 L 588.195,322.753 L 587.329,322.249 L 586.388,321.736 L 585.371,321.251 L 584.287,320.795 L 583.127,320.357 L 581.91,319.939 L 580.645,319.53 L 579.314,319.159 L 577.936,318.808 L 576.5,318.475 L 575.017,318.171 L 573.486,317.914 L 571.927,317.648 L 570.348,317.438 L 568.722,317.239 L 567.068,317.087 L 565.395,316.944 L 563.702,316.849 L 562.01,316.754 L 560.298,316.725 L 558.587,316.697 L 558.587,316.697 L 556.866,316.725 L 555.154,316.754 L 553.462,316.849 L 551.77,316.944 L 550.096,317.087 L 548.442,317.239 L 546.816,317.438 L 545.228,317.648 L 543.669,317.914 L 542.148,318.171 L 540.664,318.475 L 539.229,318.808 L 537.85,319.159 L 536.519,319.53 L 535.245,319.939 L 534.037,320.357 L 532.877,320.795 L 531.793,321.251 L 530.776,321.736 L 529.835,322.249 L 528.97,322.753 L 528.171,323.276 L 527.448,323.818 L 526.821,324.37 L 526.26,324.931 L 525.794,325.501 L 525.395,326.091 L 525.09,326.671 L 524.872,327.26 L 524.758,327.859 L 524.71,328.458 L 524.71,328.458 L 524.758,329.048 L 524.872,329.647 L 525.09,330.236 L 525.395,330.816 L 525.794,331.406 L 526.26,331.976 L 526.821,332.537 L 527.448,333.089 L 528.171,333.63 L 528.97,334.153 L 529.835,334.676 L 530.776,335.171 L 531.793,335.656 L 532.877,336.112 L 534.037,336.568 L 535.245,336.987 L 536.519,337.377 L 537.85,337.757 L 539.229,338.099 L 540.664,338.432 L 542.148,338.736 L 543.669,339.012 L 545.228,339.259 L 546.816,339.487 L 548.442,339.668 L 550.096,339.839 L 551.77,339.963 L 553.462,340.077 L 555.154,340.153 L 556.866,340.2 L 558.587,340.21 L 558.587,340.21 L 560.298,340.2 L 562.01,340.153 L 563.702,340.077 L 565.395,339.963 L 567.068,339.839 L 568.722,339.668 L 570.348,339.487 L 571.927,339.259 L 573.486,339.012 L 575.017,338.736 L 576.5,338.432 L 577.936,338.099 L 579.314,337.757 L 580.645,337.377 L 581.91,336.987 L 583.127,336.568 L 584.287,336.112 L 585.371,335.656 L 586.388,335.171 L 587.329,334.676 L 588.195,334.153 L 588.993,333.63 L 589.716,333.089 L 590.343,332.537 L 590.904,331.976 L 591.37,331.406 L 591.77,330.816 L 592.064,330.236 L 592.274,329.647 L 592.397,329.048 L 592.454,328.458z"/>
    <path style="fill: none; fill-opacity:0; stroke-width: 0.02; stroke: #aae6ff" d="M 592.055 328.268 L 592.007,327.669 L 591.893,327.099 L 591.675,326.509 L 591.38,325.939 L 590.99,325.368 L 590.496,324.807 L 589.982,324.265 L 589.336,323.714 L 588.622,323.181 L 587.833,322.649 L 586.959,322.154 L 586.027,321.66 L 585.019,321.185 L 583.945,320.728 L 582.804,320.291 L 581.587,319.891 L 580.313,319.511 L 579,319.121 L 577.631,318.798 L 576.205,318.456 L 574.722,318.161 L 573.22,317.895 L 571.679,317.648 L 570.091,317.438 L 568.485,317.239 L 566.83,317.087 L 565.176,316.944 L 563.493,316.849 L 561.801,316.782 L 560.099,316.725 L 558.397,316.725 L 558.397,316.725 L 556.676,316.725 L 554.983,316.782 L 553.281,316.849 L 551.618,316.944 L 549.954,317.087 L 548.309,317.239 L 546.692,317.438 L 545.105,317.648 L 543.555,317.895 L 542.052,318.161 L 540.569,318.456 L 539.143,318.798 L 537.783,319.121 L 536.462,319.511 L 535.188,319.891 L 533.98,320.291 L 532.849,320.728 L 531.774,321.185 L 530.757,321.66 L 529.806,322.154 L 528.96,322.649 L 528.161,323.181 L 527.448,323.714 L 526.821,324.265 L 526.269,324.807 L 525.794,325.368 L 525.414,325.939 L 525.109,326.509 L 524.891,327.099 L 524.767,327.669 L 524.719,328.268 L 524.719,328.268 L 524.767,328.848 L 524.891,329.447 L 525.109,330.008 L 525.414,330.588 L 525.794,331.168 L 526.269,331.719 L 526.821,332.271 L 527.448,332.822 L 528.161,333.345 L 528.96,333.878 L 529.806,334.382 L 530.757,334.857 L 531.774,335.342 L 532.849,335.808 L 533.98,336.226 L 535.188,336.635 L 536.462,337.025 L 537.783,337.405 L 539.143,337.738 L 540.569,338.061 L 542.052,338.365 L 543.555,338.632 L 545.105,338.869 L 546.692,339.098 L 548.309,339.288 L 549.954,339.44 L 551.618,339.573 L 553.281,339.668 L 554.983,339.754 L 556.676,339.801 L 558.397,339.811 L 558.397,339.811 L 560.099,339.801 L 561.801,339.754 L 563.493,339.668 L 565.176,339.573 L 566.83,339.44 L 568.485,339.288 L 570.091,339.098 L 571.679,338.869 L 573.22,338.632 L 574.722,338.365 L 576.205,338.061 L 577.631,337.738 L 579,337.405 L 580.313,337.025 L 581.587,336.635 L 582.804,336.226 L 583.945,335.808 L 585.019,335.342 L 586.027,334.857 L 586.959,334.382 L 587.833,333.878 L 588.622,333.345 L 589.336,332.822 L 589.982,332.271 L 590.496,331.719 L 590.99,331.168 L 591.38,330.588 L 591.675,330.008 L 591.893,329.447 L 592.007,328.848 L 592.055,328.268"/>
    <path style="fill: #0078aa" d="M 524.719 312.171 L 524.719,328.677 L 592.055,328.677 L 592.055,312.171 L 524.719,312.171z"/>
    <path style="fill: #00b4ff" d="M 592.454 311.971 L 592.397,311.372 L 592.274,310.764 L 592.064,310.184 L 591.77,309.594 L 591.37,309.005 L 590.904,308.434 L 590.343,307.873 L 589.716,307.331 L 588.993,306.78 L 588.195,306.267 L 587.329,305.744 L 586.388,305.249 L 585.371,304.755 L 584.287,304.308 L 583.127,303.861 L 581.91,303.433 L 580.645,303.034 L 579.314,302.663 L 577.936,302.311 L 576.5,301.988 L 575.017,301.693 L 573.486,301.408 L 571.927,301.161 L 570.348,300.933 L 568.722,300.742 L 567.068,300.581 L 565.395,300.448 L 563.702,300.343 L 562.01,300.267 L 560.298,300.22 L 558.587,300.21 L 558.587,300.21 L 556.866,300.22 L 555.154,300.267 L 553.462,300.343 L 551.77,300.448 L 550.096,300.581 L 548.442,300.742 L 546.816,300.933 L 545.228,301.161 L 543.669,301.408 L 542.148,301.693 L 540.664,301.988 L 539.229,302.311 L 537.85,302.663 L 536.519,303.034 L 535.245,303.433 L 534.037,303.861 L 532.877,304.308 L 531.793,304.755 L 530.776,305.249 L 529.835,305.744 L 528.97,306.267 L 528.171,306.78 L 527.448,307.331 L 526.821,307.873 L 526.26,308.434 L 525.794,309.005 L 525.395,309.594 L 525.09,310.184 L 524.872,310.764 L 524.758,311.372 L 524.71,311.971 L 524.71,311.971 L 524.758,312.561 L 524.872,313.16 L 525.09,313.749 L 525.395,314.32 L 525.794,314.909 L 526.26,315.48 L 526.821,316.041 L 527.448,316.602 L 528.171,317.144 L 528.97,317.657 L 529.835,318.171 L 530.776,318.684 L 531.793,319.159 L 532.877,319.616 L 534.037,320.063 L 535.245,320.481 L 536.519,320.89 L 537.85,321.251 L 539.229,321.603 L 540.664,321.936 L 542.148,322.249 L 543.669,322.506 L 545.228,322.763 L 546.816,322.991 L 548.442,323.172 L 550.096,323.333 L 551.77,323.466 L 553.462,323.571 L 555.154,323.657 L 556.866,323.704 L 558.587,323.714 L 558.587,323.714 L 560.298,323.704 L 562.01,323.657 L 563.702,323.571 L 565.395,323.466 L 567.068,323.333 L 568.722,323.172 L 570.348,322.991 L 571.927,322.763 L 573.486,322.506 L 575.017,322.249 L 576.5,321.936 L 577.936,321.603 L 579.314,321.251 L 580.645,320.89 L 581.91,320.481 L 583.127,320.063 L 584.287,319.616 L 585.371,319.159 L 586.388,318.684 L 587.329,318.171 L 588.195,317.657 L 588.993,317.144 L 589.716,316.602 L 590.343,316.041 L 590.904,315.48 L 591.37,314.909 L 591.77,314.32 L 592.064,313.749 L 592.274,313.16 L 592.397,312.561 L 592.454,311.971z"/>
    <path style="fill: none; fill-opacity:0; stroke-width: 0.02; stroke: #aae6ff" d="M 592.055 311.772 L 592.007,311.173 L 591.893,310.602 L 591.675,310.022 L 591.38,309.442 L 590.99,308.881 L 590.496,308.301 L 589.982,307.769 L 589.336,307.217 L 588.622,306.694 L 587.833,306.152 L 586.959,305.668 L 586.027,305.164 L 585.019,304.688 L 583.945,304.251 L 582.804,303.795 L 581.587,303.414 L 580.313,303.005 L 579,302.635 L 577.631,302.292 L 576.205,301.959 L 574.722,301.665 L 573.22,301.398 L 571.679,301.161 L 570.091,300.933 L 568.485,300.742 L 566.83,300.59 L 565.176,300.448 L 563.493,300.353 L 561.801,300.277 L 560.099,300.229 L 558.397,300.22 L 558.397,300.22 L 556.676,300.229 L 554.983,300.277 L 553.281,300.353 L 551.618,300.448 L 549.954,300.59 L 548.309,300.742 L 546.692,300.933 L 545.105,301.161 L 543.555,301.398 L 542.052,301.665 L 540.569,301.959 L 539.143,302.292 L 537.783,302.635 L 536.462,303.005 L 535.188,303.414 L 533.98,303.795 L 532.849,304.251 L 531.774,304.688 L 530.757,305.164 L 529.806,305.668 L 528.96,306.152 L 528.161,306.694 L 527.448,307.217 L 526.821,307.769 L 526.269,308.301 L 525.794,308.881 L 525.414,309.442 L 525.109,310.022 L 524.891,310.602 L 524.767,311.173 L 524.719,311.772 L 524.719,311.772 L 524.767,312.361 L 524.891,312.941 L 525.109,313.521 L 525.414,314.092 L 525.794,314.662 L 526.269,315.233 L 526.821,315.775 L 527.448,316.326 L 528.161,316.849 L 528.96,317.381 L 529.806,317.885 L 530.757,318.361 L 531.774,318.846 L 532.849,319.302 L 533.98,319.73 L 535.188,320.139 L 536.462,320.529 L 537.783,320.899 L 539.143,321.242 L 540.569,321.574 L 542.052,321.888 L 543.555,322.135 L 545.105,322.392 L 546.692,322.611 L 548.309,322.791 L 549.954,322.963 L 551.618,323.096 L 553.281,323.181 L 554.983,323.267 L 556.676,323.314 L 558.397,323.324 L 558.397,323.324 L 560.099,323.314 L 561.801,323.267 L 563.493,323.181 L 565.176,323.096 L 566.83,322.963 L 568.485,322.791 L 570.091,322.611 L 571.679,322.392 L 573.22,322.135 L 574.722,321.888 L 576.205,321.574 L 577.631,321.242 L 579,320.899 L 580.313,320.529 L 581.587,320.139 L 582.804,319.73 L 583.945,319.302 L 585.019,318.846 L 586.027,318.361 L 586.959,317.885 L 587.833,317.381 L 588.622,316.849 L 589.336,316.326 L 589.982,315.775 L 590.496,315.233 L 590.99,314.662 L 591.38,314.092 L 591.675,313.521 L 591.893,312.941 L 592.007,312.361 L 592.055,311.772"/>
    <path style="fill: #000000" d="M 559.214 309.3 L 564.139,310.954 L 576.053,305.991 L 581.387,307.636 L 578.506,303.528 L 564.558,303.528 L 570.291,304.755 L 559.214,309.3z"/>
    <path style="fill: #000000" d="M 557.151 313.835 L 552.236,312.171 L 540.731,317.144 L 534.988,315.48 L 537.85,320.015 L 552.236,320.015 L 546.065,318.361 L 557.151,313.835z"/>
    <path style="fill: #000000" d="M 536.215 304.755 L 541.13,303.11 L 553.053,307.636 L 558.397,306.409 L 555.525,310.517 L 541.549,310.517 L 547.291,309.3 L 536.215,304.755z"/>
    <path style="fill: #000000" d="M 580.56 318.77 L 575.625,320.424 L 564.139,315.48 L 558.397,317.144 L 561.268,312.998 L 575.625,312.998 L 569.473,314.234 L 580.56,318.77z"/>
    <path style="fill: #ffffff" d="M 559.623 309.708 L 564.558,311.353 L 576.443,306.409 L 581.796,308.064 L 578.915,303.928 L 564.957,303.928 L 570.709,305.154 L 559.623,309.708z"/>
    <path style="fill: #ffffff" d="M 557.569 314.234 L 552.625,312.589 L 541.13,317.534 L 535.387,315.889 L 538.259,320.424 L 552.625,320.424 L 546.474,318.77 L 557.569,314.234z"/>
    <path style="fill: #ffffff" d="M 536.623 305.154 L 541.549,303.528 L 553.462,308.064 L 558.796,306.809 L 555.934,310.954 L 541.957,310.954 L 547.719,309.708 L 536.623,305.154z"/>
    <path style="fill: #ffffff" d="M 580.959 319.197 L 576.053,320.842 L 564.558,315.889 L 558.796,317.534 L 561.667,313.426 L 576.053,313.426 L 569.892,314.653 L 580.959,319.197z"/>
    <path style="fill: none; fill-opacity:0; stroke-width: 0.02; stroke: #aae6ff" d="M 524.719 311.772 L 524.719,328.249"/>
    <path style="fill: none; fill-opacity:0; stroke-width: 0.02; stroke: #aae6ff" d="M 592.055 311.772 L 592.055,328.249"/>
  </g>
  <g>
    <path style="fill: #0078aa" d="M 416.154 457.658 L 416.097,457.059 L 415.974,456.46 L 415.764,455.871 L 415.47,455.291 L 415.07,454.701 L 414.604,454.131 L 414.043,453.57 L 413.416,453.018 L 412.693,452.476 L 411.895,451.953 L 411.029,451.449 L 410.088,450.936 L 409.071,450.451 L 407.987,449.995 L 406.827,449.557 L 405.61,449.139 L 404.345,448.73 L 403.014,448.359 L 401.636,448.008 L 400.2,447.675 L 398.717,447.371 L 397.186,447.114 L 395.627,446.848 L 394.048,446.638 L 392.422,446.439 L 390.768,446.287 L 389.095,446.144 L 387.402,446.049 L 385.71,445.954 L 383.998,445.925 L 382.287,445.897 L 382.287,445.897 L 380.566,445.925 L 378.854,445.954 L 377.162,446.049 L 375.47,446.144 L 373.796,446.287 L 372.142,446.439 L 370.516,446.638 L 368.928,446.848 L 367.369,447.114 L 365.848,447.371 L 364.364,447.675 L 362.929,448.008 L 361.55,448.359 L 360.219,448.73 L 358.945,449.139 L 357.737,449.557 L 356.577,449.995 L 355.493,450.451 L 354.476,450.936 L 353.535,451.449 L 352.67,451.953 L 351.871,452.476 L 351.148,453.018 L 350.521,453.57 L 349.96,454.131 L 349.494,454.701 L 349.095,455.291 L 348.79,455.871 L 348.572,456.46 L 348.458,457.059 L 348.41,457.658 L 348.41,457.658 L 348.458,458.248 L 348.572,458.847 L 348.79,459.436 L 349.095,460.016 L 349.494,460.606 L 349.96,461.176 L 350.521,461.737 L 351.148,462.289 L 351.871,462.83 L 352.67,463.353 L 353.535,463.876 L 354.476,464.371 L 355.493,464.856 L 356.577,465.312 L 357.737,465.768 L 358.945,466.187 L 360.219,466.577 L 361.55,466.957 L 362.929,467.299 L 364.364,467.632 L 365.848,467.936 L 367.369,468.212 L 368.928,468.459 L 370.516,468.687 L 372.142,468.868 L 373.796,469.039 L 375.47,469.163 L 377.162,469.277 L 378.854,469.353 L 380.566,469.4 L 382.287,469.41 L 382.287,469.41 L 383.998,469.4 L 385.71,469.353 L 387.402,469.277 L 389.095,469.163 L 390.768,469.039 L 392.422,468.868 L 394.048,468.687 L 395.627,468.459 L 397.186,468.212 L 398.717,467.936 L 400.2,467.632 L 401.636,467.299 L 403.014,466.957 L 404.345,466.577 L 405.61,466.187 L 406.827,465.768 L 407.987,465.312 L 409.071,464.856 L 410.088,464.371 L 411.029,463.876 L 411.895,463.353 L 412.693,462.83 L 413.416,462.289 L 414.043,461.737 L 414.604,461.176 L 415.07,460.606 L 415.47,460.016 L 415.764,459.436 L 415.974,458.847 L 416.097,458.248 L 416.154,457.658z"/>
    <path style="fill: none; fill-opacity:0; stroke-width: 0.02; stroke: #aae6ff" d="M 415.755 457.468 L 415.707,456.869 L 415.593,456.299 L 415.375,455.709 L 415.08,455.139 L 414.69,454.568 L 414.196,454.007 L 413.682,453.465 L 413.036,452.914 L 412.322,452.381 L 411.533,451.849 L 410.659,451.354 L 409.727,450.86 L 408.719,450.385 L 407.645,449.928 L 406.504,449.491 L 405.287,449.091 L 404.013,448.711 L 402.7,448.321 L 401.331,447.998 L 399.905,447.656 L 398.422,447.361 L 396.92,447.095 L 395.379,446.848 L 393.791,446.638 L 392.185,446.439 L 390.53,446.287 L 388.876,446.144 L 387.193,446.049 L 385.501,445.982 L 383.799,445.925 L 382.097,445.925 L 382.097,445.925 L 380.376,445.925 L 378.683,445.982 L 376.981,446.049 L 375.318,446.144 L 373.654,446.287 L 372.009,446.439 L 370.392,446.638 L 368.805,446.848 L 367.255,447.095 L 365.752,447.361 L 364.269,447.656 L 362.843,447.998 L 361.483,448.321 L 360.162,448.711 L 358.888,449.091 L 357.68,449.491 L 356.549,449.928 L 355.474,450.385 L 354.457,450.86 L 353.506,451.354 L 352.66,451.849 L 351.861,452.381 L 351.148,452.914 L 350.521,453.465 L 349.969,454.007 L 349.494,454.568 L 349.114,455.139 L 348.809,455.709 L 348.591,456.299 L 348.467,456.869 L 348.419,457.468 L 348.419,457.468 L 348.467,458.048 L 348.591,458.647 L 348.809,459.208 L 349.114,459.788 L 349.494,460.368 L 349.969,460.919 L 350.521,461.471 L 351.148,462.022 L 351.861,462.545 L 352.66,463.078 L 353.506,463.582 L 354.457,464.057 L 355.474,464.542 L 356.549,465.008 L 357.68,465.426 L 358.888,465.835 L 360.162,466.225 L 361.483,466.605 L 362.843,466.938 L 364.269,467.261 L 365.752,467.565 L 367.255,467.832 L 368.805,468.069 L 370.392,468.298 L 372.009,468.488 L 373.654,468.64 L 375.318,468.773 L 376.981,468.868 L 378.683,468.954 L 380.376,469.001 L 382.097,469.011 L 382.097,469.011 L 383.799,469.001 L 385.501,468.954 L 387.193,468.868 L 388.876,468.773 L 390.53,468.64 L 392.185,468.488 L 393.791,468.298 L 395.379,468.069 L 396.92,467.832 L 398.422,467.565 L 399.905,467.261 L 401.331,466.938 L 402.7,466.605 L 404.013,466.225 L 405.287,465.835 L 406.504,465.426 L 407.645,465.008 L 408.719,464.542 L 409.727,464.057 L 410.659,463.582 L 411.533,463.078 L 412.322,462.545 L 413.036,462.022 L 413.682,461.471 L 414.196,460.919 L 414.69,460.368 L 415.08,459.788 L 415.375,459.208 L 415.593,458.647 L 415.707,458.048 L 415.755,457.468"/>
    <path style="fill: #0078aa" d="M 348.419 441.371 L 348.419,457.877 L 415.755,457.877 L 415.755,441.371 L 348.419,441.371z"/>
    <path style="fill: #00b4ff" d="M 416.154 441.171 L 416.097,440.572 L 415.974,439.964 L 415.764,439.384 L 415.47,438.794 L 415.07,438.205 L 414.604,437.634 L 414.043,437.073 L 413.416,436.531 L 412.693,435.98 L 411.895,435.467 L 411.029,434.944 L 410.088,434.449 L 409.071,433.955 L 407.987,433.508 L 406.827,433.061 L 405.61,432.633 L 404.345,432.234 L 403.014,431.863 L 401.636,431.511 L 400.2,431.188 L 398.717,430.893 L 397.186,430.608 L 395.627,430.361 L 394.048,430.133 L 392.422,429.942 L 390.768,429.781 L 389.095,429.648 L 387.402,429.543 L 385.71,429.467 L 383.998,429.42 L 382.287,429.41 L 382.287,429.41 L 380.566,429.42 L 378.854,429.467 L 377.162,429.543 L 375.47,429.648 L 373.796,429.781 L 372.142,429.942 L 370.516,430.133 L 368.928,430.361 L 367.369,430.608 L 365.848,430.893 L 364.364,431.188 L 362.929,431.511 L 361.55,431.863 L 360.219,432.234 L 358.945,432.633 L 357.737,433.061 L 356.577,433.508 L 355.493,433.955 L 354.476,434.449 L 353.535,434.944 L 352.67,435.467 L 351.871,435.98 L 351.148,436.531 L 350.521,437.073 L 349.96,437.634 L 349.494,438.205 L 349.095,438.794 L 348.79,439.384 L 348.572,439.964 L 348.458,440.572 L 348.41,441.171 L 348.41,441.171 L 348.458,441.761 L 348.572,442.36 L 348.79,442.949 L 349.095,443.52 L 349.494,444.109 L 349.96,444.68 L 350.521,445.241 L 351.148,445.802 L 351.871,446.344 L 352.67,446.857 L 353.535,447.371 L 354.476,447.884 L 355.493,448.359 L 356.577,448.816 L 357.737,449.263 L 358.945,449.681 L 360.219,450.09 L 361.55,450.451 L 362.929,450.803 L 364.364,451.136 L 365.848,451.449 L 367.369,451.706 L 368.928,451.963 L 370.516,452.191 L 372.142,452.372 L 373.796,452.533 L 375.47,452.666 L 377.162,452.771 L 378.854,452.857 L 380.566,452.904 L 382.287,452.914 L 382.287,452.914 L 383.998,452.904 L 385.71,452.857 L 387.402,452.771 L 389.095,452.666 L 390.768,452.533 L 392.422,452.372 L 394.048,452.191 L 395.627,451.963 L 397.186,451.706 L 398.717,451.449 L 400.2,451.136 L 401.636,450.803 L 403.014,450.451 L 404.345,450.09 L 405.61,449.681 L 406.827,449.263 L 407.987,448.816 L 409.071,448.359 L 410.088,447.884 L 411.029,447.371 L 411.895,446.857 L 412.693,446.344 L 413.416,445.802 L 414.043,445.241 L 414.604,444.68 L 415.07,444.109 L 415.47,443.52 L 415.764,442.949 L 415.974,442.36 L 416.097,441.761 L 416.154,441.171z"/>
    <path style="fill: none; fill-opacity:0; stroke-width: 0.02; stroke: #aae6ff" d="M 415.755 440.972 L 415.707,440.373 L 415.593,439.802 L 415.375,439.222 L 415.08,438.642 L 414.69,438.081 L 414.196,437.501 L 413.682,436.969 L 413.036,436.417 L 412.322,435.894 L 411.533,435.352 L 410.659,434.868 L 409.727,434.364 L 408.719,433.888 L 407.645,433.451 L 406.504,432.995 L 405.287,432.614 L 404.013,432.205 L 402.7,431.835 L 401.331,431.492 L 399.905,431.159 L 398.422,430.865 L 396.92,430.598 L 395.379,430.361 L 393.791,430.133 L 392.185,429.942 L 390.53,429.79 L 388.876,429.648 L 387.193,429.553 L 385.501,429.477 L 383.799,429.429 L 382.097,429.42 L 382.097,429.42 L 380.376,429.429 L 378.683,429.477 L 376.981,429.553 L 375.318,429.648 L 373.654,429.79 L 372.009,429.942 L 370.392,430.133 L 368.805,430.361 L 367.255,430.598 L 365.752,430.865 L 364.269,431.159 L 362.843,431.492 L 361.483,431.835 L 360.162,432.205 L 358.888,432.614 L 357.68,432.995 L 356.549,433.451 L 355.474,433.888 L 354.457,434.364 L 353.506,434.868 L 352.66,435.352 L 351.861,435.894 L 351.148,436.417 L 350.521,436.969 L 349.969,437.501 L 349.494,438.081 L 349.114,438.642 L 348.809,439.222 L 348.591,439.802 L 348.467,440.373 L 348.419,440.972 L 348.419,440.972 L 348.467,441.561 L 348.591,442.141 L 348.809,442.721 L 349.114,443.292 L 349.494,443.862 L 349.969,444.433 L 350.521,444.975 L 351.148,445.526 L 351.861,446.049 L 352.66,446.581 L 353.506,447.085 L 354.457,447.561 L 355.474,448.046 L 356.549,448.502 L 357.68,448.93 L 358.888,449.339 L 360.162,449.729 L 361.483,450.099 L 362.843,450.442 L 364.269,450.774 L 365.752,451.088 L 367.255,451.335 L 368.805,451.592 L 370.392,451.811 L 372.009,451.991 L 373.654,452.163 L 375.318,452.296 L 376.981,452.381 L 378.683,452.467 L 380.376,452.514 L 382.097,452.524 L 382.097,452.524 L 383.799,452.514 L 385.501,452.467 L 387.193,452.381 L 388.876,452.296 L 390.53,452.163 L 392.185,451.991 L 393.791,451.811 L 395.379,451.592 L 396.92,451.335 L 398.422,451.088 L 399.905,450.774 L 401.331,450.442 L 402.7,450.099 L 404.013,449.729 L 405.287,449.339 L 406.504,448.93 L 407.645,448.502 L 408.719,448.046 L 409.727,447.561 L 410.659,447.085 L 411.533,446.581 L 412.322,446.049 L 413.036,445.526 L 413.682,444.975 L 414.196,444.433 L 414.69,443.862 L 415.08,443.292 L 415.375,442.721 L 415.593,442.141 L 415.707,441.561 L 415.755,440.972"/>
    <path style="fill: #000000" d="M 382.914 438.5 L 387.839,440.154 L 399.753,435.191 L 405.087,436.836 L 402.206,432.728 L 388.258,432.728 L 393.991,433.955 L 382.914,438.5z"/>
    <path style="fill: #000000" d="M 380.851 443.035 L 375.936,441.371 L 364.431,446.344 L 358.688,444.68 L 361.55,449.215 L 375.936,449.215 L 369.765,447.561 L 380.851,443.035z"/>
    <path style="fill: #000000" d="M 359.915 433.955 L 364.83,432.31 L 376.753,436.836 L 382.097,435.609 L 379.225,439.717 L 365.249,439.717 L 370.991,438.5 L 359.915,433.955z"/>
    <path style="fill: #000000" d="M 404.26 447.97 L 399.325,449.624 L 387.839,444.68 L 382.097,446.344 L 384.968,442.198 L 399.325,442.198 L 393.173,443.434 L 404.26,447.97z"/>
    <path style="fill: #ffffff" d="M 383.323 438.908 L 388.258,440.553 L 400.143,435.609 L 405.496,437.264 L 402.615,433.128 L 388.657,433.128 L 394.409,434.354 L 383.323,438.908z"/>
    <path style="fill: #ffffff" d="M 381.269 443.434 L 376.325,441.789 L 364.83,446.734 L 359.087,445.089 L 361.959,449.624 L 376.325,449.624 L 370.174,447.97 L 381.269,443.434z"/>
    <path style="fill: #ffffff" d="M 360.323 434.354 L 365.249,432.728 L 377.162,437.264 L 382.496,436.009 L 379.634,440.154 L 365.657,440.154 L 371.419,438.908 L 360.323,434.354z"/>
    <path style="fill: #ffffff" d="M 404.659 448.397 L 399.753,450.042 L 388.258,445.089 L 382.496,446.734 L 385.367,442.626 L 399.753,442.626 L 393.592,443.853 L 404.659,448.397z"/>
    <path style="fill: none; fill-opacity:0; stroke-width: 0.02; stroke: #aae6ff" d="M 348.419 440.972 L 348.419,457.449"/>
    <path style="fill: none; fill-opacity:0; stroke-width: 0.02; stroke: #aae6ff" d="M 415.755 440.972 L 415.755,457.449"/>
  </g>
  <g>
    <line style="fill: none; fill-opacity:0; stroke-width: 2; stroke: #000000" x1="67" y1="297" x2="171.549" y2="210.844"/>
    <polyline style="fill: none; fill-opacity:0; stroke-width: 2; stroke: #000000" points="168.737,219.64 173.274,209.422 162.377,211.923 "/>
  </g>
  <g>
    <line style="fill: none; fill-opacity:0; stroke-width: 2; stroke: #000000" x1="241.872" y1="197.995" x2="427.656" y2="198.897"/>
    <polyline style="fill: none; fill-opacity:0; stroke-width: 2; stroke: #000000" points="419.868,203.86 429.892,198.908 419.916,193.86 "/>
  </g>
  <text style="fill: #000000;text-anchor:start;font-size:12.8;font-family:sanserif;font-style:normal;font-weight:700" x="57" y="289">
    <tspan x="57" y="289">A</tspan>
  </text>
  <text style="fill: #000000;text-anchor:start;font-size:12.8;font-family:sanserif;font-style:normal;font-weight:700" x="204" y="167">
    <tspan x="204" y="167">B</tspan>
  </text>
  <text style="fill: #000000;text-anchor:start;font-size:12.8;font-family:sanserif;font-style:normal;font-weight:700" x="138" y="420">
    <tspan x="138" y="420">C</tspan>
  </text>
  <text style="fill: #000000;text-anchor:start;font-size:12.8;font-family:sanserif;font-style:normal;font-weight:700" x="296" y="290">
    <tspan x="296" y="290">D</tspan>
  </text>
  <text style="fill: #000000;text-anchor:start;font-size:12.8;font-family:sanserif;font-style:normal;font-weight:700" x="462" y="167">
    <tspan x="462" y="167">E</tspan>
  </text>
  <text style="fill: #000000;text-anchor:start;font-size:12.8;font-family:sanserif;font-style:normal;font-weight:700" x="378" y="420">
    <tspan x="378" y="420">F</tspan>
  </text>
  <text style="fill: #000000;text-anchor:start;font-size:12.8;font-family:sanserif;font-style:normal;font-weight:700" x="554" y="289">
    <tspan x="554" y="289">G</tspan>
  </text>
  <g>
    <line style="fill: none; fill-opacity:0; stroke-width: 2; stroke: #000000" x1="480.201" y1="215.899" x2="541.656" y2="297.685"/>
    <polyline style="fill: none; fill-opacity:0; stroke-width: 2; stroke: #000000" points="532.995,294.482 542.999,299.473 540.989,288.475 "/>
  </g>
  <g>
    <line style="fill: none; fill-opacity:0; stroke-width: 2; stroke: #000000" x1="432" y1="210" x2="320.522" y2="297.244"/>
    <polyline style="fill: none; fill-opacity:0; stroke-width: 2; stroke: #000000" points="323.554,288.521 318.761,298.622 329.718,296.396 "/>
  </g>
  <g>
    <line style="fill: none; fill-opacity:0; stroke-width: 2; stroke: #000000" x1="330" y1="304" x2="440.624" y2="216.937"/>
    <polyline style="fill: none; fill-opacity:0; stroke-width: 2; stroke: #000000" points="437.615,225.668 442.381,215.554 431.431,217.809 "/>
  </g>
  <g>
    <line style="fill: none; fill-opacity:0; stroke-width: 2; stroke: #000000" x1="130.4" y1="429.674" x2="77.8862" y2="342.15"/>
    <polyline style="fill: none; fill-opacity:0; stroke-width: 2; stroke: #000000" points="86.1682,346.235 76.7357,340.233 77.5932,351.38 "/>
  </g>
  <g>
    <line style="fill: none; fill-opacity:0; stroke-width: 2; stroke: #000000" x1="163.122" y1="431.72" x2="275.207" y2="340.207"/>
    <polyline style="fill: none; fill-opacity:0; stroke-width: 2; stroke: #000000" points="272.355,348.991 276.939,338.793 266.031,341.245 "/>
  </g>
  <g>
    <line style="fill: none; fill-opacity:0; stroke-width: 2; stroke: #000000" x1="97.4734" y1="319.121" x2="261.654" y2="319.816"/>
    <polyline style="fill: none; fill-opacity:0; stroke-width: 2; stroke: #000000" points="253.869,324.783 263.89,319.826 253.911,314.783 "/>
  </g>
  <g>
    <line style="fill: none; fill-opacity:0; stroke-width: 2; stroke: #000000" x1="348.41" y1="449.331" x2="179.959" y2="449.043"/>
    <polyline style="fill: none; fill-opacity:0; stroke-width: 2; stroke: #000000" points="187.732,444.057 177.723,449.04 187.715,454.057 "/>
  </g>
  <g>
    <line style="fill: none; fill-opacity:0; stroke-width: 2; stroke: #000000" x1="417" y1="440" x2="534.397" y2="340.643"/>
    <polyline style="fill: none; fill-opacity:0; stroke-width: 2; stroke: #000000" points="531.701,349.475 536.104,339.198 525.241,341.842 "/>
  </g>
  <g>
    <line style="fill: none; fill-opacity:0; stroke-width: 2; stroke: #000000" x1="526" y1="333" x2="410.424" y2="430.123"/>
    <polyline style="fill: none; fill-opacity:0; stroke-width: 2; stroke: #000000" points="413.151,421.3 408.712,431.561 419.584,428.956 "/>
  </g>
  <text style="fill: #000000;text-anchor:start;font-size:12.7998;font-family:sanserif;font-style:normal;font-weight:normal" x="112" y="247">
    <tspan x="112" y="247">8</tspan>
  </text>
  <g>
    <line style="fill: none; fill-opacity:0; stroke-width: 2; stroke: #000000" x1="187.173" y1="213.465" x2="86.4239" y2="298.123"/>
    <polyline style="fill: none; fill-opacity:0; stroke-width: 2; stroke: #000000" points="89.1513,289.3 84.7119,299.561 95.5845,296.956 "/>
  </g>
  <text style="fill: #000000;text-anchor:start;font-size:12.7998;font-family:sanserif;font-style:normal;font-weight:normal" x="139" y="268">
    <tspan x="139" y="268">2</tspan>
  </text>
  <text style="fill: #000000;text-anchor:start;font-size:12.7998;font-family:sanserif;font-style:normal;font-weight:normal" x="335" y="191">
    <tspan x="335" y="191">5</tspan>
  </text>
  <text style="fill: #000000;text-anchor:start;font-size:12.7998;font-family:sanserif;font-style:normal;font-weight:normal" x="363" y="250">
    <tspan x="363" y="250">7</tspan>
  </text>
  <text style="fill: #000000;text-anchor:start;font-size:12.7998;font-family:sanserif;font-style:normal;font-weight:normal" x="392" y="275">
    <tspan x="392" y="275">3</tspan>
  </text>
  <text style="fill: #000000;text-anchor:start;font-size:12.7998;font-family:sanserif;font-style:normal;font-weight:normal" x="179" y="314">
    <tspan x="179" y="314">4</tspan>
  </text>
  <text style="fill: #000000;text-anchor:start;font-size:12.7998;font-family:sanserif;font-style:normal;font-weight:normal" x="89" y="395">
    <tspan x="89" y="395">6</tspan>
  </text>
  <text style="fill: #000000;text-anchor:start;font-size:12.7998;font-family:sanserif;font-style:normal;font-weight:normal" x="259" y="444">
    <tspan x="259" y="444">5</tspan>
  </text>
  <text style="fill: #000000;text-anchor:start;font-size:12.7998;font-family:sanserif;font-style:normal;font-weight:normal" x="223" y="396">
    <tspan x="223" y="396">3</tspan>
  </text>
  <text style="fill: #000000;text-anchor:start;font-size:12.7998;font-family:sanserif;font-style:normal;font-weight:normal" x="427" y="315">
    <tspan x="427" y="315">6</tspan>
  </text>
  <text style="fill: #000000;text-anchor:start;font-size:12.7998;font-family:sanserif;font-style:normal;font-weight:normal" x="458" y="376">
    <tspan x="458" y="376">4</tspan>
  </text>
  <text style="fill: #000000;text-anchor:start;font-size:12.7998;font-family:sanserif;font-style:normal;font-weight:normal" x="482" y="402">
    <tspan x="482" y="402">7</tspan>
  </text>
  <text style="fill: #000000;text-anchor:start;font-size:12.7998;font-family:sanserif;font-style:normal;font-weight:normal" x="519" y="258">
    <tspan x="519" y="258">9</tspan>
  </text>
  <g>
    <line style="fill: none; fill-opacity:0; stroke-width: 2; stroke: #000000" x1="333.482" y1="320.006" x2="520.24" y2="320.157"/>
    <polyline style="fill: none; fill-opacity:0; stroke-width: 2; stroke: #000000" points="512.472,325.151 522.476,320.159 512.48,315.151 "/>
  </g>
</svg>
