<?xml version="1.0" encoding="UTF-8" standalone="no"?>
<!DOCTYPE svg PUBLIC "-//W3C//DTD SVG 1.0//EN" "http://www.w3.org/TR/2001/PR-SVG-20010719/DTD/svg10.dtd">
<svg width="24cm" height="9cm" viewBox="43 99 474 179" xmlns="http://www.w3.org/2000/svg" xmlns:xlink="http://www.w3.org/1999/xlink">
  <g>
    <rect style="fill: #ffffff" x="202" y="100" width="117" height="56"/>
    <rect style="fill: none; fill-opacity:0; stroke-width: 2; stroke: #000000" x="202" y="100" width="117" height="56"/>
  </g>
  <text style="fill: #000000;text-anchor:start;font-size:12.7998;font-family:sanserif;font-style:normal;font-weight:normal" x="246.5" y="131.5">
    <tspan x="246.5" y="131.5">Grid</tspan>
  </text>
  <g>
    <rect style="fill: #ffffff" x="399.4" y="219.2" width="117" height="56"/>
    <rect style="fill: none; fill-opacity:0; stroke-width: 2; stroke: #000000" x="399.4" y="219.2" width="117" height="56"/>
  </g>
  <g>
    <rect style="fill: #ffffff" x="44.8" y="220.4" width="117" height="56"/>
    <rect style="fill: none; fill-opacity:0; stroke-width: 2; stroke: #000000" x="44.8" y="220.4" width="117" height="56"/>
  </g>
  <g>
    <rect style="fill: #ffffff" x="202.2" y="220.6" width="117" height="56"/>
    <rect style="fill: none; fill-opacity:0; stroke-width: 2; stroke: #000000" x="202.2" y="220.6" width="117" height="56"/>
  </g>
  <g>
    <line style="fill: none; fill-opacity:0; stroke-width: 2; stroke: #000000" x1="260.637" y1="219.606" x2="260.51" y2="160.472"/>
    <polyline style="fill: none; fill-opacity:0; stroke-width: 2; stroke: #000000" points="265.526,168.225 260.505,158.236 255.526,168.247 "/>
  </g>
  <g>
    <line style="fill: none; fill-opacity:0; stroke-width: 2; stroke: #000000" x1="103.3" y1="220.4" x2="198.255" y2="158.444"/>
    <polyline style="fill: none; fill-opacity:0; stroke-width: 2; stroke: #000000" points="194.485,166.874 200.127,157.222 189.02,158.499 "/>
  </g>
  <g>
    <line style="fill: none; fill-opacity:0; stroke-width: 2; stroke: #000000" x1="457.9" y1="219.2" x2="323.071" y2="157.852"/>
    <polyline style="fill: none; fill-opacity:0; stroke-width: 2; stroke: #000000" points="332.208,156.517 321.035,156.926 328.067,165.619 "/>
  </g>
  <text style="fill: #000000;text-anchor:start;font-size:12.7998;font-family:sanserif;font-style:normal;font-weight:normal" x="64.4" y="250.1">
    <tspan x="64.4" y="250.1">GenericGrid</tspan>
  </text>
  <text style="fill: #000000;text-anchor:start;font-size:12.7998;font-family:sanserif;font-style:normal;font-weight:normal" x="429.8" y="251.3">
    <tspan x="429.8" y="251.3">VLANGrid</tspan>
  </text>
  <text style="fill: #000000;text-anchor:start;font-size:12.7998;font-family:sanserif;font-style:normal;font-weight:normal" x="230.2" y="250.5">
    <tspan x="230.2" y="250.5">WaveGrid</tspan>
  </text>
  <text style="fill: #000000;text-anchor:start;font-size:22.5778;font-family:sanserif;font-style:normal;font-weight:700" x="347" y="251">
    <tspan x="347" y="251">...</tspan>
  </text>
</svg>
