<?xml version="1.0" encoding="UTF-8" standalone="no"?>
<!DOCTYPE svg PUBLIC "-//W3C//DTD SVG 1.0//EN" "http://www.w3.org/TR/2001/PR-SVG-20010719/DTD/svg10.dtd">
<svg width="31cm" height="12cm" viewBox="-18 145 616 226" xmlns="http://www.w3.org/2000/svg" xmlns:xlink="http://www.w3.org/1999/xlink">
  <g>
    <path style="fill: #0078aa" d="M 332.553 285.807 L 332.499,285.17 L 332.363,284.519 L 332.133,283.868 L 331.793,283.244 L 331.373,282.593 L 330.857,281.982 L 330.261,281.358 L 329.542,280.761 L 328.768,280.178 L 327.9,279.608 L 326.937,279.025 L 325.906,278.496 L 324.794,277.967 L 323.614,277.465 L 322.339,276.99 L 321.023,276.529 L 319.626,276.095 L 318.161,275.688 L 316.655,275.295 L 315.081,274.942 L 313.467,274.616 L 311.785,274.318 L 310.076,274.02 L 308.34,273.775 L 306.563,273.585 L 304.758,273.409 L 302.914,273.26 L 301.082,273.151 L 299.224,273.07 L 297.325,273.002 L 295.453,273.002 L 295.453,273.002 L 293.581,273.002 L 291.695,273.07 L 289.837,273.151 L 287.992,273.26 L 286.161,273.409 L 284.357,273.585 L 282.566,273.775 L 280.83,274.02 L 279.121,274.318 L 277.452,274.616 L 275.824,274.942 L 274.251,275.295 L 272.745,275.688 L 271.28,276.095 L 269.896,276.529 L 268.567,276.99 L 267.306,277.465 L 266.112,277.967 L 265,278.496 L 263.969,279.025 L 263.005,279.608 L 262.137,280.178 L 261.364,280.761 L 260.659,281.358 L 260.062,281.982 L 259.546,282.593 L 259.112,283.244 L 258.787,283.868 L 258.543,284.519 L 258.407,285.17 L 258.366,285.807 L 258.366,285.807 L 258.407,286.472 L 258.543,287.123 L 258.787,287.761 L 259.112,288.398 L 259.546,289.036 L 260.062,289.66 L 260.659,290.27 L 261.364,290.881 L 262.137,291.464 L 263.005,292.034 L 263.969,292.59 L 265,293.146 L 266.112,293.675 L 267.306,294.163 L 268.567,294.638 L 269.896,295.113 L 271.28,295.547 L 272.745,295.954 L 274.251,296.32 L 275.824,296.7 L 277.452,297.012 L 279.121,297.324 L 280.83,297.595 L 282.566,297.84 L 284.357,298.029 L 286.161,298.233 L 287.992,298.355 L 289.837,298.477 L 291.695,298.572 L 293.581,298.613 L 295.453,298.626 L 295.453,298.626 L 297.325,298.613 L 299.224,298.572 L 301.082,298.477 L 302.914,298.355 L 304.758,298.233 L 306.563,298.029 L 308.34,297.84 L 310.076,297.595 L 311.785,297.324 L 313.467,297.012 L 315.081,296.7 L 316.655,296.32 L 318.161,295.954 L 319.626,295.547 L 321.023,295.113 L 322.339,294.638 L 323.614,294.163 L 324.794,293.675 L 325.906,293.146 L 326.937,292.59 L 327.9,292.034 L 328.768,291.464 L 329.542,290.881 L 330.261,290.27 L 330.857,289.66 L 331.373,289.036 L 331.793,288.398 L 332.133,287.761 L 332.363,287.123 L 332.499,286.472 L 332.553,285.807z"/>
    <path style="fill: none; fill-opacity:0; stroke-width: 0.02; stroke: #aae6ff" d="M 332.133 285.604 L 332.065,284.966 L 331.956,284.329 L 331.698,283.691 L 331.373,283.081 L 330.939,282.43 L 330.437,281.819 L 329.84,281.236 L 329.135,280.639 L 328.348,280.042 L 327.493,279.486 L 326.544,278.944 L 325.513,278.415 L 324.414,277.886 L 323.234,277.397 L 321.972,276.909 L 320.643,276.475 L 319.259,276.041 L 317.808,275.634 L 316.316,275.267 L 314.756,274.888 L 313.128,274.589 L 311.487,274.277 L 309.791,274.02 L 308.068,273.762 L 306.305,273.572 L 304.487,273.409 L 302.683,273.26 L 300.838,273.151 L 298.993,273.07 L 297.108,273.002 L 295.249,273.002 L 295.249,273.002 L 293.377,273.002 L 291.505,273.07 L 289.647,273.151 L 287.816,273.26 L 285.998,273.409 L 284.194,273.572 L 282.431,273.762 L 280.681,274.02 L 278.985,274.277 L 277.357,274.589 L 275.729,274.888 L 274.183,275.267 L 272.691,275.634 L 271.239,276.041 L 269.842,276.475 L 268.526,276.909 L 267.265,277.397 L 266.085,277.886 L 264.972,278.415 L 263.955,278.944 L 263.005,279.486 L 262.137,280.042 L 261.351,280.639 L 260.659,281.236 L 260.062,281.819 L 259.546,282.43 L 259.112,283.081 L 258.787,283.691 L 258.556,284.329 L 258.421,284.966 L 258.407,285.116"/>
    <path style="fill: none; fill-opacity:0; stroke-width: 0.02; stroke: #aae6ff" d="M 258.407 286.079 L 258.421,286.242 L 258.556,286.879 L 258.787,287.503 L 259.112,288.141 L 259.546,288.765 L 260.062,289.375 L 260.659,289.972 L 261.351,290.555 L 262.137,291.138 L 263.005,291.735 L 263.955,292.251 L 264.972,292.807 L 266.085,293.322 L 267.265,293.824 L 268.526,294.286 L 269.842,294.747 L 271.239,295.167 L 272.691,295.561 L 274.183,295.94 L 275.729,296.307 L 277.357,296.619 L 278.985,296.917 L 280.681,297.175 L 282.431,297.419 L 284.194,297.609 L 285.998,297.799 L 287.816,297.935 L 289.647,298.029 L 291.505,298.138 L 293.377,298.192 L 295.249,298.192 L 295.249,298.192 L 297.108,298.192 L 298.993,298.138 L 300.838,298.029 L 302.683,297.935 L 304.487,297.799 L 306.305,297.609 L 308.068,297.419 L 309.791,297.175 L 311.487,296.917 L 313.128,296.619 L 314.756,296.307 L 316.316,295.94 L 317.808,295.561 L 319.259,295.167 L 320.643,294.747 L 321.972,294.286 L 323.234,293.824 L 324.414,293.322 L 325.513,292.807 L 326.544,292.251 L 327.493,291.735 L 328.348,291.138 L 329.135,290.555 L 329.84,289.972 L 330.437,289.375 L 330.939,288.765 L 331.373,288.141 L 331.698,287.503 L 331.956,286.879 L 332.065,286.242 L 332.133,285.604"/>
    <path style="fill: #0078aa" d="M 258.366 232.049 L 258.366,286.052 L 332.133,286.052 L 332.133,232.049 L 258.366,232.049z"/>
    <path style="fill: #00b4ff" d="M 332.553 231.805 L 332.499,231.168 L 332.363,230.517 L 332.133,229.866 L 331.793,229.242 L 331.373,228.59 L 330.857,227.98 L 330.261,227.37 L 329.542,226.759 L 328.768,226.176 L 327.9,225.606 L 326.937,225.023 L 325.906,224.494 L 324.794,223.965 L 323.614,223.476 L 322.339,222.975 L 321.023,222.527 L 319.626,222.093 L 318.161,221.686 L 316.655,221.292 L 315.081,220.94 L 313.467,220.601 L 311.785,220.316 L 310.076,220.017 L 308.34,219.8 L 306.563,219.583 L 304.758,219.407 L 302.914,219.258 L 301.082,219.163 L 299.224,219.068 L 297.325,219 L 295.453,219 L 295.453,219 L 293.581,219 L 291.695,219.068 L 289.837,219.163 L 287.992,219.258 L 286.161,219.407 L 284.357,219.583 L 282.566,219.8 L 280.83,220.017 L 279.121,220.316 L 277.452,220.601 L 275.824,220.94 L 274.251,221.292 L 272.745,221.686 L 271.28,222.093 L 269.896,222.527 L 268.567,222.975 L 267.306,223.476 L 266.112,223.965 L 265,224.494 L 263.969,225.023 L 263.005,225.606 L 262.137,226.176 L 261.364,226.759 L 260.659,227.37 L 260.062,227.98 L 259.546,228.59 L 259.112,229.242 L 258.787,229.866 L 258.543,230.517 L 258.407,231.168 L 258.366,231.805 L 258.366,231.805 L 258.407,232.47 L 258.543,233.121 L 258.787,233.745 L 259.112,234.396 L 259.546,235.02 L 260.062,235.658 L 260.659,236.282 L 261.364,236.879 L 262.137,237.462 L 263.005,238.032 L 263.969,238.588 L 265,239.144 L 266.112,239.673 L 267.306,240.175 L 268.567,240.636 L 269.896,241.111 L 271.28,241.545 L 272.745,241.952 L 274.251,242.332 L 275.824,242.698 L 277.452,243.01 L 279.121,243.322 L 280.83,243.593 L 282.566,243.837 L 284.357,244.054 L 286.161,244.231 L 287.992,244.353 L 289.837,244.489 L 291.695,244.57 L 293.581,244.611 L 295.453,244.638 L 295.453,244.638 L 297.325,244.611 L 299.224,244.57 L 301.082,244.489 L 302.914,244.353 L 304.758,244.231 L 306.563,244.054 L 308.34,243.837 L 310.076,243.593 L 311.785,243.322 L 313.467,243.01 L 315.081,242.698 L 316.655,242.332 L 318.161,241.952 L 319.626,241.545 L 321.023,241.111 L 322.339,240.636 L 323.614,240.175 L 324.794,239.673 L 325.906,239.144 L 326.937,238.588 L 327.9,238.032 L 328.768,237.462 L 329.542,236.879 L 330.261,236.282 L 330.857,235.658 L 331.373,235.02 L 331.793,234.396 L 332.133,233.745 L 332.363,233.121 L 332.499,232.47 L 332.553,231.805z"/>
    <path style="fill: none; fill-opacity:0; stroke-width: 0.02; stroke: #aae6ff" d="M 332.133 231.602 L 332.065,230.951 L 331.956,230.327 L 331.698,229.689 L 331.373,229.079 L 330.939,228.428 L 330.437,227.817 L 329.84,227.22 L 329.135,226.624 L 328.348,226.054 L 327.493,225.484 L 326.544,224.928 L 325.513,224.412 L 324.414,223.883 L 323.234,223.395 L 321.972,222.893 L 320.643,222.473 L 319.259,222.039 L 317.808,221.632 L 316.316,221.265 L 314.756,220.899 L 313.128,220.587 L 311.487,220.275 L 309.791,220.017 L 308.068,219.773 L 306.305,219.583 L 304.487,219.407 L 302.683,219.244 L 300.838,219.163 L 298.993,219.068 L 297.108,219 L 295.249,219"/>
    <path style="fill: none; fill-opacity:0; stroke-width: 0.02; stroke: #aae6ff" d="M 295.249 219 L 293.377,219 L 291.505,219.068 L 289.647,219.163 L 287.816,219.244 L 285.998,219.407 L 284.194,219.583 L 282.431,219.773 L 280.681,220.017 L 278.985,220.275 L 277.357,220.587 L 275.729,220.899 L 274.183,221.265 L 272.691,221.632 L 271.239,222.039 L 269.842,222.473 L 268.526,222.893 L 267.265,223.395 L 266.085,223.883 L 264.972,224.412 L 263.955,224.928 L 263.005,225.484 L 262.137,226.054 L 261.351,226.624 L 260.659,227.22 L 260.062,227.817 L 259.546,228.428 L 259.112,229.079 L 258.787,229.689 L 258.556,230.327 L 258.421,230.951 L 258.407,231.114"/>
    <path style="fill: none; fill-opacity:0; stroke-width: 0.02; stroke: #aae6ff" d="M 258.407 232.09 L 258.421,232.239 L 258.556,232.877 L 258.787,233.487 L 259.112,234.139 L 259.546,234.762 L 260.062,235.373 L 260.659,235.97 L 261.351,236.553 L 262.137,237.136 L 263.005,237.733 L 263.955,238.249 L 264.972,238.805 L 266.085,239.32 L 267.265,239.822 L 268.526,240.283 L 269.842,240.745 L 271.239,241.165 L 272.691,241.559 L 274.183,241.938 L 275.729,242.305 L 277.357,242.63 L 278.985,242.901 L 280.681,243.173 L 282.431,243.417 L 284.194,243.634 L 285.998,243.797 L 287.816,243.932 L 289.647,244.054 L 291.505,244.136 L 293.377,244.177 L 295.249,244.19 L 295.249,244.19 L 297.108,244.177 L 298.993,244.136 L 300.838,244.054 L 302.683,243.932 L 304.487,243.797 L 306.305,243.634 L 308.068,243.417 L 309.791,243.173 L 311.487,242.901 L 313.128,242.63 L 314.756,242.305 L 316.316,241.938 L 317.808,241.559 L 319.259,241.165 L 320.643,240.745 L 321.972,240.283 L 323.234,239.822 L 324.414,239.32 L 325.513,238.805 L 326.544,238.249 L 327.493,237.733 L 328.348,237.136 L 329.135,236.553 L 329.84,235.97 L 330.437,235.373 L 330.939,234.762 L 331.373,234.139 L 331.698,233.487 L 331.956,232.877 L 332.065,232.239 L 332.133,231.602"/>
    <path style="fill: #000000" d="M 296.145 228.902 L 301.544,230.693 L 314.579,225.281 L 320.426,227.098 L 317.265,222.608 L 302.005,222.608 L 308.285,223.951 L 296.145,228.902z"/>
    <path style="fill: #000000" d="M 293.879 233.84 L 288.494,232.049 L 275.906,237.462 L 269.625,235.631 L 272.772,240.609 L 288.494,240.609 L 281.766,238.805 L 293.879,233.84z"/>
    <path style="fill: #000000" d="M 270.968 223.951 L 276.34,222.134 L 289.389,227.098 L 295.249,225.755 L 292.102,230.245 L 276.801,230.245 L 283.082,228.902 L 270.968,223.951z"/>
    <path style="fill: #000000" d="M 319.517 239.252 L 314.118,241.043 L 301.544,235.631 L 295.249,237.462 L 298.383,232.945 L 314.118,232.945 L 307.39,234.315 L 319.517,239.252z"/>
    <path style="fill: #ffffff" d="M 296.592 229.337 L 302.005,231.127 L 315.014,225.755 L 320.874,227.559 L 317.727,223.056 L 302.452,223.056 L 308.733,224.385 L 296.592,229.337z"/>
    <path style="fill: #ffffff" d="M 294.341 234.315 L 288.928,232.497 L 276.34,237.896 L 270.059,236.092 L 273.206,241.043 L 288.928,241.043 L 282.2,239.252 L 294.341,234.315z"/>
    <path style="fill: #ffffff" d="M 271.416 224.385 L 276.801,222.608 L 289.837,227.559 L 295.683,226.203 L 292.55,230.693 L 277.235,230.693 L 283.543,229.337 L 271.416,224.385z"/>
    <path style="fill: #ffffff" d="M 319.965 239.687 L 314.579,241.504 L 302.005,236.092 L 295.683,237.896 L 298.831,233.406 L 314.579,233.406 L 307.865,234.762 L 319.965,239.687z"/>
    <path style="fill: none; fill-opacity:0; stroke-width: 0.02; stroke: #aae6ff" d="M 258.366 231.602 L 258.366,285.59"/>
    <path style="fill: none; fill-opacity:0; stroke-width: 0.02; stroke: #aae6ff" d="M 332.133 231.602 L 332.133,285.59"/>
    <path style="fill: #000000" d="M 275.01 245.994 L 275.01,251.854 L 288.033,251.854 L 294.788,264.009 L 302.005,251.854 L 315.014,251.854 L 315.014,245.994 L 323.125,253.184 L 315.014,260.387 L 315.014,255.449 L 305.586,255.449 L 297.935,268.946 L 305.586,282.891 L 315.014,282.891 L 315.014,277.94 L 323.125,284.709 L 315.014,291.898 L 315.014,286.499 L 302.005,286.499 L 294.788,273.911 L 288.033,286.947 L 275.01,286.947 L 275.01,291.898 L 266.912,284.709 L 275.01,277.94 L 275.01,282.891 L 283.99,282.891 L 292.102,268.946 L 283.99,255.449 L 275.01,255.449 L 275.01,259.953 L 266.912,253.184 L 275.01,245.994z"/>
    <path style="fill: #ffffff" d="M 275.458 246.455 L 275.458,252.316 L 288.494,252.316 L 295.249,264.443 L 302.452,252.316 L 315.461,252.316 L 315.461,246.455 L 323.573,253.645 L 315.461,260.861 L 315.461,255.897 L 306.047,255.897 L 298.383,269.407 L 306.047,283.339 L 315.461,283.339 L 315.461,278.387 L 323.573,285.129 L 315.461,292.346 L 315.461,286.947 L 302.452,286.947 L 295.249,274.345 L 288.494,287.408 L 275.458,287.408 L 275.458,292.346 L 267.36,285.129 L 275.458,278.387 L 275.458,283.339 L 284.465,283.339 L 292.55,269.407 L 284.465,255.897 L 275.458,255.897 L 275.458,260.387 L 267.36,253.645 L 275.458,246.455z"/>
  </g>
  <g>
    <line style="fill: none; fill-opacity:0; stroke-width: 2; stroke: #000000" x1="140" y1="173.5" x2="254.31" y2="226.545"/>
    <polyline style="fill: none; fill-opacity:0; stroke-width: 2; stroke: #000000" points="245.162,227.813 256.338,227.486 249.372,218.742 "/>
  </g>
  <g>
    <line style="fill: none; fill-opacity:0; stroke-width: 2; stroke: #000000" x1="140.4" y1="344.7" x2="254.322" y2="290.944"/>
    <polyline style="fill: none; fill-opacity:0; stroke-width: 2; stroke: #000000" points="249.434,298.779 256.344,289.99 245.167,289.736 "/>
  </g>
  <g>
    <rect style="fill: #d8e5e5" x="-16" y="148" width="106" height="51"/>
    <rect style="fill: none; fill-opacity:0; stroke-width: 2; stroke: #000000" x="-16" y="148" width="106" height="51"/>
  </g>
  <g>
    <rect style="fill: #ffffff" x="89" y="148" width="51" height="51"/>
    <rect style="fill: none; fill-opacity:0; stroke-width: 2; stroke: #000000" x="89" y="148" width="51" height="51"/>
  </g>
  <g>
    <rect style="fill: #1e90ff" x="-15.6" y="319.2" width="106" height="51"/>
    <rect style="fill: none; fill-opacity:0; stroke-width: 2; stroke: #000000" x="-15.6" y="319.2" width="106" height="51"/>
  </g>
  <g>
    <rect style="fill: #ffffff" x="89.4" y="319.2" width="51" height="51"/>
    <rect style="fill: none; fill-opacity:0; stroke-width: 2; stroke: #000000" x="89.4" y="319.2" width="51" height="51"/>
  </g>
  <g>
    <rect style="fill: #1e90ff" x="440.8" y="146.9" width="106" height="51"/>
    <rect style="fill: none; fill-opacity:0; stroke-width: 2; stroke: #000000" x="440.8" y="146.9" width="106" height="51"/>
  </g>
  <g>
    <rect style="fill: #ffffff" x="545.8" y="146.9" width="51" height="51"/>
    <rect style="fill: none; fill-opacity:0; stroke-width: 2; stroke: #000000" x="545.8" y="146.9" width="51" height="51"/>
  </g>
  <g>
    <line style="fill: none; fill-opacity:0; stroke-width: 2; stroke: #000000" x1="332.553" y1="228.59" x2="436.831" y2="174.46"/>
    <polyline style="fill: none; fill-opacity:0; stroke-width: 2; stroke: #000000" points="432.244,182.475 438.815,173.43 427.636,173.6 "/>
  </g>
  <g>
    <rect style="fill: #d8e5e5" x="441.2" y="318.1" width="106" height="51"/>
    <rect style="fill: none; fill-opacity:0; stroke-width: 2; stroke: #000000" x="441.2" y="318.1" width="106" height="51"/>
  </g>
  <g>
    <rect style="fill: #ffffff" x="546.2" y="318.1" width="51" height="51"/>
    <rect style="fill: none; fill-opacity:0; stroke-width: 2; stroke: #000000" x="546.2" y="318.1" width="51" height="51"/>
  </g>
  <g>
    <line style="fill: none; fill-opacity:0; stroke-width: 2; stroke: #000000" x1="332.553" y1="289.036" x2="437.204" y2="341.593"/>
    <polyline style="fill: none; fill-opacity:0; stroke-width: 2; stroke: #000000" points="428.021,342.577 439.202,342.596 432.509,333.64 "/>
  </g>
  <text style="fill: #000000;text-anchor:start;font-size:12.7998;font-family:sanserif;font-style:normal;font-weight:normal" x="109.5" y="178.5">
    <tspan x="109.5" y="178.5">A</tspan>
  </text>
  <text style="fill: #000000;text-anchor:start;font-size:12.7998;font-family:sanserif;font-style:normal;font-weight:normal" x="566.4" y="175.6">
    <tspan x="566.4" y="175.6">D</tspan>
  </text>
  <text style="fill: #000000;text-anchor:start;font-size:12.7998;font-family:sanserif;font-style:normal;font-weight:normal" x="108.8" y="350.8">
    <tspan x="108.8" y="350.8">B</tspan>
  </text>
  <text style="fill: #000000;text-anchor:start;font-size:12.7998;font-family:sanserif;font-style:normal;font-weight:normal" x="566.7" y="347.6">
    <tspan x="566.7" y="347.6">C</tspan>
  </text>
  <text style="fill: #000000;text-anchor:start;font-size:16.9333;font-family:sanserif;font-style:normal;font-weight:700" x="276" y="191.5">
    <tspan x="276" y="191.5">LSR</tspan>
  </text>
</svg>
