<?xml version="1.0" encoding="UTF-8" standalone="no"?>
<!DOCTYPE svg PUBLIC "-//W3C//DTD SVG 1.0//EN" "http://www.w3.org/TR/2001/PR-SVG-20010719/DTD/svg10.dtd">
<svg width="28cm" height="10cm" viewBox="-657 213 555 193" xmlns="http://www.w3.org/2000/svg" xmlns:xlink="http://www.w3.org/1999/xlink">
  <g>
    <ellipse style="fill: #d8e5e5" cx="-379" cy="293" rx="141" ry="73"/>
    <ellipse style="fill: none; fill-opacity:0; stroke-width: 2; stroke: #ffffff" cx="-379" cy="293" rx="141" ry="73"/>
  </g>
  <g>
    <path style="fill: #0078aa" d="M -469.172 316.109 L -469.215,315.615 L -469.32,315.11 L -469.498,314.605 L -469.761,314.122 L -470.087,313.617 L -470.487,313.144 L -470.949,312.66 L -471.506,312.198 L -472.106,311.746 L -472.778,311.304 L -473.525,310.852 L -474.324,310.442 L -475.186,310.032 L -476.1,309.643 L -477.089,309.275 L -478.108,308.918 L -479.191,308.581 L -480.326,308.266 L -481.493,307.961 L -482.713,307.688 L -483.964,307.436 L -485.267,307.204 L -486.592,306.973 L -487.938,306.784 L -489.315,306.637 L -490.713,306.5 L -492.143,306.384 L -493.562,306.3 L -495.002,306.237 L -496.474,306.185 L -497.925,306.185 L -497.925,306.185 L -499.376,306.185 L -500.837,306.237 L -502.277,306.3 L -503.707,306.384 L -505.126,306.5 L -506.524,306.637 L -507.912,306.784 L -509.258,306.973 L -510.582,307.204 L -511.875,307.436 L -513.137,307.688 L -514.356,307.961 L -515.523,308.266 L -516.659,308.581 L -517.731,308.918 L -518.761,309.275 L -519.739,309.643 L -520.664,310.032 L -521.526,310.442 L -522.325,310.852 L -523.071,311.304 L -523.744,311.746 L -524.343,312.198 L -524.89,312.66 L -525.353,313.144 L -525.752,313.617 L -526.088,314.122 L -526.341,314.605 L -526.53,315.11 L -526.635,315.615 L -526.667,316.109 L -526.667,316.109 L -526.635,316.624 L -526.53,317.128 L -526.341,317.622 L -526.088,318.117 L -525.752,318.611 L -525.353,319.094 L -524.89,319.567 L -524.343,320.04 L -523.744,320.492 L -523.071,320.934 L -522.325,321.365 L -521.526,321.796 L -520.664,322.206 L -519.739,322.584 L -518.761,322.952 L -517.731,323.32 L -516.659,323.657 L -515.523,323.972 L -514.356,324.256 L -513.137,324.55 L -511.875,324.792 L -510.582,325.034 L -509.258,325.244 L -507.912,325.433 L -506.524,325.581 L -505.126,325.738 L -503.707,325.833 L -502.277,325.928 L -500.837,326.001 L -499.376,326.033 L -497.925,326.043 L -497.925,326.043 L -496.474,326.033 L -495.002,326.001 L -493.562,325.928 L -492.143,325.833 L -490.713,325.738 L -489.315,325.581 L -487.938,325.433 L -486.592,325.244 L -485.267,325.034 L -483.964,324.792 L -482.713,324.55 L -481.493,324.256 L -480.326,323.972 L -479.191,323.657 L -478.108,323.32 L -477.089,322.952 L -476.1,322.584 L -475.186,322.206 L -474.324,321.796 L -473.525,321.365 L -472.778,320.934 L -472.106,320.492 L -471.506,320.04 L -470.949,319.567 L -470.487,319.094 L -470.087,318.611 L -469.761,318.117 L -469.498,317.622 L -469.32,317.128 L -469.215,316.624 L -469.172,316.109z"/>
    <path style="fill: none; fill-opacity:0; stroke-width: 0.02; stroke: #aae6ff" d="M -469.498 315.951 L -469.551,315.457 L -469.635,314.963 L -469.835,314.469 L -470.087,313.996 L -470.423,313.491 L -470.812,313.018 L -471.275,312.566 L -471.822,312.103 L -472.431,311.641 L -473.094,311.21 L -473.83,310.789 L -474.629,310.379 L -475.48,309.969 L -476.395,309.591 L -477.372,309.212 L -478.403,308.876 L -479.475,308.539 L -480.6,308.224 L -481.756,307.94 L -482.965,307.646 L -484.227,307.415 L -485.499,307.173 L -486.813,306.973 L -488.148,306.773 L -489.515,306.626 L -490.923,306.5 L -492.322,306.384 L -493.751,306.3 L -495.181,306.237 L -496.642,306.185 L -498.083,306.185 L -498.083,306.185 L -499.533,306.185 L -500.984,306.237 L -502.424,306.3 L -503.843,306.384 L -505.252,306.5 L -506.65,306.626 L -508.017,306.773 L -509.373,306.973 L -510.687,307.173 L -511.949,307.415 L -513.21,307.646 L -514.409,307.94 L -515.565,308.224 L -516.69,308.539 L -517.773,308.876 L -518.793,309.212 L -519.77,309.591 L -520.685,309.969 L -521.547,310.379 L -522.335,310.789 L -523.071,311.21 L -523.744,311.641 L -524.354,312.103 L -524.89,312.566 L -525.353,313.018 L -525.752,313.491 L -526.088,313.996 L -526.341,314.469 L -526.519,314.963 L -526.625,315.457 L -526.635,315.572"/>
    <path style="fill: none; fill-opacity:0; stroke-width: 0.02; stroke: #aae6ff" d="M -526.635 316.319 L -526.625,316.445 L -526.519,316.939 L -526.341,317.423 L -526.088,317.917 L -525.752,318.4 L -525.353,318.873 L -524.89,319.336 L -524.354,319.788 L -523.744,320.24 L -523.071,320.703 L -522.335,321.102 L -521.547,321.533 L -520.685,321.933 L -519.77,322.322 L -518.793,322.679 L -517.773,323.037 L -516.69,323.362 L -515.565,323.667 L -514.409,323.962 L -513.21,324.245 L -511.949,324.487 L -510.687,324.719 L -509.373,324.918 L -508.017,325.108 L -506.65,325.255 L -505.252,325.402 L -503.843,325.507 L -502.424,325.581 L -500.984,325.665 L -499.533,325.707 L -498.083,325.707 L -498.083,325.707 L -496.642,325.707 L -495.181,325.665 L -493.751,325.581 L -492.322,325.507 L -490.923,325.402 L -489.515,325.255 L -488.148,325.108 L -486.813,324.918 L -485.499,324.719 L -484.227,324.487 L -482.965,324.245 L -481.756,323.962 L -480.6,323.667 L -479.475,323.362 L -478.403,323.037 L -477.372,322.679 L -476.395,322.322 L -475.48,321.933 L -474.629,321.533 L -473.83,321.102 L -473.094,320.703 L -472.431,320.24 L -471.822,319.788 L -471.275,319.336 L -470.812,318.873 L -470.423,318.4 L -470.087,317.917 L -469.835,317.423 L -469.635,316.939 L -469.551,316.445 L -469.498,315.951"/>
    <path style="fill: #0078aa" d="M -526.667 274.447 L -526.667,316.298 L -469.498,316.298 L -469.498,274.447 L -526.667,274.447z"/>
    <path style="fill: #00b4ff" d="M -469.172 274.257 L -469.215,273.763 L -469.32,273.259 L -469.498,272.754 L -469.761,272.27 L -470.087,271.766 L -470.487,271.293 L -470.949,270.82 L -471.506,270.347 L -472.106,269.895 L -472.778,269.453 L -473.525,269.001 L -474.324,268.591 L -475.186,268.181 L -476.1,267.803 L -477.089,267.414 L -478.108,267.067 L -479.191,266.73 L -480.326,266.415 L -481.493,266.11 L -482.713,265.837 L -483.964,265.574 L -485.267,265.353 L -486.592,265.122 L -487.938,264.954 L -489.315,264.785 L -490.713,264.649 L -492.143,264.533 L -493.562,264.459 L -495.002,264.386 L -496.474,264.333 L -497.925,264.333 L -497.925,264.333 L -499.376,264.333 L -500.837,264.386 L -502.277,264.459 L -503.707,264.533 L -505.126,264.649 L -506.524,264.785 L -507.912,264.954 L -509.258,265.122 L -510.582,265.353 L -511.875,265.574 L -513.137,265.837 L -514.356,266.11 L -515.523,266.415 L -516.659,266.73 L -517.731,267.067 L -518.761,267.414 L -519.739,267.803 L -520.664,268.181 L -521.526,268.591 L -522.325,269.001 L -523.071,269.453 L -523.744,269.895 L -524.343,270.347 L -524.89,270.82 L -525.353,271.293 L -525.752,271.766 L -526.088,272.27 L -526.341,272.754 L -526.53,273.259 L -526.635,273.763 L -526.667,274.257 L -526.667,274.257 L -526.635,274.772 L -526.53,275.277 L -526.341,275.761 L -526.088,276.265 L -525.752,276.749 L -525.353,277.243 L -524.89,277.727 L -524.343,278.189 L -523.744,278.641 L -523.071,279.083 L -522.325,279.514 L -521.526,279.945 L -520.664,280.355 L -519.739,280.744 L -518.761,281.101 L -517.731,281.469 L -516.659,281.806 L -515.523,282.121 L -514.356,282.415 L -513.137,282.699 L -511.875,282.941 L -510.582,283.183 L -509.258,283.393 L -507.912,283.582 L -506.524,283.75 L -505.126,283.887 L -503.707,283.982 L -502.277,284.087 L -500.837,284.15 L -499.376,284.181 L -497.925,284.202 L -497.925,284.202 L -496.474,284.181 L -495.002,284.15 L -493.562,284.087 L -492.143,283.982 L -490.713,283.887 L -489.315,283.75 L -487.938,283.582 L -486.592,283.393 L -485.267,283.183 L -483.964,282.941 L -482.713,282.699 L -481.493,282.415 L -480.326,282.121 L -479.191,281.806 L -478.108,281.469 L -477.089,281.101 L -476.1,280.744 L -475.186,280.355 L -474.324,279.945 L -473.525,279.514 L -472.778,279.083 L -472.106,278.641 L -471.506,278.189 L -470.949,277.727 L -470.487,277.243 L -470.087,276.749 L -469.761,276.265 L -469.498,275.761 L -469.32,275.277 L -469.215,274.772 L -469.172,274.257z"/>
    <path style="fill: none; fill-opacity:0; stroke-width: 0.02; stroke: #aae6ff" d="M -469.498 274.1 L -469.551,273.595 L -469.635,273.111 L -469.835,272.617 L -470.087,272.144 L -470.423,271.64 L -470.812,271.167 L -471.275,270.704 L -471.822,270.241 L -472.431,269.8 L -473.094,269.358 L -473.83,268.927 L -474.629,268.528 L -475.48,268.118 L -476.395,267.739 L -477.372,267.35 L -478.403,267.025 L -479.475,266.688 L -480.6,266.373 L -481.756,266.089 L -482.965,265.805 L -484.227,265.563 L -485.499,265.322 L -486.813,265.122 L -488.148,264.933 L -489.515,264.785 L -490.923,264.649 L -492.322,264.523 L -493.751,264.459 L -495.181,264.386 L -496.642,264.333 L -498.083,264.333"/>
    <path style="fill: none; fill-opacity:0; stroke-width: 0.02; stroke: #aae6ff" d="M -498.083 264.333 L -499.533,264.333 L -500.984,264.386 L -502.424,264.459 L -503.843,264.523 L -505.252,264.649 L -506.65,264.785 L -508.017,264.933 L -509.373,265.122 L -510.687,265.322 L -511.949,265.563 L -513.21,265.805 L -514.409,266.089 L -515.565,266.373 L -516.69,266.688 L -517.773,267.025 L -518.793,267.35 L -519.77,267.739 L -520.685,268.118 L -521.547,268.528 L -522.335,268.927 L -523.071,269.358 L -523.744,269.8 L -524.354,270.241 L -524.89,270.704 L -525.353,271.167 L -525.752,271.64 L -526.088,272.144 L -526.341,272.617 L -526.519,273.111 L -526.625,273.595 L -526.635,273.721"/>
    <path style="fill: none; fill-opacity:0; stroke-width: 0.02; stroke: #aae6ff" d="M -526.635 274.478 L -526.625,274.594 L -526.519,275.088 L -526.341,275.561 L -526.088,276.066 L -525.752,276.549 L -525.353,277.022 L -524.89,277.485 L -524.354,277.937 L -523.744,278.389 L -523.071,278.851 L -522.335,279.251 L -521.547,279.682 L -520.685,280.081 L -519.77,280.47 L -518.793,280.828 L -517.773,281.185 L -516.69,281.511 L -515.565,281.816 L -514.409,282.11 L -513.21,282.394 L -511.949,282.647 L -510.687,282.857 L -509.373,283.067 L -508.017,283.256 L -506.65,283.424 L -505.252,283.551 L -503.843,283.656 L -502.424,283.75 L -500.984,283.813 L -499.533,283.845 L -498.083,283.856 L -498.083,283.856 L -496.642,283.845 L -495.181,283.813 L -493.751,283.75 L -492.322,283.656 L -490.923,283.551 L -489.515,283.424 L -488.148,283.256 L -486.813,283.067 L -485.499,282.857 L -484.227,282.647 L -482.965,282.394 L -481.756,282.11 L -480.6,281.816 L -479.475,281.511 L -478.403,281.185 L -477.372,280.828 L -476.395,280.47 L -475.48,280.081 L -474.629,279.682 L -473.83,279.251 L -473.094,278.851 L -472.431,278.389 L -471.822,277.937 L -471.275,277.485 L -470.812,277.022 L -470.423,276.549 L -470.087,276.066 L -469.835,275.561 L -469.635,275.088 L -469.551,274.594 L -469.498,274.1"/>
    <path style="fill: #000000" d="M -497.389 272.008 L -493.205,273.395 L -483.102,269.201 L -478.571,270.609 L -481.02,267.13 L -492.847,267.13 L -487.98,268.17 L -497.389,272.008z"/>
    <path style="fill: #000000" d="M -499.144 275.834 L -503.318,274.447 L -513.074,278.641 L -517.941,277.222 L -515.502,281.08 L -503.318,281.08 L -508.532,279.682 L -499.144,275.834z"/>
    <path style="fill: #000000" d="M -516.9 268.17 L -512.737,266.762 L -502.624,270.609 L -498.083,269.569 L -500.521,273.048 L -512.38,273.048 L -507.512,272.008 L -516.9,268.17z"/>
    <path style="fill: #000000" d="M -479.275 280.029 L -483.459,281.417 L -493.205,277.222 L -498.083,278.641 L -495.654,275.14 L -483.459,275.14 L -488.674,276.202 L -479.275,280.029z"/>
    <path style="fill: #ffffff" d="M -497.042 272.344 L -492.847,273.732 L -482.765,269.569 L -478.224,270.967 L -480.663,267.477 L -492.5,267.477 L -487.633,268.507 L -497.042,272.344z"/>
    <path style="fill: #ffffff" d="M -498.787 276.202 L -502.981,274.794 L -512.737,278.978 L -517.605,277.579 L -515.166,281.417 L -502.981,281.417 L -508.196,280.029 L -498.787,276.202z"/>
    <path style="fill: #ffffff" d="M -516.553 268.507 L -512.38,267.13 L -502.277,270.967 L -497.746,269.916 L -500.175,273.395 L -512.043,273.395 L -507.155,272.344 L -516.553,268.507z"/>
    <path style="fill: #ffffff" d="M -478.928 280.365 L -483.102,281.774 L -492.847,277.579 L -497.746,278.978 L -495.307,275.498 L -483.102,275.498 L -488.306,276.549 L -478.928,280.365z"/>
    <path style="fill: none; fill-opacity:0; stroke-width: 0.02; stroke: #aae6ff" d="M -526.667 274.1 L -526.667,315.94"/>
    <path style="fill: none; fill-opacity:0; stroke-width: 0.02; stroke: #aae6ff" d="M -469.498 274.1 L -469.498,315.94"/>
    <path style="fill: #000000" d="M -513.768 285.254 L -513.768,289.795 L -503.675,289.795 L -498.44,299.215 L -492.847,289.795 L -482.765,289.795 L -482.765,285.254 L -476.479,290.825 L -482.765,296.408 L -482.765,292.581 L -490.072,292.581 L -496.001,303.041 L -490.072,313.848 L -482.765,313.848 L -482.765,310.011 L -476.479,315.257 L -482.765,320.829 L -482.765,316.645 L -492.847,316.645 L -498.44,306.889 L -503.675,316.992 L -513.768,316.992 L -513.768,320.829 L -520.044,315.257 L -513.768,310.011 L -513.768,313.848 L -506.808,313.848 L -500.521,303.041 L -506.808,292.581 L -513.768,292.581 L -513.768,296.071 L -520.044,290.825 L -513.768,285.254z"/>
    <path style="fill: #ffffff" d="M -513.421 285.611 L -513.421,290.153 L -503.318,290.153 L -498.083,299.551 L -492.5,290.153 L -482.419,290.153 L -482.419,285.611 L -476.132,291.183 L -482.419,296.776 L -482.419,292.928 L -489.714,292.928 L -495.654,303.399 L -489.714,314.195 L -482.419,314.195 L -482.419,310.358 L -476.132,315.583 L -482.419,321.176 L -482.419,316.992 L -492.5,316.992 L -498.083,307.225 L -503.318,317.349 L -513.421,317.349 L -513.421,321.176 L -519.697,315.583 L -513.421,310.358 L -513.421,314.195 L -506.44,314.195 L -500.175,303.399 L -506.44,292.928 L -513.421,292.928 L -513.421,296.408 L -519.697,291.183 L -513.421,285.611z"/>
  </g>
  <g>
    <path style="fill: #0078aa" d="M -231.172 316.109 L -231.215,315.615 L -231.32,315.11 L -231.498,314.605 L -231.761,314.122 L -232.087,313.617 L -232.487,313.144 L -232.949,312.66 L -233.506,312.198 L -234.106,311.746 L -234.778,311.304 L -235.525,310.852 L -236.324,310.442 L -237.186,310.032 L -238.1,309.643 L -239.089,309.275 L -240.108,308.918 L -241.191,308.581 L -242.326,308.266 L -243.493,307.961 L -244.713,307.688 L -245.964,307.436 L -247.267,307.204 L -248.592,306.973 L -249.938,306.784 L -251.315,306.637 L -252.713,306.5 L -254.143,306.384 L -255.562,306.3 L -257.002,306.237 L -258.474,306.185 L -259.925,306.185 L -259.925,306.185 L -261.376,306.185 L -262.837,306.237 L -264.277,306.3 L -265.707,306.384 L -267.126,306.5 L -268.524,306.637 L -269.912,306.784 L -271.258,306.973 L -272.582,307.204 L -273.875,307.436 L -275.137,307.688 L -276.356,307.961 L -277.523,308.266 L -278.659,308.581 L -279.731,308.918 L -280.761,309.275 L -281.739,309.643 L -282.664,310.032 L -283.526,310.442 L -284.325,310.852 L -285.071,311.304 L -285.744,311.746 L -286.343,312.198 L -286.89,312.66 L -287.353,313.144 L -287.752,313.617 L -288.088,314.122 L -288.341,314.605 L -288.53,315.11 L -288.635,315.615 L -288.667,316.109 L -288.667,316.109 L -288.635,316.624 L -288.53,317.128 L -288.341,317.622 L -288.088,318.117 L -287.752,318.611 L -287.353,319.094 L -286.89,319.567 L -286.343,320.04 L -285.744,320.492 L -285.071,320.934 L -284.325,321.365 L -283.526,321.796 L -282.664,322.206 L -281.739,322.584 L -280.761,322.952 L -279.731,323.32 L -278.659,323.657 L -277.523,323.972 L -276.356,324.256 L -275.137,324.55 L -273.875,324.792 L -272.582,325.034 L -271.258,325.244 L -269.912,325.433 L -268.524,325.581 L -267.126,325.738 L -265.707,325.833 L -264.277,325.928 L -262.837,326.001 L -261.376,326.033 L -259.925,326.043 L -259.925,326.043 L -258.474,326.033 L -257.002,326.001 L -255.562,325.928 L -254.143,325.833 L -252.713,325.738 L -251.315,325.581 L -249.938,325.433 L -248.592,325.244 L -247.267,325.034 L -245.964,324.792 L -244.713,324.55 L -243.493,324.256 L -242.326,323.972 L -241.191,323.657 L -240.108,323.32 L -239.089,322.952 L -238.1,322.584 L -237.186,322.206 L -236.324,321.796 L -235.525,321.365 L -234.778,320.934 L -234.106,320.492 L -233.506,320.04 L -232.949,319.567 L -232.487,319.094 L -232.087,318.611 L -231.761,318.117 L -231.498,317.622 L -231.32,317.128 L -231.215,316.624 L -231.172,316.109z"/>
    <path style="fill: none; fill-opacity:0; stroke-width: 0.02; stroke: #aae6ff" d="M -231.498 315.951 L -231.551,315.457 L -231.635,314.963 L -231.835,314.469 L -232.087,313.996 L -232.423,313.491 L -232.812,313.018 L -233.275,312.566 L -233.822,312.103 L -234.431,311.641 L -235.094,311.21 L -235.83,310.789 L -236.629,310.379 L -237.48,309.969 L -238.395,309.591 L -239.372,309.212 L -240.403,308.876 L -241.475,308.539 L -242.6,308.224 L -243.756,307.94 L -244.965,307.646 L -246.227,307.415 L -247.499,307.173 L -248.813,306.973 L -250.148,306.773 L -251.515,306.626 L -252.923,306.5 L -254.322,306.384 L -255.751,306.3 L -257.181,306.237 L -258.642,306.185 L -260.083,306.185 L -260.083,306.185 L -261.533,306.185 L -262.984,306.237 L -264.424,306.3 L -265.843,306.384 L -267.252,306.5 L -268.65,306.626 L -270.017,306.773 L -271.373,306.973 L -272.687,307.173 L -273.949,307.415 L -275.21,307.646 L -276.409,307.94 L -277.565,308.224 L -278.69,308.539 L -279.773,308.876 L -280.793,309.212 L -281.77,309.591 L -282.685,309.969 L -283.547,310.379 L -284.335,310.789 L -285.071,311.21 L -285.744,311.641 L -286.354,312.103 L -286.89,312.566 L -287.353,313.018 L -287.752,313.491 L -288.088,313.996 L -288.341,314.469 L -288.519,314.963 L -288.625,315.457 L -288.635,315.572"/>
    <path style="fill: none; fill-opacity:0; stroke-width: 0.02; stroke: #aae6ff" d="M -288.635 316.319 L -288.625,316.445 L -288.519,316.939 L -288.341,317.423 L -288.088,317.917 L -287.752,318.4 L -287.353,318.873 L -286.89,319.336 L -286.354,319.788 L -285.744,320.24 L -285.071,320.703 L -284.335,321.102 L -283.547,321.533 L -282.685,321.933 L -281.77,322.322 L -280.793,322.679 L -279.773,323.037 L -278.69,323.362 L -277.565,323.667 L -276.409,323.962 L -275.21,324.245 L -273.949,324.487 L -272.687,324.719 L -271.373,324.918 L -270.017,325.108 L -268.65,325.255 L -267.252,325.402 L -265.843,325.507 L -264.424,325.581 L -262.984,325.665 L -261.533,325.707 L -260.083,325.707 L -260.083,325.707 L -258.642,325.707 L -257.181,325.665 L -255.751,325.581 L -254.322,325.507 L -252.923,325.402 L -251.515,325.255 L -250.148,325.108 L -248.813,324.918 L -247.499,324.719 L -246.227,324.487 L -244.965,324.245 L -243.756,323.962 L -242.6,323.667 L -241.475,323.362 L -240.403,323.037 L -239.372,322.679 L -238.395,322.322 L -237.48,321.933 L -236.629,321.533 L -235.83,321.102 L -235.094,320.703 L -234.431,320.24 L -233.822,319.788 L -233.275,319.336 L -232.812,318.873 L -232.423,318.4 L -232.087,317.917 L -231.835,317.423 L -231.635,316.939 L -231.551,316.445 L -231.498,315.951"/>
    <path style="fill: #0078aa" d="M -288.667 274.447 L -288.667,316.298 L -231.498,316.298 L -231.498,274.447 L -288.667,274.447z"/>
    <path style="fill: #00b4ff" d="M -231.172 274.257 L -231.215,273.763 L -231.32,273.259 L -231.498,272.754 L -231.761,272.27 L -232.087,271.766 L -232.487,271.293 L -232.949,270.82 L -233.506,270.347 L -234.106,269.895 L -234.778,269.453 L -235.525,269.001 L -236.324,268.591 L -237.186,268.181 L -238.1,267.803 L -239.089,267.414 L -240.108,267.067 L -241.191,266.73 L -242.326,266.415 L -243.493,266.11 L -244.713,265.837 L -245.964,265.574 L -247.267,265.353 L -248.592,265.122 L -249.938,264.954 L -251.315,264.785 L -252.713,264.649 L -254.143,264.533 L -255.562,264.459 L -257.002,264.386 L -258.474,264.333 L -259.925,264.333 L -259.925,264.333 L -261.376,264.333 L -262.837,264.386 L -264.277,264.459 L -265.707,264.533 L -267.126,264.649 L -268.524,264.785 L -269.912,264.954 L -271.258,265.122 L -272.582,265.353 L -273.875,265.574 L -275.137,265.837 L -276.356,266.11 L -277.523,266.415 L -278.659,266.73 L -279.731,267.067 L -280.761,267.414 L -281.739,267.803 L -282.664,268.181 L -283.526,268.591 L -284.325,269.001 L -285.071,269.453 L -285.744,269.895 L -286.343,270.347 L -286.89,270.82 L -287.353,271.293 L -287.752,271.766 L -288.088,272.27 L -288.341,272.754 L -288.53,273.259 L -288.635,273.763 L -288.667,274.257 L -288.667,274.257 L -288.635,274.772 L -288.53,275.277 L -288.341,275.761 L -288.088,276.265 L -287.752,276.749 L -287.353,277.243 L -286.89,277.727 L -286.343,278.189 L -285.744,278.641 L -285.071,279.083 L -284.325,279.514 L -283.526,279.945 L -282.664,280.355 L -281.739,280.744 L -280.761,281.101 L -279.731,281.469 L -278.659,281.806 L -277.523,282.121 L -276.356,282.415 L -275.137,282.699 L -273.875,282.941 L -272.582,283.183 L -271.258,283.393 L -269.912,283.582 L -268.524,283.75 L -267.126,283.887 L -265.707,283.982 L -264.277,284.087 L -262.837,284.15 L -261.376,284.181 L -259.925,284.202 L -259.925,284.202 L -258.474,284.181 L -257.002,284.15 L -255.562,284.087 L -254.143,283.982 L -252.713,283.887 L -251.315,283.75 L -249.938,283.582 L -248.592,283.393 L -247.267,283.183 L -245.964,282.941 L -244.713,282.699 L -243.493,282.415 L -242.326,282.121 L -241.191,281.806 L -240.108,281.469 L -239.089,281.101 L -238.1,280.744 L -237.186,280.355 L -236.324,279.945 L -235.525,279.514 L -234.778,279.083 L -234.106,278.641 L -233.506,278.189 L -232.949,277.727 L -232.487,277.243 L -232.087,276.749 L -231.761,276.265 L -231.498,275.761 L -231.32,275.277 L -231.215,274.772 L -231.172,274.257z"/>
    <path style="fill: none; fill-opacity:0; stroke-width: 0.02; stroke: #aae6ff" d="M -231.498 274.1 L -231.551,273.595 L -231.635,273.111 L -231.835,272.617 L -232.087,272.144 L -232.423,271.64 L -232.812,271.167 L -233.275,270.704 L -233.822,270.241 L -234.431,269.8 L -235.094,269.358 L -235.83,268.927 L -236.629,268.528 L -237.48,268.118 L -238.395,267.739 L -239.372,267.35 L -240.403,267.025 L -241.475,266.688 L -242.6,266.373 L -243.756,266.089 L -244.965,265.805 L -246.227,265.563 L -247.499,265.322 L -248.813,265.122 L -250.148,264.933 L -251.515,264.785 L -252.923,264.649 L -254.322,264.523 L -255.751,264.459 L -257.181,264.386 L -258.642,264.333 L -260.083,264.333"/>
    <path style="fill: none; fill-opacity:0; stroke-width: 0.02; stroke: #aae6ff" d="M -260.083 264.333 L -261.533,264.333 L -262.984,264.386 L -264.424,264.459 L -265.843,264.523 L -267.252,264.649 L -268.65,264.785 L -270.017,264.933 L -271.373,265.122 L -272.687,265.322 L -273.949,265.563 L -275.21,265.805 L -276.409,266.089 L -277.565,266.373 L -278.69,266.688 L -279.773,267.025 L -280.793,267.35 L -281.77,267.739 L -282.685,268.118 L -283.547,268.528 L -284.335,268.927 L -285.071,269.358 L -285.744,269.8 L -286.354,270.241 L -286.89,270.704 L -287.353,271.167 L -287.752,271.64 L -288.088,272.144 L -288.341,272.617 L -288.519,273.111 L -288.625,273.595 L -288.635,273.721"/>
    <path style="fill: none; fill-opacity:0; stroke-width: 0.02; stroke: #aae6ff" d="M -288.635 274.478 L -288.625,274.594 L -288.519,275.088 L -288.341,275.561 L -288.088,276.066 L -287.752,276.549 L -287.353,277.022 L -286.89,277.485 L -286.354,277.937 L -285.744,278.389 L -285.071,278.851 L -284.335,279.251 L -283.547,279.682 L -282.685,280.081 L -281.77,280.47 L -280.793,280.828 L -279.773,281.185 L -278.69,281.511 L -277.565,281.816 L -276.409,282.11 L -275.21,282.394 L -273.949,282.647 L -272.687,282.857 L -271.373,283.067 L -270.017,283.256 L -268.65,283.424 L -267.252,283.551 L -265.843,283.656 L -264.424,283.75 L -262.984,283.813 L -261.533,283.845 L -260.083,283.856 L -260.083,283.856 L -258.642,283.845 L -257.181,283.813 L -255.751,283.75 L -254.322,283.656 L -252.923,283.551 L -251.515,283.424 L -250.148,283.256 L -248.813,283.067 L -247.499,282.857 L -246.227,282.647 L -244.965,282.394 L -243.756,282.11 L -242.6,281.816 L -241.475,281.511 L -240.403,281.185 L -239.372,280.828 L -238.395,280.47 L -237.48,280.081 L -236.629,279.682 L -235.83,279.251 L -235.094,278.851 L -234.431,278.389 L -233.822,277.937 L -233.275,277.485 L -232.812,277.022 L -232.423,276.549 L -232.087,276.066 L -231.835,275.561 L -231.635,275.088 L -231.551,274.594 L -231.498,274.1"/>
    <path style="fill: #000000" d="M -259.389 272.008 L -255.205,273.395 L -245.102,269.201 L -240.571,270.609 L -243.02,267.13 L -254.847,267.13 L -249.98,268.17 L -259.389,272.008z"/>
    <path style="fill: #000000" d="M -261.144 275.834 L -265.318,274.447 L -275.074,278.641 L -279.941,277.222 L -277.502,281.08 L -265.318,281.08 L -270.532,279.682 L -261.144,275.834z"/>
    <path style="fill: #000000" d="M -278.9 268.17 L -274.737,266.762 L -264.624,270.609 L -260.083,269.569 L -262.521,273.048 L -274.38,273.048 L -269.512,272.008 L -278.9,268.17z"/>
    <path style="fill: #000000" d="M -241.275 280.029 L -245.459,281.417 L -255.205,277.222 L -260.083,278.641 L -257.654,275.14 L -245.459,275.14 L -250.674,276.202 L -241.275,280.029z"/>
    <path style="fill: #ffffff" d="M -259.042 272.344 L -254.847,273.732 L -244.765,269.569 L -240.224,270.967 L -242.663,267.477 L -254.5,267.477 L -249.633,268.507 L -259.042,272.344z"/>
    <path style="fill: #ffffff" d="M -260.787 276.202 L -264.981,274.794 L -274.737,278.978 L -279.605,277.579 L -277.166,281.417 L -264.981,281.417 L -270.196,280.029 L -260.787,276.202z"/>
    <path style="fill: #ffffff" d="M -278.553 268.507 L -274.38,267.13 L -264.277,270.967 L -259.746,269.916 L -262.175,273.395 L -274.043,273.395 L -269.155,272.344 L -278.553,268.507z"/>
    <path style="fill: #ffffff" d="M -240.928 280.365 L -245.102,281.774 L -254.847,277.579 L -259.746,278.978 L -257.307,275.498 L -245.102,275.498 L -250.306,276.549 L -240.928,280.365z"/>
    <path style="fill: none; fill-opacity:0; stroke-width: 0.02; stroke: #aae6ff" d="M -288.667 274.1 L -288.667,315.94"/>
    <path style="fill: none; fill-opacity:0; stroke-width: 0.02; stroke: #aae6ff" d="M -231.498 274.1 L -231.498,315.94"/>
    <path style="fill: #000000" d="M -275.768 285.254 L -275.768,289.795 L -265.675,289.795 L -260.44,299.215 L -254.847,289.795 L -244.765,289.795 L -244.765,285.254 L -238.479,290.825 L -244.765,296.408 L -244.765,292.581 L -252.072,292.581 L -258.001,303.041 L -252.072,313.848 L -244.765,313.848 L -244.765,310.011 L -238.479,315.257 L -244.765,320.829 L -244.765,316.645 L -254.847,316.645 L -260.44,306.889 L -265.675,316.992 L -275.768,316.992 L -275.768,320.829 L -282.044,315.257 L -275.768,310.011 L -275.768,313.848 L -268.808,313.848 L -262.521,303.041 L -268.808,292.581 L -275.768,292.581 L -275.768,296.071 L -282.044,290.825 L -275.768,285.254z"/>
    <path style="fill: #ffffff" d="M -275.421 285.611 L -275.421,290.153 L -265.318,290.153 L -260.083,299.551 L -254.5,290.153 L -244.419,290.153 L -244.419,285.611 L -238.132,291.183 L -244.419,296.776 L -244.419,292.928 L -251.714,292.928 L -257.654,303.399 L -251.714,314.195 L -244.419,314.195 L -244.419,310.358 L -238.132,315.583 L -244.419,321.176 L -244.419,316.992 L -254.5,316.992 L -260.083,307.225 L -265.318,317.349 L -275.421,317.349 L -275.421,321.176 L -281.697,315.583 L -275.421,310.358 L -275.421,314.195 L -268.44,314.195 L -262.175,303.399 L -268.44,292.928 L -275.421,292.928 L -275.421,296.408 L -281.697,291.183 L -275.421,285.611z"/>
  </g>
  <g>
    <path style="fill: #0078aa" d="M -349.172 265.109 L -349.215,264.615 L -349.32,264.11 L -349.498,263.605 L -349.761,263.122 L -350.087,262.617 L -350.487,262.144 L -350.949,261.66 L -351.506,261.198 L -352.106,260.746 L -352.778,260.304 L -353.525,259.852 L -354.324,259.442 L -355.186,259.032 L -356.1,258.643 L -357.089,258.275 L -358.108,257.918 L -359.191,257.581 L -360.326,257.266 L -361.493,256.961 L -362.713,256.688 L -363.964,256.436 L -365.267,256.204 L -366.592,255.973 L -367.938,255.784 L -369.315,255.637 L -370.713,255.5 L -372.143,255.384 L -373.562,255.3 L -375.002,255.237 L -376.474,255.185 L -377.925,255.185 L -377.925,255.185 L -379.376,255.185 L -380.837,255.237 L -382.277,255.3 L -383.707,255.384 L -385.126,255.5 L -386.524,255.637 L -387.912,255.784 L -389.258,255.973 L -390.582,256.204 L -391.875,256.436 L -393.137,256.688 L -394.356,256.961 L -395.523,257.266 L -396.659,257.581 L -397.731,257.918 L -398.761,258.275 L -399.739,258.643 L -400.664,259.032 L -401.526,259.442 L -402.325,259.852 L -403.071,260.304 L -403.744,260.746 L -404.343,261.198 L -404.89,261.66 L -405.353,262.144 L -405.752,262.617 L -406.088,263.122 L -406.341,263.605 L -406.53,264.11 L -406.635,264.615 L -406.667,265.109 L -406.667,265.109 L -406.635,265.624 L -406.53,266.128 L -406.341,266.622 L -406.088,267.117 L -405.752,267.611 L -405.353,268.094 L -404.89,268.567 L -404.343,269.04 L -403.744,269.492 L -403.071,269.934 L -402.325,270.365 L -401.526,270.796 L -400.664,271.206 L -399.739,271.584 L -398.761,271.952 L -397.731,272.32 L -396.659,272.657 L -395.523,272.972 L -394.356,273.256 L -393.137,273.55 L -391.875,273.792 L -390.582,274.034 L -389.258,274.244 L -387.912,274.433 L -386.524,274.581 L -385.126,274.738 L -383.707,274.833 L -382.277,274.928 L -380.837,275.001 L -379.376,275.033 L -377.925,275.043 L -377.925,275.043 L -376.474,275.033 L -375.002,275.001 L -373.562,274.928 L -372.143,274.833 L -370.713,274.738 L -369.315,274.581 L -367.938,274.433 L -366.592,274.244 L -365.267,274.034 L -363.964,273.792 L -362.713,273.55 L -361.493,273.256 L -360.326,272.972 L -359.191,272.657 L -358.108,272.32 L -357.089,271.952 L -356.1,271.584 L -355.186,271.206 L -354.324,270.796 L -353.525,270.365 L -352.778,269.934 L -352.106,269.492 L -351.506,269.04 L -350.949,268.567 L -350.487,268.094 L -350.087,267.611 L -349.761,267.117 L -349.498,266.622 L -349.32,266.128 L -349.215,265.624 L -349.172,265.109z"/>
    <path style="fill: none; fill-opacity:0; stroke-width: 0.02; stroke: #aae6ff" d="M -349.498 264.951 L -349.551,264.457 L -349.635,263.963 L -349.835,263.469 L -350.087,262.996 L -350.423,262.491 L -350.812,262.018 L -351.275,261.566 L -351.822,261.103 L -352.431,260.641 L -353.094,260.21 L -353.83,259.789 L -354.629,259.379 L -355.48,258.969 L -356.395,258.591 L -357.372,258.212 L -358.403,257.876 L -359.475,257.539 L -360.6,257.224 L -361.756,256.94 L -362.965,256.646 L -364.227,256.415 L -365.499,256.173 L -366.813,255.973 L -368.148,255.773 L -369.515,255.626 L -370.923,255.5 L -372.322,255.384 L -373.751,255.3 L -375.181,255.237 L -376.642,255.185 L -378.083,255.185 L -378.083,255.185 L -379.533,255.185 L -380.984,255.237 L -382.424,255.3 L -383.843,255.384 L -385.252,255.5 L -386.65,255.626 L -388.017,255.773 L -389.373,255.973 L -390.687,256.173 L -391.949,256.415 L -393.21,256.646 L -394.409,256.94 L -395.565,257.224 L -396.69,257.539 L -397.773,257.876 L -398.793,258.212 L -399.77,258.591 L -400.685,258.969 L -401.547,259.379 L -402.335,259.789 L -403.071,260.21 L -403.744,260.641 L -404.354,261.103 L -404.89,261.566 L -405.353,262.018 L -405.752,262.491 L -406.088,262.996 L -406.341,263.469 L -406.519,263.963 L -406.625,264.457 L -406.635,264.572"/>
    <path style="fill: none; fill-opacity:0; stroke-width: 0.02; stroke: #aae6ff" d="M -406.635 265.319 L -406.625,265.445 L -406.519,265.939 L -406.341,266.423 L -406.088,266.917 L -405.752,267.4 L -405.353,267.873 L -404.89,268.336 L -404.354,268.788 L -403.744,269.24 L -403.071,269.703 L -402.335,270.102 L -401.547,270.533 L -400.685,270.933 L -399.77,271.322 L -398.793,271.679 L -397.773,272.037 L -396.69,272.362 L -395.565,272.667 L -394.409,272.962 L -393.21,273.245 L -391.949,273.487 L -390.687,273.719 L -389.373,273.918 L -388.017,274.108 L -386.65,274.255 L -385.252,274.402 L -383.843,274.507 L -382.424,274.581 L -380.984,274.665 L -379.533,274.707 L -378.083,274.707 L -378.083,274.707 L -376.642,274.707 L -375.181,274.665 L -373.751,274.581 L -372.322,274.507 L -370.923,274.402 L -369.515,274.255 L -368.148,274.108 L -366.813,273.918 L -365.499,273.719 L -364.227,273.487 L -362.965,273.245 L -361.756,272.962 L -360.6,272.667 L -359.475,272.362 L -358.403,272.037 L -357.372,271.679 L -356.395,271.322 L -355.48,270.933 L -354.629,270.533 L -353.83,270.102 L -353.094,269.703 L -352.431,269.24 L -351.822,268.788 L -351.275,268.336 L -350.812,267.873 L -350.423,267.4 L -350.087,266.917 L -349.835,266.423 L -349.635,265.939 L -349.551,265.445 L -349.498,264.951"/>
    <path style="fill: #0078aa" d="M -406.667 223.447 L -406.667,265.298 L -349.498,265.298 L -349.498,223.447 L -406.667,223.447z"/>
    <path style="fill: #00b4ff" d="M -349.172 223.257 L -349.215,222.763 L -349.32,222.259 L -349.498,221.754 L -349.761,221.27 L -350.087,220.766 L -350.487,220.293 L -350.949,219.82 L -351.506,219.347 L -352.106,218.895 L -352.778,218.453 L -353.525,218.001 L -354.324,217.591 L -355.186,217.181 L -356.1,216.803 L -357.089,216.414 L -358.108,216.067 L -359.191,215.73 L -360.326,215.415 L -361.493,215.11 L -362.713,214.837 L -363.964,214.574 L -365.267,214.353 L -366.592,214.122 L -367.938,213.954 L -369.315,213.785 L -370.713,213.649 L -372.143,213.533 L -373.562,213.459 L -375.002,213.386 L -376.474,213.333 L -377.925,213.333 L -377.925,213.333 L -379.376,213.333 L -380.837,213.386 L -382.277,213.459 L -383.707,213.533 L -385.126,213.649 L -386.524,213.785 L -387.912,213.954 L -389.258,214.122 L -390.582,214.353 L -391.875,214.574 L -393.137,214.837 L -394.356,215.11 L -395.523,215.415 L -396.659,215.73 L -397.731,216.067 L -398.761,216.414 L -399.739,216.803 L -400.664,217.181 L -401.526,217.591 L -402.325,218.001 L -403.071,218.453 L -403.744,218.895 L -404.343,219.347 L -404.89,219.82 L -405.353,220.293 L -405.752,220.766 L -406.088,221.27 L -406.341,221.754 L -406.53,222.259 L -406.635,222.763 L -406.667,223.257 L -406.667,223.257 L -406.635,223.772 L -406.53,224.277 L -406.341,224.761 L -406.088,225.265 L -405.752,225.749 L -405.353,226.243 L -404.89,226.727 L -404.343,227.189 L -403.744,227.641 L -403.071,228.083 L -402.325,228.514 L -401.526,228.945 L -400.664,229.355 L -399.739,229.744 L -398.761,230.101 L -397.731,230.469 L -396.659,230.806 L -395.523,231.121 L -394.356,231.415 L -393.137,231.699 L -391.875,231.941 L -390.582,232.183 L -389.258,232.393 L -387.912,232.582 L -386.524,232.75 L -385.126,232.887 L -383.707,232.982 L -382.277,233.087 L -380.837,233.15 L -379.376,233.181 L -377.925,233.202 L -377.925,233.202 L -376.474,233.181 L -375.002,233.15 L -373.562,233.087 L -372.143,232.982 L -370.713,232.887 L -369.315,232.75 L -367.938,232.582 L -366.592,232.393 L -365.267,232.183 L -363.964,231.941 L -362.713,231.699 L -361.493,231.415 L -360.326,231.121 L -359.191,230.806 L -358.108,230.469 L -357.089,230.101 L -356.1,229.744 L -355.186,229.355 L -354.324,228.945 L -353.525,228.514 L -352.778,228.083 L -352.106,227.641 L -351.506,227.189 L -350.949,226.727 L -350.487,226.243 L -350.087,225.749 L -349.761,225.265 L -349.498,224.761 L -349.32,224.277 L -349.215,223.772 L -349.172,223.257z"/>
    <path style="fill: none; fill-opacity:0; stroke-width: 0.02; stroke: #aae6ff" d="M -349.498 223.1 L -349.551,222.595 L -349.635,222.111 L -349.835,221.617 L -350.087,221.144 L -350.423,220.64 L -350.812,220.167 L -351.275,219.704 L -351.822,219.241 L -352.431,218.8 L -353.094,218.358 L -353.83,217.927 L -354.629,217.528 L -355.48,217.118 L -356.395,216.739 L -357.372,216.35 L -358.403,216.025 L -359.475,215.688 L -360.6,215.373 L -361.756,215.089 L -362.965,214.805 L -364.227,214.563 L -365.499,214.322 L -366.813,214.122 L -368.148,213.933 L -369.515,213.785 L -370.923,213.649 L -372.322,213.523 L -373.751,213.459 L -375.181,213.386 L -376.642,213.333 L -378.083,213.333"/>
    <path style="fill: none; fill-opacity:0; stroke-width: 0.02; stroke: #aae6ff" d="M -378.083 213.333 L -379.533,213.333 L -380.984,213.386 L -382.424,213.459 L -383.843,213.523 L -385.252,213.649 L -386.65,213.785 L -388.017,213.933 L -389.373,214.122 L -390.687,214.322 L -391.949,214.563 L -393.21,214.805 L -394.409,215.089 L -395.565,215.373 L -396.69,215.688 L -397.773,216.025 L -398.793,216.35 L -399.77,216.739 L -400.685,217.118 L -401.547,217.528 L -402.335,217.927 L -403.071,218.358 L -403.744,218.8 L -404.354,219.241 L -404.89,219.704 L -405.353,220.167 L -405.752,220.64 L -406.088,221.144 L -406.341,221.617 L -406.519,222.111 L -406.625,222.595 L -406.635,222.721"/>
    <path style="fill: none; fill-opacity:0; stroke-width: 0.02; stroke: #aae6ff" d="M -406.635 223.478 L -406.625,223.594 L -406.519,224.088 L -406.341,224.561 L -406.088,225.066 L -405.752,225.549 L -405.353,226.022 L -404.89,226.485 L -404.354,226.937 L -403.744,227.389 L -403.071,227.851 L -402.335,228.251 L -401.547,228.682 L -400.685,229.081 L -399.77,229.47 L -398.793,229.828 L -397.773,230.185 L -396.69,230.511 L -395.565,230.816 L -394.409,231.11 L -393.21,231.394 L -391.949,231.647 L -390.687,231.857 L -389.373,232.067 L -388.017,232.256 L -386.65,232.424 L -385.252,232.551 L -383.843,232.656 L -382.424,232.75 L -380.984,232.813 L -379.533,232.845 L -378.083,232.856 L -378.083,232.856 L -376.642,232.845 L -375.181,232.813 L -373.751,232.75 L -372.322,232.656 L -370.923,232.551 L -369.515,232.424 L -368.148,232.256 L -366.813,232.067 L -365.499,231.857 L -364.227,231.647 L -362.965,231.394 L -361.756,231.11 L -360.6,230.816 L -359.475,230.511 L -358.403,230.185 L -357.372,229.828 L -356.395,229.47 L -355.48,229.081 L -354.629,228.682 L -353.83,228.251 L -353.094,227.851 L -352.431,227.389 L -351.822,226.937 L -351.275,226.485 L -350.812,226.022 L -350.423,225.549 L -350.087,225.066 L -349.835,224.561 L -349.635,224.088 L -349.551,223.594 L -349.498,223.1"/>
    <path style="fill: #000000" d="M -377.389 221.008 L -373.205,222.395 L -363.102,218.201 L -358.571,219.609 L -361.02,216.13 L -372.847,216.13 L -367.98,217.17 L -377.389,221.008z"/>
    <path style="fill: #000000" d="M -379.144 224.834 L -383.318,223.447 L -393.074,227.641 L -397.941,226.222 L -395.502,230.08 L -383.318,230.08 L -388.532,228.682 L -379.144,224.834z"/>
    <path style="fill: #000000" d="M -396.9 217.17 L -392.737,215.762 L -382.624,219.609 L -378.083,218.569 L -380.521,222.048 L -392.38,222.048 L -387.512,221.008 L -396.9,217.17z"/>
    <path style="fill: #000000" d="M -359.275 229.029 L -363.459,230.417 L -373.205,226.222 L -378.083,227.641 L -375.654,224.14 L -363.459,224.14 L -368.674,225.202 L -359.275,229.029z"/>
    <path style="fill: #ffffff" d="M -377.042 221.344 L -372.847,222.732 L -362.765,218.569 L -358.224,219.967 L -360.663,216.477 L -372.5,216.477 L -367.633,217.507 L -377.042,221.344z"/>
    <path style="fill: #ffffff" d="M -378.787 225.202 L -382.981,223.794 L -392.737,227.978 L -397.605,226.579 L -395.166,230.417 L -382.981,230.417 L -388.196,229.029 L -378.787,225.202z"/>
    <path style="fill: #ffffff" d="M -396.553 217.507 L -392.38,216.13 L -382.277,219.967 L -377.746,218.916 L -380.175,222.395 L -392.043,222.395 L -387.155,221.344 L -396.553,217.507z"/>
    <path style="fill: #ffffff" d="M -358.928 229.365 L -363.102,230.774 L -372.847,226.579 L -377.746,227.978 L -375.307,224.498 L -363.102,224.498 L -368.306,225.549 L -358.928,229.365z"/>
    <path style="fill: none; fill-opacity:0; stroke-width: 0.02; stroke: #aae6ff" d="M -406.667 223.1 L -406.667,264.94"/>
    <path style="fill: none; fill-opacity:0; stroke-width: 0.02; stroke: #aae6ff" d="M -349.498 223.1 L -349.498,264.94"/>
    <path style="fill: #000000" d="M -393.768 234.254 L -393.768,238.795 L -383.675,238.795 L -378.44,248.215 L -372.847,238.795 L -362.765,238.795 L -362.765,234.254 L -356.479,239.825 L -362.765,245.408 L -362.765,241.581 L -370.072,241.581 L -376.001,252.041 L -370.072,262.848 L -362.765,262.848 L -362.765,259.011 L -356.479,264.257 L -362.765,269.829 L -362.765,265.645 L -372.847,265.645 L -378.44,255.889 L -383.675,265.992 L -393.768,265.992 L -393.768,269.829 L -400.044,264.257 L -393.768,259.011 L -393.768,262.848 L -386.808,262.848 L -380.521,252.041 L -386.808,241.581 L -393.768,241.581 L -393.768,245.071 L -400.044,239.825 L -393.768,234.254z"/>
    <path style="fill: #ffffff" d="M -393.421 234.611 L -393.421,239.153 L -383.318,239.153 L -378.083,248.551 L -372.5,239.153 L -362.419,239.153 L -362.419,234.611 L -356.132,240.183 L -362.419,245.776 L -362.419,241.928 L -369.714,241.928 L -375.654,252.399 L -369.714,263.195 L -362.419,263.195 L -362.419,259.358 L -356.132,264.583 L -362.419,270.176 L -362.419,265.992 L -372.5,265.992 L -378.083,256.225 L -383.318,266.349 L -393.421,266.349 L -393.421,270.176 L -399.697,264.583 L -393.421,259.358 L -393.421,263.195 L -386.44,263.195 L -380.175,252.399 L -386.44,241.928 L -393.421,241.928 L -393.421,245.408 L -399.697,240.183 L -393.421,234.611z"/>
  </g>
  <g>
    <path style="fill: #0078aa" d="M -346.172 364.109 L -346.215,363.615 L -346.32,363.11 L -346.498,362.605 L -346.761,362.122 L -347.087,361.617 L -347.487,361.144 L -347.949,360.66 L -348.506,360.198 L -349.106,359.746 L -349.778,359.304 L -350.525,358.852 L -351.324,358.442 L -352.186,358.032 L -353.1,357.643 L -354.089,357.275 L -355.108,356.918 L -356.191,356.581 L -357.326,356.266 L -358.493,355.961 L -359.713,355.688 L -360.964,355.436 L -362.267,355.204 L -363.592,354.973 L -364.938,354.784 L -366.315,354.637 L -367.713,354.5 L -369.143,354.384 L -370.562,354.3 L -372.002,354.237 L -373.474,354.185 L -374.925,354.185 L -374.925,354.185 L -376.376,354.185 L -377.837,354.237 L -379.277,354.3 L -380.707,354.384 L -382.126,354.5 L -383.524,354.637 L -384.912,354.784 L -386.258,354.973 L -387.582,355.204 L -388.875,355.436 L -390.137,355.688 L -391.356,355.961 L -392.523,356.266 L -393.659,356.581 L -394.731,356.918 L -395.761,357.275 L -396.739,357.643 L -397.664,358.032 L -398.526,358.442 L -399.325,358.852 L -400.071,359.304 L -400.744,359.746 L -401.343,360.198 L -401.89,360.66 L -402.353,361.144 L -402.752,361.617 L -403.088,362.122 L -403.341,362.605 L -403.53,363.11 L -403.635,363.615 L -403.667,364.109 L -403.667,364.109 L -403.635,364.624 L -403.53,365.128 L -403.341,365.622 L -403.088,366.117 L -402.752,366.611 L -402.353,367.094 L -401.89,367.567 L -401.343,368.04 L -400.744,368.492 L -400.071,368.934 L -399.325,369.365 L -398.526,369.796 L -397.664,370.206 L -396.739,370.584 L -395.761,370.952 L -394.731,371.32 L -393.659,371.657 L -392.523,371.972 L -391.356,372.256 L -390.137,372.55 L -388.875,372.792 L -387.582,373.034 L -386.258,373.244 L -384.912,373.433 L -383.524,373.581 L -382.126,373.738 L -380.707,373.833 L -379.277,373.928 L -377.837,374.001 L -376.376,374.033 L -374.925,374.043 L -374.925,374.043 L -373.474,374.033 L -372.002,374.001 L -370.562,373.928 L -369.143,373.833 L -367.713,373.738 L -366.315,373.581 L -364.938,373.433 L -363.592,373.244 L -362.267,373.034 L -360.964,372.792 L -359.713,372.55 L -358.493,372.256 L -357.326,371.972 L -356.191,371.657 L -355.108,371.32 L -354.089,370.952 L -353.1,370.584 L -352.186,370.206 L -351.324,369.796 L -350.525,369.365 L -349.778,368.934 L -349.106,368.492 L -348.506,368.04 L -347.949,367.567 L -347.487,367.094 L -347.087,366.611 L -346.761,366.117 L -346.498,365.622 L -346.32,365.128 L -346.215,364.624 L -346.172,364.109z"/>
    <path style="fill: none; fill-opacity:0; stroke-width: 0.02; stroke: #aae6ff" d="M -346.498 363.951 L -346.551,363.457 L -346.635,362.963 L -346.835,362.469 L -347.087,361.996 L -347.423,361.491 L -347.812,361.018 L -348.275,360.566 L -348.822,360.103 L -349.431,359.641 L -350.094,359.21 L -350.83,358.789 L -351.629,358.379 L -352.48,357.969 L -353.395,357.591 L -354.372,357.212 L -355.403,356.876 L -356.475,356.539 L -357.6,356.224 L -358.756,355.94 L -359.965,355.646 L -361.227,355.415 L -362.499,355.173 L -363.813,354.973 L -365.148,354.773 L -366.515,354.626 L -367.923,354.5 L -369.322,354.384 L -370.751,354.3 L -372.181,354.237 L -373.642,354.185 L -375.083,354.185 L -375.083,354.185 L -376.533,354.185 L -377.984,354.237 L -379.424,354.3 L -380.843,354.384 L -382.252,354.5 L -383.65,354.626 L -385.017,354.773 L -386.373,354.973 L -387.687,355.173 L -388.949,355.415 L -390.21,355.646 L -391.409,355.94 L -392.565,356.224 L -393.69,356.539 L -394.773,356.876 L -395.793,357.212 L -396.77,357.591 L -397.685,357.969 L -398.547,358.379 L -399.335,358.789 L -400.071,359.21 L -400.744,359.641 L -401.354,360.103 L -401.89,360.566 L -402.353,361.018 L -402.752,361.491 L -403.088,361.996 L -403.341,362.469 L -403.519,362.963 L -403.625,363.457 L -403.635,363.572"/>
    <path style="fill: none; fill-opacity:0; stroke-width: 0.02; stroke: #aae6ff" d="M -403.635 364.319 L -403.625,364.445 L -403.519,364.939 L -403.341,365.423 L -403.088,365.917 L -402.752,366.4 L -402.353,366.873 L -401.89,367.336 L -401.354,367.788 L -400.744,368.24 L -400.071,368.703 L -399.335,369.102 L -398.547,369.533 L -397.685,369.933 L -396.77,370.322 L -395.793,370.679 L -394.773,371.037 L -393.69,371.362 L -392.565,371.667 L -391.409,371.962 L -390.21,372.245 L -388.949,372.487 L -387.687,372.719 L -386.373,372.918 L -385.017,373.108 L -383.65,373.255 L -382.252,373.402 L -380.843,373.507 L -379.424,373.581 L -377.984,373.665 L -376.533,373.707 L -375.083,373.707 L -375.083,373.707 L -373.642,373.707 L -372.181,373.665 L -370.751,373.581 L -369.322,373.507 L -367.923,373.402 L -366.515,373.255 L -365.148,373.108 L -363.813,372.918 L -362.499,372.719 L -361.227,372.487 L -359.965,372.245 L -358.756,371.962 L -357.6,371.667 L -356.475,371.362 L -355.403,371.037 L -354.372,370.679 L -353.395,370.322 L -352.48,369.933 L -351.629,369.533 L -350.83,369.102 L -350.094,368.703 L -349.431,368.24 L -348.822,367.788 L -348.275,367.336 L -347.812,366.873 L -347.423,366.4 L -347.087,365.917 L -346.835,365.423 L -346.635,364.939 L -346.551,364.445 L -346.498,363.951"/>
    <path style="fill: #0078aa" d="M -403.667 322.447 L -403.667,364.298 L -346.498,364.298 L -346.498,322.447 L -403.667,322.447z"/>
    <path style="fill: #00b4ff" d="M -346.172 322.257 L -346.215,321.763 L -346.32,321.259 L -346.498,320.754 L -346.761,320.27 L -347.087,319.766 L -347.487,319.293 L -347.949,318.82 L -348.506,318.347 L -349.106,317.895 L -349.778,317.453 L -350.525,317.001 L -351.324,316.591 L -352.186,316.181 L -353.1,315.803 L -354.089,315.414 L -355.108,315.067 L -356.191,314.73 L -357.326,314.415 L -358.493,314.11 L -359.713,313.837 L -360.964,313.574 L -362.267,313.353 L -363.592,313.122 L -364.938,312.954 L -366.315,312.785 L -367.713,312.649 L -369.143,312.533 L -370.562,312.459 L -372.002,312.386 L -373.474,312.333 L -374.925,312.333 L -374.925,312.333 L -376.376,312.333 L -377.837,312.386 L -379.277,312.459 L -380.707,312.533 L -382.126,312.649 L -383.524,312.785 L -384.912,312.954 L -386.258,313.122 L -387.582,313.353 L -388.875,313.574 L -390.137,313.837 L -391.356,314.11 L -392.523,314.415 L -393.659,314.73 L -394.731,315.067 L -395.761,315.414 L -396.739,315.803 L -397.664,316.181 L -398.526,316.591 L -399.325,317.001 L -400.071,317.453 L -400.744,317.895 L -401.343,318.347 L -401.89,318.82 L -402.353,319.293 L -402.752,319.766 L -403.088,320.27 L -403.341,320.754 L -403.53,321.259 L -403.635,321.763 L -403.667,322.257 L -403.667,322.257 L -403.635,322.772 L -403.53,323.277 L -403.341,323.761 L -403.088,324.265 L -402.752,324.749 L -402.353,325.243 L -401.89,325.727 L -401.343,326.189 L -400.744,326.641 L -400.071,327.083 L -399.325,327.514 L -398.526,327.945 L -397.664,328.355 L -396.739,328.744 L -395.761,329.101 L -394.731,329.469 L -393.659,329.806 L -392.523,330.121 L -391.356,330.415 L -390.137,330.699 L -388.875,330.941 L -387.582,331.183 L -386.258,331.393 L -384.912,331.582 L -383.524,331.75 L -382.126,331.887 L -380.707,331.982 L -379.277,332.087 L -377.837,332.15 L -376.376,332.181 L -374.925,332.202 L -374.925,332.202 L -373.474,332.181 L -372.002,332.15 L -370.562,332.087 L -369.143,331.982 L -367.713,331.887 L -366.315,331.75 L -364.938,331.582 L -363.592,331.393 L -362.267,331.183 L -360.964,330.941 L -359.713,330.699 L -358.493,330.415 L -357.326,330.121 L -356.191,329.806 L -355.108,329.469 L -354.089,329.101 L -353.1,328.744 L -352.186,328.355 L -351.324,327.945 L -350.525,327.514 L -349.778,327.083 L -349.106,326.641 L -348.506,326.189 L -347.949,325.727 L -347.487,325.243 L -347.087,324.749 L -346.761,324.265 L -346.498,323.761 L -346.32,323.277 L -346.215,322.772 L -346.172,322.257z"/>
    <path style="fill: none; fill-opacity:0; stroke-width: 0.02; stroke: #aae6ff" d="M -346.498 322.1 L -346.551,321.595 L -346.635,321.111 L -346.835,320.617 L -347.087,320.144 L -347.423,319.64 L -347.812,319.167 L -348.275,318.704 L -348.822,318.241 L -349.431,317.8 L -350.094,317.358 L -350.83,316.927 L -351.629,316.528 L -352.48,316.118 L -353.395,315.739 L -354.372,315.35 L -355.403,315.025 L -356.475,314.688 L -357.6,314.373 L -358.756,314.089 L -359.965,313.805 L -361.227,313.563 L -362.499,313.322 L -363.813,313.122 L -365.148,312.933 L -366.515,312.785 L -367.923,312.649 L -369.322,312.523 L -370.751,312.459 L -372.181,312.386 L -373.642,312.333 L -375.083,312.333"/>
    <path style="fill: none; fill-opacity:0; stroke-width: 0.02; stroke: #aae6ff" d="M -375.083 312.333 L -376.533,312.333 L -377.984,312.386 L -379.424,312.459 L -380.843,312.523 L -382.252,312.649 L -383.65,312.785 L -385.017,312.933 L -386.373,313.122 L -387.687,313.322 L -388.949,313.563 L -390.21,313.805 L -391.409,314.089 L -392.565,314.373 L -393.69,314.688 L -394.773,315.025 L -395.793,315.35 L -396.77,315.739 L -397.685,316.118 L -398.547,316.528 L -399.335,316.927 L -400.071,317.358 L -400.744,317.8 L -401.354,318.241 L -401.89,318.704 L -402.353,319.167 L -402.752,319.64 L -403.088,320.144 L -403.341,320.617 L -403.519,321.111 L -403.625,321.595 L -403.635,321.721"/>
    <path style="fill: none; fill-opacity:0; stroke-width: 0.02; stroke: #aae6ff" d="M -403.635 322.478 L -403.625,322.594 L -403.519,323.088 L -403.341,323.561 L -403.088,324.066 L -402.752,324.549 L -402.353,325.022 L -401.89,325.485 L -401.354,325.937 L -400.744,326.389 L -400.071,326.851 L -399.335,327.251 L -398.547,327.682 L -397.685,328.081 L -396.77,328.47 L -395.793,328.828 L -394.773,329.185 L -393.69,329.511 L -392.565,329.816 L -391.409,330.11 L -390.21,330.394 L -388.949,330.647 L -387.687,330.857 L -386.373,331.067 L -385.017,331.256 L -383.65,331.424 L -382.252,331.551 L -380.843,331.656 L -379.424,331.75 L -377.984,331.813 L -376.533,331.845 L -375.083,331.856 L -375.083,331.856 L -373.642,331.845 L -372.181,331.813 L -370.751,331.75 L -369.322,331.656 L -367.923,331.551 L -366.515,331.424 L -365.148,331.256 L -363.813,331.067 L -362.499,330.857 L -361.227,330.647 L -359.965,330.394 L -358.756,330.11 L -357.6,329.816 L -356.475,329.511 L -355.403,329.185 L -354.372,328.828 L -353.395,328.47 L -352.48,328.081 L -351.629,327.682 L -350.83,327.251 L -350.094,326.851 L -349.431,326.389 L -348.822,325.937 L -348.275,325.485 L -347.812,325.022 L -347.423,324.549 L -347.087,324.066 L -346.835,323.561 L -346.635,323.088 L -346.551,322.594 L -346.498,322.1"/>
    <path style="fill: #000000" d="M -374.389 320.008 L -370.205,321.395 L -360.102,317.201 L -355.571,318.609 L -358.02,315.13 L -369.847,315.13 L -364.98,316.17 L -374.389,320.008z"/>
    <path style="fill: #000000" d="M -376.144 323.834 L -380.318,322.447 L -390.074,326.641 L -394.941,325.222 L -392.502,329.08 L -380.318,329.08 L -385.532,327.682 L -376.144,323.834z"/>
    <path style="fill: #000000" d="M -393.9 316.17 L -389.737,314.762 L -379.624,318.609 L -375.083,317.569 L -377.521,321.048 L -389.38,321.048 L -384.512,320.008 L -393.9,316.17z"/>
    <path style="fill: #000000" d="M -356.275 328.029 L -360.459,329.417 L -370.205,325.222 L -375.083,326.641 L -372.654,323.14 L -360.459,323.14 L -365.674,324.202 L -356.275,328.029z"/>
    <path style="fill: #ffffff" d="M -374.042 320.344 L -369.847,321.732 L -359.765,317.569 L -355.224,318.967 L -357.663,315.477 L -369.5,315.477 L -364.633,316.507 L -374.042,320.344z"/>
    <path style="fill: #ffffff" d="M -375.787 324.202 L -379.981,322.794 L -389.737,326.978 L -394.605,325.579 L -392.166,329.417 L -379.981,329.417 L -385.196,328.029 L -375.787,324.202z"/>
    <path style="fill: #ffffff" d="M -393.553 316.507 L -389.38,315.13 L -379.277,318.967 L -374.746,317.916 L -377.175,321.395 L -389.043,321.395 L -384.155,320.344 L -393.553,316.507z"/>
    <path style="fill: #ffffff" d="M -355.928 328.365 L -360.102,329.774 L -369.847,325.579 L -374.746,326.978 L -372.307,323.498 L -360.102,323.498 L -365.306,324.549 L -355.928,328.365z"/>
    <path style="fill: none; fill-opacity:0; stroke-width: 0.02; stroke: #aae6ff" d="M -403.667 322.1 L -403.667,363.94"/>
    <path style="fill: none; fill-opacity:0; stroke-width: 0.02; stroke: #aae6ff" d="M -346.498 322.1 L -346.498,363.94"/>
    <path style="fill: #000000" d="M -390.768 333.254 L -390.768,337.795 L -380.675,337.795 L -375.44,347.215 L -369.847,337.795 L -359.765,337.795 L -359.765,333.254 L -353.479,338.825 L -359.765,344.408 L -359.765,340.581 L -367.072,340.581 L -373.001,351.041 L -367.072,361.848 L -359.765,361.848 L -359.765,358.011 L -353.479,363.257 L -359.765,368.829 L -359.765,364.645 L -369.847,364.645 L -375.44,354.889 L -380.675,364.992 L -390.768,364.992 L -390.768,368.829 L -397.044,363.257 L -390.768,358.011 L -390.768,361.848 L -383.808,361.848 L -377.521,351.041 L -383.808,340.581 L -390.768,340.581 L -390.768,344.071 L -397.044,338.825 L -390.768,333.254z"/>
    <path style="fill: #ffffff" d="M -390.421 333.611 L -390.421,338.153 L -380.318,338.153 L -375.083,347.551 L -369.5,338.153 L -359.419,338.153 L -359.419,333.611 L -353.132,339.183 L -359.419,344.776 L -359.419,340.928 L -366.714,340.928 L -372.654,351.399 L -366.714,362.195 L -359.419,362.195 L -359.419,358.358 L -353.132,363.583 L -359.419,369.176 L -359.419,364.992 L -369.5,364.992 L -375.083,355.225 L -380.318,365.349 L -390.421,365.349 L -390.421,369.176 L -396.697,363.583 L -390.421,358.358 L -390.421,362.195 L -383.44,362.195 L -377.175,351.399 L -383.44,340.928 L -390.421,340.928 L -390.421,344.408 L -396.697,339.183 L -390.421,333.611z"/>
  </g>
  <g>
    <path style="fill: #0078aa" d="M -101.922 303.581 L -101.979,302.982 L -102.103,302.383 L -102.312,301.794 L -102.607,301.214 L -103.006,300.625 L -103.472,300.054 L -104.033,299.493 L -104.661,298.942 L -105.383,298.4 L -106.182,297.877 L -107.047,297.373 L -107.989,296.859 L -109.006,296.374 L -110.09,295.918 L -111.25,295.481 L -112.467,295.062 L -113.731,294.654 L -115.062,294.283 L -116.441,293.931 L -117.877,293.598 L -119.36,293.294 L -120.891,293.037 L -122.45,292.771 L -124.028,292.562 L -125.654,292.362 L -127.309,292.21 L -128.982,292.067 L -130.675,291.972 L -132.367,291.877 L -134.078,291.849 L -135.79,291.82 L -135.79,291.82 L -137.511,291.849 L -139.222,291.877 L -140.915,291.972 L -142.607,292.067 L -144.28,292.21 L -145.935,292.362 L -147.561,292.562 L -149.148,292.771 L -150.708,293.037 L -152.229,293.294 L -153.712,293.598 L -155.148,293.931 L -156.527,294.283 L -157.858,294.654 L -159.132,295.062 L -160.339,295.481 L -161.499,295.918 L -162.583,296.374 L -163.601,296.859 L -164.542,297.373 L -165.407,297.877 L -166.206,298.4 L -166.928,298.942 L -167.556,299.493 L -168.117,300.054 L -168.583,300.625 L -168.982,301.214 L -169.286,301.794 L -169.505,302.383 L -169.619,302.982 L -169.667,303.581 L -169.667,303.581 L -169.619,304.171 L -169.505,304.77 L -169.286,305.359 L -168.982,305.939 L -168.583,306.529 L -168.117,307.099 L -167.556,307.66 L -166.928,308.212 L -166.206,308.754 L -165.407,309.277 L -164.542,309.8 L -163.601,310.294 L -162.583,310.779 L -161.499,311.235 L -160.339,311.692 L -159.132,312.11 L -157.858,312.5 L -156.527,312.88 L -155.148,313.223 L -153.712,313.555 L -152.229,313.86 L -150.708,314.135 L -149.148,314.383 L -147.561,314.611 L -145.935,314.791 L -144.28,314.963 L -142.607,315.086 L -140.915,315.2 L -139.222,315.276 L -137.511,315.324 L -135.79,315.333 L -135.79,315.333 L -134.078,315.324 L -132.367,315.276 L -130.675,315.2 L -128.982,315.086 L -127.309,314.963 L -125.654,314.791 L -124.028,314.611 L -122.45,314.383 L -120.891,314.135 L -119.36,313.86 L -117.877,313.555 L -116.441,313.223 L -115.062,312.88 L -113.731,312.5 L -112.467,312.11 L -111.25,311.692 L -110.09,311.235 L -109.006,310.779 L -107.989,310.294 L -107.047,309.8 L -106.182,309.277 L -105.383,308.754 L -104.661,308.212 L -104.033,307.66 L -103.472,307.099 L -103.006,306.529 L -102.607,305.939 L -102.312,305.359 L -102.103,304.77 L -101.979,304.171 L -101.922,303.581z"/>
    <path style="fill: none; fill-opacity:0; stroke-width: 0.02; stroke: #aae6ff" d="M -102.322 303.391 L -102.369,302.792 L -102.483,302.222 L -102.702,301.632 L -102.997,301.062 L -103.387,300.491 L -103.881,299.93 L -104.395,299.388 L -105.041,298.837 L -105.754,298.305 L -106.543,297.772 L -107.418,297.278 L -108.35,296.783 L -109.358,296.308 L -110.432,295.852 L -111.573,295.414 L -112.79,295.015 L -114.064,294.634 L -115.376,294.245 L -116.745,293.921 L -118.172,293.579 L -119.655,293.284 L -121.157,293.018 L -122.697,292.771 L -124.285,292.562 L -125.892,292.362 L -127.546,292.21 L -129.201,292.067 L -130.884,291.972 L -132.576,291.906 L -134.278,291.849 L -135.98,291.849 L -135.98,291.849 L -137.701,291.849 L -139.393,291.906 L -141.095,291.972 L -142.759,292.067 L -144.423,292.21 L -146.068,292.362 L -147.684,292.562 L -149.272,292.771 L -150.822,293.018 L -152.324,293.284 L -153.807,293.579 L -155.234,293.921 L -156.593,294.245 L -157.915,294.634 L -159.189,295.015 L -160.396,295.414 L -161.528,295.852 L -162.602,296.308 L -163.62,296.783 L -164.57,297.278 L -165.417,297.772 L -166.215,298.305 L -166.928,298.837 L -167.556,299.388 L -168.107,299.93 L -168.583,300.491 L -168.963,301.062 L -169.267,301.632 L -169.486,302.222 L -169.61,302.792 L -169.657,303.391 L -169.657,303.391 L -169.61,303.971 L -169.486,304.57 L -169.267,305.131 L -168.963,305.711 L -168.583,306.291 L -168.107,306.843 L -167.556,307.394 L -166.928,307.946 L -166.215,308.469 L -165.417,309.001 L -164.57,309.505 L -163.62,309.98 L -162.602,310.465 L -161.528,310.931 L -160.396,311.349 L -159.189,311.758 L -157.915,312.148 L -156.593,312.528 L -155.234,312.861 L -153.807,313.185 L -152.324,313.489 L -150.822,313.755 L -149.272,313.993 L -147.684,314.221 L -146.068,314.411 L -144.423,314.563 L -142.759,314.696 L -141.095,314.791 L -139.393,314.877 L -137.701,314.924 L -135.98,314.934 L -135.98,314.934 L -134.278,314.924 L -132.576,314.877 L -130.884,314.791 L -129.201,314.696 L -127.546,314.563 L -125.892,314.411 L -124.285,314.221 L -122.697,313.993 L -121.157,313.755 L -119.655,313.489 L -118.172,313.185 L -116.745,312.861 L -115.376,312.528 L -114.064,312.148 L -112.79,311.758 L -111.573,311.349 L -110.432,310.931 L -109.358,310.465 L -108.35,309.98 L -107.418,309.505 L -106.543,309.001 L -105.754,308.469 L -105.041,307.946 L -104.395,307.394 L -103.881,306.843 L -103.387,306.291 L -102.997,305.711 L -102.702,305.131 L -102.483,304.57 L -102.369,303.971 L -102.322,303.391"/>
    <path style="fill: #0078aa" d="M -169.657 287.294 L -169.657,303.8 L -102.322,303.8 L -102.322,287.294 L -169.657,287.294z"/>
    <path style="fill: #00b4ff" d="M -101.922 287.095 L -101.979,286.496 L -102.103,285.887 L -102.312,285.307 L -102.607,284.718 L -103.006,284.128 L -103.472,283.558 L -104.033,282.997 L -104.661,282.455 L -105.383,281.903 L -106.182,281.39 L -107.047,280.867 L -107.989,280.373 L -109.006,279.878 L -110.09,279.431 L -111.25,278.984 L -112.467,278.557 L -113.731,278.157 L -115.062,277.786 L -116.441,277.435 L -117.877,277.111 L -119.36,276.817 L -120.891,276.531 L -122.45,276.284 L -124.028,276.056 L -125.654,275.866 L -127.309,275.704 L -128.982,275.571 L -130.675,275.466 L -132.367,275.39 L -134.078,275.343 L -135.79,275.333 L -135.79,275.333 L -137.511,275.343 L -139.222,275.39 L -140.915,275.466 L -142.607,275.571 L -144.28,275.704 L -145.935,275.866 L -147.561,276.056 L -149.148,276.284 L -150.708,276.531 L -152.229,276.817 L -153.712,277.111 L -155.148,277.435 L -156.527,277.786 L -157.858,278.157 L -159.132,278.557 L -160.339,278.984 L -161.499,279.431 L -162.583,279.878 L -163.601,280.373 L -164.542,280.867 L -165.407,281.39 L -166.206,281.903 L -166.928,282.455 L -167.556,282.997 L -168.117,283.558 L -168.583,284.128 L -168.982,284.718 L -169.286,285.307 L -169.505,285.887 L -169.619,286.496 L -169.667,287.095 L -169.667,287.095 L -169.619,287.684 L -169.505,288.283 L -169.286,288.873 L -168.982,289.443 L -168.583,290.033 L -168.117,290.603 L -167.556,291.164 L -166.928,291.725 L -166.206,292.267 L -165.407,292.78 L -164.542,293.294 L -163.601,293.807 L -162.583,294.283 L -161.499,294.739 L -160.339,295.186 L -159.132,295.604 L -157.858,296.013 L -156.527,296.374 L -155.148,296.726 L -153.712,297.059 L -152.229,297.373 L -150.708,297.63 L -149.148,297.886 L -147.561,298.114 L -145.935,298.295 L -144.28,298.457 L -142.607,298.59 L -140.915,298.694 L -139.222,298.78 L -137.511,298.828 L -135.79,298.837 L -135.79,298.837 L -134.078,298.828 L -132.367,298.78 L -130.675,298.694 L -128.982,298.59 L -127.309,298.457 L -125.654,298.295 L -124.028,298.114 L -122.45,297.886 L -120.891,297.63 L -119.36,297.373 L -117.877,297.059 L -116.441,296.726 L -115.062,296.374 L -113.731,296.013 L -112.467,295.604 L -111.25,295.186 L -110.09,294.739 L -109.006,294.283 L -107.989,293.807 L -107.047,293.294 L -106.182,292.78 L -105.383,292.267 L -104.661,291.725 L -104.033,291.164 L -103.472,290.603 L -103.006,290.033 L -102.607,289.443 L -102.312,288.873 L -102.103,288.283 L -101.979,287.684 L -101.922,287.095z"/>
    <path style="fill: none; fill-opacity:0; stroke-width: 0.02; stroke: #aae6ff" d="M -102.322 286.895 L -102.369,286.296 L -102.483,285.726 L -102.702,285.146 L -102.997,284.566 L -103.387,284.005 L -103.881,283.425 L -104.395,282.892 L -105.041,282.341 L -105.754,281.818 L -106.543,281.276 L -107.418,280.791 L -108.35,280.287 L -109.358,279.812 L -110.432,279.374 L -111.573,278.918 L -112.79,278.538 L -114.064,278.129 L -115.376,277.758 L -116.745,277.416 L -118.172,277.083 L -119.655,276.788 L -121.157,276.522 L -122.697,276.284 L -124.285,276.056 L -125.892,275.866 L -127.546,275.714 L -129.201,275.571 L -130.884,275.476 L -132.576,275.4 L -134.278,275.352 L -135.98,275.343 L -135.98,275.343 L -137.701,275.352 L -139.393,275.4 L -141.095,275.476 L -142.759,275.571 L -144.423,275.714 L -146.068,275.866 L -147.684,276.056 L -149.272,276.284 L -150.822,276.522 L -152.324,276.788 L -153.807,277.083 L -155.234,277.416 L -156.593,277.758 L -157.915,278.129 L -159.189,278.538 L -160.396,278.918 L -161.528,279.374 L -162.602,279.812 L -163.62,280.287 L -164.57,280.791 L -165.417,281.276 L -166.215,281.818 L -166.928,282.341 L -167.556,282.892 L -168.107,283.425 L -168.583,284.005 L -168.963,284.566 L -169.267,285.146 L -169.486,285.726 L -169.61,286.296 L -169.657,286.895 L -169.657,286.895 L -169.61,287.485 L -169.486,288.064 L -169.267,288.644 L -168.963,289.215 L -168.583,289.785 L -168.107,290.356 L -167.556,290.898 L -166.928,291.449 L -166.215,291.972 L -165.417,292.505 L -164.57,293.009 L -163.62,293.484 L -162.602,293.969 L -161.528,294.425 L -160.396,294.853 L -159.189,295.262 L -157.915,295.652 L -156.593,296.023 L -155.234,296.365 L -153.807,296.698 L -152.324,297.011 L -150.822,297.259 L -149.272,297.515 L -147.684,297.734 L -146.068,297.915 L -144.423,298.086 L -142.759,298.219 L -141.095,298.305 L -139.393,298.39 L -137.701,298.438 L -135.98,298.447 L -135.98,298.447 L -134.278,298.438 L -132.576,298.39 L -130.884,298.305 L -129.201,298.219 L -127.546,298.086 L -125.892,297.915 L -124.285,297.734 L -122.697,297.515 L -121.157,297.259 L -119.655,297.011 L -118.172,296.698 L -116.745,296.365 L -115.376,296.023 L -114.064,295.652 L -112.79,295.262 L -111.573,294.853 L -110.432,294.425 L -109.358,293.969 L -108.35,293.484 L -107.418,293.009 L -106.543,292.505 L -105.754,291.972 L -105.041,291.449 L -104.395,290.898 L -103.881,290.356 L -103.387,289.785 L -102.997,289.215 L -102.702,288.644 L -102.483,288.064 L -102.369,287.485 L -102.322,286.895"/>
    <path style="fill: #000000" d="M -135.162 284.423 L -130.237,286.077 L -118.324,281.114 L -112.99,282.759 L -115.871,278.652 L -129.819,278.652 L -124.085,279.878 L -135.162,284.423z"/>
    <path style="fill: #000000" d="M -137.225 288.958 L -142.141,287.294 L -153.646,292.267 L -159.389,290.603 L -156.527,295.138 L -142.141,295.138 L -148.312,293.484 L -137.225,288.958z"/>
    <path style="fill: #000000" d="M -158.162 279.878 L -153.246,278.233 L -141.323,282.759 L -135.98,281.533 L -138.851,285.64 L -152.828,285.64 L -147.085,284.423 L -158.162,279.878z"/>
    <path style="fill: #000000" d="M -113.817 293.893 L -118.752,295.547 L -130.237,290.603 L -135.98,292.267 L -133.109,288.122 L -118.752,288.122 L -124.903,289.358 L -113.817,293.893z"/>
    <path style="fill: #ffffff" d="M -134.753 284.832 L -129.819,286.477 L -117.934,281.533 L -112.581,283.187 L -115.462,279.051 L -129.419,279.051 L -123.667,280.277 L -134.753,284.832z"/>
    <path style="fill: #ffffff" d="M -136.807 289.358 L -141.751,287.713 L -153.246,292.657 L -158.989,291.012 L -156.118,295.547 L -141.751,295.547 L -147.903,293.893 L -136.807,289.358z"/>
    <path style="fill: #ffffff" d="M -157.753 280.277 L -152.828,278.652 L -140.915,283.187 L -135.581,281.932 L -138.443,286.077 L -152.419,286.077 L -146.657,284.832 L -157.753,280.277z"/>
    <path style="fill: #ffffff" d="M -113.418 294.321 L -118.324,295.966 L -129.819,291.012 L -135.581,292.657 L -132.709,288.549 L -118.324,288.549 L -124.485,289.776 L -113.418,294.321z"/>
    <path style="fill: none; fill-opacity:0; stroke-width: 0.02; stroke: #aae6ff" d="M -169.657 286.895 L -169.657,303.372"/>
    <path style="fill: none; fill-opacity:0; stroke-width: 0.02; stroke: #aae6ff" d="M -102.322 286.895 L -102.322,303.372"/>
  </g>
  <line style="fill: none; fill-opacity:0; stroke-width: 2; stroke: #000000" x1="-588.588" y1="295.329" x2="-526.668" y2="295.217"/>
  <line style="fill: none; fill-opacity:0; stroke-width: 2; stroke: #000000" x1="-469.172" y1="295.188" x2="-406.667" y2="244.125"/>
  <line style="fill: none; fill-opacity:0; stroke-width: 2; stroke: #000000" x1="-231.172" y1="295.188" x2="-169.667" y2="295.253"/>
  <line style="fill: none; fill-opacity:0; stroke-width: 2; stroke: #000000" x1="-346.172" y1="343.188" x2="-288.667" y2="295.125"/>
  <line style="fill: none; fill-opacity:0; stroke-width: 2; stroke: #000000" x1="-469.172" y1="295.188" x2="-403.667" y2="343.125"/>
  <g>
    <path style="fill: #0078aa" d="M -588.588 303.581 L -588.645,302.982 L -588.769,302.383 L -588.978,301.794 L -589.273,301.214 L -589.672,300.625 L -590.138,300.054 L -590.699,299.493 L -591.327,298.942 L -592.049,298.4 L -592.848,297.877 L -593.713,297.373 L -594.655,296.859 L -595.672,296.374 L -596.756,295.918 L -597.916,295.481 L -599.133,295.062 L -600.397,294.654 L -601.728,294.283 L -603.107,293.931 L -604.543,293.598 L -606.026,293.294 L -607.557,293.037 L -609.116,292.771 L -610.694,292.562 L -612.32,292.362 L -613.975,292.21 L -615.648,292.067 L -617.341,291.972 L -619.033,291.877 L -620.744,291.849 L -622.456,291.82 L -622.456,291.82 L -624.177,291.849 L -625.888,291.877 L -627.581,291.972 L -629.273,292.067 L -630.946,292.21 L -632.601,292.362 L -634.227,292.562 L -635.814,292.771 L -637.374,293.037 L -638.895,293.294 L -640.378,293.598 L -641.814,293.931 L -643.193,294.283 L -644.524,294.654 L -645.798,295.062 L -647.005,295.481 L -648.165,295.918 L -649.249,296.374 L -650.267,296.859 L -651.208,297.373 L -652.073,297.877 L -652.872,298.4 L -653.594,298.942 L -654.222,299.493 L -654.783,300.054 L -655.249,300.625 L -655.648,301.214 L -655.952,301.794 L -656.171,302.383 L -656.285,302.982 L -656.333,303.581 L -656.333,303.581 L -656.285,304.171 L -656.171,304.77 L -655.952,305.359 L -655.648,305.939 L -655.249,306.529 L -654.783,307.099 L -654.222,307.66 L -653.594,308.212 L -652.872,308.754 L -652.073,309.277 L -651.208,309.8 L -650.267,310.294 L -649.249,310.779 L -648.165,311.235 L -647.005,311.692 L -645.798,312.11 L -644.524,312.5 L -643.193,312.88 L -641.814,313.223 L -640.378,313.555 L -638.895,313.86 L -637.374,314.135 L -635.814,314.383 L -634.227,314.611 L -632.601,314.791 L -630.946,314.963 L -629.273,315.086 L -627.581,315.2 L -625.888,315.276 L -624.177,315.324 L -622.456,315.333 L -622.456,315.333 L -620.744,315.324 L -619.033,315.276 L -617.341,315.2 L -615.648,315.086 L -613.975,314.963 L -612.32,314.791 L -610.694,314.611 L -609.116,314.383 L -607.557,314.135 L -606.026,313.86 L -604.543,313.555 L -603.107,313.223 L -601.728,312.88 L -600.397,312.5 L -599.133,312.11 L -597.916,311.692 L -596.756,311.235 L -595.672,310.779 L -594.655,310.294 L -593.713,309.8 L -592.848,309.277 L -592.049,308.754 L -591.327,308.212 L -590.699,307.66 L -590.138,307.099 L -589.672,306.529 L -589.273,305.939 L -588.978,305.359 L -588.769,304.77 L -588.645,304.171 L -588.588,303.581z"/>
    <path style="fill: none; fill-opacity:0; stroke-width: 0.02; stroke: #aae6ff" d="M -588.988 303.391 L -589.035,302.792 L -589.149,302.222 L -589.368,301.632 L -589.663,301.062 L -590.053,300.491 L -590.547,299.93 L -591.061,299.388 L -591.707,298.837 L -592.42,298.305 L -593.209,297.772 L -594.084,297.278 L -595.016,296.783 L -596.024,296.308 L -597.098,295.852 L -598.239,295.414 L -599.456,295.015 L -600.73,294.634 L -602.042,294.245 L -603.411,293.921 L -604.838,293.579 L -606.321,293.284 L -607.823,293.018 L -609.363,292.771 L -610.951,292.562 L -612.558,292.362 L -614.212,292.21 L -615.867,292.067 L -617.55,291.972 L -619.242,291.906 L -620.944,291.849 L -622.646,291.849 L -622.646,291.849 L -624.367,291.849 L -626.059,291.906 L -627.761,291.972 L -629.425,292.067 L -631.089,292.21 L -632.734,292.362 L -634.35,292.562 L -635.938,292.771 L -637.488,293.018 L -638.99,293.284 L -640.473,293.579 L -641.9,293.921 L -643.259,294.245 L -644.581,294.634 L -645.855,295.015 L -647.062,295.414 L -648.194,295.852 L -649.268,296.308 L -650.286,296.783 L -651.236,297.278 L -652.083,297.772 L -652.881,298.305 L -653.594,298.837 L -654.222,299.388 L -654.773,299.93 L -655.249,300.491 L -655.629,301.062 L -655.933,301.632 L -656.152,302.222 L -656.276,302.792 L -656.323,303.391 L -656.323,303.391 L -656.276,303.971 L -656.152,304.57 L -655.933,305.131 L -655.629,305.711 L -655.249,306.291 L -654.773,306.843 L -654.222,307.394 L -653.594,307.946 L -652.881,308.469 L -652.083,309.001 L -651.236,309.505 L -650.286,309.98 L -649.268,310.465 L -648.194,310.931 L -647.062,311.349 L -645.855,311.758 L -644.581,312.148 L -643.259,312.528 L -641.9,312.861 L -640.473,313.185 L -638.99,313.489 L -637.488,313.755 L -635.938,313.993 L -634.35,314.221 L -632.734,314.411 L -631.089,314.563 L -629.425,314.696 L -627.761,314.791 L -626.059,314.877 L -624.367,314.924 L -622.646,314.934 L -622.646,314.934 L -620.944,314.924 L -619.242,314.877 L -617.55,314.791 L -615.867,314.696 L -614.212,314.563 L -612.558,314.411 L -610.951,314.221 L -609.363,313.993 L -607.823,313.755 L -606.321,313.489 L -604.838,313.185 L -603.411,312.861 L -602.042,312.528 L -600.73,312.148 L -599.456,311.758 L -598.239,311.349 L -597.098,310.931 L -596.024,310.465 L -595.016,309.98 L -594.084,309.505 L -593.209,309.001 L -592.42,308.469 L -591.707,307.946 L -591.061,307.394 L -590.547,306.843 L -590.053,306.291 L -589.663,305.711 L -589.368,305.131 L -589.149,304.57 L -589.035,303.971 L -588.988,303.391"/>
    <path style="fill: #0078aa" d="M -656.323 287.294 L -656.323,303.8 L -588.988,303.8 L -588.988,287.294 L -656.323,287.294z"/>
    <path style="fill: #00b4ff" d="M -588.588 287.095 L -588.645,286.496 L -588.769,285.887 L -588.978,285.307 L -589.273,284.718 L -589.672,284.128 L -590.138,283.558 L -590.699,282.997 L -591.327,282.455 L -592.049,281.903 L -592.848,281.39 L -593.713,280.867 L -594.655,280.373 L -595.672,279.878 L -596.756,279.431 L -597.916,278.984 L -599.133,278.557 L -600.397,278.157 L -601.728,277.786 L -603.107,277.435 L -604.543,277.111 L -606.026,276.817 L -607.557,276.531 L -609.116,276.284 L -610.694,276.056 L -612.32,275.866 L -613.975,275.704 L -615.648,275.571 L -617.341,275.466 L -619.033,275.39 L -620.744,275.343 L -622.456,275.333 L -622.456,275.333 L -624.177,275.343 L -625.888,275.39 L -627.581,275.466 L -629.273,275.571 L -630.946,275.704 L -632.601,275.866 L -634.227,276.056 L -635.814,276.284 L -637.374,276.531 L -638.895,276.817 L -640.378,277.111 L -641.814,277.435 L -643.193,277.786 L -644.524,278.157 L -645.798,278.557 L -647.005,278.984 L -648.165,279.431 L -649.249,279.878 L -650.267,280.373 L -651.208,280.867 L -652.073,281.39 L -652.872,281.903 L -653.594,282.455 L -654.222,282.997 L -654.783,283.558 L -655.249,284.128 L -655.648,284.718 L -655.952,285.307 L -656.171,285.887 L -656.285,286.496 L -656.333,287.095 L -656.333,287.095 L -656.285,287.684 L -656.171,288.283 L -655.952,288.873 L -655.648,289.443 L -655.249,290.033 L -654.783,290.603 L -654.222,291.164 L -653.594,291.725 L -652.872,292.267 L -652.073,292.78 L -651.208,293.294 L -650.267,293.807 L -649.249,294.283 L -648.165,294.739 L -647.005,295.186 L -645.798,295.604 L -644.524,296.013 L -643.193,296.374 L -641.814,296.726 L -640.378,297.059 L -638.895,297.373 L -637.374,297.63 L -635.814,297.886 L -634.227,298.114 L -632.601,298.295 L -630.946,298.457 L -629.273,298.59 L -627.581,298.694 L -625.888,298.78 L -624.177,298.828 L -622.456,298.837 L -622.456,298.837 L -620.744,298.828 L -619.033,298.78 L -617.341,298.694 L -615.648,298.59 L -613.975,298.457 L -612.32,298.295 L -610.694,298.114 L -609.116,297.886 L -607.557,297.63 L -606.026,297.373 L -604.543,297.059 L -603.107,296.726 L -601.728,296.374 L -600.397,296.013 L -599.133,295.604 L -597.916,295.186 L -596.756,294.739 L -595.672,294.283 L -594.655,293.807 L -593.713,293.294 L -592.848,292.78 L -592.049,292.267 L -591.327,291.725 L -590.699,291.164 L -590.138,290.603 L -589.672,290.033 L -589.273,289.443 L -588.978,288.873 L -588.769,288.283 L -588.645,287.684 L -588.588,287.095z"/>
    <path style="fill: none; fill-opacity:0; stroke-width: 0.02; stroke: #aae6ff" d="M -588.988 286.895 L -589.035,286.296 L -589.149,285.726 L -589.368,285.146 L -589.663,284.566 L -590.053,284.005 L -590.547,283.425 L -591.061,282.892 L -591.707,282.341 L -592.42,281.818 L -593.209,281.276 L -594.084,280.791 L -595.016,280.287 L -596.024,279.812 L -597.098,279.374 L -598.239,278.918 L -599.456,278.538 L -600.73,278.129 L -602.042,277.758 L -603.411,277.416 L -604.838,277.083 L -606.321,276.788 L -607.823,276.522 L -609.363,276.284 L -610.951,276.056 L -612.558,275.866 L -614.212,275.714 L -615.867,275.571 L -617.55,275.476 L -619.242,275.4 L -620.944,275.352 L -622.646,275.343 L -622.646,275.343 L -624.367,275.352 L -626.059,275.4 L -627.761,275.476 L -629.425,275.571 L -631.089,275.714 L -632.734,275.866 L -634.35,276.056 L -635.938,276.284 L -637.488,276.522 L -638.99,276.788 L -640.473,277.083 L -641.9,277.416 L -643.259,277.758 L -644.581,278.129 L -645.855,278.538 L -647.062,278.918 L -648.194,279.374 L -649.268,279.812 L -650.286,280.287 L -651.236,280.791 L -652.083,281.276 L -652.881,281.818 L -653.594,282.341 L -654.222,282.892 L -654.773,283.425 L -655.249,284.005 L -655.629,284.566 L -655.933,285.146 L -656.152,285.726 L -656.276,286.296 L -656.323,286.895 L -656.323,286.895 L -656.276,287.485 L -656.152,288.064 L -655.933,288.644 L -655.629,289.215 L -655.249,289.785 L -654.773,290.356 L -654.222,290.898 L -653.594,291.449 L -652.881,291.972 L -652.083,292.505 L -651.236,293.009 L -650.286,293.484 L -649.268,293.969 L -648.194,294.425 L -647.062,294.853 L -645.855,295.262 L -644.581,295.652 L -643.259,296.023 L -641.9,296.365 L -640.473,296.698 L -638.99,297.011 L -637.488,297.259 L -635.938,297.515 L -634.35,297.734 L -632.734,297.915 L -631.089,298.086 L -629.425,298.219 L -627.761,298.305 L -626.059,298.39 L -624.367,298.438 L -622.646,298.447 L -622.646,298.447 L -620.944,298.438 L -619.242,298.39 L -617.55,298.305 L -615.867,298.219 L -614.212,298.086 L -612.558,297.915 L -610.951,297.734 L -609.363,297.515 L -607.823,297.259 L -606.321,297.011 L -604.838,296.698 L -603.411,296.365 L -602.042,296.023 L -600.73,295.652 L -599.456,295.262 L -598.239,294.853 L -597.098,294.425 L -596.024,293.969 L -595.016,293.484 L -594.084,293.009 L -593.209,292.505 L -592.42,291.972 L -591.707,291.449 L -591.061,290.898 L -590.547,290.356 L -590.053,289.785 L -589.663,289.215 L -589.368,288.644 L -589.149,288.064 L -589.035,287.485 L -588.988,286.895"/>
    <path style="fill: #000000" d="M -621.828 284.423 L -616.903,286.077 L -604.99,281.114 L -599.656,282.759 L -602.537,278.652 L -616.485,278.652 L -610.751,279.878 L -621.828,284.423z"/>
    <path style="fill: #000000" d="M -623.891 288.958 L -628.807,287.294 L -640.312,292.267 L -646.055,290.603 L -643.193,295.138 L -628.807,295.138 L -634.978,293.484 L -623.891,288.958z"/>
    <path style="fill: #000000" d="M -644.828 279.878 L -639.912,278.233 L -627.989,282.759 L -622.646,281.533 L -625.517,285.64 L -639.494,285.64 L -633.751,284.423 L -644.828,279.878z"/>
    <path style="fill: #000000" d="M -600.483 293.893 L -605.418,295.547 L -616.903,290.603 L -622.646,292.267 L -619.775,288.122 L -605.418,288.122 L -611.569,289.358 L -600.483,293.893z"/>
    <path style="fill: #ffffff" d="M -621.419 284.832 L -616.485,286.477 L -604.6,281.533 L -599.247,283.187 L -602.128,279.051 L -616.085,279.051 L -610.333,280.277 L -621.419,284.832z"/>
    <path style="fill: #ffffff" d="M -623.473 289.358 L -628.417,287.713 L -639.912,292.657 L -645.655,291.012 L -642.784,295.547 L -628.417,295.547 L -634.569,293.893 L -623.473,289.358z"/>
    <path style="fill: #ffffff" d="M -644.419 280.277 L -639.494,278.652 L -627.581,283.187 L -622.247,281.932 L -625.109,286.077 L -639.085,286.077 L -633.323,284.832 L -644.419,280.277z"/>
    <path style="fill: #ffffff" d="M -600.084 294.321 L -604.99,295.966 L -616.485,291.012 L -622.247,292.657 L -619.375,288.549 L -604.99,288.549 L -611.151,289.776 L -600.084,294.321z"/>
    <path style="fill: none; fill-opacity:0; stroke-width: 0.02; stroke: #aae6ff" d="M -656.323 286.895 L -656.323,303.372"/>
    <path style="fill: none; fill-opacity:0; stroke-width: 0.02; stroke: #aae6ff" d="M -588.988 286.895 L -588.988,303.372"/>
  </g>
  <line style="fill: none; fill-opacity:0; stroke-width: 2; stroke: #000000" x1="-288.667" y1="295.125" x2="-349.172" y2="244.188"/>
  <text style="fill: #000000;text-anchor:start;font-size:12.7998;font-family:sanserif;font-style:normal;font-weight:normal" x="-438.343" y="403.063">
    <tspan x="-438.343" y="403.063">Label Switch Router</tspan>
  </text>
  <text style="fill: #000000;text-anchor:start;font-size:12.7998;font-family:sanserif;font-style:normal;font-weight:normal" x="-557.343" y="364.363">
    <tspan x="-557.343" y="364.363">Label Edge Router</tspan>
  </text>
  <text style="fill: #000000;text-anchor:start;font-size:12.7998;font-family:sanserif;font-style:normal;font-weight:normal" x="-312.343" y="363.663">
    <tspan x="-312.343" y="363.663">Label Edge Router</tspan>
  </text>
  <text style="fill: #000000;text-anchor:start;font-size:12.7998;font-family:sanserif;font-style:normal;font-weight:normal" x="-651.343" y="344.063">
    <tspan x="-651.343" y="344.063">IP Router</tspan>
  </text>
  <text style="fill: #000000;text-anchor:start;font-size:12.7998;font-family:sanserif;font-style:normal;font-weight:normal" x="-162.343" y="342.663">
    <tspan x="-162.343" y="342.663">IP Router</tspan>
  </text>
  <text style="fill: #000000;text-anchor:start;font-size:12.7998;font-family:sanserif;font-style:normal;font-weight:normal" x="-565.343" y="282.063">
    <tspan x="-565.343" y="282.063">IP</tspan>
  </text>
  <text style="fill: #000000;text-anchor:start;font-size:12.7998;font-family:sanserif;font-style:normal;font-weight:normal" x="-205.343" y="282.663">
    <tspan x="-205.343" y="282.663">IP</tspan>
  </text>
  <text style="fill: #000000;text-anchor:start;font-size:12.7998;font-family:sanserif;font-style:normal;font-weight:normal" x="-468.343" y="245.063">
    <tspan x="-468.343" y="245.063">MPLS</tspan>
  </text>
  <text style="fill: #000000;text-anchor:start;font-size:12.7998;font-family:sanserif;font-style:normal;font-weight:normal" x="-326.343" y="243.663">
    <tspan x="-326.343" y="243.663">MPLS</tspan>
  </text>
  <line style="fill: none; fill-opacity:0; stroke-width: 2; stroke: #000000" x1="-622.465" y1="317.333" x2="-622.343" y2="334.396"/>
  <line style="fill: none; fill-opacity:0; stroke-width: 2; stroke: #000000" x1="-374.925" y1="375.376" x2="-374.343" y2="392.396"/>
  <line style="fill: none; fill-opacity:0; stroke-width: 2; stroke: #000000" x1="-135.799" y1="316.667" x2="-135.676" y2="332.773"/>
  <line style="fill: none; fill-opacity:0; stroke-width: 2; stroke: #000000" x1="-259.925" y1="326.71" x2="-260.343" y2="352.107"/>
  <line style="fill: none; fill-opacity:0; stroke-width: 2; stroke: #000000" x1="-497.925" y1="327.376" x2="-497.676" y2="354.773"/>
</svg>
