<?xml version="1.0" encoding="UTF-8" standalone="no"?>
<!DOCTYPE svg PUBLIC "-//W3C//DTD SVG 1.0//EN" "http://www.w3.org/TR/2001/PR-SVG-20010719/DTD/svg10.dtd">
<svg width="14cm" height="5cm" viewBox="203 218 268 81" xmlns="http://www.w3.org/2000/svg" xmlns:xlink="http://www.w3.org/1999/xlink">
  <g>
    <path style="fill: #0078aa" d="M 257.839 288.054 L 257.799,287.586 L 257.699,287.108 L 257.53,286.63 L 257.281,286.172 L 256.972,285.693 L 256.594,285.245 L 256.155,284.787 L 255.628,284.349 L 255.06,283.921 L 254.422,283.502 L 253.715,283.074 L 252.958,282.685 L 252.141,282.297 L 251.275,281.929 L 250.339,281.58 L 249.372,281.241 L 248.347,280.923 L 247.271,280.624 L 246.165,280.335 L 245.01,280.076 L 243.825,279.837 L 242.59,279.618 L 241.335,279.399 L 240.06,279.219 L 238.755,279.08 L 237.43,278.95 L 236.076,278.841 L 234.731,278.761 L 233.366,278.701 L 231.972,278.652 L 230.597,278.652 L 230.597,278.652 L 229.223,278.652 L 227.839,278.701 L 226.474,278.761 L 225.119,278.841 L 223.775,278.95 L 222.45,279.08 L 221.135,279.219 L 219.86,279.399 L 218.605,279.618 L 217.38,279.837 L 216.185,280.076 L 215.03,280.335 L 213.924,280.624 L 212.848,280.923 L 211.832,281.241 L 210.856,281.58 L 209.93,281.929 L 209.054,282.297 L 208.237,282.685 L 207.48,283.074 L 206.773,283.502 L 206.135,283.921 L 205.567,284.349 L 205.05,284.787 L 204.611,285.245 L 204.233,285.693 L 203.914,286.172 L 203.675,286.63 L 203.496,287.108 L 203.396,287.586 L 203.366,288.054 L 203.366,288.054 L 203.396,288.542 L 203.496,289.02 L 203.675,289.488 L 203.914,289.956 L 204.233,290.425 L 204.611,290.883 L 205.05,291.331 L 205.567,291.779 L 206.135,292.207 L 206.773,292.626 L 207.48,293.034 L 208.237,293.443 L 209.054,293.831 L 209.93,294.19 L 210.856,294.538 L 211.832,294.887 L 212.848,295.205 L 213.924,295.504 L 215.03,295.773 L 216.185,296.052 L 217.38,296.281 L 218.605,296.51 L 219.86,296.709 L 221.135,296.889 L 222.45,297.028 L 223.775,297.178 L 225.119,297.267 L 226.474,297.357 L 227.839,297.427 L 229.223,297.456 L 230.597,297.466 L 230.597,297.466 L 231.972,297.456 L 233.366,297.427 L 234.731,297.357 L 236.076,297.267 L 237.43,297.178 L 238.755,297.028 L 240.06,296.889 L 241.335,296.709 L 242.59,296.51 L 243.825,296.281 L 245.01,296.052 L 246.165,295.773 L 247.271,295.504 L 248.347,295.205 L 249.372,294.887 L 250.339,294.538 L 251.275,294.19 L 252.141,293.831 L 252.958,293.443 L 253.715,293.034 L 254.422,292.626 L 255.06,292.207 L 255.628,291.779 L 256.155,291.331 L 256.594,290.883 L 256.972,290.425 L 257.281,289.956 L 257.53,289.488 L 257.699,289.02 L 257.799,288.542 L 257.839,288.054z"/>
    <path style="fill: none; fill-opacity:0; stroke-width: 0.02; stroke: #aae6ff" d="M 257.53 287.905 L 257.48,287.437 L 257.4,286.968 L 257.211,286.5 L 256.972,286.052 L 256.653,285.574 L 256.285,285.126 L 255.847,284.697 L 255.329,284.259 L 254.751,283.821 L 254.124,283.413 L 253.426,283.014 L 252.669,282.626 L 251.863,282.237 L 250.996,281.879 L 250.07,281.52 L 249.094,281.201 L 248.078,280.883 L 247.012,280.584 L 245.916,280.315 L 244.771,280.036 L 243.576,279.817 L 242.37,279.588 L 241.125,279.399 L 239.86,279.209 L 238.566,279.07 L 237.231,278.95 L 235.906,278.841 L 234.552,278.761 L 233.197,278.701 L 231.813,278.652 L 230.448,278.652 L 230.448,278.652 L 229.074,278.652 L 227.699,278.701 L 226.335,278.761 L 224.99,278.841 L 223.655,278.95 L 222.331,279.07 L 221.036,279.209 L 219.751,279.399 L 218.506,279.588 L 217.311,279.817 L 216.115,280.036 L 214.98,280.315 L 213.884,280.584 L 212.819,280.883 L 211.793,281.201 L 210.826,281.52 L 209.9,281.879 L 209.034,282.237 L 208.217,282.626 L 207.47,283.014 L 206.773,283.413 L 206.135,283.821 L 205.558,284.259 L 205.05,284.697 L 204.611,285.126 L 204.233,285.574 L 203.914,286.052 L 203.675,286.5 L 203.506,286.968 L 203.406,287.437 L 203.396,287.546"/>
    <path style="fill: none; fill-opacity:0; stroke-width: 0.02; stroke: #aae6ff" d="M 203.396 288.253 L 203.406,288.373 L 203.506,288.841 L 203.675,289.299 L 203.914,289.767 L 204.233,290.225 L 204.611,290.674 L 205.05,291.112 L 205.558,291.54 L 206.135,291.968 L 206.773,292.407 L 207.47,292.785 L 208.217,293.194 L 209.034,293.572 L 209.9,293.941 L 210.826,294.279 L 211.793,294.618 L 212.819,294.927 L 213.884,295.215 L 214.98,295.494 L 216.115,295.763 L 217.311,295.992 L 218.506,296.211 L 219.751,296.401 L 221.036,296.58 L 222.331,296.719 L 223.655,296.859 L 224.99,296.958 L 226.335,297.028 L 227.699,297.108 L 229.074,297.148 L 230.448,297.148 L 230.448,297.148 L 231.813,297.148 L 233.197,297.108 L 234.552,297.028 L 235.906,296.958 L 237.231,296.859 L 238.566,296.719 L 239.86,296.58 L 241.125,296.401 L 242.37,296.211 L 243.576,295.992 L 244.771,295.763 L 245.916,295.494 L 247.012,295.215 L 248.078,294.927 L 249.094,294.618 L 250.07,294.279 L 250.996,293.941 L 251.863,293.572 L 252.669,293.194 L 253.426,292.785 L 254.124,292.407 L 254.751,291.968 L 255.329,291.54 L 255.847,291.112 L 256.285,290.674 L 256.653,290.225 L 256.972,289.767 L 257.211,289.299 L 257.4,288.841 L 257.48,288.373 L 257.53,287.905"/>
    <path style="fill: #0078aa" d="M 203.366 248.582 L 203.366,288.233 L 257.53,288.233 L 257.53,248.582 L 203.366,248.582z"/>
    <path style="fill: #00b4ff" d="M 257.839 248.402 L 257.799,247.934 L 257.699,247.456 L 257.53,246.978 L 257.281,246.52 L 256.972,246.042 L 256.594,245.594 L 256.155,245.145 L 255.628,244.697 L 255.06,244.269 L 254.422,243.851 L 253.715,243.422 L 252.958,243.034 L 252.141,242.645 L 251.275,242.287 L 250.339,241.918 L 249.372,241.59 L 248.347,241.271 L 247.271,240.972 L 246.165,240.683 L 245.01,240.424 L 243.825,240.175 L 242.59,239.966 L 241.335,239.747 L 240.06,239.588 L 238.755,239.428 L 237.43,239.299 L 236.076,239.189 L 234.731,239.12 L 233.366,239.05 L 231.972,239 L 230.597,239 L 230.597,239 L 229.223,239 L 227.839,239.05 L 226.474,239.12 L 225.119,239.189 L 223.775,239.299 L 222.45,239.428 L 221.135,239.588 L 219.86,239.747 L 218.605,239.966 L 217.38,240.175 L 216.185,240.424 L 215.03,240.683 L 213.924,240.972 L 212.848,241.271 L 211.832,241.59 L 210.856,241.918 L 209.93,242.287 L 209.054,242.645 L 208.237,243.034 L 207.48,243.422 L 206.773,243.851 L 206.135,244.269 L 205.567,244.697 L 205.05,245.145 L 204.611,245.594 L 204.233,246.042 L 203.914,246.52 L 203.675,246.978 L 203.496,247.456 L 203.396,247.934 L 203.366,248.402 L 203.366,248.402 L 203.396,248.89 L 203.496,249.369 L 203.675,249.827 L 203.914,250.305 L 204.233,250.763 L 204.611,251.231 L 205.05,251.689 L 205.567,252.128 L 206.135,252.556 L 206.773,252.974 L 207.48,253.383 L 208.237,253.791 L 209.054,254.179 L 209.93,254.548 L 210.856,254.887 L 211.832,255.235 L 212.848,255.554 L 213.924,255.853 L 215.03,256.132 L 216.185,256.4 L 217.38,256.63 L 218.605,256.859 L 219.86,257.058 L 221.135,257.237 L 222.45,257.397 L 223.775,257.526 L 225.119,257.616 L 226.474,257.715 L 227.839,257.775 L 229.223,257.805 L 230.597,257.825 L 230.597,257.825 L 231.972,257.805 L 233.366,257.775 L 234.731,257.715 L 236.076,257.616 L 237.43,257.526 L 238.755,257.397 L 240.06,257.237 L 241.335,257.058 L 242.59,256.859 L 243.825,256.63 L 245.01,256.4 L 246.165,256.132 L 247.271,255.853 L 248.347,255.554 L 249.372,255.235 L 250.339,254.887 L 251.275,254.548 L 252.141,254.179 L 252.958,253.791 L 253.715,253.383 L 254.422,252.974 L 255.06,252.556 L 255.628,252.128 L 256.155,251.689 L 256.594,251.231 L 256.972,250.763 L 257.281,250.305 L 257.53,249.827 L 257.699,249.369 L 257.799,248.89 L 257.839,248.402z"/>
    <path style="fill: none; fill-opacity:0; stroke-width: 0.02; stroke: #aae6ff" d="M 257.53 248.253 L 257.48,247.775 L 257.4,247.317 L 257.211,246.849 L 256.972,246.4 L 256.653,245.922 L 256.285,245.474 L 255.847,245.036 L 255.329,244.598 L 254.751,244.179 L 254.124,243.761 L 253.426,243.353 L 252.669,242.974 L 251.863,242.586 L 250.996,242.227 L 250.07,241.859 L 249.094,241.55 L 248.078,241.231 L 247.012,240.932 L 245.916,240.663 L 244.771,240.394 L 243.576,240.165 L 242.37,239.936 L 241.125,239.747 L 239.86,239.568 L 238.566,239.428 L 237.231,239.299 L 235.906,239.179 L 234.552,239.12 L 233.197,239.05 L 231.813,239 L 230.448,239"/>
    <path style="fill: none; fill-opacity:0; stroke-width: 0.02; stroke: #aae6ff" d="M 230.448 239 L 229.074,239 L 227.699,239.05 L 226.335,239.12 L 224.99,239.179 L 223.655,239.299 L 222.331,239.428 L 221.036,239.568 L 219.751,239.747 L 218.506,239.936 L 217.311,240.165 L 216.115,240.394 L 214.98,240.663 L 213.884,240.932 L 212.819,241.231 L 211.793,241.55 L 210.826,241.859 L 209.9,242.227 L 209.034,242.586 L 208.217,242.974 L 207.47,243.353 L 206.773,243.761 L 206.135,244.179 L 205.558,244.598 L 205.05,245.036 L 204.611,245.474 L 204.233,245.922 L 203.914,246.4 L 203.675,246.849 L 203.506,247.317 L 203.406,247.775 L 203.396,247.894"/>
    <path style="fill: none; fill-opacity:0; stroke-width: 0.02; stroke: #aae6ff" d="M 203.396 248.612 L 203.406,248.721 L 203.506,249.189 L 203.675,249.638 L 203.914,250.116 L 204.233,250.574 L 204.611,251.022 L 205.05,251.46 L 205.558,251.889 L 206.135,252.317 L 206.773,252.755 L 207.47,253.134 L 208.217,253.542 L 209.034,253.92 L 209.9,254.289 L 210.826,254.628 L 211.793,254.966 L 212.819,255.275 L 213.884,255.564 L 214.98,255.843 L 216.115,256.112 L 217.311,256.351 L 218.506,256.55 L 219.751,256.749 L 221.036,256.928 L 222.331,257.088 L 223.655,257.207 L 224.99,257.307 L 226.335,257.397 L 227.699,257.456 L 229.074,257.486 L 230.448,257.496 L 230.448,257.496 L 231.813,257.486 L 233.197,257.456 L 234.552,257.397 L 235.906,257.307 L 237.231,257.207 L 238.566,257.088 L 239.86,256.928 L 241.125,256.749 L 242.37,256.55 L 243.576,256.351 L 244.771,256.112 L 245.916,255.843 L 247.012,255.564 L 248.078,255.275 L 249.094,254.966 L 250.07,254.628 L 250.996,254.289 L 251.863,253.92 L 252.669,253.542 L 253.426,253.134 L 254.124,252.755 L 254.751,252.317 L 255.329,251.889 L 255.847,251.46 L 256.285,251.022 L 256.653,250.574 L 256.972,250.116 L 257.211,249.638 L 257.4,249.189 L 257.48,248.721 L 257.53,248.253"/>
    <path style="fill: #000000" d="M 231.105 246.271 L 235.07,247.586 L 244.641,243.612 L 248.934,244.946 L 246.614,241.649 L 235.408,241.649 L 240.02,242.635 L 231.105,246.271z"/>
    <path style="fill: #000000" d="M 229.442 249.896 L 225.488,248.582 L 216.245,252.556 L 211.633,251.211 L 213.944,254.867 L 225.488,254.867 L 220.548,253.542 L 229.442,249.896z"/>
    <path style="fill: #000000" d="M 212.619 242.635 L 216.564,241.301 L 226.145,244.946 L 230.448,243.96 L 228.137,247.257 L 216.902,247.257 L 221.514,246.271 L 212.619,242.635z"/>
    <path style="fill: #000000" d="M 248.267 253.871 L 244.303,255.185 L 235.07,251.211 L 230.448,252.556 L 232.749,249.239 L 244.303,249.239 L 239.362,250.245 L 248.267,253.871z"/>
    <path style="fill: #ffffff" d="M 231.434 246.59 L 235.408,247.904 L 244.96,243.96 L 249.263,245.285 L 246.952,241.978 L 235.737,241.978 L 240.349,242.954 L 231.434,246.59z"/>
    <path style="fill: #ffffff" d="M 229.781 250.245 L 225.807,248.91 L 216.564,252.875 L 211.952,251.55 L 214.263,255.185 L 225.807,255.185 L 220.866,253.871 L 229.781,250.245z"/>
    <path style="fill: #ffffff" d="M 212.948 242.954 L 216.902,241.649 L 226.474,245.285 L 230.767,244.289 L 228.466,247.586 L 217.221,247.586 L 221.852,246.59 L 212.948,242.954z"/>
    <path style="fill: #ffffff" d="M 248.596 254.189 L 244.641,255.524 L 235.408,251.55 L 230.767,252.875 L 233.078,249.578 L 244.641,249.578 L 239.711,250.574 L 248.596,254.189z"/>
    <path style="fill: none; fill-opacity:0; stroke-width: 0.02; stroke: #aae6ff" d="M 203.366 248.253 L 203.366,287.895"/>
    <path style="fill: none; fill-opacity:0; stroke-width: 0.02; stroke: #aae6ff" d="M 257.53 248.253 L 257.53,287.895"/>
    <path style="fill: #000000" d="M 215.587 258.821 L 215.587,263.124 L 225.149,263.124 L 230.109,272.048 L 235.408,263.124 L 244.96,263.124 L 244.96,258.821 L 250.916,264.1 L 244.96,269.389 L 244.96,265.763 L 238.038,265.763 L 232.42,275.674 L 238.038,285.913 L 244.96,285.913 L 244.96,282.277 L 250.916,287.247 L 244.96,292.526 L 244.96,288.562 L 235.408,288.562 L 230.109,279.319 L 225.149,288.891 L 215.587,288.891 L 215.587,292.526 L 209.641,287.247 L 215.587,282.277 L 215.587,285.913 L 222.181,285.913 L 228.137,275.674 L 222.181,265.763 L 215.587,265.763 L 215.587,269.07 L 209.641,264.1 L 215.587,258.821z"/>
    <path style="fill: #ffffff" d="M 215.916 259.159 L 215.916,263.462 L 225.488,263.462 L 230.448,272.367 L 235.737,263.462 L 245.289,263.462 L 245.289,259.159 L 251.245,264.438 L 245.289,269.737 L 245.289,266.092 L 238.376,266.092 L 232.749,276.012 L 238.376,286.241 L 245.289,286.241 L 245.289,282.606 L 251.245,287.556 L 245.289,292.855 L 245.289,288.891 L 235.737,288.891 L 230.448,279.638 L 225.488,289.229 L 215.916,289.229 L 215.916,292.855 L 209.97,287.556 L 215.916,282.606 L 215.916,286.241 L 222.53,286.241 L 228.466,276.012 L 222.53,266.092 L 215.916,266.092 L 215.916,269.389 L 209.97,264.438 L 215.916,259.159z"/>
  </g>
  <g>
    <rect style="fill: #ffffff" x="370" y="243" width="100" height="55"/>
    <rect style="fill: none; fill-opacity:0; stroke-width: 2; stroke: #000000" x="370" y="243" width="100" height="55"/>
  </g>
  <text style="fill: #000000;text-anchor:start;font-size:12.7998;font-family:sanserif;font-style:normal;font-weight:normal" x="406" y="274.5">
    <tspan x="406" y="274.5">PCE</tspan>
  </text>
  <g>
    <line style="fill: none; fill-opacity:0; stroke-width: 2; stroke: #000000" x1="260" y1="254" x2="364.528" y2="254"/>
    <polyline style="fill: none; fill-opacity:0; stroke-width: 2; stroke: #000000" points="356.764,259 366.764,254 356.764,249 "/>
  </g>
  <g>
    <line style="fill: none; fill-opacity:0; stroke-width: 2; stroke: #000000" x1="367" y1="281" x2="261.472" y2="280.041"/>
    <polyline style="fill: none; fill-opacity:0; stroke-width: 2; stroke: #000000" points="269.281,275.111 259.236,280.02 269.19,285.111 "/>
  </g>
  <text style="fill: #000000;text-anchor:start;font-size:12.7998;font-family:sanserif;font-style:normal;font-weight:normal" x="270" y="247">
    <tspan x="270" y="247">PCC Request</tspan>
  </text>
  <text style="fill: #000000;text-anchor:start;font-size:12.7998;font-family:sanserif;font-style:normal;font-weight:normal" x="279" y="276">
    <tspan x="279" y="276">PCE Reply</tspan>
  </text>
  <text style="fill: #000000;text-anchor:start;font-size:12.7998;font-family:sanserif;font-style:normal;font-weight:normal" x="212" y="230">
    <tspan x="212" y="230">LSR A</tspan>
  </text>
</svg>
