<?xml version="1.0" encoding="UTF-8" standalone="no"?>
<!DOCTYPE svg PUBLIC "-//W3C//DTD SVG 1.0//EN" "http://www.w3.org/TR/2001/PR-SVG-20010719/DTD/svg10.dtd">
<svg width="20cm" height="14cm" viewBox="93 142 397 278" xmlns="http://www.w3.org/2000/svg" xmlns:xlink="http://www.w3.org/1999/xlink">
  <g>
    <path style="fill: #0078aa" d="M 172.975 206.973 L 172.941,206.572 L 172.856,206.163 L 172.711,205.754 L 172.498,205.362 L 172.234,204.953 L 171.91,204.57 L 171.535,204.177 L 171.083,203.803 L 170.598,203.436 L 170.052,203.078 L 169.447,202.712 L 168.799,202.379 L 168.1,202.047 L 167.359,201.732 L 166.558,201.433 L 165.731,201.144 L 164.853,200.871 L 163.933,200.615 L 162.987,200.368 L 161.998,200.146 L 160.984,199.942 L 159.927,199.754 L 158.854,199.567 L 157.763,199.413 L 156.646,199.294 L 155.513,199.183 L 154.354,199.09 L 153.203,199.021 L 152.036,198.97 L 150.843,198.928 L 149.667,198.928 L 149.667,198.928 L 148.49,198.928 L 147.306,198.97 L 146.138,199.021 L 144.979,199.09 L 143.829,199.183 L 142.695,199.294 L 141.57,199.413 L 140.479,199.567 L 139.406,199.754 L 138.357,199.942 L 137.335,200.146 L 136.346,200.368 L 135.4,200.615 L 134.48,200.871 L 133.61,201.144 L 132.775,201.433 L 131.983,201.732 L 131.233,202.047 L 130.534,202.379 L 129.886,202.712 L 129.281,203.078 L 128.735,203.436 L 128.25,203.803 L 127.807,204.177 L 127.432,204.57 L 127.108,204.953 L 126.835,205.362 L 126.63,205.754 L 126.477,206.163 L 126.392,206.572 L 126.366,206.973 L 126.366,206.973 L 126.392,207.39 L 126.477,207.8 L 126.63,208.2 L 126.835,208.601 L 127.108,209.001 L 127.432,209.393 L 127.807,209.777 L 128.25,210.16 L 128.735,210.527 L 129.281,210.885 L 129.886,211.234 L 130.534,211.583 L 131.233,211.916 L 131.983,212.223 L 132.775,212.521 L 133.61,212.819 L 134.48,213.092 L 135.4,213.348 L 136.346,213.578 L 137.335,213.816 L 138.357,214.012 L 139.406,214.208 L 140.479,214.379 L 141.57,214.532 L 142.695,214.652 L 143.829,214.779 L 144.979,214.856 L 146.138,214.933 L 147.306,214.992 L 148.49,215.018 L 149.667,215.027 L 149.667,215.027 L 150.843,215.018 L 152.036,214.992 L 153.203,214.933 L 154.354,214.856 L 155.513,214.779 L 156.646,214.652 L 157.763,214.532 L 158.854,214.379 L 159.927,214.208 L 160.984,214.012 L 161.998,213.816 L 162.987,213.578 L 163.933,213.348 L 164.853,213.092 L 165.731,212.819 L 166.558,212.521 L 167.359,212.223 L 168.1,211.916 L 168.799,211.583 L 169.447,211.234 L 170.052,210.885 L 170.598,210.527 L 171.083,210.16 L 171.535,209.777 L 171.91,209.393 L 172.234,209.001 L 172.498,208.601 L 172.711,208.2 L 172.856,207.8 L 172.941,207.39 L 172.975,206.973z"/>
    <path style="fill: none; fill-opacity:0; stroke-width: 0.02; stroke: #aae6ff" d="M 172.711 206.845 L 172.668,206.444 L 172.6,206.044 L 172.438,205.643 L 172.234,205.26 L 171.961,204.851 L 171.646,204.467 L 171.271,204.101 L 170.828,203.726 L 170.333,203.351 L 169.796,203.001 L 169.2,202.661 L 168.552,202.328 L 167.862,201.996 L 167.12,201.689 L 166.328,201.382 L 165.493,201.109 L 164.623,200.837 L 163.711,200.581 L 162.774,200.351 L 161.794,200.112 L 160.771,199.925 L 159.74,199.729 L 158.675,199.567 L 157.592,199.405 L 156.484,199.286 L 155.342,199.183 L 154.209,199.09 L 153.05,199.021 L 151.891,198.97 L 150.706,198.928 L 149.539,198.928 L 149.539,198.928 L 148.363,198.928 L 147.187,198.97 L 146.019,199.021 L 144.868,199.09 L 143.726,199.183 L 142.593,199.286 L 141.485,199.405 L 140.386,199.567 L 139.32,199.729 L 138.298,199.925 L 137.275,200.112 L 136.303,200.351 L 135.366,200.581 L 134.454,200.837 L 133.576,201.109 L 132.75,201.382 L 131.957,201.689 L 131.216,201.996 L 130.517,202.328 L 129.877,202.661 L 129.281,203.001 L 128.735,203.351 L 128.241,203.726 L 127.807,204.101 L 127.432,204.467 L 127.108,204.851 L 126.835,205.26 L 126.63,205.643 L 126.486,206.044 L 126.4,206.444 L 126.392,206.538"/>
    <path style="fill: none; fill-opacity:0; stroke-width: 0.02; stroke: #aae6ff" d="M 126.392 207.143 L 126.4,207.246 L 126.486,207.646 L 126.63,208.038 L 126.835,208.439 L 127.108,208.831 L 127.432,209.214 L 127.807,209.589 L 128.241,209.956 L 128.735,210.322 L 129.281,210.697 L 129.877,211.021 L 130.517,211.37 L 131.216,211.694 L 131.957,212.01 L 132.75,212.299 L 133.576,212.589 L 134.454,212.853 L 135.366,213.1 L 136.303,213.339 L 137.275,213.569 L 138.298,213.765 L 139.32,213.953 L 140.386,214.115 L 141.485,214.268 L 142.593,214.387 L 143.726,214.507 L 144.868,214.592 L 146.019,214.652 L 147.187,214.72 L 148.363,214.754 L 149.539,214.754 L 149.539,214.754 L 150.706,214.754 L 151.891,214.72 L 153.05,214.652 L 154.209,214.592 L 155.342,214.507 L 156.484,214.387 L 157.592,214.268 L 158.675,214.115 L 159.74,213.953 L 160.771,213.765 L 161.794,213.569 L 162.774,213.339 L 163.711,213.1 L 164.623,212.853 L 165.493,212.589 L 166.328,212.299 L 167.12,212.01 L 167.862,211.694 L 168.552,211.37 L 169.2,211.021 L 169.796,210.697 L 170.333,210.322 L 170.828,209.956 L 171.271,209.589 L 171.646,209.214 L 171.961,208.831 L 172.234,208.439 L 172.438,208.038 L 172.6,207.646 L 172.668,207.246 L 172.711,206.845"/>
    <path style="fill: #0078aa" d="M 126.366 173.199 L 126.366,207.126 L 172.711,207.126 L 172.711,173.199 L 126.366,173.199z"/>
    <path style="fill: #00b4ff" d="M 172.975 173.045 L 172.941,172.645 L 172.856,172.236 L 172.711,171.826 L 172.498,171.434 L 172.234,171.025 L 171.91,170.642 L 171.535,170.258 L 171.083,169.875 L 170.598,169.508 L 170.052,169.15 L 169.447,168.784 L 168.799,168.452 L 168.1,168.119 L 167.359,167.812 L 166.558,167.497 L 165.731,167.216 L 164.853,166.943 L 163.933,166.687 L 162.987,166.44 L 161.998,166.219 L 160.984,166.006 L 159.927,165.827 L 158.854,165.639 L 157.763,165.503 L 156.646,165.366 L 155.513,165.256 L 154.354,165.162 L 153.203,165.102 L 152.036,165.043 L 150.843,165 L 149.667,165 L 149.667,165 L 148.49,165 L 147.306,165.043 L 146.138,165.102 L 144.979,165.162 L 143.829,165.256 L 142.695,165.366 L 141.57,165.503 L 140.479,165.639 L 139.406,165.827 L 138.357,166.006 L 137.335,166.219 L 136.346,166.44 L 135.4,166.687 L 134.48,166.943 L 133.61,167.216 L 132.775,167.497 L 131.983,167.812 L 131.233,168.119 L 130.534,168.452 L 129.886,168.784 L 129.281,169.15 L 128.735,169.508 L 128.25,169.875 L 127.807,170.258 L 127.432,170.642 L 127.108,171.025 L 126.835,171.434 L 126.63,171.826 L 126.477,172.236 L 126.392,172.645 L 126.366,173.045 L 126.366,173.045 L 126.392,173.463 L 126.477,173.872 L 126.63,174.264 L 126.835,174.673 L 127.108,175.065 L 127.432,175.466 L 127.807,175.858 L 128.25,176.233 L 128.735,176.599 L 129.281,176.957 L 129.886,177.306 L 130.534,177.656 L 131.233,177.988 L 131.983,178.303 L 132.775,178.593 L 133.61,178.892 L 134.48,179.164 L 135.4,179.42 L 136.346,179.659 L 137.335,179.889 L 138.357,180.085 L 139.406,180.281 L 140.479,180.451 L 141.57,180.605 L 142.695,180.741 L 143.829,180.852 L 144.979,180.928 L 146.138,181.014 L 147.306,181.065 L 148.49,181.09 L 149.667,181.107 L 149.667,181.107 L 150.843,181.09 L 152.036,181.065 L 153.203,181.014 L 154.354,180.928 L 155.513,180.852 L 156.646,180.741 L 157.763,180.605 L 158.854,180.451 L 159.927,180.281 L 160.984,180.085 L 161.998,179.889 L 162.987,179.659 L 163.933,179.42 L 164.853,179.164 L 165.731,178.892 L 166.558,178.593 L 167.359,178.303 L 168.1,177.988 L 168.799,177.656 L 169.447,177.306 L 170.052,176.957 L 170.598,176.599 L 171.083,176.233 L 171.535,175.858 L 171.91,175.466 L 172.234,175.065 L 172.498,174.673 L 172.711,174.264 L 172.856,173.872 L 172.941,173.463 L 172.975,173.045z"/>
    <path style="fill: none; fill-opacity:0; stroke-width: 0.02; stroke: #aae6ff" d="M 172.711 172.917 L 172.668,172.508 L 172.6,172.116 L 172.438,171.716 L 172.234,171.332 L 171.961,170.923 L 171.646,170.54 L 171.271,170.165 L 170.828,169.79 L 170.333,169.432 L 169.796,169.074 L 169.2,168.724 L 168.552,168.4 L 167.862,168.068 L 167.12,167.761 L 166.328,167.446 L 165.493,167.182 L 164.623,166.909 L 163.711,166.653 L 162.774,166.423 L 161.794,166.193 L 160.771,165.997 L 159.74,165.801 L 158.675,165.639 L 157.592,165.486 L 156.484,165.366 L 155.342,165.256 L 154.209,165.153 L 153.05,165.102 L 151.891,165.043 L 150.706,165 L 149.539,165"/>
    <path style="fill: none; fill-opacity:0; stroke-width: 0.02; stroke: #aae6ff" d="M 149.539 165 L 148.363,165 L 147.187,165.043 L 146.019,165.102 L 144.868,165.153 L 143.726,165.256 L 142.593,165.366 L 141.485,165.486 L 140.386,165.639 L 139.32,165.801 L 138.298,165.997 L 137.275,166.193 L 136.303,166.423 L 135.366,166.653 L 134.454,166.909 L 133.576,167.182 L 132.75,167.446 L 131.957,167.761 L 131.216,168.068 L 130.517,168.4 L 129.877,168.724 L 129.281,169.074 L 128.735,169.432 L 128.241,169.79 L 127.807,170.165 L 127.432,170.54 L 127.108,170.923 L 126.835,171.332 L 126.63,171.716 L 126.486,172.116 L 126.4,172.508 L 126.392,172.611"/>
    <path style="fill: none; fill-opacity:0; stroke-width: 0.02; stroke: #aae6ff" d="M 126.392 173.224 L 126.4,173.318 L 126.486,173.718 L 126.63,174.102 L 126.835,174.511 L 127.108,174.903 L 127.432,175.287 L 127.807,175.662 L 128.241,176.028 L 128.735,176.394 L 129.281,176.769 L 129.877,177.093 L 130.517,177.443 L 131.216,177.767 L 131.957,178.082 L 132.75,178.372 L 133.576,178.661 L 134.454,178.926 L 135.366,179.173 L 136.303,179.411 L 137.275,179.641 L 138.298,179.846 L 139.32,180.016 L 140.386,180.187 L 141.485,180.34 L 142.593,180.477 L 143.726,180.579 L 144.868,180.664 L 146.019,180.741 L 147.187,180.792 L 148.363,180.818 L 149.539,180.826 L 149.539,180.826 L 150.706,180.818 L 151.891,180.792 L 153.05,180.741 L 154.209,180.664 L 155.342,180.579 L 156.484,180.477 L 157.592,180.34 L 158.675,180.187 L 159.74,180.016 L 160.771,179.846 L 161.794,179.641 L 162.774,179.411 L 163.711,179.173 L 164.623,178.926 L 165.493,178.661 L 166.328,178.372 L 167.12,178.082 L 167.862,177.767 L 168.552,177.443 L 169.2,177.093 L 169.796,176.769 L 170.333,176.394 L 170.828,176.028 L 171.271,175.662 L 171.646,175.287 L 171.961,174.903 L 172.234,174.511 L 172.438,174.102 L 172.6,173.718 L 172.668,173.318 L 172.711,172.917"/>
    <path style="fill: #000000" d="M 150.101 171.221 L 153.493,172.346 L 161.683,168.946 L 165.356,170.088 L 163.371,167.267 L 153.783,167.267 L 157.729,168.111 L 150.101,171.221z"/>
    <path style="fill: #000000" d="M 148.678 174.324 L 145.295,173.199 L 137.386,176.599 L 133.44,175.448 L 135.417,178.576 L 145.295,178.576 L 141.067,177.443 L 148.678,174.324z"/>
    <path style="fill: #000000" d="M 134.284 168.111 L 137.658,166.969 L 145.857,170.088 L 149.539,169.244 L 147.561,172.065 L 137.948,172.065 L 141.894,171.221 L 134.284,168.111z"/>
    <path style="fill: #000000" d="M 164.785 177.724 L 161.393,178.849 L 153.493,175.448 L 149.539,176.599 L 151.507,173.761 L 161.393,173.761 L 157.166,174.622 L 164.785,177.724z"/>
    <path style="fill: #ffffff" d="M 150.382 171.494 L 153.783,172.619 L 161.956,169.244 L 165.638,170.378 L 163.66,167.548 L 154.064,167.548 L 158.01,168.383 L 150.382,171.494z"/>
    <path style="fill: #ffffff" d="M 148.968 174.622 L 145.567,173.48 L 137.658,176.872 L 133.713,175.738 L 135.69,178.849 L 145.567,178.849 L 141.34,177.724 L 148.968,174.622z"/>
    <path style="fill: #ffffff" d="M 134.565 168.383 L 137.948,167.267 L 146.138,170.378 L 149.811,169.525 L 147.843,172.346 L 138.221,172.346 L 142.184,171.494 L 134.565,168.383z"/>
    <path style="fill: #ffffff" d="M 165.067 177.997 L 161.683,179.139 L 153.783,175.738 L 149.811,176.872 L 151.789,174.051 L 161.683,174.051 L 157.465,174.903 L 165.067,177.997z"/>
    <path style="fill: none; fill-opacity:0; stroke-width: 0.02; stroke: #aae6ff" d="M 126.366 172.917 L 126.366,206.836"/>
    <path style="fill: none; fill-opacity:0; stroke-width: 0.02; stroke: #aae6ff" d="M 172.711 172.917 L 172.711,206.836"/>
    <path style="fill: #000000" d="M 136.823 181.96 L 136.823,185.641 L 145.005,185.641 L 149.249,193.277 L 153.783,185.641 L 161.956,185.641 L 161.956,181.96 L 167.052,186.476 L 161.956,191.002 L 161.956,187.9 L 156.033,187.9 L 151.226,196.379 L 156.033,205.141 L 161.956,205.141 L 161.956,202.03 L 167.052,206.283 L 161.956,210.799 L 161.956,207.407 L 153.783,207.407 L 149.249,199.499 L 145.005,207.689 L 136.823,207.689 L 136.823,210.799 L 131.735,206.283 L 136.823,202.03 L 136.823,205.141 L 142.465,205.141 L 147.561,196.379 L 142.465,187.9 L 136.823,187.9 L 136.823,190.729 L 131.735,186.476 L 136.823,181.96z"/>
    <path style="fill: #ffffff" d="M 137.104 182.249 L 137.104,185.931 L 145.295,185.931 L 149.539,193.55 L 154.064,185.931 L 162.237,185.931 L 162.237,182.249 L 167.333,186.766 L 162.237,191.3 L 162.237,188.181 L 156.323,188.181 L 151.507,196.669 L 156.323,205.422 L 162.237,205.422 L 162.237,202.311 L 167.333,206.547 L 162.237,211.081 L 162.237,207.689 L 154.064,207.689 L 149.539,199.771 L 145.295,207.978 L 137.104,207.978 L 137.104,211.081 L 132.017,206.547 L 137.104,202.311 L 137.104,205.422 L 142.763,205.422 L 147.843,196.669 L 142.763,188.181 L 137.104,188.181 L 137.104,191.002 L 132.017,186.766 L 137.104,182.249z"/>
  </g>
  <g>
    <path style="fill: #0078aa" d="M 486.219 207.183 L 486.185,206.782 L 486.1,206.373 L 485.955,205.964 L 485.742,205.572 L 485.478,205.163 L 485.154,204.78 L 484.779,204.387 L 484.327,204.013 L 483.841,203.646 L 483.296,203.288 L 482.691,202.922 L 482.043,202.589 L 481.344,202.257 L 480.603,201.942 L 479.802,201.643 L 478.975,201.354 L 478.097,201.081 L 477.177,200.825 L 476.231,200.578 L 475.242,200.356 L 474.228,200.152 L 473.171,199.964 L 472.097,199.777 L 471.007,199.623 L 469.89,199.504 L 468.757,199.393 L 467.598,199.3 L 466.447,199.231 L 465.279,199.18 L 464.086,199.138 L 462.91,199.138 L 462.91,199.138 L 461.734,199.138 L 460.55,199.18 L 459.382,199.231 L 458.223,199.3 L 457.072,199.393 L 455.939,199.504 L 454.814,199.623 L 453.723,199.777 L 452.649,199.964 L 451.601,200.152 L 450.578,200.356 L 449.59,200.578 L 448.644,200.825 L 447.723,201.081 L 446.854,201.354 L 446.019,201.643 L 445.226,201.942 L 444.476,202.257 L 443.777,202.589 L 443.13,202.922 L 442.525,203.288 L 441.979,203.646 L 441.493,204.013 L 441.05,204.387 L 440.675,204.78 L 440.351,205.163 L 440.079,205.572 L 439.874,205.964 L 439.721,206.373 L 439.636,206.782 L 439.61,207.183 L 439.61,207.183 L 439.636,207.6 L 439.721,208.01 L 439.874,208.41 L 440.079,208.811 L 440.351,209.211 L 440.675,209.603 L 441.05,209.987 L 441.493,210.37 L 441.979,210.737 L 442.525,211.095 L 443.13,211.444 L 443.777,211.793 L 444.476,212.126 L 445.226,212.433 L 446.019,212.731 L 446.854,213.029 L 447.723,213.302 L 448.644,213.558 L 449.59,213.788 L 450.578,214.026 L 451.601,214.222 L 452.649,214.418 L 453.723,214.589 L 454.814,214.742 L 455.939,214.862 L 457.072,214.989 L 458.223,215.066 L 459.382,215.143 L 460.55,215.202 L 461.734,215.228 L 462.91,215.237 L 462.91,215.237 L 464.086,215.228 L 465.279,215.202 L 466.447,215.143 L 467.598,215.066 L 468.757,214.989 L 469.89,214.862 L 471.007,214.742 L 472.097,214.589 L 473.171,214.418 L 474.228,214.222 L 475.242,214.026 L 476.231,213.788 L 477.177,213.558 L 478.097,213.302 L 478.975,213.029 L 479.802,212.731 L 480.603,212.433 L 481.344,212.126 L 482.043,211.793 L 482.691,211.444 L 483.296,211.095 L 483.841,210.737 L 484.327,210.37 L 484.779,209.987 L 485.154,209.603 L 485.478,209.211 L 485.742,208.811 L 485.955,208.41 L 486.1,208.01 L 486.185,207.6 L 486.219,207.183z"/>
    <path style="fill: none; fill-opacity:0; stroke-width: 0.02; stroke: #aae6ff" d="M 485.955 207.055 L 485.912,206.654 L 485.844,206.254 L 485.682,205.853 L 485.478,205.47 L 485.205,205.061 L 484.89,204.677 L 484.515,204.311 L 484.071,203.936 L 483.577,203.561 L 483.04,203.211 L 482.444,202.871 L 481.796,202.538 L 481.106,202.206 L 480.364,201.899 L 479.572,201.592 L 478.736,201.319 L 477.867,201.047 L 476.955,200.791 L 476.018,200.561 L 475.038,200.322 L 474.015,200.135 L 472.984,199.939 L 471.918,199.777 L 470.836,199.615 L 469.728,199.496 L 468.586,199.393 L 467.453,199.3 L 466.294,199.231 L 465.135,199.18 L 463.95,199.138 L 462.782,199.138 L 462.782,199.138 L 461.606,199.138 L 460.43,199.18 L 459.263,199.231 L 458.112,199.3 L 456.97,199.393 L 455.837,199.496 L 454.729,199.615 L 453.629,199.777 L 452.564,199.939 L 451.541,200.135 L 450.519,200.322 L 449.547,200.561 L 448.61,200.791 L 447.698,201.047 L 446.82,201.319 L 445.993,201.592 L 445.201,201.899 L 444.459,202.206 L 443.76,202.538 L 443.121,202.871 L 442.525,203.211 L 441.979,203.561 L 441.485,203.936 L 441.05,204.311 L 440.675,204.677 L 440.351,205.061 L 440.079,205.47 L 439.874,205.853 L 439.729,206.254 L 439.644,206.654 L 439.636,206.748"/>
    <path style="fill: none; fill-opacity:0; stroke-width: 0.02; stroke: #aae6ff" d="M 439.636 207.353 L 439.644,207.456 L 439.729,207.856 L 439.874,208.248 L 440.079,208.649 L 440.351,209.041 L 440.675,209.424 L 441.05,209.799 L 441.485,210.166 L 441.979,210.532 L 442.525,210.907 L 443.121,211.231 L 443.76,211.58 L 444.459,211.904 L 445.201,212.22 L 445.993,212.509 L 446.82,212.799 L 447.698,213.063 L 448.61,213.31 L 449.547,213.549 L 450.519,213.779 L 451.541,213.975 L 452.564,214.163 L 453.629,214.325 L 454.729,214.478 L 455.837,214.597 L 456.97,214.717 L 458.112,214.802 L 459.263,214.862 L 460.43,214.93 L 461.606,214.964 L 462.782,214.964 L 462.782,214.964 L 463.95,214.964 L 465.135,214.93 L 466.294,214.862 L 467.453,214.802 L 468.586,214.717 L 469.728,214.597 L 470.836,214.478 L 471.918,214.325 L 472.984,214.163 L 474.015,213.975 L 475.038,213.779 L 476.018,213.549 L 476.955,213.31 L 477.867,213.063 L 478.736,212.799 L 479.572,212.509 L 480.364,212.22 L 481.106,211.904 L 481.796,211.58 L 482.444,211.231 L 483.04,210.907 L 483.577,210.532 L 484.071,210.166 L 484.515,209.799 L 484.89,209.424 L 485.205,209.041 L 485.478,208.649 L 485.682,208.248 L 485.844,207.856 L 485.912,207.456 L 485.955,207.055"/>
    <path style="fill: #0078aa" d="M 439.61 173.409 L 439.61,207.336 L 485.955,207.336 L 485.955,173.409 L 439.61,173.409z"/>
    <path style="fill: #00b4ff" d="M 486.219 173.255 L 486.185,172.855 L 486.1,172.446 L 485.955,172.036 L 485.742,171.644 L 485.478,171.235 L 485.154,170.852 L 484.779,170.468 L 484.327,170.085 L 483.841,169.718 L 483.296,169.36 L 482.691,168.994 L 482.043,168.662 L 481.344,168.329 L 480.603,168.022 L 479.802,167.707 L 478.975,167.426 L 478.097,167.153 L 477.177,166.897 L 476.231,166.65 L 475.242,166.429 L 474.228,166.216 L 473.171,166.037 L 472.097,165.849 L 471.007,165.713 L 469.89,165.576 L 468.757,165.466 L 467.598,165.372 L 466.447,165.312 L 465.279,165.253 L 464.086,165.21 L 462.91,165.21 L 462.91,165.21 L 461.734,165.21 L 460.55,165.253 L 459.382,165.312 L 458.223,165.372 L 457.072,165.466 L 455.939,165.576 L 454.814,165.713 L 453.723,165.849 L 452.649,166.037 L 451.601,166.216 L 450.578,166.429 L 449.59,166.65 L 448.644,166.897 L 447.723,167.153 L 446.854,167.426 L 446.019,167.707 L 445.226,168.022 L 444.476,168.329 L 443.777,168.662 L 443.13,168.994 L 442.525,169.36 L 441.979,169.718 L 441.493,170.085 L 441.05,170.468 L 440.675,170.852 L 440.351,171.235 L 440.079,171.644 L 439.874,172.036 L 439.721,172.446 L 439.636,172.855 L 439.61,173.255 L 439.61,173.255 L 439.636,173.673 L 439.721,174.082 L 439.874,174.474 L 440.079,174.883 L 440.351,175.275 L 440.675,175.676 L 441.05,176.068 L 441.493,176.443 L 441.979,176.809 L 442.525,177.167 L 443.13,177.516 L 443.777,177.866 L 444.476,178.198 L 445.226,178.513 L 446.019,178.803 L 446.854,179.102 L 447.723,179.374 L 448.644,179.63 L 449.59,179.869 L 450.578,180.099 L 451.601,180.295 L 452.649,180.491 L 453.723,180.661 L 454.814,180.815 L 455.939,180.951 L 457.072,181.062 L 458.223,181.138 L 459.382,181.224 L 460.55,181.275 L 461.734,181.3 L 462.91,181.317 L 462.91,181.317 L 464.086,181.3 L 465.279,181.275 L 466.447,181.224 L 467.598,181.138 L 468.757,181.062 L 469.89,180.951 L 471.007,180.815 L 472.097,180.661 L 473.171,180.491 L 474.228,180.295 L 475.242,180.099 L 476.231,179.869 L 477.177,179.63 L 478.097,179.374 L 478.975,179.102 L 479.802,178.803 L 480.603,178.513 L 481.344,178.198 L 482.043,177.866 L 482.691,177.516 L 483.296,177.167 L 483.841,176.809 L 484.327,176.443 L 484.779,176.068 L 485.154,175.676 L 485.478,175.275 L 485.742,174.883 L 485.955,174.474 L 486.1,174.082 L 486.185,173.673 L 486.219,173.255z"/>
    <path style="fill: none; fill-opacity:0; stroke-width: 0.02; stroke: #aae6ff" d="M 485.955 173.127 L 485.912,172.718 L 485.844,172.326 L 485.682,171.926 L 485.478,171.542 L 485.205,171.133 L 484.89,170.75 L 484.515,170.375 L 484.071,170 L 483.577,169.642 L 483.04,169.284 L 482.444,168.934 L 481.796,168.61 L 481.106,168.278 L 480.364,167.971 L 479.572,167.656 L 478.736,167.392 L 477.867,167.119 L 476.955,166.863 L 476.018,166.633 L 475.038,166.403 L 474.015,166.207 L 472.984,166.011 L 471.918,165.849 L 470.836,165.696 L 469.728,165.576 L 468.586,165.466 L 467.453,165.363 L 466.294,165.312 L 465.135,165.253 L 463.95,165.21 L 462.782,165.21"/>
    <path style="fill: none; fill-opacity:0; stroke-width: 0.02; stroke: #aae6ff" d="M 462.782 165.21 L 461.606,165.21 L 460.43,165.253 L 459.263,165.312 L 458.112,165.363 L 456.97,165.466 L 455.837,165.576 L 454.729,165.696 L 453.629,165.849 L 452.564,166.011 L 451.541,166.207 L 450.519,166.403 L 449.547,166.633 L 448.61,166.863 L 447.698,167.119 L 446.82,167.392 L 445.993,167.656 L 445.201,167.971 L 444.459,168.278 L 443.76,168.61 L 443.121,168.934 L 442.525,169.284 L 441.979,169.642 L 441.485,170 L 441.05,170.375 L 440.675,170.75 L 440.351,171.133 L 440.079,171.542 L 439.874,171.926 L 439.729,172.326 L 439.644,172.718 L 439.636,172.821"/>
    <path style="fill: none; fill-opacity:0; stroke-width: 0.02; stroke: #aae6ff" d="M 439.636 173.434 L 439.644,173.528 L 439.729,173.928 L 439.874,174.312 L 440.079,174.721 L 440.351,175.113 L 440.675,175.497 L 441.05,175.872 L 441.485,176.238 L 441.979,176.604 L 442.525,176.979 L 443.121,177.303 L 443.76,177.653 L 444.459,177.977 L 445.201,178.292 L 445.993,178.582 L 446.82,178.871 L 447.698,179.136 L 448.61,179.383 L 449.547,179.621 L 450.519,179.851 L 451.541,180.056 L 452.564,180.226 L 453.629,180.397 L 454.729,180.55 L 455.837,180.687 L 456.97,180.789 L 458.112,180.874 L 459.263,180.951 L 460.43,181.002 L 461.606,181.028 L 462.782,181.036 L 462.782,181.036 L 463.95,181.028 L 465.135,181.002 L 466.294,180.951 L 467.453,180.874 L 468.586,180.789 L 469.728,180.687 L 470.836,180.55 L 471.918,180.397 L 472.984,180.226 L 474.015,180.056 L 475.038,179.851 L 476.018,179.621 L 476.955,179.383 L 477.867,179.136 L 478.736,178.871 L 479.572,178.582 L 480.364,178.292 L 481.106,177.977 L 481.796,177.653 L 482.444,177.303 L 483.04,176.979 L 483.577,176.604 L 484.071,176.238 L 484.515,175.872 L 484.89,175.497 L 485.205,175.113 L 485.478,174.721 L 485.682,174.312 L 485.844,173.928 L 485.912,173.528 L 485.955,173.127"/>
    <path style="fill: #000000" d="M 463.345 171.431 L 466.737,172.556 L 474.927,169.156 L 478.6,170.298 L 476.614,167.477 L 467.027,167.477 L 470.972,168.321 L 463.345,171.431z"/>
    <path style="fill: #000000" d="M 461.922 174.534 L 458.538,173.409 L 450.629,176.809 L 446.684,175.658 L 448.661,178.786 L 458.538,178.786 L 454.311,177.653 L 461.922,174.534z"/>
    <path style="fill: #000000" d="M 447.527 168.321 L 450.902,167.179 L 459.101,170.298 L 462.782,169.454 L 460.805,172.275 L 451.192,172.275 L 455.138,171.431 L 447.527,168.321z"/>
    <path style="fill: #000000" d="M 478.029 177.934 L 474.637,179.059 L 466.737,175.658 L 462.782,176.809 L 464.751,173.971 L 474.637,173.971 L 470.41,174.832 L 478.029,177.934z"/>
    <path style="fill: #ffffff" d="M 463.626 171.704 L 467.027,172.829 L 475.2,169.454 L 478.881,170.588 L 476.904,167.758 L 467.308,167.758 L 471.254,168.593 L 463.626,171.704z"/>
    <path style="fill: #ffffff" d="M 462.211 174.832 L 458.811,173.69 L 450.902,177.082 L 446.956,175.948 L 448.934,179.059 L 458.811,179.059 L 454.584,177.934 L 462.211,174.832z"/>
    <path style="fill: #ffffff" d="M 447.809 168.593 L 451.192,167.477 L 459.382,170.588 L 463.055,169.735 L 461.086,172.556 L 451.465,172.556 L 455.428,171.704 L 447.809,168.593z"/>
    <path style="fill: #ffffff" d="M 478.31 178.207 L 474.927,179.349 L 467.027,175.948 L 463.055,177.082 L 465.032,174.261 L 474.927,174.261 L 470.708,175.113 L 478.31,178.207z"/>
    <path style="fill: none; fill-opacity:0; stroke-width: 0.02; stroke: #aae6ff" d="M 439.61 173.127 L 439.61,207.046"/>
    <path style="fill: none; fill-opacity:0; stroke-width: 0.02; stroke: #aae6ff" d="M 485.955 173.127 L 485.955,207.046"/>
    <path style="fill: #000000" d="M 450.067 182.17 L 450.067,185.851 L 458.248,185.851 L 462.493,193.487 L 467.027,185.851 L 475.2,185.851 L 475.2,182.17 L 480.296,186.686 L 475.2,191.212 L 475.2,188.11 L 469.276,188.11 L 464.47,196.589 L 469.276,205.351 L 475.2,205.351 L 475.2,202.24 L 480.296,206.493 L 475.2,211.009 L 475.2,207.617 L 467.027,207.617 L 462.493,199.709 L 458.248,207.899 L 450.067,207.899 L 450.067,211.009 L 444.979,206.493 L 450.067,202.24 L 450.067,205.351 L 455.709,205.351 L 460.805,196.589 L 455.709,188.11 L 450.067,188.11 L 450.067,190.939 L 444.979,186.686 L 450.067,182.17z"/>
    <path style="fill: #ffffff" d="M 450.348 182.459 L 450.348,186.141 L 458.538,186.141 L 462.782,193.76 L 467.308,186.141 L 475.481,186.141 L 475.481,182.459 L 480.577,186.976 L 475.481,191.51 L 475.481,188.391 L 469.566,188.391 L 464.751,196.879 L 469.566,205.632 L 475.481,205.632 L 475.481,202.521 L 480.577,206.757 L 475.481,211.291 L 475.481,207.899 L 467.308,207.899 L 462.782,199.981 L 458.538,208.188 L 450.348,208.188 L 450.348,211.291 L 445.26,206.757 L 450.348,202.521 L 450.348,205.632 L 456.007,205.632 L 461.086,196.879 L 456.007,188.391 L 450.348,188.391 L 450.348,191.212 L 445.26,186.976 L 450.348,182.459z"/>
  </g>
  <g>
    <path style="fill: #0078aa" d="M 328.819 207.383 L 328.785,206.982 L 328.7,206.573 L 328.555,206.164 L 328.342,205.772 L 328.078,205.363 L 327.754,204.98 L 327.379,204.587 L 326.927,204.213 L 326.441,203.846 L 325.896,203.488 L 325.291,203.122 L 324.643,202.789 L 323.944,202.457 L 323.203,202.142 L 322.402,201.843 L 321.575,201.554 L 320.697,201.281 L 319.777,201.025 L 318.831,200.778 L 317.842,200.556 L 316.828,200.352 L 315.771,200.164 L 314.697,199.977 L 313.607,199.823 L 312.49,199.704 L 311.357,199.593 L 310.198,199.5 L 309.047,199.431 L 307.879,199.38 L 306.686,199.338 L 305.51,199.338 L 305.51,199.338 L 304.334,199.338 L 303.15,199.38 L 301.982,199.431 L 300.823,199.5 L 299.672,199.593 L 298.539,199.704 L 297.414,199.823 L 296.323,199.977 L 295.249,200.164 L 294.201,200.352 L 293.178,200.556 L 292.19,200.778 L 291.244,201.025 L 290.323,201.281 L 289.454,201.554 L 288.619,201.843 L 287.826,202.142 L 287.076,202.457 L 286.377,202.789 L 285.73,203.122 L 285.125,203.488 L 284.579,203.846 L 284.093,204.213 L 283.65,204.587 L 283.275,204.98 L 282.951,205.363 L 282.679,205.772 L 282.474,206.164 L 282.321,206.573 L 282.236,206.982 L 282.21,207.383 L 282.21,207.383 L 282.236,207.8 L 282.321,208.21 L 282.474,208.61 L 282.679,209.011 L 282.951,209.411 L 283.275,209.803 L 283.65,210.187 L 284.093,210.57 L 284.579,210.937 L 285.125,211.295 L 285.73,211.644 L 286.377,211.993 L 287.076,212.326 L 287.826,212.633 L 288.619,212.931 L 289.454,213.229 L 290.323,213.502 L 291.244,213.758 L 292.19,213.988 L 293.178,214.226 L 294.201,214.422 L 295.249,214.618 L 296.323,214.789 L 297.414,214.942 L 298.539,215.062 L 299.672,215.189 L 300.823,215.266 L 301.982,215.343 L 303.15,215.402 L 304.334,215.428 L 305.51,215.437 L 305.51,215.437 L 306.686,215.428 L 307.879,215.402 L 309.047,215.343 L 310.198,215.266 L 311.357,215.189 L 312.49,215.062 L 313.607,214.942 L 314.697,214.789 L 315.771,214.618 L 316.828,214.422 L 317.842,214.226 L 318.831,213.988 L 319.777,213.758 L 320.697,213.502 L 321.575,213.229 L 322.402,212.931 L 323.203,212.633 L 323.944,212.326 L 324.643,211.993 L 325.291,211.644 L 325.896,211.295 L 326.441,210.937 L 326.927,210.57 L 327.379,210.187 L 327.754,209.803 L 328.078,209.411 L 328.342,209.011 L 328.555,208.61 L 328.7,208.21 L 328.785,207.8 L 328.819,207.383z"/>
    <path style="fill: none; fill-opacity:0; stroke-width: 0.02; stroke: #aae6ff" d="M 328.555 207.255 L 328.512,206.854 L 328.444,206.454 L 328.282,206.053 L 328.078,205.67 L 327.805,205.261 L 327.49,204.877 L 327.115,204.511 L 326.671,204.136 L 326.177,203.761 L 325.64,203.411 L 325.044,203.071 L 324.396,202.738 L 323.706,202.406 L 322.964,202.099 L 322.172,201.792 L 321.336,201.519 L 320.467,201.247 L 319.555,200.991 L 318.618,200.761 L 317.638,200.522 L 316.615,200.335 L 315.584,200.139 L 314.518,199.977 L 313.436,199.815 L 312.328,199.696 L 311.186,199.593 L 310.053,199.5 L 308.894,199.431 L 307.735,199.38 L 306.55,199.338 L 305.382,199.338 L 305.382,199.338 L 304.206,199.338 L 303.03,199.38 L 301.863,199.431 L 300.712,199.5 L 299.57,199.593 L 298.437,199.696 L 297.329,199.815 L 296.229,199.977 L 295.164,200.139 L 294.141,200.335 L 293.119,200.522 L 292.147,200.761 L 291.21,200.991 L 290.298,201.247 L 289.42,201.519 L 288.593,201.792 L 287.801,202.099 L 287.059,202.406 L 286.36,202.738 L 285.721,203.071 L 285.125,203.411 L 284.579,203.761 L 284.085,204.136 L 283.65,204.511 L 283.275,204.877 L 282.951,205.261 L 282.679,205.67 L 282.474,206.053 L 282.329,206.454 L 282.244,206.854 L 282.236,206.948"/>
    <path style="fill: none; fill-opacity:0; stroke-width: 0.02; stroke: #aae6ff" d="M 282.236 207.553 L 282.244,207.656 L 282.329,208.056 L 282.474,208.448 L 282.679,208.849 L 282.951,209.241 L 283.275,209.624 L 283.65,209.999 L 284.085,210.366 L 284.579,210.732 L 285.125,211.107 L 285.721,211.431 L 286.36,211.78 L 287.059,212.104 L 287.801,212.42 L 288.593,212.709 L 289.42,212.999 L 290.298,213.263 L 291.21,213.51 L 292.147,213.749 L 293.119,213.979 L 294.141,214.175 L 295.164,214.363 L 296.229,214.525 L 297.329,214.678 L 298.437,214.797 L 299.57,214.917 L 300.712,215.002 L 301.863,215.062 L 303.03,215.13 L 304.206,215.164 L 305.382,215.164 L 305.382,215.164 L 306.55,215.164 L 307.735,215.13 L 308.894,215.062 L 310.053,215.002 L 311.186,214.917 L 312.328,214.797 L 313.436,214.678 L 314.518,214.525 L 315.584,214.363 L 316.615,214.175 L 317.638,213.979 L 318.618,213.749 L 319.555,213.51 L 320.467,213.263 L 321.336,212.999 L 322.172,212.709 L 322.964,212.42 L 323.706,212.104 L 324.396,211.78 L 325.044,211.431 L 325.64,211.107 L 326.177,210.732 L 326.671,210.366 L 327.115,209.999 L 327.49,209.624 L 327.805,209.241 L 328.078,208.849 L 328.282,208.448 L 328.444,208.056 L 328.512,207.656 L 328.555,207.255"/>
    <path style="fill: #0078aa" d="M 282.21 173.609 L 282.21,207.536 L 328.555,207.536 L 328.555,173.609 L 282.21,173.609z"/>
    <path style="fill: #00b4ff" d="M 328.819 173.455 L 328.785,173.055 L 328.7,172.646 L 328.555,172.236 L 328.342,171.844 L 328.078,171.435 L 327.754,171.052 L 327.379,170.668 L 326.927,170.285 L 326.441,169.918 L 325.896,169.56 L 325.291,169.194 L 324.643,168.862 L 323.944,168.529 L 323.203,168.222 L 322.402,167.907 L 321.575,167.626 L 320.697,167.353 L 319.777,167.097 L 318.831,166.85 L 317.842,166.629 L 316.828,166.416 L 315.771,166.237 L 314.697,166.049 L 313.607,165.913 L 312.49,165.776 L 311.357,165.666 L 310.198,165.572 L 309.047,165.512 L 307.879,165.453 L 306.686,165.41 L 305.51,165.41 L 305.51,165.41 L 304.334,165.41 L 303.15,165.453 L 301.982,165.512 L 300.823,165.572 L 299.672,165.666 L 298.539,165.776 L 297.414,165.913 L 296.323,166.049 L 295.249,166.237 L 294.201,166.416 L 293.178,166.629 L 292.19,166.85 L 291.244,167.097 L 290.323,167.353 L 289.454,167.626 L 288.619,167.907 L 287.826,168.222 L 287.076,168.529 L 286.377,168.862 L 285.73,169.194 L 285.125,169.56 L 284.579,169.918 L 284.093,170.285 L 283.65,170.668 L 283.275,171.052 L 282.951,171.435 L 282.679,171.844 L 282.474,172.236 L 282.321,172.646 L 282.236,173.055 L 282.21,173.455 L 282.21,173.455 L 282.236,173.873 L 282.321,174.282 L 282.474,174.674 L 282.679,175.083 L 282.951,175.475 L 283.275,175.876 L 283.65,176.268 L 284.093,176.643 L 284.579,177.009 L 285.125,177.367 L 285.73,177.716 L 286.377,178.066 L 287.076,178.398 L 287.826,178.713 L 288.619,179.003 L 289.454,179.302 L 290.323,179.574 L 291.244,179.83 L 292.19,180.069 L 293.178,180.299 L 294.201,180.495 L 295.249,180.691 L 296.323,180.861 L 297.414,181.015 L 298.539,181.151 L 299.672,181.262 L 300.823,181.338 L 301.982,181.424 L 303.15,181.475 L 304.334,181.5 L 305.51,181.517 L 305.51,181.517 L 306.686,181.5 L 307.879,181.475 L 309.047,181.424 L 310.198,181.338 L 311.357,181.262 L 312.49,181.151 L 313.607,181.015 L 314.697,180.861 L 315.771,180.691 L 316.828,180.495 L 317.842,180.299 L 318.831,180.069 L 319.777,179.83 L 320.697,179.574 L 321.575,179.302 L 322.402,179.003 L 323.203,178.713 L 323.944,178.398 L 324.643,178.066 L 325.291,177.716 L 325.896,177.367 L 326.441,177.009 L 326.927,176.643 L 327.379,176.268 L 327.754,175.876 L 328.078,175.475 L 328.342,175.083 L 328.555,174.674 L 328.7,174.282 L 328.785,173.873 L 328.819,173.455z"/>
    <path style="fill: none; fill-opacity:0; stroke-width: 0.02; stroke: #aae6ff" d="M 328.555 173.327 L 328.512,172.918 L 328.444,172.526 L 328.282,172.126 L 328.078,171.742 L 327.805,171.333 L 327.49,170.95 L 327.115,170.575 L 326.671,170.2 L 326.177,169.842 L 325.64,169.484 L 325.044,169.134 L 324.396,168.81 L 323.706,168.478 L 322.964,168.171 L 322.172,167.856 L 321.336,167.592 L 320.467,167.319 L 319.555,167.063 L 318.618,166.833 L 317.638,166.603 L 316.615,166.407 L 315.584,166.211 L 314.518,166.049 L 313.436,165.896 L 312.328,165.776 L 311.186,165.666 L 310.053,165.563 L 308.894,165.512 L 307.735,165.453 L 306.55,165.41 L 305.382,165.41"/>
    <path style="fill: none; fill-opacity:0; stroke-width: 0.02; stroke: #aae6ff" d="M 305.382 165.41 L 304.206,165.41 L 303.03,165.453 L 301.863,165.512 L 300.712,165.563 L 299.57,165.666 L 298.437,165.776 L 297.329,165.896 L 296.229,166.049 L 295.164,166.211 L 294.141,166.407 L 293.119,166.603 L 292.147,166.833 L 291.21,167.063 L 290.298,167.319 L 289.42,167.592 L 288.593,167.856 L 287.801,168.171 L 287.059,168.478 L 286.36,168.81 L 285.721,169.134 L 285.125,169.484 L 284.579,169.842 L 284.085,170.2 L 283.65,170.575 L 283.275,170.95 L 282.951,171.333 L 282.679,171.742 L 282.474,172.126 L 282.329,172.526 L 282.244,172.918 L 282.236,173.021"/>
    <path style="fill: none; fill-opacity:0; stroke-width: 0.02; stroke: #aae6ff" d="M 282.236 173.634 L 282.244,173.728 L 282.329,174.128 L 282.474,174.512 L 282.679,174.921 L 282.951,175.313 L 283.275,175.697 L 283.65,176.072 L 284.085,176.438 L 284.579,176.804 L 285.125,177.179 L 285.721,177.503 L 286.36,177.853 L 287.059,178.177 L 287.801,178.492 L 288.593,178.782 L 289.42,179.071 L 290.298,179.336 L 291.21,179.583 L 292.147,179.821 L 293.119,180.051 L 294.141,180.256 L 295.164,180.426 L 296.229,180.597 L 297.329,180.75 L 298.437,180.887 L 299.57,180.989 L 300.712,181.074 L 301.863,181.151 L 303.03,181.202 L 304.206,181.228 L 305.382,181.236 L 305.382,181.236 L 306.55,181.228 L 307.735,181.202 L 308.894,181.151 L 310.053,181.074 L 311.186,180.989 L 312.328,180.887 L 313.436,180.75 L 314.518,180.597 L 315.584,180.426 L 316.615,180.256 L 317.638,180.051 L 318.618,179.821 L 319.555,179.583 L 320.467,179.336 L 321.336,179.071 L 322.172,178.782 L 322.964,178.492 L 323.706,178.177 L 324.396,177.853 L 325.044,177.503 L 325.64,177.179 L 326.177,176.804 L 326.671,176.438 L 327.115,176.072 L 327.49,175.697 L 327.805,175.313 L 328.078,174.921 L 328.282,174.512 L 328.444,174.128 L 328.512,173.728 L 328.555,173.327"/>
    <path style="fill: #000000" d="M 305.945 171.631 L 309.337,172.756 L 317.527,169.356 L 321.2,170.498 L 319.214,167.677 L 309.627,167.677 L 313.572,168.521 L 305.945,171.631z"/>
    <path style="fill: #000000" d="M 304.522 174.734 L 301.138,173.609 L 293.229,177.009 L 289.284,175.858 L 291.261,178.986 L 301.138,178.986 L 296.911,177.853 L 304.522,174.734z"/>
    <path style="fill: #000000" d="M 290.127 168.521 L 293.502,167.379 L 301.701,170.498 L 305.382,169.654 L 303.405,172.475 L 293.792,172.475 L 297.738,171.631 L 290.127,168.521z"/>
    <path style="fill: #000000" d="M 320.629 178.134 L 317.237,179.259 L 309.337,175.858 L 305.382,177.009 L 307.351,174.171 L 317.237,174.171 L 313.01,175.032 L 320.629,178.134z"/>
    <path style="fill: #ffffff" d="M 306.226 171.904 L 309.627,173.029 L 317.8,169.654 L 321.481,170.788 L 319.504,167.958 L 309.908,167.958 L 313.854,168.793 L 306.226,171.904z"/>
    <path style="fill: #ffffff" d="M 304.811 175.032 L 301.411,173.89 L 293.502,177.282 L 289.556,176.148 L 291.534,179.259 L 301.411,179.259 L 297.184,178.134 L 304.811,175.032z"/>
    <path style="fill: #ffffff" d="M 290.409 168.793 L 293.792,167.677 L 301.982,170.788 L 305.655,169.935 L 303.686,172.756 L 294.065,172.756 L 298.028,171.904 L 290.409,168.793z"/>
    <path style="fill: #ffffff" d="M 320.91 178.407 L 317.527,179.549 L 309.627,176.148 L 305.655,177.282 L 307.632,174.461 L 317.527,174.461 L 313.308,175.313 L 320.91,178.407z"/>
    <path style="fill: none; fill-opacity:0; stroke-width: 0.02; stroke: #aae6ff" d="M 282.21 173.327 L 282.21,207.246"/>
    <path style="fill: none; fill-opacity:0; stroke-width: 0.02; stroke: #aae6ff" d="M 328.555 173.327 L 328.555,207.246"/>
    <path style="fill: #000000" d="M 292.667 182.37 L 292.667,186.051 L 300.848,186.051 L 305.093,193.687 L 309.627,186.051 L 317.8,186.051 L 317.8,182.37 L 322.896,186.886 L 317.8,191.412 L 317.8,188.31 L 311.876,188.31 L 307.07,196.789 L 311.876,205.551 L 317.8,205.551 L 317.8,202.44 L 322.896,206.693 L 317.8,211.209 L 317.8,207.817 L 309.627,207.817 L 305.093,199.909 L 300.848,208.099 L 292.667,208.099 L 292.667,211.209 L 287.579,206.693 L 292.667,202.44 L 292.667,205.551 L 298.309,205.551 L 303.405,196.789 L 298.309,188.31 L 292.667,188.31 L 292.667,191.139 L 287.579,186.886 L 292.667,182.37z"/>
    <path style="fill: #ffffff" d="M 292.948 182.659 L 292.948,186.341 L 301.138,186.341 L 305.382,193.96 L 309.908,186.341 L 318.081,186.341 L 318.081,182.659 L 323.177,187.176 L 318.081,191.71 L 318.081,188.591 L 312.166,188.591 L 307.351,197.079 L 312.166,205.832 L 318.081,205.832 L 318.081,202.721 L 323.177,206.957 L 318.081,211.491 L 318.081,208.099 L 309.908,208.099 L 305.382,200.181 L 301.138,208.388 L 292.948,208.388 L 292.948,211.491 L 287.86,206.957 L 292.948,202.721 L 292.948,205.832 L 298.607,205.832 L 303.686,197.079 L 298.607,188.591 L 292.948,188.591 L 292.948,191.412 L 287.86,187.176 L 292.948,182.659z"/>
  </g>
  <text style="fill: #000000;text-anchor:start;font-size:12.8;font-family:sanserif;font-style:normal;font-weight:700" x="131" y="156">
    <tspan x="131" y="156">LSR A</tspan>
  </text>
  <text style="fill: #000000;text-anchor:start;font-size:12.8;font-family:sanserif;font-style:normal;font-weight:700" x="287.6" y="155.1">
    <tspan x="287.6" y="155.1">LSR B</tspan>
  </text>
  <text style="fill: #000000;text-anchor:start;font-size:12.8;font-family:sanserif;font-style:normal;font-weight:700" x="443.2" y="154.3">
    <tspan x="443.2" y="154.3">LSR C</tspan>
    <tspan x="443.2" y="170.3"></tspan>
  </text>
  <line style="fill: none; fill-opacity:0; stroke-width: 2; stroke: #000000" x1="151" y1="220" x2="151" y2="418"/>
  <line style="fill: none; fill-opacity:0; stroke-width: 2; stroke: #000000" x1="307" y1="221" x2="307" y2="419"/>
  <line style="fill: none; fill-opacity:0; stroke-width: 2; stroke: #000000" x1="461" y1="220" x2="462" y2="416"/>
  <g>
    <rect style="fill: #ffffff" x="103.6" y="236.2" width="97.5" height="14.95"/>
    <text style="fill: #000000;text-anchor:start;font-size:12.7998;font-family:sanserif;font-style:normal;font-weight:normal" x="103.6" y="248.1">
      <tspan x="103.6" y="248.1">upstream state</tspan>
    </text>
  </g>
  <g>
    <rect style="fill: #ffffff" x="93.6" y="391.2" width="115.8" height="14.95"/>
    <text style="fill: #000000;text-anchor:start;font-size:12.7998;font-family:sanserif;font-style:normal;font-weight:normal" x="93.6" y="403.1">
      <tspan x="93.6" y="403.1">downstream state</tspan>
    </text>
  </g>
  <g>
    <rect style="fill: #ffffff" x="250.2" y="350.4" width="115.8" height="14.95"/>
    <text style="fill: #000000;text-anchor:start;font-size:12.7998;font-family:sanserif;font-style:normal;font-weight:normal" x="250.2" y="362.3">
      <tspan x="250.2" y="362.3">downstream state</tspan>
    </text>
  </g>
  <g>
    <line style="fill: none; fill-opacity:0; stroke-width: 2; stroke: #000000" x1="150" y1="260" x2="297.264" y2="259.062"/>
    <polygon style="fill: #000000" points="304.764,259.014 294.796,264.078 297.264,259.062 294.732,254.078 "/>
    <polygon style="fill: none; fill-opacity:0; stroke-width: 2; stroke: #000000" points="304.764,259.014 294.796,264.078 297.264,259.062 294.732,254.078 "/>
  </g>
  <g>
    <rect style="fill: #ffffff" x="211" y="253.1" width="38.65" height="14.95"/>
    <text style="fill: #000000;text-anchor:start;font-size:12.8;font-family:sanserif;font-style:italic;font-weight:normal" x="211" y="265">
      <tspan x="211" y="265">[Path]</tspan>
    </text>
  </g>
  <g>
    <line style="fill: none; fill-opacity:0; stroke-width: 2; stroke: #000000" x1="305.606" y1="299.358" x2="452.87" y2="298.42"/>
    <polygon style="fill: #000000" points="460.37,298.372 450.402,303.436 452.87,298.42 450.339,293.436 "/>
    <polygon style="fill: none; fill-opacity:0; stroke-width: 2; stroke: #000000" points="460.37,298.372 450.402,303.436 452.87,298.42 450.339,293.436 "/>
  </g>
  <g>
    <rect style="fill: #ffffff" x="365.606" y="292.458" width="38.65" height="14.95"/>
    <text style="fill: #000000;text-anchor:start;font-size:12.8;font-family:sanserif;font-style:italic;font-weight:normal" x="365.606" y="304.358">
      <tspan x="365.606" y="304.358">[Path]</tspan>
    </text>
  </g>
  <g>
    <rect style="fill: #ffffff" x="257.6" y="271.2" width="97.5" height="14.95"/>
    <text style="fill: #000000;text-anchor:start;font-size:12.7998;font-family:sanserif;font-style:normal;font-weight:normal" x="257.6" y="283.1">
      <tspan x="257.6" y="283.1">upstream state</tspan>
    </text>
  </g>
  <g>
    <line style="fill: none; fill-opacity:0; stroke-width: 2; stroke: #000000" x1="462" y1="338" x2="316.736" y2="338.937"/>
    <polygon style="fill: #000000" points="309.236,338.986 319.204,333.921 316.736,338.937 319.268,343.921 "/>
    <polygon style="fill: none; fill-opacity:0; stroke-width: 2; stroke: #000000" points="309.236,338.986 319.204,333.921 316.736,338.937 319.268,343.921 "/>
  </g>
  <g>
    <rect style="fill: #ffffff" x="364.6" y="332.2" width="41.05" height="14.95"/>
    <text style="fill: #000000;text-anchor:start;font-size:12.8;font-family:sanserif;font-style:italic;font-weight:normal" x="364.6" y="344.1">
      <tspan x="364.6" y="344.1">[Resv]</tspan>
    </text>
  </g>
  <g>
    <line style="fill: none; fill-opacity:0; stroke-width: 2; stroke: #000000" x1="305.836" y1="378.515" x2="160.572" y2="379.452"/>
    <polygon style="fill: #000000" points="153.072,379.5 163.04,374.436 160.572,379.452 163.104,384.436 "/>
    <polygon style="fill: none; fill-opacity:0; stroke-width: 2; stroke: #000000" points="153.072,379.5 163.04,374.436 160.572,379.452 163.104,384.436 "/>
  </g>
  <g>
    <rect style="fill: #ffffff" x="208.436" y="372.715" width="41.05" height="14.95"/>
    <text style="fill: #000000;text-anchor:start;font-size:12.8;font-family:sanserif;font-style:italic;font-weight:normal" x="208.436" y="384.615">
      <tspan x="208.436" y="384.615">[Resv]</tspan>
    </text>
  </g>
  <g>
    <rect style="fill: #ffffff" x="431.6" y="312.2" width="58.05" height="14.95"/>
    <text style="fill: #000000;text-anchor:start;font-size:12.7998;font-family:sanserif;font-style:normal;font-weight:normal" x="431.6" y="324.1">
      <tspan x="431.6" y="324.1">all states</tspan>
    </text>
  </g>
</svg>
