<?xml version="1.0" encoding="UTF-8" standalone="no"?>
<!DOCTYPE svg PUBLIC "-//W3C//DTD SVG 1.0//EN" "http://www.w3.org/TR/2001/PR-SVG-20010719/DTD/svg10.dtd">
<svg width="20cm" height="14cm" viewBox="57 62 396 278" xmlns="http://www.w3.org/2000/svg" xmlns:xlink="http://www.w3.org/1999/xlink">
  <g>
    <path style="fill: #0078aa" d="M 119.075 126.773 L 119.041,126.372 L 118.956,125.963 L 118.811,125.554 L 118.598,125.162 L 118.334,124.753 L 118.01,124.37 L 117.635,123.977 L 117.183,123.603 L 116.698,123.236 L 116.152,122.878 L 115.547,122.512 L 114.899,122.179 L 114.2,121.847 L 113.459,121.532 L 112.658,121.233 L 111.831,120.944 L 110.953,120.671 L 110.033,120.415 L 109.087,120.168 L 108.098,119.946 L 107.084,119.742 L 106.027,119.554 L 104.954,119.367 L 103.863,119.213 L 102.746,119.094 L 101.613,118.983 L 100.454,118.89 L 99.3033,118.821 L 98.1358,118.77 L 96.9426,118.728 L 95.7665,118.728 L 95.7665,118.728 L 94.5904,118.728 L 93.4058,118.77 L 92.2382,118.821 L 91.0792,118.89 L 89.9287,118.983 L 88.7952,119.094 L 87.6702,119.213 L 86.5794,119.367 L 85.5055,119.554 L 84.4573,119.742 L 83.4346,119.946 L 82.446,120.168 L 81.5,120.415 L 80.5796,120.671 L 79.7103,120.944 L 78.8751,121.233 L 78.0825,121.532 L 77.3326,121.847 L 76.6337,122.179 L 75.986,122.512 L 75.3809,122.878 L 74.8355,123.236 L 74.3497,123.603 L 73.9066,123.977 L 73.5316,124.37 L 73.2077,124.753 L 72.935,125.162 L 72.7305,125.554 L 72.5771,125.963 L 72.4918,126.372 L 72.4663,126.773 L 72.4663,126.773 L 72.4918,127.19 L 72.5771,127.6 L 72.7305,128 L 72.935,128.401 L 73.2077,128.801 L 73.5316,129.193 L 73.9066,129.577 L 74.3497,129.96 L 74.8355,130.327 L 75.3809,130.685 L 75.986,131.034 L 76.6337,131.383 L 77.3326,131.716 L 78.0825,132.023 L 78.8751,132.321 L 79.7103,132.619 L 80.5796,132.892 L 81.5,133.148 L 82.446,133.378 L 83.4346,133.616 L 84.4573,133.812 L 85.5055,134.008 L 86.5794,134.179 L 87.6702,134.332 L 88.7952,134.452 L 89.9287,134.579 L 91.0792,134.656 L 92.2382,134.733 L 93.4058,134.792 L 94.5904,134.818 L 95.7665,134.827 L 95.7665,134.827 L 96.9426,134.818 L 98.1358,134.792 L 99.3033,134.733 L 100.454,134.656 L 101.613,134.579 L 102.746,134.452 L 103.863,134.332 L 104.954,134.179 L 106.027,134.008 L 107.084,133.812 L 108.098,133.616 L 109.087,133.378 L 110.033,133.148 L 110.953,132.892 L 111.831,132.619 L 112.658,132.321 L 113.459,132.023 L 114.2,131.716 L 114.899,131.383 L 115.547,131.034 L 116.152,130.685 L 116.698,130.327 L 117.183,129.96 L 117.635,129.577 L 118.01,129.193 L 118.334,128.801 L 118.598,128.401 L 118.811,128 L 118.956,127.6 L 119.041,127.19 L 119.075,126.773z"/>
    <path style="fill: none; fill-opacity:0; stroke-width: 0.02; stroke: #aae6ff" d="M 118.811 126.645 L 118.768,126.244 L 118.7,125.844 L 118.538,125.443 L 118.334,125.06 L 118.061,124.651 L 117.746,124.267 L 117.371,123.901 L 116.928,123.526 L 116.433,123.151 L 115.896,122.801 L 115.3,122.461 L 114.652,122.128 L 113.962,121.796 L 113.22,121.489 L 112.428,121.182 L 111.593,120.909 L 110.723,120.637 L 109.811,120.381 L 108.874,120.151 L 107.894,119.912 L 106.871,119.725 L 105.84,119.529 L 104.775,119.367 L 103.692,119.205 L 102.584,119.086 L 101.442,118.983 L 100.309,118.89 L 99.1499,118.821 L 97.9909,118.77 L 96.8063,118.728 L 95.6387,118.728 L 95.6387,118.728 L 94.4626,118.728 L 93.2865,118.77 L 92.1189,118.821 L 90.9684,118.89 L 89.8264,118.983 L 88.6929,119.086 L 87.585,119.205 L 86.4856,119.367 L 85.4203,119.529 L 84.3976,119.725 L 83.3749,119.912 L 82.4034,120.151 L 81.4659,120.381 L 80.554,120.637 L 79.6762,120.909 L 78.8495,121.182 L 78.057,121.489 L 77.3155,121.796 L 76.6167,122.128 L 75.9775,122.461 L 75.3809,122.801 L 74.8355,123.151 L 74.3412,123.526 L 73.9066,123.901 L 73.5316,124.267 L 73.2077,124.651 L 72.935,125.06 L 72.7305,125.443 L 72.5856,125.844 L 72.5004,126.244 L 72.4918,126.338"/>
    <path style="fill: none; fill-opacity:0; stroke-width: 0.02; stroke: #aae6ff" d="M 72.4918 126.943 L 72.5004,127.046 L 72.5856,127.446 L 72.7305,127.838 L 72.935,128.239 L 73.2077,128.631 L 73.5316,129.014 L 73.9066,129.389 L 74.3412,129.756 L 74.8355,130.122 L 75.3809,130.497 L 75.9775,130.821 L 76.6167,131.17 L 77.3155,131.494 L 78.057,131.81 L 78.8495,132.099 L 79.6762,132.389 L 80.554,132.653 L 81.4659,132.9 L 82.4034,133.139 L 83.3749,133.369 L 84.3976,133.565 L 85.4203,133.753 L 86.4856,133.915 L 87.585,134.068 L 88.6929,134.187 L 89.8264,134.307 L 90.9684,134.392 L 92.1189,134.452 L 93.2865,134.52 L 94.4626,134.554 L 95.6387,134.554 L 95.6387,134.554 L 96.8063,134.554 L 97.9909,134.52 L 99.1499,134.452 L 100.309,134.392 L 101.442,134.307 L 102.584,134.187 L 103.692,134.068 L 104.775,133.915 L 105.84,133.753 L 106.871,133.565 L 107.894,133.369 L 108.874,133.139 L 109.811,132.9 L 110.723,132.653 L 111.593,132.389 L 112.428,132.099 L 113.22,131.81 L 113.962,131.494 L 114.652,131.17 L 115.3,130.821 L 115.896,130.497 L 116.433,130.122 L 116.928,129.756 L 117.371,129.389 L 117.746,129.014 L 118.061,128.631 L 118.334,128.239 L 118.538,127.838 L 118.7,127.446 L 118.768,127.046 L 118.811,126.645"/>
    <path style="fill: #0078aa" d="M 72.4663 92.9986 L 72.4663,126.926 L 118.811,126.926 L 118.811,92.9986 L 72.4663,92.9986z"/>
    <path style="fill: #00b4ff" d="M 119.075 92.8451 L 119.041,92.4446 L 118.956,92.0355 L 118.811,91.6264 L 118.598,91.2344 L 118.334,90.8253 L 118.01,90.4418 L 117.635,90.0583 L 117.183,89.6748 L 116.698,89.3084 L 116.152,88.9504 L 115.547,88.5839 L 114.899,88.2516 L 114.2,87.9192 L 113.459,87.6124 L 112.658,87.2971 L 111.831,87.0158 L 110.953,86.7431 L 110.033,86.4874 L 109.087,86.2403 L 108.098,86.0187 L 107.084,85.8056 L 106.027,85.6267 L 104.954,85.4392 L 103.863,85.3028 L 102.746,85.1665 L 101.613,85.0557 L 100.454,84.9619 L 99.3033,84.9023 L 98.1358,84.8426 L 96.9426,84.8 L 95.7665,84.8 L 95.7665,84.8 L 94.5904,84.8 L 93.4058,84.8426 L 92.2382,84.9023 L 91.0792,84.9619 L 89.9287,85.0557 L 88.7952,85.1665 L 87.6702,85.3028 L 86.5794,85.4392 L 85.5055,85.6267 L 84.4573,85.8056 L 83.4346,86.0187 L 82.446,86.2403 L 81.5,86.4874 L 80.5796,86.7431 L 79.7103,87.0158 L 78.8751,87.2971 L 78.0825,87.6124 L 77.3326,87.9192 L 76.6337,88.2516 L 75.986,88.5839 L 75.3809,88.9504 L 74.8355,89.3084 L 74.3497,89.6748 L 73.9066,90.0583 L 73.5316,90.4418 L 73.2077,90.8253 L 72.935,91.2344 L 72.7305,91.6264 L 72.5771,92.0355 L 72.4918,92.4446 L 72.4663,92.8451 L 72.4663,92.8451 L 72.4918,93.2627 L 72.5771,93.6718 L 72.7305,94.0639 L 72.935,94.4729 L 73.2077,94.865 L 73.5316,95.2655 L 73.9066,95.6575 L 74.3497,96.0325 L 74.8355,96.399 L 75.3809,96.7569 L 75.986,97.1064 L 76.6337,97.4558 L 77.3326,97.7881 L 78.0825,98.1035 L 78.8751,98.3932 L 79.7103,98.6915 L 80.5796,98.9642 L 81.5,99.2199 L 82.446,99.4585 L 83.4346,99.6886 L 84.4573,99.8847 L 85.5055,100.081 L 86.5794,100.251 L 87.6702,100.405 L 88.7952,100.541 L 89.9287,100.652 L 91.0792,100.728 L 92.2382,100.814 L 93.4058,100.865 L 94.5904,100.89 L 95.7665,100.907 L 95.7665,100.907 L 96.9426,100.89 L 98.1358,100.865 L 99.3033,100.814 L 100.454,100.728 L 101.613,100.652 L 102.746,100.541 L 103.863,100.405 L 104.954,100.251 L 106.027,100.081 L 107.084,99.8847 L 108.098,99.6886 L 109.087,99.4585 L 110.033,99.2199 L 110.953,98.9642 L 111.831,98.6915 L 112.658,98.3932 L 113.459,98.1035 L 114.2,97.7881 L 114.899,97.4558 L 115.547,97.1064 L 116.152,96.7569 L 116.698,96.399 L 117.183,96.0325 L 117.635,95.6575 L 118.01,95.2655 L 118.334,94.865 L 118.598,94.4729 L 118.811,94.0639 L 118.956,93.6718 L 119.041,93.2627 L 119.075,92.8451z"/>
    <path style="fill: none; fill-opacity:0; stroke-width: 0.02; stroke: #aae6ff" d="M 118.811 92.7173 L 118.768,92.3082 L 118.7,91.9162 L 118.538,91.5157 L 118.334,91.1321 L 118.061,90.7231 L 117.746,90.3396 L 117.371,89.9646 L 116.928,89.5896 L 116.433,89.2317 L 115.896,88.8737 L 115.3,88.5243 L 114.652,88.2004 L 113.962,87.8681 L 113.22,87.5613 L 112.428,87.2459 L 111.593,86.9817 L 110.723,86.709 L 109.811,86.4533 L 108.874,86.2232 L 107.894,85.9931 L 106.871,85.7971 L 105.84,85.6011 L 104.775,85.4392 L 103.692,85.2858 L 102.584,85.1665 L 101.442,85.0557 L 100.309,84.9534 L 99.1499,84.9023 L 97.9909,84.8426 L 96.8063,84.8 L 95.6387,84.8"/>
    <path style="fill: none; fill-opacity:0; stroke-width: 0.02; stroke: #aae6ff" d="M 95.6387 84.8 L 94.4626,84.8 L 93.2865,84.8426 L 92.1189,84.9023 L 90.9684,84.9534 L 89.8264,85.0557 L 88.6929,85.1665 L 87.585,85.2858 L 86.4856,85.4392 L 85.4203,85.6011 L 84.3976,85.7971 L 83.3749,85.9931 L 82.4034,86.2232 L 81.4659,86.4533 L 80.554,86.709 L 79.6762,86.9817 L 78.8495,87.2459 L 78.057,87.5613 L 77.3155,87.8681 L 76.6167,88.2004 L 75.9775,88.5243 L 75.3809,88.8737 L 74.8355,89.2317 L 74.3412,89.5896 L 73.9066,89.9646 L 73.5316,90.3396 L 73.2077,90.7231 L 72.935,91.1321 L 72.7305,91.5157 L 72.5856,91.9162 L 72.5004,92.3082 L 72.4918,92.4105"/>
    <path style="fill: none; fill-opacity:0; stroke-width: 0.02; stroke: #aae6ff" d="M 72.4918 93.0241 L 72.5004,93.1179 L 72.5856,93.5184 L 72.7305,93.9019 L 72.935,94.311 L 73.2077,94.703 L 73.5316,95.0865 L 73.9066,95.4615 L 74.3412,95.828 L 74.8355,96.1945 L 75.3809,96.5694 L 75.9775,96.8933 L 76.6167,97.2427 L 77.3155,97.5666 L 78.057,97.8819 L 78.8495,98.1717 L 79.6762,98.4614 L 80.554,98.7256 L 81.4659,98.9728 L 82.4034,99.2114 L 83.3749,99.4415 L 84.3976,99.646 L 85.4203,99.8165 L 86.4856,99.9869 L 87.585,100.14 L 88.6929,100.277 L 89.8264,100.379 L 90.9684,100.464 L 92.1189,100.541 L 93.2865,100.592 L 94.4626,100.618 L 95.6387,100.626 L 95.6387,100.626 L 96.8063,100.618 L 97.9909,100.592 L 99.1499,100.541 L 100.309,100.464 L 101.442,100.379 L 102.584,100.277 L 103.692,100.14 L 104.775,99.9869 L 105.84,99.8165 L 106.871,99.646 L 107.894,99.4415 L 108.874,99.2114 L 109.811,98.9728 L 110.723,98.7256 L 111.593,98.4614 L 112.428,98.1717 L 113.22,97.8819 L 113.962,97.5666 L 114.652,97.2427 L 115.3,96.8933 L 115.896,96.5694 L 116.433,96.1945 L 116.928,95.828 L 117.371,95.4615 L 117.746,95.0865 L 118.061,94.703 L 118.334,94.311 L 118.538,93.9019 L 118.7,93.5184 L 118.768,93.1179 L 118.811,92.7173"/>
    <path style="fill: #000000" d="M 96.2012 91.0214 L 99.5931,92.1463 L 107.783,88.7459 L 111.456,89.8879 L 109.471,87.067 L 99.8828,87.067 L 103.829,87.9107 L 96.2012,91.0214z"/>
    <path style="fill: #000000" d="M 94.7779 94.1235 L 91.3945,92.9986 L 83.4857,96.399 L 79.5399,95.2485 L 81.5171,98.3762 L 91.3945,98.3762 L 87.1674,97.2427 L 94.7779,94.1235z"/>
    <path style="fill: #000000" d="M 80.3836 87.9107 L 83.7585,86.7687 L 91.957,89.8879 L 95.6387,89.0442 L 93.6615,91.8651 L 84.0482,91.8651 L 87.9941,91.0214 L 80.3836,87.9107z"/>
    <path style="fill: #000000" d="M 110.885 97.5239 L 107.493,98.6489 L 99.5931,95.2485 L 95.6387,96.399 L 97.6074,93.561 L 107.493,93.561 L 103.266,94.4218 L 110.885,97.5239z"/>
    <path style="fill: #ffffff" d="M 96.4824 91.2941 L 99.8828,92.419 L 108.056,89.0442 L 111.738,90.1776 L 109.76,87.3482 L 100.164,87.3482 L 104.11,88.1834 L 96.4824,91.2941z"/>
    <path style="fill: #ffffff" d="M 95.0677 94.4218 L 91.6672,93.2798 L 83.7585,96.6717 L 79.8126,95.5382 L 81.7898,98.6489 L 91.6672,98.6489 L 87.4401,97.5239 L 95.0677,94.4218z"/>
    <path style="fill: #ffffff" d="M 80.6648 88.1834 L 84.0482,87.067 L 92.2382,90.1776 L 95.9114,89.3254 L 93.9427,92.1463 L 84.3209,92.1463 L 88.2839,91.2941 L 80.6648,88.1834z"/>
    <path style="fill: #ffffff" d="M 111.167 97.7967 L 107.783,98.9387 L 99.8828,95.5382 L 95.9114,96.6717 L 97.8886,93.8508 L 107.783,93.8508 L 103.565,94.703 L 111.167,97.7967z"/>
    <path style="fill: none; fill-opacity:0; stroke-width: 0.02; stroke: #aae6ff" d="M 72.4663 92.7173 L 72.4663,126.636"/>
    <path style="fill: none; fill-opacity:0; stroke-width: 0.02; stroke: #aae6ff" d="M 118.811 92.7173 L 118.811,126.636"/>
    <path style="fill: #000000" d="M 82.9233 101.76 L 82.9233,105.441 L 91.1048,105.441 L 95.3489,113.077 L 99.8828,105.441 L 108.056,105.441 L 108.056,101.76 L 113.152,106.276 L 108.056,110.802 L 108.056,107.7 L 102.133,107.7 L 97.3261,116.179 L 102.133,124.941 L 108.056,124.941 L 108.056,121.83 L 113.152,126.083 L 108.056,130.599 L 108.056,127.207 L 99.8828,127.207 L 95.3489,119.299 L 91.1048,127.489 L 82.9233,127.489 L 82.9233,130.599 L 77.8354,126.083 L 82.9233,121.83 L 82.9233,124.941 L 88.5651,124.941 L 93.6615,116.179 L 88.5651,107.7 L 82.9233,107.7 L 82.9233,110.529 L 77.8354,106.276 L 82.9233,101.76z"/>
    <path style="fill: #ffffff" d="M 83.2045 102.049 L 83.2045,105.731 L 91.3945,105.731 L 95.6387,113.35 L 100.164,105.731 L 108.337,105.731 L 108.337,102.049 L 113.433,106.566 L 108.337,111.1 L 108.337,107.981 L 102.423,107.981 L 97.6074,116.469 L 102.423,125.222 L 108.337,125.222 L 108.337,122.111 L 113.433,126.347 L 108.337,130.881 L 108.337,127.489 L 100.164,127.489 L 95.6387,119.571 L 91.3945,127.778 L 83.2045,127.778 L 83.2045,130.881 L 78.1166,126.347 L 83.2045,122.111 L 83.2045,125.222 L 88.8634,125.222 L 93.9427,116.469 L 88.8634,107.981 L 83.2045,107.981 L 83.2045,110.802 L 78.1166,106.566 L 83.2045,102.049z"/>
  </g>
  <g>
    <path style="fill: #0078aa" d="M 432.319 126.983 L 432.285,126.582 L 432.2,126.173 L 432.055,125.764 L 431.842,125.372 L 431.578,124.963 L 431.254,124.58 L 430.879,124.187 L 430.427,123.813 L 429.941,123.446 L 429.396,123.088 L 428.791,122.722 L 428.143,122.389 L 427.444,122.057 L 426.703,121.742 L 425.902,121.443 L 425.075,121.154 L 424.197,120.881 L 423.277,120.625 L 422.331,120.378 L 421.342,120.156 L 420.328,119.952 L 419.271,119.764 L 418.197,119.577 L 417.107,119.423 L 415.99,119.304 L 414.857,119.193 L 413.698,119.1 L 412.547,119.031 L 411.379,118.98 L 410.186,118.938 L 409.01,118.938 L 409.01,118.938 L 407.834,118.938 L 406.65,118.98 L 405.482,119.031 L 404.323,119.1 L 403.172,119.193 L 402.039,119.304 L 400.914,119.423 L 399.823,119.577 L 398.749,119.764 L 397.701,119.952 L 396.678,120.156 L 395.69,120.378 L 394.744,120.625 L 393.823,120.881 L 392.954,121.154 L 392.119,121.443 L 391.326,121.742 L 390.576,122.057 L 389.877,122.389 L 389.23,122.722 L 388.625,123.088 L 388.079,123.446 L 387.593,123.813 L 387.15,124.187 L 386.775,124.58 L 386.451,124.963 L 386.179,125.372 L 385.974,125.764 L 385.821,126.173 L 385.736,126.582 L 385.71,126.983 L 385.71,126.983 L 385.736,127.4 L 385.821,127.81 L 385.974,128.21 L 386.179,128.611 L 386.451,129.011 L 386.775,129.403 L 387.15,129.787 L 387.593,130.17 L 388.079,130.537 L 388.625,130.895 L 389.23,131.244 L 389.877,131.593 L 390.576,131.926 L 391.326,132.233 L 392.119,132.531 L 392.954,132.829 L 393.823,133.102 L 394.744,133.358 L 395.69,133.588 L 396.678,133.826 L 397.701,134.022 L 398.749,134.218 L 399.823,134.389 L 400.914,134.542 L 402.039,134.662 L 403.172,134.789 L 404.323,134.866 L 405.482,134.943 L 406.65,135.002 L 407.834,135.028 L 409.01,135.037 L 409.01,135.037 L 410.186,135.028 L 411.379,135.002 L 412.547,134.943 L 413.698,134.866 L 414.857,134.789 L 415.99,134.662 L 417.107,134.542 L 418.197,134.389 L 419.271,134.218 L 420.328,134.022 L 421.342,133.826 L 422.331,133.588 L 423.277,133.358 L 424.197,133.102 L 425.075,132.829 L 425.902,132.531 L 426.703,132.233 L 427.444,131.926 L 428.143,131.593 L 428.791,131.244 L 429.396,130.895 L 429.941,130.537 L 430.427,130.17 L 430.879,129.787 L 431.254,129.403 L 431.578,129.011 L 431.842,128.611 L 432.055,128.21 L 432.2,127.81 L 432.285,127.4 L 432.319,126.983z"/>
    <path style="fill: none; fill-opacity:0; stroke-width: 0.02; stroke: #aae6ff" d="M 432.055 126.855 L 432.012,126.454 L 431.944,126.054 L 431.782,125.653 L 431.578,125.27 L 431.305,124.861 L 430.99,124.477 L 430.615,124.111 L 430.171,123.736 L 429.677,123.361 L 429.14,123.011 L 428.544,122.671 L 427.896,122.338 L 427.206,122.006 L 426.464,121.699 L 425.672,121.392 L 424.836,121.119 L 423.967,120.847 L 423.055,120.591 L 422.118,120.361 L 421.138,120.122 L 420.115,119.935 L 419.084,119.739 L 418.018,119.577 L 416.936,119.415 L 415.828,119.296 L 414.686,119.193 L 413.553,119.1 L 412.394,119.031 L 411.235,118.98 L 410.05,118.938 L 408.882,118.938 L 408.882,118.938 L 407.706,118.938 L 406.53,118.98 L 405.363,119.031 L 404.212,119.1 L 403.07,119.193 L 401.937,119.296 L 400.829,119.415 L 399.729,119.577 L 398.664,119.739 L 397.641,119.935 L 396.619,120.122 L 395.647,120.361 L 394.71,120.591 L 393.798,120.847 L 392.92,121.119 L 392.093,121.392 L 391.301,121.699 L 390.559,122.006 L 389.86,122.338 L 389.221,122.671 L 388.625,123.011 L 388.079,123.361 L 387.585,123.736 L 387.15,124.111 L 386.775,124.477 L 386.451,124.861 L 386.179,125.27 L 385.974,125.653 L 385.829,126.054 L 385.744,126.454 L 385.736,126.548"/>
    <path style="fill: none; fill-opacity:0; stroke-width: 0.02; stroke: #aae6ff" d="M 385.736 127.153 L 385.744,127.256 L 385.829,127.656 L 385.974,128.048 L 386.179,128.449 L 386.451,128.841 L 386.775,129.224 L 387.15,129.599 L 387.585,129.966 L 388.079,130.332 L 388.625,130.707 L 389.221,131.031 L 389.86,131.38 L 390.559,131.704 L 391.301,132.02 L 392.093,132.309 L 392.92,132.599 L 393.798,132.863 L 394.71,133.11 L 395.647,133.349 L 396.619,133.579 L 397.641,133.775 L 398.664,133.963 L 399.729,134.125 L 400.829,134.278 L 401.937,134.397 L 403.07,134.517 L 404.212,134.602 L 405.363,134.662 L 406.53,134.73 L 407.706,134.764 L 408.882,134.764 L 408.882,134.764 L 410.05,134.764 L 411.235,134.73 L 412.394,134.662 L 413.553,134.602 L 414.686,134.517 L 415.828,134.397 L 416.936,134.278 L 418.018,134.125 L 419.084,133.963 L 420.115,133.775 L 421.138,133.579 L 422.118,133.349 L 423.055,133.11 L 423.967,132.863 L 424.836,132.599 L 425.672,132.309 L 426.464,132.02 L 427.206,131.704 L 427.896,131.38 L 428.544,131.031 L 429.14,130.707 L 429.677,130.332 L 430.171,129.966 L 430.615,129.599 L 430.99,129.224 L 431.305,128.841 L 431.578,128.449 L 431.782,128.048 L 431.944,127.656 L 432.012,127.256 L 432.055,126.855"/>
    <path style="fill: #0078aa" d="M 385.71 93.2086 L 385.71,127.136 L 432.055,127.136 L 432.055,93.2086 L 385.71,93.2086z"/>
    <path style="fill: #00b4ff" d="M 432.319 93.0551 L 432.285,92.6546 L 432.2,92.2455 L 432.055,91.8364 L 431.842,91.4444 L 431.578,91.0353 L 431.254,90.6518 L 430.879,90.2683 L 430.427,89.8848 L 429.941,89.5184 L 429.396,89.1604 L 428.791,88.7939 L 428.143,88.4616 L 427.444,88.1292 L 426.703,87.8224 L 425.902,87.5071 L 425.075,87.2258 L 424.197,86.9531 L 423.277,86.6974 L 422.331,86.4503 L 421.342,86.2287 L 420.328,86.0156 L 419.271,85.8367 L 418.197,85.6492 L 417.107,85.5128 L 415.99,85.3765 L 414.857,85.2657 L 413.698,85.1719 L 412.547,85.1123 L 411.379,85.0526 L 410.186,85.01 L 409.01,85.01 L 409.01,85.01 L 407.834,85.01 L 406.65,85.0526 L 405.482,85.1123 L 404.323,85.1719 L 403.172,85.2657 L 402.039,85.3765 L 400.914,85.5128 L 399.823,85.6492 L 398.749,85.8367 L 397.701,86.0156 L 396.678,86.2287 L 395.69,86.4503 L 394.744,86.6974 L 393.823,86.9531 L 392.954,87.2258 L 392.119,87.5071 L 391.326,87.8224 L 390.576,88.1292 L 389.877,88.4616 L 389.23,88.7939 L 388.625,89.1604 L 388.079,89.5184 L 387.593,89.8848 L 387.15,90.2683 L 386.775,90.6518 L 386.451,91.0353 L 386.179,91.4444 L 385.974,91.8364 L 385.821,92.2455 L 385.736,92.6546 L 385.71,93.0551 L 385.71,93.0551 L 385.736,93.4727 L 385.821,93.8818 L 385.974,94.2739 L 386.179,94.6829 L 386.451,95.075 L 386.775,95.4755 L 387.15,95.8675 L 387.593,96.2425 L 388.079,96.609 L 388.625,96.9669 L 389.23,97.3164 L 389.877,97.6658 L 390.576,97.9981 L 391.326,98.3135 L 392.119,98.6032 L 392.954,98.9015 L 393.823,99.1742 L 394.744,99.4299 L 395.69,99.6685 L 396.678,99.8986 L 397.701,100.095 L 398.749,100.291 L 399.823,100.461 L 400.914,100.615 L 402.039,100.751 L 403.172,100.862 L 404.323,100.938 L 405.482,101.024 L 406.65,101.075 L 407.834,101.1 L 409.01,101.117 L 409.01,101.117 L 410.186,101.1 L 411.379,101.075 L 412.547,101.024 L 413.698,100.938 L 414.857,100.862 L 415.99,100.751 L 417.107,100.615 L 418.197,100.461 L 419.271,100.291 L 420.328,100.095 L 421.342,99.8986 L 422.331,99.6685 L 423.277,99.4299 L 424.197,99.1742 L 425.075,98.9015 L 425.902,98.6032 L 426.703,98.3135 L 427.444,97.9981 L 428.143,97.6658 L 428.791,97.3164 L 429.396,96.9669 L 429.941,96.609 L 430.427,96.2425 L 430.879,95.8675 L 431.254,95.4755 L 431.578,95.075 L 431.842,94.6829 L 432.055,94.2739 L 432.2,93.8818 L 432.285,93.4727 L 432.319,93.0551z"/>
    <path style="fill: none; fill-opacity:0; stroke-width: 0.02; stroke: #aae6ff" d="M 432.055 92.9273 L 432.012,92.5182 L 431.944,92.1262 L 431.782,91.7257 L 431.578,91.3421 L 431.305,90.9331 L 430.99,90.5496 L 430.615,90.1746 L 430.171,89.7996 L 429.677,89.4417 L 429.14,89.0837 L 428.544,88.7343 L 427.896,88.4104 L 427.206,88.0781 L 426.464,87.7713 L 425.672,87.4559 L 424.836,87.1917 L 423.967,86.919 L 423.055,86.6633 L 422.118,86.4332 L 421.138,86.2031 L 420.115,86.0071 L 419.084,85.8111 L 418.018,85.6492 L 416.936,85.4958 L 415.828,85.3765 L 414.686,85.2657 L 413.553,85.1634 L 412.394,85.1123 L 411.235,85.0526 L 410.05,85.01 L 408.882,85.01"/>
    <path style="fill: none; fill-opacity:0; stroke-width: 0.02; stroke: #aae6ff" d="M 408.882 85.01 L 407.706,85.01 L 406.53,85.0526 L 405.363,85.1123 L 404.212,85.1634 L 403.07,85.2657 L 401.937,85.3765 L 400.829,85.4958 L 399.729,85.6492 L 398.664,85.8111 L 397.641,86.0071 L 396.619,86.2031 L 395.647,86.4332 L 394.71,86.6633 L 393.798,86.919 L 392.92,87.1917 L 392.093,87.4559 L 391.301,87.7713 L 390.559,88.0781 L 389.86,88.4104 L 389.221,88.7343 L 388.625,89.0837 L 388.079,89.4417 L 387.585,89.7996 L 387.15,90.1746 L 386.775,90.5496 L 386.451,90.9331 L 386.179,91.3421 L 385.974,91.7257 L 385.829,92.1262 L 385.744,92.5182 L 385.736,92.6205"/>
    <path style="fill: none; fill-opacity:0; stroke-width: 0.02; stroke: #aae6ff" d="M 385.736 93.2341 L 385.744,93.3279 L 385.829,93.7284 L 385.974,94.1119 L 386.179,94.521 L 386.451,94.913 L 386.775,95.2965 L 387.15,95.6715 L 387.585,96.038 L 388.079,96.4045 L 388.625,96.7794 L 389.221,97.1033 L 389.86,97.4527 L 390.559,97.7766 L 391.301,98.0919 L 392.093,98.3817 L 392.92,98.6714 L 393.798,98.9356 L 394.71,99.1828 L 395.647,99.4214 L 396.619,99.6515 L 397.641,99.856 L 398.664,100.026 L 399.729,100.197 L 400.829,100.35 L 401.937,100.487 L 403.07,100.589 L 404.212,100.674 L 405.363,100.751 L 406.53,100.802 L 407.706,100.828 L 408.882,100.836 L 408.882,100.836 L 410.05,100.828 L 411.235,100.802 L 412.394,100.751 L 413.553,100.674 L 414.686,100.589 L 415.828,100.487 L 416.936,100.35 L 418.018,100.197 L 419.084,100.026 L 420.115,99.856 L 421.138,99.6515 L 422.118,99.4214 L 423.055,99.1828 L 423.967,98.9356 L 424.836,98.6714 L 425.672,98.3817 L 426.464,98.0919 L 427.206,97.7766 L 427.896,97.4527 L 428.544,97.1033 L 429.14,96.7794 L 429.677,96.4045 L 430.171,96.038 L 430.615,95.6715 L 430.99,95.2965 L 431.305,94.913 L 431.578,94.521 L 431.782,94.1119 L 431.944,93.7284 L 432.012,93.3279 L 432.055,92.9273"/>
    <path style="fill: #000000" d="M 409.445 91.2314 L 412.837,92.3563 L 421.027,88.9559 L 424.7,90.0979 L 422.714,87.277 L 413.127,87.277 L 417.072,88.1207 L 409.445,91.2314z"/>
    <path style="fill: #000000" d="M 408.022 94.3335 L 404.638,93.2086 L 396.729,96.609 L 392.784,95.4585 L 394.761,98.5862 L 404.638,98.5862 L 400.411,97.4527 L 408.022,94.3335z"/>
    <path style="fill: #000000" d="M 393.627 88.1207 L 397.002,86.9787 L 405.201,90.0979 L 408.882,89.2542 L 406.905,92.0751 L 397.292,92.0751 L 401.238,91.2314 L 393.627,88.1207z"/>
    <path style="fill: #000000" d="M 424.129 97.7339 L 420.737,98.8589 L 412.837,95.4585 L 408.882,96.609 L 410.851,93.771 L 420.737,93.771 L 416.51,94.6318 L 424.129,97.7339z"/>
    <path style="fill: #ffffff" d="M 409.726 91.5041 L 413.127,92.629 L 421.3,89.2542 L 424.981,90.3876 L 423.004,87.5582 L 413.408,87.5582 L 417.354,88.3934 L 409.726,91.5041z"/>
    <path style="fill: #ffffff" d="M 408.311 94.6318 L 404.911,93.4898 L 397.002,96.8817 L 393.056,95.7482 L 395.034,98.8589 L 404.911,98.8589 L 400.684,97.7339 L 408.311,94.6318z"/>
    <path style="fill: #ffffff" d="M 393.909 88.3934 L 397.292,87.277 L 405.482,90.3876 L 409.155,89.5354 L 407.186,92.3563 L 397.565,92.3563 L 401.528,91.5041 L 393.909,88.3934z"/>
    <path style="fill: #ffffff" d="M 424.41 98.0067 L 421.027,99.1487 L 413.127,95.7482 L 409.155,96.8817 L 411.132,94.0608 L 421.027,94.0608 L 416.808,94.913 L 424.41,98.0067z"/>
    <path style="fill: none; fill-opacity:0; stroke-width: 0.02; stroke: #aae6ff" d="M 385.71 92.9273 L 385.71,126.846"/>
    <path style="fill: none; fill-opacity:0; stroke-width: 0.02; stroke: #aae6ff" d="M 432.055 92.9273 L 432.055,126.846"/>
    <path style="fill: #000000" d="M 396.167 101.97 L 396.167,105.651 L 404.348,105.651 L 408.593,113.287 L 413.127,105.651 L 421.3,105.651 L 421.3,101.97 L 426.396,106.486 L 421.3,111.012 L 421.3,107.91 L 415.376,107.91 L 410.57,116.389 L 415.376,125.151 L 421.3,125.151 L 421.3,122.04 L 426.396,126.293 L 421.3,130.809 L 421.3,127.417 L 413.127,127.417 L 408.593,119.509 L 404.348,127.699 L 396.167,127.699 L 396.167,130.809 L 391.079,126.293 L 396.167,122.04 L 396.167,125.151 L 401.809,125.151 L 406.905,116.389 L 401.809,107.91 L 396.167,107.91 L 396.167,110.739 L 391.079,106.486 L 396.167,101.97z"/>
    <path style="fill: #ffffff" d="M 396.448 102.259 L 396.448,105.941 L 404.638,105.941 L 408.882,113.56 L 413.408,105.941 L 421.581,105.941 L 421.581,102.259 L 426.677,106.776 L 421.581,111.31 L 421.581,108.191 L 415.666,108.191 L 410.851,116.679 L 415.666,125.432 L 421.581,125.432 L 421.581,122.321 L 426.677,126.557 L 421.581,131.091 L 421.581,127.699 L 413.408,127.699 L 408.882,119.781 L 404.638,127.988 L 396.448,127.988 L 396.448,131.091 L 391.36,126.557 L 396.448,122.321 L 396.448,125.432 L 402.107,125.432 L 407.186,116.679 L 402.107,108.191 L 396.448,108.191 L 396.448,111.012 L 391.36,106.776 L 396.448,102.259z"/>
  </g>
  <g>
    <path style="fill: #0078aa" d="M 274.919 127.183 L 274.885,126.782 L 274.8,126.373 L 274.655,125.964 L 274.442,125.572 L 274.178,125.163 L 273.854,124.78 L 273.479,124.387 L 273.027,124.013 L 272.541,123.646 L 271.996,123.288 L 271.391,122.922 L 270.743,122.589 L 270.044,122.257 L 269.303,121.942 L 268.502,121.643 L 267.675,121.354 L 266.797,121.081 L 265.877,120.825 L 264.931,120.578 L 263.942,120.356 L 262.928,120.152 L 261.871,119.964 L 260.797,119.777 L 259.707,119.623 L 258.59,119.504 L 257.457,119.393 L 256.298,119.3 L 255.147,119.231 L 253.979,119.18 L 252.786,119.138 L 251.61,119.138 L 251.61,119.138 L 250.434,119.138 L 249.25,119.18 L 248.082,119.231 L 246.923,119.3 L 245.772,119.393 L 244.639,119.504 L 243.514,119.623 L 242.423,119.777 L 241.349,119.964 L 240.301,120.152 L 239.278,120.356 L 238.29,120.578 L 237.344,120.825 L 236.423,121.081 L 235.554,121.354 L 234.719,121.643 L 233.926,121.942 L 233.176,122.257 L 232.477,122.589 L 231.83,122.922 L 231.225,123.288 L 230.679,123.646 L 230.193,124.013 L 229.75,124.387 L 229.375,124.78 L 229.051,125.163 L 228.779,125.572 L 228.574,125.964 L 228.421,126.373 L 228.336,126.782 L 228.31,127.183 L 228.31,127.183 L 228.336,127.6 L 228.421,128.01 L 228.574,128.41 L 228.779,128.811 L 229.051,129.211 L 229.375,129.603 L 229.75,129.987 L 230.193,130.37 L 230.679,130.737 L 231.225,131.095 L 231.83,131.444 L 232.477,131.793 L 233.176,132.126 L 233.926,132.433 L 234.719,132.731 L 235.554,133.029 L 236.423,133.302 L 237.344,133.558 L 238.29,133.788 L 239.278,134.026 L 240.301,134.222 L 241.349,134.418 L 242.423,134.589 L 243.514,134.742 L 244.639,134.862 L 245.772,134.989 L 246.923,135.066 L 248.082,135.143 L 249.25,135.202 L 250.434,135.228 L 251.61,135.237 L 251.61,135.237 L 252.786,135.228 L 253.979,135.202 L 255.147,135.143 L 256.298,135.066 L 257.457,134.989 L 258.59,134.862 L 259.707,134.742 L 260.797,134.589 L 261.871,134.418 L 262.928,134.222 L 263.942,134.026 L 264.931,133.788 L 265.877,133.558 L 266.797,133.302 L 267.675,133.029 L 268.502,132.731 L 269.303,132.433 L 270.044,132.126 L 270.743,131.793 L 271.391,131.444 L 271.996,131.095 L 272.541,130.737 L 273.027,130.37 L 273.479,129.987 L 273.854,129.603 L 274.178,129.211 L 274.442,128.811 L 274.655,128.41 L 274.8,128.01 L 274.885,127.6 L 274.919,127.183z"/>
    <path style="fill: none; fill-opacity:0; stroke-width: 0.02; stroke: #aae6ff" d="M 274.655 127.055 L 274.612,126.654 L 274.544,126.254 L 274.382,125.853 L 274.178,125.47 L 273.905,125.061 L 273.59,124.677 L 273.215,124.311 L 272.771,123.936 L 272.277,123.561 L 271.74,123.211 L 271.144,122.871 L 270.496,122.538 L 269.806,122.206 L 269.064,121.899 L 268.272,121.592 L 267.436,121.319 L 266.567,121.047 L 265.655,120.791 L 264.718,120.561 L 263.738,120.322 L 262.715,120.135 L 261.684,119.939 L 260.618,119.777 L 259.536,119.615 L 258.428,119.496 L 257.286,119.393 L 256.153,119.3 L 254.994,119.231 L 253.835,119.18 L 252.65,119.138 L 251.482,119.138 L 251.482,119.138 L 250.306,119.138 L 249.13,119.18 L 247.963,119.231 L 246.812,119.3 L 245.67,119.393 L 244.537,119.496 L 243.429,119.615 L 242.329,119.777 L 241.264,119.939 L 240.241,120.135 L 239.219,120.322 L 238.247,120.561 L 237.31,120.791 L 236.398,121.047 L 235.52,121.319 L 234.693,121.592 L 233.901,121.899 L 233.159,122.206 L 232.46,122.538 L 231.821,122.871 L 231.225,123.211 L 230.679,123.561 L 230.185,123.936 L 229.75,124.311 L 229.375,124.677 L 229.051,125.061 L 228.779,125.47 L 228.574,125.853 L 228.429,126.254 L 228.344,126.654 L 228.336,126.748"/>
    <path style="fill: none; fill-opacity:0; stroke-width: 0.02; stroke: #aae6ff" d="M 228.336 127.353 L 228.344,127.456 L 228.429,127.856 L 228.574,128.248 L 228.779,128.649 L 229.051,129.041 L 229.375,129.424 L 229.75,129.799 L 230.185,130.166 L 230.679,130.532 L 231.225,130.907 L 231.821,131.231 L 232.46,131.58 L 233.159,131.904 L 233.901,132.22 L 234.693,132.509 L 235.52,132.799 L 236.398,133.063 L 237.31,133.31 L 238.247,133.549 L 239.219,133.779 L 240.241,133.975 L 241.264,134.163 L 242.329,134.325 L 243.429,134.478 L 244.537,134.597 L 245.67,134.717 L 246.812,134.802 L 247.963,134.862 L 249.13,134.93 L 250.306,134.964 L 251.482,134.964 L 251.482,134.964 L 252.65,134.964 L 253.835,134.93 L 254.994,134.862 L 256.153,134.802 L 257.286,134.717 L 258.428,134.597 L 259.536,134.478 L 260.618,134.325 L 261.684,134.163 L 262.715,133.975 L 263.738,133.779 L 264.718,133.549 L 265.655,133.31 L 266.567,133.063 L 267.436,132.799 L 268.272,132.509 L 269.064,132.22 L 269.806,131.904 L 270.496,131.58 L 271.144,131.231 L 271.74,130.907 L 272.277,130.532 L 272.771,130.166 L 273.215,129.799 L 273.59,129.424 L 273.905,129.041 L 274.178,128.649 L 274.382,128.248 L 274.544,127.856 L 274.612,127.456 L 274.655,127.055"/>
    <path style="fill: #0078aa" d="M 228.31 93.4086 L 228.31,127.336 L 274.655,127.336 L 274.655,93.4086 L 228.31,93.4086z"/>
    <path style="fill: #00b4ff" d="M 274.919 93.2551 L 274.885,92.8546 L 274.8,92.4455 L 274.655,92.0364 L 274.442,91.6444 L 274.178,91.2353 L 273.854,90.8518 L 273.479,90.4683 L 273.027,90.0848 L 272.541,89.7184 L 271.996,89.3604 L 271.391,88.9939 L 270.743,88.6616 L 270.044,88.3292 L 269.303,88.0224 L 268.502,87.7071 L 267.675,87.4258 L 266.797,87.1531 L 265.877,86.8974 L 264.931,86.6503 L 263.942,86.4287 L 262.928,86.2156 L 261.871,86.0367 L 260.797,85.8492 L 259.707,85.7128 L 258.59,85.5765 L 257.457,85.4657 L 256.298,85.3719 L 255.147,85.3123 L 253.979,85.2526 L 252.786,85.21 L 251.61,85.21 L 251.61,85.21 L 250.434,85.21 L 249.25,85.2526 L 248.082,85.3123 L 246.923,85.3719 L 245.772,85.4657 L 244.639,85.5765 L 243.514,85.7128 L 242.423,85.8492 L 241.349,86.0367 L 240.301,86.2156 L 239.278,86.4287 L 238.29,86.6503 L 237.344,86.8974 L 236.423,87.1531 L 235.554,87.4258 L 234.719,87.7071 L 233.926,88.0224 L 233.176,88.3292 L 232.477,88.6616 L 231.83,88.9939 L 231.225,89.3604 L 230.679,89.7184 L 230.193,90.0848 L 229.75,90.4683 L 229.375,90.8518 L 229.051,91.2353 L 228.779,91.6444 L 228.574,92.0364 L 228.421,92.4455 L 228.336,92.8546 L 228.31,93.2551 L 228.31,93.2551 L 228.336,93.6727 L 228.421,94.0818 L 228.574,94.4739 L 228.779,94.8829 L 229.051,95.275 L 229.375,95.6755 L 229.75,96.0675 L 230.193,96.4425 L 230.679,96.809 L 231.225,97.1669 L 231.83,97.5164 L 232.477,97.8658 L 233.176,98.1981 L 233.926,98.5135 L 234.719,98.8032 L 235.554,99.1015 L 236.423,99.3742 L 237.344,99.6299 L 238.29,99.8685 L 239.278,100.099 L 240.301,100.295 L 241.349,100.491 L 242.423,100.661 L 243.514,100.815 L 244.639,100.951 L 245.772,101.062 L 246.923,101.138 L 248.082,101.224 L 249.25,101.275 L 250.434,101.3 L 251.61,101.317 L 251.61,101.317 L 252.786,101.3 L 253.979,101.275 L 255.147,101.224 L 256.298,101.138 L 257.457,101.062 L 258.59,100.951 L 259.707,100.815 L 260.797,100.661 L 261.871,100.491 L 262.928,100.295 L 263.942,100.099 L 264.931,99.8685 L 265.877,99.6299 L 266.797,99.3742 L 267.675,99.1015 L 268.502,98.8032 L 269.303,98.5135 L 270.044,98.1981 L 270.743,97.8658 L 271.391,97.5164 L 271.996,97.1669 L 272.541,96.809 L 273.027,96.4425 L 273.479,96.0675 L 273.854,95.6755 L 274.178,95.275 L 274.442,94.8829 L 274.655,94.4739 L 274.8,94.0818 L 274.885,93.6727 L 274.919,93.2551z"/>
    <path style="fill: none; fill-opacity:0; stroke-width: 0.02; stroke: #aae6ff" d="M 274.655 93.1273 L 274.612,92.7182 L 274.544,92.3262 L 274.382,91.9257 L 274.178,91.5421 L 273.905,91.1331 L 273.59,90.7496 L 273.215,90.3746 L 272.771,89.9996 L 272.277,89.6417 L 271.74,89.2837 L 271.144,88.9343 L 270.496,88.6104 L 269.806,88.2781 L 269.064,87.9713 L 268.272,87.6559 L 267.436,87.3917 L 266.567,87.119 L 265.655,86.8633 L 264.718,86.6332 L 263.738,86.4031 L 262.715,86.2071 L 261.684,86.0111 L 260.618,85.8492 L 259.536,85.6958 L 258.428,85.5765 L 257.286,85.4657 L 256.153,85.3634 L 254.994,85.3123 L 253.835,85.2526 L 252.65,85.21 L 251.482,85.21"/>
    <path style="fill: none; fill-opacity:0; stroke-width: 0.02; stroke: #aae6ff" d="M 251.482 85.21 L 250.306,85.21 L 249.13,85.2526 L 247.963,85.3123 L 246.812,85.3634 L 245.67,85.4657 L 244.537,85.5765 L 243.429,85.6958 L 242.329,85.8492 L 241.264,86.0111 L 240.241,86.2071 L 239.219,86.4031 L 238.247,86.6332 L 237.31,86.8633 L 236.398,87.119 L 235.52,87.3917 L 234.693,87.6559 L 233.901,87.9713 L 233.159,88.2781 L 232.46,88.6104 L 231.821,88.9343 L 231.225,89.2837 L 230.679,89.6417 L 230.185,89.9996 L 229.75,90.3746 L 229.375,90.7496 L 229.051,91.1331 L 228.779,91.5421 L 228.574,91.9257 L 228.429,92.3262 L 228.344,92.7182 L 228.336,92.8205"/>
    <path style="fill: none; fill-opacity:0; stroke-width: 0.02; stroke: #aae6ff" d="M 228.336 93.4341 L 228.344,93.5279 L 228.429,93.9284 L 228.574,94.3119 L 228.779,94.721 L 229.051,95.113 L 229.375,95.4965 L 229.75,95.8715 L 230.185,96.238 L 230.679,96.6045 L 231.225,96.9794 L 231.821,97.3033 L 232.46,97.6527 L 233.159,97.9766 L 233.901,98.2919 L 234.693,98.5817 L 235.52,98.8714 L 236.398,99.1356 L 237.31,99.3828 L 238.247,99.6214 L 239.219,99.8515 L 240.241,100.056 L 241.264,100.226 L 242.329,100.397 L 243.429,100.55 L 244.537,100.687 L 245.67,100.789 L 246.812,100.874 L 247.963,100.951 L 249.13,101.002 L 250.306,101.028 L 251.482,101.036 L 251.482,101.036 L 252.65,101.028 L 253.835,101.002 L 254.994,100.951 L 256.153,100.874 L 257.286,100.789 L 258.428,100.687 L 259.536,100.55 L 260.618,100.397 L 261.684,100.226 L 262.715,100.056 L 263.738,99.8515 L 264.718,99.6214 L 265.655,99.3828 L 266.567,99.1356 L 267.436,98.8714 L 268.272,98.5817 L 269.064,98.2919 L 269.806,97.9766 L 270.496,97.6527 L 271.144,97.3033 L 271.74,96.9794 L 272.277,96.6045 L 272.771,96.238 L 273.215,95.8715 L 273.59,95.4965 L 273.905,95.113 L 274.178,94.721 L 274.382,94.3119 L 274.544,93.9284 L 274.612,93.5279 L 274.655,93.1273"/>
    <path style="fill: #000000" d="M 252.045 91.4314 L 255.437,92.5563 L 263.627,89.1559 L 267.3,90.2979 L 265.314,87.477 L 255.727,87.477 L 259.672,88.3207 L 252.045,91.4314z"/>
    <path style="fill: #000000" d="M 250.622 94.5335 L 247.238,93.4086 L 239.329,96.809 L 235.384,95.6585 L 237.361,98.7862 L 247.238,98.7862 L 243.011,97.6527 L 250.622,94.5335z"/>
    <path style="fill: #000000" d="M 236.227 88.3207 L 239.602,87.1787 L 247.801,90.2979 L 251.482,89.4542 L 249.505,92.2751 L 239.892,92.2751 L 243.838,91.4314 L 236.227,88.3207z"/>
    <path style="fill: #000000" d="M 266.729 97.9339 L 263.337,99.0589 L 255.437,95.6585 L 251.482,96.809 L 253.451,93.971 L 263.337,93.971 L 259.11,94.8318 L 266.729,97.9339z"/>
    <path style="fill: #ffffff" d="M 252.326 91.7041 L 255.727,92.829 L 263.9,89.4542 L 267.581,90.5876 L 265.604,87.7582 L 256.008,87.7582 L 259.954,88.5934 L 252.326,91.7041z"/>
    <path style="fill: #ffffff" d="M 250.911 94.8318 L 247.511,93.6898 L 239.602,97.0817 L 235.656,95.9482 L 237.634,99.0589 L 247.511,99.0589 L 243.284,97.9339 L 250.911,94.8318z"/>
    <path style="fill: #ffffff" d="M 236.509 88.5934 L 239.892,87.477 L 248.082,90.5876 L 251.755,89.7354 L 249.786,92.5563 L 240.165,92.5563 L 244.128,91.7041 L 236.509,88.5934z"/>
    <path style="fill: #ffffff" d="M 267.01 98.2067 L 263.627,99.3487 L 255.727,95.9482 L 251.755,97.0817 L 253.732,94.2608 L 263.627,94.2608 L 259.408,95.113 L 267.01,98.2067z"/>
    <path style="fill: none; fill-opacity:0; stroke-width: 0.02; stroke: #aae6ff" d="M 228.31 93.1273 L 228.31,127.046"/>
    <path style="fill: none; fill-opacity:0; stroke-width: 0.02; stroke: #aae6ff" d="M 274.655 93.1273 L 274.655,127.046"/>
    <path style="fill: #000000" d="M 238.767 102.17 L 238.767,105.851 L 246.948,105.851 L 251.193,113.487 L 255.727,105.851 L 263.9,105.851 L 263.9,102.17 L 268.996,106.686 L 263.9,111.212 L 263.9,108.11 L 257.976,108.11 L 253.17,116.589 L 257.976,125.351 L 263.9,125.351 L 263.9,122.24 L 268.996,126.493 L 263.9,131.009 L 263.9,127.617 L 255.727,127.617 L 251.193,119.709 L 246.948,127.899 L 238.767,127.899 L 238.767,131.009 L 233.679,126.493 L 238.767,122.24 L 238.767,125.351 L 244.409,125.351 L 249.505,116.589 L 244.409,108.11 L 238.767,108.11 L 238.767,110.939 L 233.679,106.686 L 238.767,102.17z"/>
    <path style="fill: #ffffff" d="M 239.048 102.459 L 239.048,106.141 L 247.238,106.141 L 251.482,113.76 L 256.008,106.141 L 264.181,106.141 L 264.181,102.459 L 269.277,106.976 L 264.181,111.51 L 264.181,108.391 L 258.266,108.391 L 253.451,116.879 L 258.266,125.632 L 264.181,125.632 L 264.181,122.521 L 269.277,126.757 L 264.181,131.291 L 264.181,127.899 L 256.008,127.899 L 251.482,119.981 L 247.238,128.188 L 239.048,128.188 L 239.048,131.291 L 233.96,126.757 L 239.048,122.521 L 239.048,125.632 L 244.707,125.632 L 249.786,116.879 L 244.707,108.391 L 239.048,108.391 L 239.048,111.212 L 233.96,106.976 L 239.048,102.459z"/>
  </g>
  <text style="fill: #000000;text-anchor:start;font-size:12.8;font-family:sanserif;font-style:normal;font-weight:700" x="77.1" y="75.8">
    <tspan x="77.1" y="75.8">LSR A</tspan>
  </text>
  <text style="fill: #000000;text-anchor:start;font-size:12.8;font-family:sanserif;font-style:normal;font-weight:700" x="233.7" y="74.9">
    <tspan x="233.7" y="74.9">LSR B</tspan>
  </text>
  <text style="fill: #000000;text-anchor:start;font-size:12.8;font-family:sanserif;font-style:normal;font-weight:700" x="389.3" y="74.1">
    <tspan x="389.3" y="74.1">LSR C</tspan>
    <tspan x="389.3" y="90.1"></tspan>
  </text>
  <line style="fill: none; fill-opacity:0; stroke-width: 2; stroke: #000000" x1="97.1" y1="139.8" x2="97.1" y2="337.8"/>
  <line style="fill: none; fill-opacity:0; stroke-width: 2; stroke: #000000" x1="253.1" y1="140.8" x2="253.1" y2="338.8"/>
  <line style="fill: none; fill-opacity:0; stroke-width: 2; stroke: #000000" x1="407.1" y1="139.8" x2="408.1" y2="335.8"/>
  <g>
    <rect style="fill: #ffffff" x="211.7" y="154" width="85.1" height="14.95"/>
    <text style="fill: #000000;text-anchor:start;font-size:12.7998;font-family:sanserif;font-style:normal;font-weight:normal" x="211.7" y="165.9">
      <tspan x="211.7" y="165.9">remove state</tspan>
    </text>
  </g>
  <g>
    <line style="fill: none; fill-opacity:0; stroke-width: 2; stroke: #000000" x1="252.1" y1="179.8" x2="399.364" y2="178.862"/>
    <polygon style="fill: #000000" points="406.864,178.814 396.896,183.878 399.364,178.862 396.832,173.878 "/>
    <polygon style="fill: none; fill-opacity:0; stroke-width: 2; stroke: #000000" points="406.864,178.814 396.896,183.878 399.364,178.862 396.832,173.878 "/>
  </g>
  <g>
    <rect style="fill: #ffffff" x="296.1" y="172.9" width="65.85" height="14.95"/>
    <text style="fill: #000000;text-anchor:start;font-size:12.8;font-family:sanserif;font-style:italic;font-weight:normal" x="296.1" y="184.8">
      <tspan x="296.1" y="184.8">[PathTear]</tspan>
    </text>
  </g>
  <g>
    <line style="fill: none; fill-opacity:0; stroke-width: 2; stroke: #000000" x1="251.836" y1="177.515" x2="106.572" y2="178.452"/>
    <polygon style="fill: #000000" points="99.072,178.5 109.04,173.436 106.572,178.452 109.104,183.436 "/>
    <polygon style="fill: none; fill-opacity:0; stroke-width: 2; stroke: #000000" points="99.072,178.5 109.04,173.436 106.572,178.452 109.104,183.436 "/>
  </g>
  <g>
    <rect style="fill: #ffffff" x="152.436" y="171.715" width="57.25" height="14.95"/>
    <text style="fill: #000000;text-anchor:start;font-size:12.8;font-family:sanserif;font-style:italic;font-weight:normal" x="152.436" y="183.615">
      <tspan x="152.436" y="183.615">[PathErr]</tspan>
    </text>
  </g>
  <g>
    <rect style="fill: #ffffff" x="59.6" y="189.2" width="85.1" height="14.95"/>
    <text style="fill: #000000;text-anchor:start;font-size:12.7998;font-family:sanserif;font-style:normal;font-weight:normal" x="59.6" y="201.1">
      <tspan x="59.6" y="201.1">remove state</tspan>
    </text>
  </g>
  <g>
    <rect style="fill: #ffffff" x="368.2" y="192.4" width="85.1" height="14.95"/>
    <text style="fill: #000000;text-anchor:start;font-size:12.7998;font-family:sanserif;font-style:normal;font-weight:normal" x="368.2" y="204.3">
      <tspan x="368.2" y="204.3">remove state</tspan>
    </text>
  </g>
  <line style="fill: none; fill-opacity:0; stroke-width: 2; stroke-dasharray: 4; stroke: #000000" x1="62" y1="220" x2="440" y2="222"/>
  <g>
    <line style="fill: none; fill-opacity:0; stroke-width: 2; stroke: #000000" x1="253.1" y1="239.8" x2="106.836" y2="238.862"/>
    <polygon style="fill: #000000" points="99.336,238.814 109.368,233.879 106.836,238.862 109.304,243.878 "/>
    <polygon style="fill: none; fill-opacity:0; stroke-width: 2; stroke: #000000" points="99.336,238.814 109.368,233.879 106.836,238.862 109.304,243.878 "/>
  </g>
  <g>
    <rect style="fill: #ffffff" x="153.436" y="233.715" width="48.1" height="14.95"/>
    <text style="fill: #000000;text-anchor:start;font-size:12.8;font-family:sanserif;font-style:italic;font-weight:normal" x="153.436" y="245.615">
      <tspan x="153.436" y="245.615">[Notify]</tspan>
    </text>
  </g>
  <g>
    <line style="fill: none; fill-opacity:0; stroke-width: 2; stroke: #000000" x1="97.1" y1="274.8" x2="244.364" y2="273.862"/>
    <polygon style="fill: #000000" points="251.864,273.814 241.896,278.878 244.364,273.862 241.832,268.878 "/>
    <polygon style="fill: none; fill-opacity:0; stroke-width: 2; stroke: #000000" points="251.864,273.814 241.896,278.878 244.364,273.862 241.832,268.878 "/>
  </g>
  <g>
    <rect style="fill: #ffffff" x="141.1" y="267.9" width="65.85" height="14.95"/>
    <text style="fill: #000000;text-anchor:start;font-size:12.8;font-family:sanserif;font-style:italic;font-weight:normal" x="141.1" y="279.8">
      <tspan x="141.1" y="279.8">[PathTear]</tspan>
    </text>
  </g>
  <g>
    <line style="fill: none; fill-opacity:0; stroke-width: 2; stroke: #000000" x1="251.606" y1="309.358" x2="398.87" y2="308.42"/>
    <polygon style="fill: #000000" points="406.37,308.372 396.402,313.436 398.87,308.42 396.339,303.436 "/>
    <polygon style="fill: none; fill-opacity:0; stroke-width: 2; stroke: #000000" points="406.37,308.372 396.402,313.436 398.87,308.42 396.339,303.436 "/>
  </g>
  <g>
    <rect style="fill: #ffffff" x="295.606" y="302.458" width="65.85" height="14.95"/>
    <text style="fill: #000000;text-anchor:start;font-size:12.8;font-family:sanserif;font-style:italic;font-weight:normal" x="295.606" y="314.358">
      <tspan x="295.606" y="314.358">[PathTear]</tspan>
    </text>
  </g>
  <line style="fill: none; fill-opacity:0; stroke-width: 2; stroke-dasharray: 4; stroke: #000000" x1="60.6053" y1="145.205" x2="438.605" y2="147.205"/>
  <g>
    <rect style="fill: #ffffff" x="57.6" y="251.2" width="85.1" height="14.95"/>
    <text style="fill: #000000;text-anchor:start;font-size:12.7998;font-family:sanserif;font-style:normal;font-weight:normal" x="57.6" y="263.1">
      <tspan x="57.6" y="263.1">remove state</tspan>
    </text>
  </g>
  <g>
    <rect style="fill: #ffffff" x="367.8" y="315.6" width="85.1" height="14.95"/>
    <text style="fill: #000000;text-anchor:start;font-size:12.7998;font-family:sanserif;font-style:normal;font-weight:normal" x="367.8" y="327.5">
      <tspan x="367.8" y="327.5">remove state</tspan>
    </text>
  </g>
  <g>
    <rect style="fill: #ffffff" x="212.4" y="283.8" width="85.1" height="14.95"/>
    <text style="fill: #000000;text-anchor:start;font-size:12.7998;font-family:sanserif;font-style:normal;font-weight:normal" x="212.4" y="295.7">
      <tspan x="212.4" y="295.7">remove state</tspan>
    </text>
  </g>
</svg>
